<svg width="180" height="150" viewBox="0 0 180 150" fill="none" xmlns="http://www.w3.org/2000/svg">
<path d="M90.2403 74.5675C99.1778 83.6973 103.502 91.7699 112.824 91.7699C122.146 91.7699 129.642 84.2739 129.642 74.9519C129.642 65.63 122.146 58.0379 112.824 58.134C103.502 58.2301 100.043 65.0534 91.5857 74.5675C83.0326 83.0246 76.4976 91.7699 67.1757 91.7699C57.8537 91.7699 50.3577 84.2739 50.3577 74.9519C50.3577 65.63 57.8537 58.134 67.1757 58.134C76.4976 58.134 82.8404 67.0715 90.2403 74.5675Z" stroke="#63AB45" stroke-width="3.8441" stroke-miterlimit="10" stroke-linecap="round" stroke-linejoin="round"/>
<path opacity="0.05" d="M90.2403 74.5675C99.1778 83.6973 103.502 91.7699 112.824 91.7699C122.146 91.7699 129.642 84.2739 129.642 74.9519C129.642 65.63 122.146 58.0379 112.824 58.134C103.502 58.2301 100.043 65.0534 91.5857 74.5675C83.0326 83.0246 76.4976 91.7699 67.1757 91.7699C57.8537 91.7699 50.3577 84.2739 50.3577 74.9519C50.3577 65.63 57.8537 58.134 67.1757 58.134C76.4976 58.134 82.8404 67.0715 90.2403 74.5675Z" stroke="#959595" stroke-width="3.8441" stroke-miterlimit="10" stroke-linecap="round" stroke-linejoin="round"/>
</svg>
