<svg width="28" height="28" viewBox="0 0 28 28" fill="none" xmlns="http://www.w3.org/2000/svg">
<path d="M14.5776 15.862C13.5316 15.857 12.4925 15.6931 11.4958 15.3757C10.7135 15.114 10.0147 14.6494 9.47061 14.0294C8.92655 13.4093 8.55676 12.656 8.39897 11.8463C8.04757 10.1542 8.68831 8.365 10.1555 6.937C10.3131 6.78358 10.4769 6.63661 10.6464 6.49647C11.3865 5.87681 12.2663 5.44658 13.2099 5.24292C14.1534 5.03925 15.1323 5.06827 16.0621 5.32747C16.9538 5.61221 17.7356 6.16593 18.3001 6.91265C18.8646 7.65938 19.1841 8.5625 19.2149 9.49807C19.2833 10.6016 18.9236 11.6891 18.2106 12.5342C17.9409 12.8739 17.5828 13.1327 17.1756 13.2822C16.7685 13.4317 16.328 13.4661 15.9025 13.3817C15.727 13.3452 15.5605 13.2738 15.4132 13.1715C15.2659 13.0693 15.1408 12.9384 15.0452 12.7867C14.9595 12.6393 14.9044 12.4761 14.8832 12.3069C14.8621 12.1377 14.8753 11.966 14.922 11.802C15.3304 10.2592 15.7452 7.91467 15.7494 7.89133C15.7601 7.83097 15.7826 7.7733 15.8155 7.72161C15.8485 7.66992 15.8913 7.62523 15.9415 7.59008C15.9917 7.55494 16.0484 7.53003 16.1082 7.51678C16.1681 7.50353 16.2299 7.5022 16.2903 7.51287C16.3507 7.52353 16.4083 7.54598 16.46 7.57893C16.5117 7.61188 16.5564 7.65469 16.5916 7.70492C16.6267 7.75514 16.6516 7.8118 16.6649 7.87165C16.6781 7.9315 16.6794 7.99337 16.6688 8.05373C16.6515 8.15127 16.2427 10.4603 15.8246 12.0405C15.8098 12.0838 15.8041 12.1297 15.8077 12.1754C15.8113 12.2211 15.8242 12.2655 15.8456 12.306C15.9101 12.3952 16.0075 12.4551 16.1162 12.4726C16.3768 12.5161 16.6443 12.4876 16.8898 12.3901C17.1353 12.2927 17.3495 12.13 17.5092 11.9196C18.0629 11.2572 18.3403 10.4071 18.2839 9.54567C18.2616 8.80091 18.0094 8.08128 17.5619 7.48555C17.1144 6.88982 16.4935 6.44716 15.7844 6.21833C15.0033 6.00345 14.1815 5.98187 13.3901 6.15545C12.5987 6.32903 11.8615 6.69256 11.2419 7.21467C11.0921 7.33927 10.946 7.46947 10.806 7.60573C10.0808 8.31133 8.92211 9.77573 9.31271 11.6564C9.44166 12.3021 9.73707 12.9028 10.1697 13.3992C10.6023 13.8956 11.157 14.2703 11.779 14.4863C13.9677 15.1844 17.113 15.2689 18.7697 13.2085C18.8482 13.1152 18.9601 13.0563 19.0815 13.0444C19.2028 13.0325 19.324 13.0686 19.4191 13.145C19.5142 13.2213 19.5756 13.3319 19.5902 13.453C19.6048 13.574 19.5715 13.696 19.4972 13.7928C18.2718 15.3169 16.407 15.862 14.5776 15.862Z" fill="#63AB45"/>
<path d="M12.9815 13.4423C12.4881 13.4509 12.0069 13.2893 11.6188 12.9845C10.7233 12.2677 10.6985 11.0222 10.9496 10.1742C11.0345 9.89191 11.1479 9.61891 11.2889 9.35991C11.639 8.65342 12.1989 8.07236 12.8919 7.69625C13.3122 7.47821 13.7915 7.40115 14.259 7.47645C14.7265 7.55174 15.1573 7.7754 15.4879 8.11438C15.8247 8.48342 16.0784 8.9204 16.2318 9.39585C16.2704 9.51172 16.262 9.6381 16.2085 9.74787C16.1549 9.85763 16.0605 9.94203 15.9454 9.98296C15.8303 10.0239 15.7038 10.0181 15.593 9.96675C15.4821 9.91544 15.3958 9.82273 15.3526 9.70851C15.2419 9.35738 15.0581 9.0337 14.8131 8.75885C14.6206 8.56186 14.3689 8.43322 14.0964 8.39253C13.824 8.35184 13.5457 8.40132 13.3039 8.53345C12.7842 8.82656 12.3665 9.27159 12.1069 9.80885C11.9979 10.0102 11.9099 10.2223 11.8442 10.4416C11.6627 11.0548 11.7028 11.8556 12.2031 12.256C12.75 12.6956 13.6731 12.5099 14.1925 12.0619C14.5793 11.7134 14.9117 11.3088 15.1785 10.8616C15.2109 10.8096 15.2531 10.7643 15.3029 10.7286C15.3527 10.6928 15.4091 10.6672 15.4688 10.6533C15.5285 10.6393 15.5903 10.6372 15.6508 10.6471C15.7113 10.6571 15.7693 10.6788 15.8214 10.7111C15.8735 10.7435 15.9187 10.7857 15.9544 10.8355C15.9902 10.8853 16.0158 10.9417 16.0297 11.0014C16.0437 11.0611 16.0458 11.1229 16.0359 11.1834C16.0259 11.2439 16.0042 11.3019 15.9719 11.354C15.6556 11.8808 15.2618 12.357 14.8038 12.7666C14.2936 13.1971 13.6491 13.4361 12.9815 13.4423Z" fill="#63AB45"/>
<path d="M26.6 27.9999H1.4C1.02881 27.9996 0.672931 27.852 0.41046 27.5895C0.147989 27.327 0.000370725 26.9711 9.1256e-08 26.5999V9.33327C-5.53769e-05 9.24456 0.0251767 9.15767 0.072739 9.08278C0.120301 9.0079 0.188223 8.94812 0.268545 8.91046C0.348866 8.87279 0.438259 8.85881 0.526246 8.87013C0.614233 8.88146 0.697169 8.91763 0.765333 8.9744L12.2155 18.4907C12.7177 18.9057 13.3489 19.1327 14.0005 19.1327C14.652 19.1327 15.2832 18.9057 15.7855 18.4907L27.2347 8.97394C27.3029 8.91714 27.3858 8.88096 27.4739 8.86965C27.5619 8.85834 27.6513 8.87237 27.7317 8.91009C27.812 8.94781 27.8799 9.00766 27.9275 9.08261C27.975 9.15756 28.0001 9.24452 28 9.33327V26.5999C27.9996 26.9711 27.852 27.327 27.5895 27.5895C27.3271 27.852 26.9712 27.9996 26.6 27.9999ZM0.933333 10.3277V26.5999C0.933333 26.8575 1.1424 27.0666 1.4 27.0666H26.6C26.7238 27.0666 26.8425 27.0174 26.93 26.9299C27.0175 26.8424 27.0667 26.7237 27.0667 26.5999V10.3277L16.3809 19.2084C15.7111 19.762 14.8694 20.0649 14.0004 20.065C13.1314 20.0652 12.2896 19.7626 11.6195 19.2093L0.933333 10.3277Z" fill="#63AB45"/>
<path d="M0.467577 9.80013C0.368471 9.80033 0.271878 9.76896 0.191789 9.71059C0.1117 9.65221 0.0522748 9.56985 0.0221226 9.47545C-0.00802968 9.38104 -0.00734341 9.27948 0.024082 9.18549C0.0555073 9.0915 0.11604 9.00995 0.19691 8.95267L4.39691 5.97533C4.4979 5.90373 4.62321 5.87519 4.74525 5.89597C4.86729 5.91676 4.97608 5.98517 5.04768 6.08617C5.11928 6.18716 5.14782 6.31246 5.12704 6.4345C5.10625 6.55655 5.03784 6.66533 4.93684 6.73693L0.736844 9.71427C0.658205 9.7702 0.564079 9.80022 0.467577 9.80013ZM27.5333 9.80013C27.4368 9.80022 27.3427 9.7702 27.264 9.71427L23.064 6.73693C22.9641 6.66498 22.8967 6.55644 22.8764 6.43498C22.8562 6.31351 22.8847 6.18897 22.9559 6.08848C23.0271 5.988 23.1351 5.91971 23.2564 5.89852C23.3777 5.87733 23.5025 5.90494 23.6035 5.97533L27.8035 8.95267C27.8843 9.00991 27.9448 9.09137 27.9763 9.18527C28.0077 9.27917 28.0085 9.38064 27.9784 9.475C27.9484 9.56936 27.8891 9.65172 27.8092 9.71017C27.7293 9.76862 27.6323 9.80013 27.5333 9.80013ZM18.3124 3.2668C18.2158 3.26689 18.1215 3.23688 18.0427 3.18093L15.812 1.59893C15.3103 1.17484 14.6756 0.940344 14.0187 0.936335C13.3617 0.932327 12.7242 1.15906 12.2173 1.577L9.95864 3.18093C9.85765 3.25253 9.73235 3.28108 9.61031 3.2603C9.48826 3.23951 9.37948 3.17109 9.30788 3.0701C9.23628 2.96911 9.20773 2.84381 9.22852 2.72176C9.2493 2.59972 9.31772 2.49093 9.41871 2.41933L11.6494 0.837334C12.3176 0.2909 13.1553 -0.00583201 14.0185 -0.00191483C14.8818 0.00200234 15.7167 0.306325 16.38 0.8588L18.5826 2.41933C18.6635 2.47662 18.724 2.55817 18.7555 2.65216C18.7869 2.74615 18.7876 2.84771 18.7574 2.94211C18.7273 3.03652 18.6679 3.11888 18.5878 3.17725C18.5077 3.23563 18.4111 3.26699 18.312 3.2668H18.3124ZM0.770444 27.7481C0.674351 27.7483 0.580542 27.7188 0.501832 27.6637C0.423121 27.6086 0.363346 27.5305 0.330671 27.4401C0.297996 27.3498 0.294014 27.2515 0.319269 27.1588C0.344524 27.0661 0.397785 26.9834 0.471777 26.9221L11.1211 18.0741C11.1683 18.035 11.2227 18.0055 11.2812 17.9874C11.3398 17.9692 11.4013 17.9628 11.4624 17.9685C11.5234 17.9741 11.5827 17.9917 11.637 18.0203C11.6912 18.0489 11.7393 18.0879 11.7784 18.135C11.8176 18.1822 11.8471 18.2366 11.8652 18.2952C11.8833 18.3537 11.8897 18.4153 11.8841 18.4763C11.8784 18.5373 11.8608 18.5967 11.8322 18.6509C11.8037 18.7051 11.7647 18.7532 11.7175 18.7923L1.06818 27.6403C0.984589 27.71 0.879239 27.7481 0.770444 27.7481ZM27.23 27.7481C27.1212 27.7482 27.0158 27.7101 26.9322 27.6403L16.2829 18.7923C16.2345 18.7536 16.1944 18.7056 16.1648 18.6511C16.1351 18.5967 16.1167 18.5369 16.1104 18.4752C16.1042 18.4135 16.1103 18.3512 16.1284 18.2919C16.1465 18.2327 16.1762 18.1776 16.2158 18.1299C16.2554 18.0822 16.3041 18.0429 16.3591 18.0143C16.4141 17.9856 16.4742 17.9682 16.5359 17.9631C16.5977 17.9579 16.6599 17.9652 16.7189 17.9843C16.7778 18.0034 16.8324 18.0341 16.8793 18.0746L27.5286 26.9226C27.6026 26.9839 27.6559 27.0666 27.6812 27.1593C27.7064 27.252 27.7024 27.3502 27.6698 27.4406C27.6371 27.531 27.5773 27.6091 27.4986 27.6642C27.4199 27.7193 27.3261 27.7483 27.23 27.7481Z" fill="#63AB45"/>
<path d="M23.3326 13.2906C23.2088 13.2906 23.0901 13.2415 23.0026 13.154C22.9151 13.0664 22.8659 12.9477 22.8659 12.824V3.27037C22.8645 3.2797 22.8458 3.26663 22.8146 3.26663H5.18389C5.17368 3.26602 5.16345 3.26748 5.15383 3.27093C5.1442 3.27438 5.13538 3.27974 5.12789 3.2867L5.13255 12.824C5.13255 12.9477 5.08339 13.0664 4.99587 13.154C4.90835 13.2415 4.78965 13.2906 4.66589 13.2906C4.54212 13.2906 4.42342 13.2415 4.3359 13.154C4.24839 13.0664 4.19922 12.9477 4.19922 12.824V3.26663C4.20655 3.01247 4.31427 2.77156 4.49882 2.59663C4.68336 2.42171 4.92969 2.32702 5.18389 2.3333H22.8146C23.0688 2.32702 23.3151 2.42171 23.4996 2.59663C23.6842 2.77156 23.7919 3.01247 23.7992 3.26663V12.824C23.7992 12.9477 23.7501 13.0664 23.6625 13.154C23.575 13.2415 23.4563 13.2906 23.3326 13.2906Z" fill="#63AB45"/>
</svg>
