<svg width="27" height="27" viewBox="0 0 27 27" xmlns="http://www.w3.org/2000/svg">
<g>
<path d="M26.2641 19.8153L22.4962 16.0473C21.1505 14.7017 18.8628 15.24 18.3246 16.9893C17.9209 18.2005 16.5752 18.8734 15.364 18.6042C12.6727 17.9313 9.0393 14.4325 8.36646 11.6066C7.96275 10.3954 8.77016 9.04971 9.98129 8.64606C11.7307 8.10778 12.269 5.82011 10.9233 4.47442L7.15534 0.706487C6.07878 -0.235496 4.46396 -0.235496 3.52197 0.706487L0.965164 3.2633C-1.59165 5.95468 1.2343 13.0868 7.55904 19.4116C13.8838 25.7363 21.0159 28.6969 23.7073 26.0055L26.2641 23.4486C27.2062 22.3721 27.2062 20.7573 26.2641 19.8153Z"></path>
</g>
</svg>