<?xml version="1.0" encoding="UTF-8"?>
<svg xmlns="http://www.w3.org/2000/svg" width="60" height="50" viewBox="0 0 50 30">
  <path d="M49.2587 28.5694C47.1164 28.5694 46.1141 28.1755 44.9534 27.7193C43.9689 27.3324 42.9508 26.9323 41.3434 26.7543C40.9423 26.7107 40.5783 26.9918 40.5326 27.3842C40.5107 27.5727 40.5664 27.7619 40.6875 27.9103C40.8085 28.0587 40.9851 28.1541 41.1782 28.1755C42.5879 28.3316 43.471 28.6786 44.406 29.0462C45.5988 29.5151 46.8323 29.9998 49.2587 29.9998C49.3556 30.0009 49.4518 29.9832 49.5417 29.9478C49.6316 29.9123 49.7134 29.8598 49.7823 29.7933C49.8513 29.7268 49.906 29.6476 49.9434 29.5602C49.9808 29.4729 50 29.3792 50 29.2846C50 29.19 49.9808 29.0963 49.9434 29.009C49.906 28.9217 49.8513 28.8425 49.7823 28.776C49.7134 28.7094 49.6316 28.6569 49.5417 28.6215C49.4518 28.586 49.3556 28.5683 49.2587 28.5694ZM38.5737 27.3844C38.5281 26.9919 38.1652 26.7103 37.7628 26.7543C36.1555 26.9323 35.1374 27.3324 34.1527 27.7193C32.9922 28.1755 31.9899 28.5694 29.8476 28.5694C27.7054 28.5694 26.7032 28.1755 25.5427 27.7193C24.282 27.2238 22.8531 26.6622 20.1426 26.6622C17.4321 26.6622 16.0032 27.2238 14.7425 27.7193C13.5821 28.1755 12.5798 28.5694 10.4378 28.5694C8.29567 28.5694 7.2934 28.1755 6.13285 27.7193C4.87222 27.2238 3.44327 26.6622 0.732884 26.6622C0.538511 26.6622 0.352099 26.7376 0.214657 26.8717C0.0772143 27.0058 0 27.1878 0 27.3774C0 27.5671 0.0772143 27.7491 0.214657 27.8832C0.352099 28.0173 0.538511 28.0927 0.732884 28.0927C3.15923 28.0927 4.33764 28.5559 5.58538 29.0464C6.77815 29.5152 8.01154 30 10.4378 30C12.8638 30 14.0972 29.5153 15.2902 29.0464C16.5377 28.556 17.7161 28.0927 20.1426 28.0927C22.569 28.0927 23.7474 28.5559 24.9951 29.0464C26.188 29.5152 27.4213 30 29.8476 30C32.2738 30 33.5073 29.5153 34.7004 29.0464C35.6354 28.6789 36.5185 28.3318 37.9281 28.1757C38.0237 28.1651 38.1162 28.1363 38.2005 28.0908C38.2847 28.0453 38.3589 27.984 38.4188 27.9106C38.4788 27.8371 38.5233 27.7528 38.5499 27.6625C38.5764 27.5722 38.5845 27.4777 38.5737 27.3844Z"></path>
  <path d="M49.2587 25.5429C46.9743 25.5429 45.8597 25.1049 44.6796 24.6411C43.9381 24.3496 43.1814 24.0524 42.159 23.8575L49.5227 14.6371C49.64 14.4915 49.7127 14.3165 49.7323 14.1323C49.752 13.9481 49.7179 13.7622 49.6339 13.5961C49.5513 13.4294 49.4221 13.2888 49.2611 13.1907C49.1002 13.0926 48.9141 13.041 48.7243 13.0417H38.1889L34.2998 5.21255C34.0367 4.66692 33.4676 4.31434 32.8497 4.31434H16.9192L15.4371 0.850369C15.3297 0.59824 15.1481 0.382865 14.9153 0.231494C14.6825 0.080124 14.4088 -0.000438062 14.1291 1.79156e-06H9.96394C9.18224 1.79156e-06 8.54641 0.620624 8.54641 1.38351V4.31434H7.17017C6.28663 4.31434 5.56771 5.01587 5.56771 5.87824V14.8942H1.65363C1.33718 14.8942 1.03469 15.0416 0.844486 15.2885C0.654284 15.5354 0.593161 15.8599 0.681135 16.1567L2.94345 23.7897C2.31914 23.6938 1.59817 23.6357 0.732884 23.6357C0.538511 23.6357 0.352099 23.711 0.214657 23.8452C0.0772143 23.9793 0 24.1612 0 24.3509C0 24.5406 0.0772143 24.7226 0.214657 24.8567C0.352099 24.9908 0.538511 25.0662 0.732884 25.0662C3.01707 25.0662 4.13163 25.5042 5.3116 25.968C6.5692 26.4624 7.86957 26.9734 10.4379 26.9734C13.0061 26.9734 14.3065 26.4624 15.5641 25.968C16.744 25.5042 17.8585 25.0662 20.1427 25.0662C22.427 25.0662 23.5414 25.5042 24.7214 25.968C25.979 26.4624 27.2795 26.9734 29.8477 26.9734C32.4161 26.9734 33.7166 26.4624 34.9742 25.968C36.1542 25.5042 37.2688 25.0662 39.5532 25.0662C41.8375 25.0662 42.9521 25.5042 44.1322 25.968C45.3899 26.4624 46.6902 26.9734 49.2587 26.9734C49.453 26.9734 49.6394 26.8981 49.7769 26.7639C49.9143 26.6298 49.9915 26.4479 49.9915 26.2582C49.9915 26.0685 49.9143 25.8865 49.7769 25.7524C49.6394 25.6183 49.453 25.5429 49.2587 25.5429ZM10.0121 1.43059H14.097L15.3309 4.31444H10.0121V1.43059ZM39.5532 23.6358C36.9848 23.6358 35.6843 24.1468 34.4266 24.6412C33.2465 25.105 32.132 25.543 29.8476 25.543C27.5633 25.543 26.4487 25.105 25.2689 24.6412C24.0113 24.1468 22.7109 23.6358 20.1426 23.6358C17.5744 23.6358 16.2739 24.1468 15.0164 24.6412C13.8364 25.105 12.722 25.543 10.4378 25.543C8.1536 25.543 7.03904 25.105 5.85907 24.6412C5.4521 24.4813 5.04046 24.3197 4.58311 24.1741L2.25675 16.3247H8.35366C8.54804 16.3247 8.73445 16.2493 8.87189 16.1152C9.00933 15.981 9.08655 15.7991 9.08655 15.6094C9.08655 15.4197 9.00933 15.2378 8.87189 15.1037C8.73445 14.9695 8.54804 14.8942 8.35366 14.8942H7.03358V5.87824C7.03358 5.80468 7.09489 5.74484 7.17027 5.74484H32.8498C32.9025 5.74484 32.9512 5.77495 32.9773 5.82898L36.5603 13.0417H32.441C31.946 13.0416 31.468 13.2182 31.0971 13.5382L29.6847 14.7563C29.5817 14.8452 29.4489 14.8942 29.3114 14.8942H11.7636C11.5693 14.8942 11.3829 14.9695 11.2454 15.1037C11.108 15.2378 11.0308 15.4197 11.0308 15.6094C11.0308 15.7991 11.108 15.981 11.2454 16.1152C11.3829 16.2493 11.5693 16.3247 11.7636 16.3247H29.3114C29.807 16.3247 30.2842 16.1484 30.6554 15.8282L32.0677 14.6101C32.1707 14.5212 32.3035 14.4722 32.441 14.4722H47.7962L40.4596 23.6588C40.1577 23.6431 39.8555 23.6354 39.5532 23.6358Z"></path>
  <path d="M12.4227 7.25165H9.94664C9.32545 7.25165 8.82007 7.74487 8.82007 8.3511V10.5679C8.82007 11.1741 9.32545 11.6673 9.94664 11.6673H12.4227C13.0439 11.6673 13.5492 11.1741 13.5492 10.5679V8.3511C13.5492 7.74487 13.0439 7.25165 12.4227 7.25165ZM12.0835 10.2368H10.2858V8.68204H12.0835V10.2368ZM18.4565 7.25165H15.9805C15.3593 7.25165 14.8539 7.74487 14.8539 8.3511V10.5679C14.854 11.1741 15.3593 11.6673 15.9805 11.6673H18.4565C19.0777 11.6673 19.583 11.1741 19.583 10.5679V8.3511C19.583 7.74487 19.0777 7.25165 18.4565 7.25165ZM18.1173 10.2368H16.3197V8.68204H18.1173V10.2368ZM24.4904 7.25165H22.0143C21.3931 7.25165 20.8878 7.74487 20.8878 8.3511V10.5679C20.8878 11.1741 21.3931 11.6673 22.0143 11.6673H24.4904C25.1116 11.6673 25.6168 11.1741 25.6168 10.5679V8.3511C25.6168 7.74487 25.1116 7.25165 24.4904 7.25165ZM24.1512 10.2368H22.3535V8.68204H24.1512V10.2368ZM32.6201 10.3663L31.666 7.8778C31.595 7.69428 31.4686 7.53614 31.3035 7.42433C31.1383 7.31253 30.9423 7.25234 30.7413 7.25174H28.0481C27.4269 7.25174 26.9215 7.74496 26.9215 8.3512V10.568C26.9216 11.1741 27.427 11.6673 28.0481 11.6673H31.6955C31.855 11.6673 32.0121 11.6297 32.1534 11.5576C32.2947 11.4854 32.416 11.3809 32.5068 11.2531C32.5977 11.1252 32.6555 10.9777 32.6752 10.8233C32.695 10.6688 32.6761 10.512 32.6201 10.3663ZM28.3873 10.2368V8.68204H30.4095L31.0056 10.2368H28.3873Z"></path>
</svg>
