<?xml version="1.0" encoding="UTF-8"?>
<svg xmlns="http://www.w3.org/2000/svg" width="60" height="50" viewBox="0 0 50 30">
  <path d="M39.1667 22.1034C38.6722 22.1034 38.1889 22.2423 37.7777 22.5025C37.3666 22.7627 37.0462 23.1326 36.857 23.5653C36.6677 23.9981 36.6182 24.4742 36.7147 24.9336C36.8112 25.393 37.0493 25.815 37.3989 26.1462C37.7485 26.4774 38.194 26.7029 38.6789 26.7943C39.1639 26.8857 39.6666 26.8388 40.1234 26.6595C40.5802 26.4803 40.9706 26.1768 41.2453 25.7873C41.52 25.3979 41.6667 24.94 41.6667 24.4716C41.666 23.8437 41.4024 23.2417 40.9337 22.7977C40.465 22.3537 39.8295 22.104 39.1667 22.1034ZM39.1667 25.261C39.0018 25.261 38.8407 25.2147 38.7037 25.128C38.5667 25.0412 38.4598 24.9179 38.3968 24.7737C38.3337 24.6294 38.3172 24.4707 38.3493 24.3176C38.3815 24.1645 38.4609 24.0238 38.5774 23.9134C38.694 23.803 38.8424 23.7278 39.0041 23.6974C39.1657 23.6669 39.3333 23.6825 39.4856 23.7423C39.6378 23.802 39.768 23.9032 39.8596 24.033C39.9511 24.1628 40 24.3155 40 24.4716C39.9998 24.6809 39.9119 24.8816 39.7557 25.0296C39.5994 25.1776 39.3876 25.2608 39.1667 25.261ZM46.7558 12.5097L43.155 11.2309L39.9083 2.61925C39.6181 1.85331 39.0855 1.19081 38.3833 0.722079C37.681 0.253345 36.8432 0.00119249 35.9842 0H4.16667C3.062 0.00125346 2.00296 0.417503 1.22185 1.15744C0.440735 1.89738 0.00132321 2.9006 0 3.94703V22.8928C0.000661846 23.5207 0.264267 24.1227 0.732964 24.5667C1.20166 25.0107 1.83716 25.2604 2.5 25.261H4.23333C4.43131 26.5762 5.12354 27.7796 6.18289 28.6501C7.24223 29.5207 8.59758 30 10 30C11.4024 30 12.7578 29.5207 13.8171 28.6501C14.8765 27.7796 15.5687 26.5762 15.7667 25.261H33.4C33.598 26.5762 34.2902 27.7796 35.3496 28.6501C36.4089 29.5207 37.7642 30 39.1667 30C40.5691 30 41.9244 29.5207 42.9838 28.6501C44.0431 27.7796 44.7354 26.5762 44.9333 25.261H47.5C48.1628 25.2604 48.7983 25.0107 49.267 24.5667C49.7357 24.1227 49.9993 23.5207 50 22.8928V16.9446C49.9966 15.9812 49.6847 15.0415 49.1054 14.2496C48.5262 13.4577 47.7069 12.851 46.7558 12.5097ZM41.3167 11.0517H31.6667V4.73644H38.9367L41.3167 11.0517ZM10 28.4186C9.17591 28.4186 8.37033 28.1871 7.68512 27.7534C6.99992 27.3197 6.46587 26.7033 6.1505 25.9821C5.83514 25.2608 5.75262 24.4672 5.91339 23.7016C6.07417 22.9359 6.471 22.2326 7.05372 21.6806C7.63644 21.1286 8.37887 20.7527 9.18712 20.6004C9.99538 20.4481 10.8332 20.5263 11.5945 20.825C12.3559 21.1238 13.0066 21.6297 13.4645 22.2787C13.9223 22.9278 14.1667 23.6909 14.1667 24.4716C14.1653 25.518 13.7259 26.5212 12.9448 27.2612C12.1637 28.0011 11.1047 28.4174 10 28.4186ZM39.1667 28.4186C38.3426 28.4186 37.537 28.1871 36.8518 27.7534C36.1666 27.3197 35.6325 26.7033 35.3172 25.9821C35.0018 25.2608 34.9193 24.4672 35.0801 23.7016C35.2408 22.9359 35.6377 22.2326 36.2204 21.6806C36.8031 21.1286 37.5455 20.7527 38.3538 20.6004C39.162 20.4481 39.9998 20.5263 40.7612 20.825C41.5225 21.1238 42.1733 21.6297 42.6311 22.2787C43.089 22.9278 43.3333 23.6909 43.3333 24.4716C43.332 25.518 42.8926 26.5212 42.1115 27.2612C41.3304 28.0011 40.2713 28.4174 39.1667 28.4186ZM48.3333 22.8928C48.3331 23.1021 48.2452 23.3028 48.089 23.4507C47.9328 23.5987 47.7209 23.682 47.5 23.6822H44.9333C44.7354 22.367 44.0431 21.1636 42.9838 20.2931C41.9244 19.4225 40.5691 18.9432 39.1667 18.9432C37.7642 18.9432 36.4089 19.4225 35.3496 20.2931C34.2902 21.1636 33.598 22.367 33.4 23.6822H15.7667C15.5687 22.367 14.8765 21.1636 13.8171 20.2931C12.7578 19.4225 11.4024 18.9432 10 18.9432C8.59758 18.9432 7.24223 19.4225 6.18289 20.2931C5.12354 21.1636 4.43131 22.367 4.23333 23.6822H2.5C2.27905 23.682 2.06722 23.5987 1.91099 23.4507C1.75476 23.3028 1.66689 23.1021 1.66667 22.8928V3.94703C1.66733 3.31913 1.93093 2.71713 2.39963 2.27314C2.86833 1.82915 3.50383 1.57944 4.16667 1.57881H35.9842C36.4996 1.57954 37.0022 1.73086 37.4235 2.01213C37.8448 2.2934 38.1643 2.69094 38.3383 3.15052L38.3417 3.15763H31.6667C31.2248 3.15804 30.8011 3.32452 30.4886 3.62051C30.1762 3.9165 30.0004 4.31784 30 4.73644V11.0517C30.0004 11.4703 30.1762 11.8716 30.4886 12.1676C30.8011 12.4636 31.2248 12.6301 31.6667 12.6305H42.3483L46.1708 13.9883C46.8048 14.2158 47.3509 14.6203 47.737 15.1481C48.1232 15.676 48.3311 16.3024 48.3333 16.9446V22.8928ZM10 22.1034C9.50555 22.1034 9.0222 22.2423 8.61107 22.5025C8.19995 22.7627 7.87952 23.1326 7.6903 23.5653C7.50108 23.9981 7.45157 24.4742 7.54804 24.9336C7.6445 25.393 7.8826 25.815 8.23223 26.1462C8.58186 26.4774 9.02732 26.7029 9.51227 26.7943C9.99723 26.8857 10.4999 26.8388 10.9567 26.6595C11.4135 26.4803 11.804 26.1768 12.0787 25.7873C12.3534 25.3979 12.5 24.94 12.5 24.4716C12.4993 23.8437 12.2357 23.2417 11.767 22.7977C11.2983 22.3537 10.6628 22.104 10 22.1034ZM10 25.261C9.83518 25.261 9.67407 25.2147 9.53702 25.128C9.39998 25.0412 9.29317 24.9179 9.2301 24.7737C9.16703 24.6294 9.15052 24.4707 9.18268 24.3176C9.21483 24.1645 9.2942 24.0238 9.41074 23.9134C9.52729 23.803 9.67577 23.7278 9.83742 23.6974C9.99908 23.6669 10.1666 23.6825 10.3189 23.7423C10.4712 23.802 10.6013 23.9032 10.6929 24.033C10.7845 24.1628 10.8333 24.3155 10.8333 24.4716C10.8331 24.6809 10.7452 24.8816 10.589 25.0296C10.4328 25.1776 10.2209 25.2608 10 25.261ZM35 15.7881C35 15.9975 34.9122 16.1983 34.7559 16.3463C34.5996 16.4944 34.3877 16.5775 34.1667 16.5775H30.8333C30.6123 16.5775 30.4004 16.4944 30.2441 16.3463C30.0878 16.1983 30 15.9975 30 15.7881C30 15.5788 30.0878 15.378 30.2441 15.2299C30.4004 15.0819 30.6123 14.9987 30.8333 14.9987H34.1667C34.3877 14.9987 34.5996 15.0819 34.7559 15.2299C34.9122 15.378 35 15.5788 35 15.7881ZM26.6667 3.15763H5C4.55811 3.15804 4.13444 3.32452 3.82198 3.62051C3.50951 3.9165 3.33377 4.31784 3.33333 4.73644V11.0517C3.33377 11.4703 3.50951 11.8716 3.82198 12.1676C4.13444 12.4636 4.55811 12.6301 5 12.6305H26.6667C27.1086 12.6301 27.5322 12.4636 27.8447 12.1676C28.1572 11.8716 28.3329 11.4703 28.3333 11.0517V4.73644C28.3329 4.31784 28.1572 3.9165 27.8447 3.62051C27.5322 3.32452 27.1086 3.15804 26.6667 3.15763ZM5 4.73644H15V11.0517H5V4.73644ZM16.6667 11.0517V4.73644H26.6667L26.6683 11.0517H16.6667Z"></path>
</svg>
