<svg xmlns="http://www.w3.org/2000/svg" xmlns:xlink="http://www.w3.org/1999/xlink" width="20" height="20" x="0px" y="0px" viewBox="0 0 22.9 23" style="enable-background:new 0 0 22.9 23;" xml:space="preserve">                                <g transform="translate(0 -0.002)">                                    <g>                                        <defs>                                            <rect y="0" width="22.9" height="23"></rect>                                        </defs>                                        <clipPath>                                            <use xlink:href="#SVGID_1_" style="overflow:visible;"></use>                                        </clipPath>                                        <g transform="translate(0 0.002)" class="st0">                                            <path class="st1" d="M6.5,0c0.4,0,0.8,0.2,0.9,0.6c0,0.1,0,0.2,0,0.3c0,0.8,0,1.5,0,2.2c0,0.1,0,0.2,0,0.4    C7.2,4,6.8,4.3,6.3,4.2C6,4.2,5.8,3.9,5.7,3.6c0-0.2,0-0.5,0-0.7c0-0.6,0-1.2,0-1.9c0-0.1,0-0.2,0-0.4c0-0.3,0.2-0.5,0.5-0.6    C6.2,0,6.4,0,6.5,0 M16.1,0.1c-0.3,0.1-0.4,0.3-0.5,0.6c0,0.1,0,0.2,0,0.4c0,0.6,0,1.2,0,1.9c0,0.2,0,0.5,0,0.7    c0.1,0.5,0.6,0.7,1,0.6c0.3-0.1,0.6-0.3,0.6-0.7c0-0.1,0-0.2,0-0.4c0-0.6,0-1.2,0-1.9c0-0.2,0-0.5,0-0.7c0-0.2-0.1-0.3-0.3-0.5    C16.8,0.1,16.6,0,16.4,0C16.3,0,16.2,0,16.1,0.1 M3.9,1.5c-0.5,0-1,0-1.4,0.1C2.1,1.7,1.7,1.8,1.3,2C0.7,2.5,0.2,3.2,0.1,4    C0,4.3,0,4.6,0,5c0,0.7,0,1.4,0,2.1c7.6,0,15.2,0,22.9,0c11.5,0,0,0,0,0c0-0.7,0-1.3,0-1.9c0-0.2,0-0.4,0-0.7    c0-0.7-0.3-1.3-0.7-1.9c-0.4-0.5-1-0.8-1.6-1c-0.8-0.1-1.7-0.1-2.5-0.1v0c0,0.6,0,1.3,0,1.9c0,0.2,0,0.4-0.1,0.5    c-0.1,0.3-0.3,0.6-0.6,0.7c-0.7,0.5-1.8,0.4-2.3-0.3c-0.2-0.3-0.3-0.6-0.3-0.9c0-0.6,0-1.3,0-1.9v0H8.1v1.4c0,0.2,0,0.4,0,0.6    c0,0.2,0,0.4-0.1,0.5C7.9,4.3,7.7,4.6,7.4,4.8C7.2,5,6.8,5.1,6.5,5.1c-0.3,0-0.7-0.1-1-0.3C5.2,4.6,5.1,4.3,5,4    C4.9,3.8,4.9,3.6,4.9,3.5c0-0.6,0-1.3,0-1.9L3.9,1.5z M0,8.3c0,3.8,0,7.6,0,11.4c0,0.3,0,0.5,0.1,0.8c0.1,0.6,0.4,1.2,0.8,1.6    c0.4,0.4,1,0.7,1.6,0.8C2.8,23,3,23,3.3,23h16.3c0.3,0,0.5,0,0.8,0c0.2,0,0.4-0.1,0.6-0.2c0.5-0.2,1-0.6,1.4-1.1    c0.2-0.3,0.4-0.7,0.5-1.1c0-0.3,0.1-0.5,0.1-0.8c0-3.7,0-7.5,0-11.2c0-0.1,0-0.1,0-0.2c0,0,0,0,0,0c0,0-0.1,0-0.1,0L0,8.3    C0,8.3,0,8.3,0,8.3 M9.2,10.7c0.3,0,0.6,0.1,0.8,0.3c0.2,0.2,0.3,0.4,0.4,0.7c0,0.3-0.1,0.6-0.3,0.8c-0.2,0.2-0.4,0.3-0.7,0.4    c-0.3,0-0.6-0.1-0.8-0.3c-0.2-0.2-0.3-0.4-0.4-0.7c0-0.3,0.1-0.6,0.3-0.8c0.1-0.1,0.2-0.2,0.3-0.2C8.9,10.8,9.1,10.7,9.2,10.7     M13.5,10.7c0.3,0,0.6,0.1,0.8,0.3c0.2,0.2,0.3,0.4,0.4,0.7c0,0.3-0.1,0.6-0.3,0.8c-0.2,0.2-0.4,0.3-0.7,0.4    c-0.3,0-0.6-0.1-0.8-0.3c-0.2-0.2-0.3-0.4-0.4-0.7c0-0.3,0.1-0.6,0.3-0.8c0.1-0.1,0.2-0.2,0.3-0.2C13.2,10.7,13.3,10.7,13.5,10.7     M17.7,10.7c0.3,0,0.6,0.1,0.8,0.3c0.2,0.2,0.3,0.4,0.4,0.7c0,0.3-0.1,0.6-0.3,0.8c-0.2,0.2-0.4,0.3-0.7,0.4    c-0.3,0-0.6-0.1-0.8-0.3c-0.4-0.4-0.5-1.1-0.1-1.5C17.2,10.8,17.4,10.7,17.7,10.7 M5,14.6c0.6,0,1.1,0.4,1.2,1c0,0,0,0,0,0    c0,0.6-0.4,1.1-1,1.2c-0.3,0-0.6-0.1-0.8-0.3C4.1,16.3,4,16,4,15.7c0-0.3,0.1-0.6,0.3-0.8c0.1-0.1,0.2-0.2,0.3-0.2    C4.7,14.6,4.9,14.6,5,14.6 M9.3,14.6c0.6,0,1.1,0.4,1.2,1c0,0.3-0.1,0.6-0.3,0.8c-0.2,0.2-0.5,0.3-0.7,0.4    c-0.3,0-0.6-0.1-0.8-0.3c-0.2-0.2-0.3-0.4-0.4-0.7c0-0.3,0.1-0.6,0.3-0.8c0.1-0.1,0.2-0.2,0.3-0.2C9,14.6,9.1,14.6,9.3,14.6     M13.5,14.6c0.3,0,0.6,0.1,0.8,0.3c0.2,0.2,0.3,0.5,0.4,0.7c0,0.3-0.1,0.6-0.3,0.8c-0.2,0.2-0.4,0.3-0.7,0.4    c-0.3,0-0.6-0.1-0.8-0.3c-0.2-0.2-0.3-0.4-0.4-0.7c0-0.3,0.1-0.6,0.3-0.8c0.1-0.1,0.2-0.2,0.3-0.2C13.2,14.6,13.3,14.6,13.5,14.6     M17.7,14.6c0.6,0,1.1,0.4,1.2,1c0,0.3-0.1,0.6-0.3,0.8c-0.4,0.4-1.1,0.5-1.5,0.1c-0.2-0.2-0.3-0.4-0.4-0.7    c0-0.3,0.1-0.6,0.3-0.8c0.1-0.1,0.2-0.2,0.3-0.2C17.4,14.6,17.6,14.6,17.7,14.6 M5,18.5c0.6,0,1.1,0.4,1.2,1c0,0,0,0,0,0    c0,0.3-0.1,0.6-0.3,0.8c-0.2,0.2-0.5,0.3-0.7,0.4c-0.3,0-0.6-0.1-0.8-0.3C4.1,20.2,4,19.9,4,19.6c0-0.3,0.1-0.6,0.3-0.8    c0.1-0.1,0.2-0.2,0.3-0.2C4.7,18.5,4.9,18.5,5,18.5 M9.3,18.5c0.6,0,1.1,0.4,1.1,1c0,0.6-0.4,1.1-1,1.1c-0.3,0-0.6-0.1-0.8-0.3    c-0.4-0.4-0.5-1.1-0.1-1.5c0,0,0,0,0,0c0.1-0.1,0.2-0.2,0.3-0.2C9,18.5,9.1,18.5,9.3,18.5 M13.5,18.5c0.3,0,0.6,0.1,0.8,0.3    c0.2,0.2,0.3,0.5,0.3,0.7c0,0.3-0.1,0.6-0.3,0.8c-0.2,0.2-0.5,0.3-0.7,0.4c-0.3,0-0.6-0.1-0.8-0.3c-0.4-0.4-0.5-1.1-0.1-1.5    c0.1-0.1,0.2-0.2,0.3-0.2C13.2,18.5,13.4,18.5,13.5,18.5">                                            </path>                                        </g>                                    </g>                                </g>                            </svg>