<?xml version="1.0" encoding="UTF-8"?>
<svg xmlns="http://www.w3.org/2000/svg" width="60" height="50" viewBox="0 0 50 30">
  <path d="M44.125 12.4167L41.4351 11.9392C41.092 11.8787 40.7659 11.7373 40.4806 11.5252C40.1953 11.3131 39.9579 11.0358 39.7859 10.7134L36.0711 3.78001C35.4551 2.63294 34.5663 1.67947 33.4945 1.0158C32.4227 0.352133 31.2057 0.00174827 29.9664 0H16.9086C15.6693 0.00166413 14.4524 0.351923 13.3806 1.01544C12.3088 1.67896 11.42 2.63226 10.8039 3.77918L7.01484 10.8517C6.85724 11.1442 6.64605 11.3999 6.39384 11.6035C6.14164 11.807 5.8536 11.9544 5.54687 12.0367L2.95781 12.7267C2.31318 12.8988 1.72057 13.244 1.23634 13.7295C0.752121 14.2149 0.3924 14.8244 0.191406 15.5001C0.182812 15.5217 0.182031 15.5476 0.175 15.5701C0.0618921 15.9585 0.0029285 16.3625 0 16.7692L0 22.5001C0.00124051 23.6047 0.413189 24.6638 1.14548 25.4449C1.87778 26.226 2.87063 26.6654 3.90625 26.6668H6.78515C7.22701 27.6638 7.92531 28.5065 8.79876 29.0966C9.6722 29.6867 10.6848 30 11.7187 30C12.7527 30 13.7653 29.6867 14.6387 29.0966C15.5122 28.5065 16.2105 27.6638 16.6523 26.6668H33.3476C33.7895 27.6638 34.4878 28.5065 35.3612 29.0966C36.2347 29.6867 37.2473 30 38.2812 30C39.3151 30 40.3278 29.6867 41.2012 29.0966C42.0747 28.5065 42.773 27.6638 43.2148 26.6668H46.0937C47.1293 26.6654 48.1222 26.226 48.8545 25.4449C49.5868 24.6638 49.9987 23.6047 50 22.5001V19.8142C50.0041 18.0378 49.4152 16.3177 48.3387 14.9623C47.2622 13.6068 45.7684 12.7044 44.125 12.4167ZM47.5734 16.6667C47.8824 17.1805 48.1136 17.7429 48.2586 18.3334H47.6562C47.0364 18.3332 46.4418 18.0721 46.0015 17.6067C45.7541 17.3407 45.5647 17.0198 45.4469 16.6667H47.5734ZM1.57031 16.6667H2.90547L2.51484 18.3334H1.5625V16.7692C1.5625 16.7342 1.56953 16.7009 1.57031 16.6667ZM11.7187 28.3334C10.9462 28.3334 10.1909 28.0891 9.54855 27.6312C8.90617 27.1734 8.4055 26.5226 8.10984 25.7613C7.81419 24.9999 7.73683 24.1621 7.88755 23.3539C8.03828 22.5456 8.41031 21.8032 8.95661 21.2205C9.50291 20.6377 10.1989 20.2409 10.9567 20.0801C11.7144 19.9194 12.4998 20.0019 13.2136 20.3172C13.9274 20.6326 14.5374 21.1667 14.9667 21.8519C15.3959 22.5371 15.625 23.3427 15.625 24.1668C15.6238 25.2714 15.2118 26.3305 14.4795 27.1116C13.7472 27.8927 12.7544 28.3321 11.7187 28.3334ZM38.2812 28.3334C37.5086 28.3334 36.7534 28.0891 36.111 27.6312C35.4687 27.1734 34.968 26.5226 34.6723 25.7613C34.3767 24.9999 34.2993 24.1621 34.45 23.3539C34.6008 22.5456 34.9728 21.8032 35.5191 21.2205C36.0654 20.6377 36.7614 20.2409 37.5192 20.0801C38.2769 19.9194 39.0623 20.0019 39.7761 20.3172C40.4899 20.6326 41.0999 21.1667 41.5292 21.8519C41.9584 22.5371 42.1875 23.3427 42.1875 24.1668C42.1862 25.2714 41.7743 26.3305 41.042 27.1116C40.3097 27.8927 39.3169 28.3321 38.2812 28.3334ZM46.0937 25.0001H43.6875C43.8063 24.1693 43.7553 23.3209 43.5382 22.5131C43.3211 21.7052 42.9429 20.957 42.4295 20.3195C41.9161 19.682 41.2796 19.1704 40.5636 18.8197C39.8477 18.4689 39.0691 18.2873 38.2812 18.2873C37.4934 18.2873 36.7148 18.4689 35.9988 18.8197C35.2829 19.1704 34.6464 19.682 34.133 20.3195C33.6196 20.957 33.2414 21.7052 33.0243 22.5131C32.8071 23.3209 32.7562 24.1693 32.875 25.0001H17.125C17.2438 24.1693 17.1928 23.3209 16.9757 22.5131C16.7586 21.7052 16.3804 20.957 15.867 20.3195C15.3536 19.682 14.7171 19.1704 14.0011 18.8197C13.2852 18.4689 12.5066 18.2873 11.7187 18.2873C10.9309 18.2873 10.1523 18.4689 9.43634 18.8197C8.72037 19.1704 8.0839 19.682 7.5705 20.3195C7.0571 20.957 6.6789 21.7052 6.46177 22.5131C6.24464 23.3209 6.19372 24.1693 6.3125 25.0001H3.90625C3.28465 25.0001 2.68851 24.7367 2.24897 24.2679C1.80943 23.799 1.5625 23.1631 1.5625 22.5001V20.0001H3.125C3.29916 20.0001 3.46833 19.938 3.60563 19.8237C3.74293 19.7094 3.84049 19.5494 3.88281 19.3692L4.66406 16.0359C4.69292 15.913 4.69513 15.7847 4.67054 15.6608C4.64595 15.5369 4.59519 15.4206 4.52213 15.3207C4.44907 15.2208 4.35563 15.1401 4.24891 15.0845C4.14219 15.0289 4.025 15.0001 3.90625 15.0001H2.25703C2.55487 14.6811 2.92831 14.4544 3.3375 14.3442L5.92734 13.6534C6.43804 13.5158 6.91757 13.2701 7.3374 12.9308C7.75723 12.5915 8.10877 12.1656 8.37109 11.6784L12.1602 4.60585C12.6395 3.71385 13.3308 2.97245 14.1645 2.45642C14.9982 1.9404 15.9447 1.66799 16.9086 1.66667H29.9664C30.9303 1.66799 31.8768 1.9404 32.7105 2.45642C33.5441 2.97245 34.2355 3.71385 34.7148 4.60585L38.4289 11.5392C38.7154 12.0769 39.1109 12.5395 39.5866 12.8932C40.0622 13.2469 40.606 13.4827 41.1781 13.5834L43.8679 14.0617C44.6545 14.2005 45.4032 14.5208 46.0617 15.0001H44.5312C44.324 15.0001 44.1253 15.0879 43.9788 15.2441C43.8323 15.4004 43.75 15.6124 43.75 15.8334C43.7495 16.3807 43.8502 16.9228 44.0463 17.4286C44.2424 17.9343 44.5301 18.3939 44.8929 18.7809C45.2558 19.1679 45.6866 19.4748 46.1608 19.684C46.6349 19.8932 47.1431 20.0006 47.6562 20.0001H48.4375V22.5001C48.4375 23.1631 48.1905 23.799 47.751 24.2679C47.3115 24.7367 46.7153 25.0001 46.0937 25.0001Z"></path>
  <path d="M35.5141 7.90419C35.4073 7.71467 35.2344 7.57812 35.0333 7.5246C34.8322 7.47107 34.6195 7.50495 34.4418 7.61877C34.2641 7.73259 34.1361 7.91704 34.0859 8.13153C34.0357 8.34603 34.0675 8.573 34.1742 8.76252L35.3391 10.8334H25.7812V4.16667H30.2617C30.6663 4.16785 31.0638 4.28019 31.4159 4.49286C31.768 4.70552 32.0628 5.01134 32.2719 5.38084L32.7672 6.26251C32.8739 6.45203 33.0468 6.58858 33.2479 6.6421C33.449 6.69563 33.6618 6.66175 33.8394 6.54793C34.0171 6.43411 34.1451 6.24966 34.1953 6.03517C34.2455 5.82067 34.2137 5.5937 34.107 5.40418L33.6109 4.52251C33.2625 3.90693 32.7714 3.39746 32.1847 3.04321C31.5981 2.68897 30.9358 2.50188 30.2617 2.5H25C24.7928 2.5 24.5941 2.5878 24.4476 2.74408C24.3011 2.90036 24.2187 3.11232 24.2187 3.33334V11.6667C24.2187 11.8877 24.3011 12.0997 24.4476 12.256C24.5941 12.4122 24.7928 12.5 25 12.5H36.7187C36.857 12.5 36.9928 12.4608 37.1123 12.3865C37.2317 12.3122 37.3305 12.2054 37.3986 12.077C37.4667 11.9486 37.5016 11.8033 37.4998 11.6558C37.498 11.5083 37.4595 11.364 37.3883 11.2375L35.5141 7.90419ZM21.875 2.5H16.6133C15.9392 2.50188 15.2769 2.68897 14.6903 3.04321C14.1036 3.39746 13.6125 3.90693 13.2641 4.52251L9.48672 11.2375C9.41551 11.364 9.37703 11.5083 9.37522 11.6558C9.3734 11.8033 9.40832 11.9486 9.47641 12.077C9.54449 12.2054 9.6433 12.3122 9.76274 12.3865C9.88218 12.4608 10.018 12.5 10.1563 12.5H21.875C22.0822 12.5 22.2809 12.4122 22.4274 12.256C22.5739 12.0997 22.6562 11.8877 22.6562 11.6667V3.33334C22.6562 3.11232 22.5739 2.90036 22.4274 2.74408C22.2809 2.5878 22.0822 2.5 21.875 2.5ZM21.0937 10.8334H11.5359L14.6031 5.38084C14.8122 5.01134 15.107 4.70552 15.4591 4.49286C15.8112 4.28019 16.2087 4.16785 16.6133 4.16667H21.0937V10.8334ZM26.5625 13.3334H25C24.7928 13.3334 24.5941 13.4212 24.4476 13.5775C24.3011 13.7337 24.2187 13.9457 24.2187 14.1667C24.2187 14.3877 24.3011 14.5997 24.4476 14.756C24.5941 14.9122 24.7928 15 25 15H26.5625C26.7697 15 26.9684 14.9122 27.1149 14.756C27.2614 14.5997 27.3437 14.3877 27.3437 14.1667C27.3437 13.9457 27.2614 13.7337 27.1149 13.5775C26.9684 13.4212 26.7697 13.3334 26.5625 13.3334ZM11.7188 13.3334H10.1563C9.94905 13.3334 9.75034 13.4212 9.60382 13.5775C9.45731 13.7337 9.375 13.9457 9.375 14.1667C9.375 14.3877 9.45731 14.5997 9.60382 14.756C9.75034 14.9122 9.94905 15 10.1563 15H11.7188C11.926 15 12.1247 14.9122 12.2712 14.756C12.4177 14.5997 12.5 14.3877 12.5 14.1667C12.5 13.9457 12.4177 13.7337 12.2712 13.5775C12.1247 13.4212 11.926 13.3334 11.7188 13.3334ZM38.2812 21.6667C37.8177 21.6667 37.3645 21.8134 36.9791 22.0881C36.5937 22.3628 36.2933 22.7532 36.1159 23.21C35.9385 23.6669 35.8921 24.1695 35.9825 24.6545C36.073 25.1394 36.2962 25.5849 36.624 25.9345C36.9517 26.2841 37.3694 26.5223 37.824 26.6187C38.2786 26.7152 38.7499 26.6657 39.1781 26.4765C39.6064 26.2872 39.9725 25.9668 40.23 25.5557C40.4875 25.1446 40.625 24.6612 40.625 24.1667C40.625 23.5037 40.3781 22.8678 39.9385 22.399C39.499 21.9301 38.9028 21.6667 38.2812 21.6667ZM38.2812 25.0001C38.1267 25.0001 37.9757 24.9512 37.8472 24.8596C37.7187 24.7681 37.6186 24.6379 37.5595 24.4856C37.5003 24.3334 37.4849 24.1658 37.515 24.0042C37.5451 23.8425 37.6195 23.694 37.7288 23.5775C37.8381 23.4609 37.9773 23.3816 38.1288 23.3494C38.2804 23.3173 38.4375 23.3338 38.5802 23.3968C38.723 23.4599 38.845 23.5667 38.9308 23.7038C39.0167 23.8408 39.0625 24.0019 39.0625 24.1667C39.0625 24.3878 38.9802 24.5997 38.8337 24.756C38.6872 24.9123 38.4884 25.0001 38.2812 25.0001ZM11.7188 21.6667C11.2552 21.6667 10.8021 21.8134 10.4166 22.0881C10.0312 22.3628 9.7308 22.7532 9.55341 23.21C9.37602 23.6669 9.3296 24.1695 9.42004 24.6545C9.51047 25.1394 9.73369 25.5849 10.0615 25.9345C10.3892 26.2841 10.8069 26.5223 11.2615 26.6187C11.7162 26.7152 12.1874 26.6657 12.6157 26.4765C13.0439 26.2872 13.41 25.9668 13.6675 25.5557C13.925 25.1446 14.0625 24.6612 14.0625 24.1667C14.0625 23.5037 13.8156 22.8678 13.376 22.399C12.9365 21.9301 12.3404 21.6667 11.7188 21.6667ZM11.7188 25.0001C11.5642 25.0001 11.4132 24.9512 11.2847 24.8596C11.1562 24.7681 11.0561 24.6379 10.997 24.4856C10.9378 24.3334 10.9224 24.1658 10.9525 24.0042C10.9827 23.8425 11.0571 23.694 11.1663 23.5775C11.2756 23.4609 11.4148 23.3816 11.5663 23.3494C11.7179 23.3173 11.875 23.3338 12.0177 23.3968C12.1605 23.4599 12.2825 23.5667 12.3683 23.7038C12.4542 23.8408 12.5 24.0019 12.5 24.1667C12.5 24.3878 12.4177 24.5997 12.2712 24.756C12.1247 24.9123 11.926 25.0001 11.7188 25.0001Z"></path>
</svg>
