<svg xmlns="http://www.w3.org/2000/svg" width="20" height="20" viewBox="0 0 20 20"><path d="M19.4752 15.4282L15.4271 12.7286C14.9134 12.3888 14.2248 12.5006 13.845 12.9856L12.6658 14.5017C12.5925 14.5983 12.4868 14.6653 12.3681 14.6903C12.2494 14.7153 12.1257 14.6966 12.0196 14.6377L11.7953 14.514C11.0518 14.1087 10.1266 13.6042 8.26252 11.7394C6.39846 9.87471 5.89287 8.94884 5.48757 8.20664L5.36458 7.98234C5.30488 7.87632 5.28549 7.75231 5.30998 7.63313C5.33448 7.51395 5.40121 7.40763 5.49789 7.33376L7.01297 6.15495C7.49775 5.77512 7.60972 5.08671 7.27028 4.57284L4.57068 0.524768C4.2228 0.00148647 3.52486 -0.1556 2.9863 0.168141L1.29355 1.18498C0.761668 1.49766 0.371466 2.00408 0.204723 2.59809C-0.404835 4.81909 0.0537292 8.6522 5.70024 14.2994C10.1919 18.7907 13.5358 19.9985 15.8341 19.9985C16.363 20.0008 16.8899 19.932 17.4005 19.7939C17.9947 19.6274 18.5012 19.2371 18.8136 18.7051L19.8315 17.0133C20.1557 16.4747 19.9987 15.7763 19.4752 15.4282ZM19.2572 16.6714L18.2417 18.3641C18.0173 18.7481 17.653 19.0305 17.2252 19.152C15.1748 19.7149 11.5927 19.2487 6.17181 13.8278C0.750931 8.40692 0.284711 4.82511 0.847635 2.77444C0.969353 2.34604 1.25202 1.98132 1.6365 1.75658L3.32926 0.741065C3.56294 0.60046 3.86586 0.668614 4.01682 0.89569L5.48328 3.09736L6.71411 4.94341C6.86151 5.16631 6.81308 5.46505 6.6028 5.62999L5.08736 6.8088C4.62618 7.16144 4.49448 7.79951 4.77842 8.30592L4.89876 8.52456C5.32471 9.30578 5.85428 10.2776 7.78766 12.2107C9.72105 14.1437 10.6926 14.6733 11.4734 15.0993L11.6924 15.2199C12.1988 15.5038 12.8369 15.3721 13.1895 14.911L14.3683 13.3955C14.5333 13.1854 14.8319 13.137 15.0549 13.2842L19.1026 15.9838C19.3299 16.1346 19.398 16.4377 19.2572 16.6714ZM11.3327 3.33435C14.4604 3.33783 16.9951 5.87249 16.9986 9.0002C16.9986 9.18427 17.1478 9.33347 17.3318 9.33347C17.5159 9.33347 17.6651 9.18427 17.6651 9.0002C17.6612 5.5045 14.8284 2.67164 11.3327 2.66781C11.1487 2.66781 10.9995 2.81701 10.9995 3.00108C10.9995 3.18516 11.1487 3.33435 11.3327 3.33435Z"></path><path d="M11.3321 5.33353C13.3558 5.33592 14.9958 6.97591 14.9982 8.99967C14.9982 9.08806 15.0333 9.17283 15.0958 9.23533C15.1583 9.29783 15.2431 9.33294 15.3315 9.33294C15.4198 9.33294 15.5046 9.29783 15.5671 9.23533C15.6296 9.17283 15.6647 9.08806 15.6647 8.99967C15.662 6.60792 13.7238 4.66973 11.3321 4.66699C11.148 4.66699 10.9988 4.81619 10.9988 5.00026C10.9988 5.18434 11.148 5.33353 11.3321 5.33353Z"></path><path d="M11.3321 7.33353C12.2519 7.33463 12.9974 8.08006 12.9985 8.99997C12.9985 9.08836 13.0336 9.17313 13.0961 9.23563C13.1586 9.29813 13.2434 9.33324 13.3318 9.33324C13.4201 9.33324 13.5049 9.29813 13.5674 9.23563C13.6299 9.17313 13.665 9.08836 13.665 8.99997C13.6635 7.71211 12.6199 6.66844 11.3321 6.66699C11.148 6.66699 10.9988 6.81619 10.9988 7.00026C10.9988 7.18434 11.148 7.33353 11.3321 7.33353Z"></path></svg>