<svg xmlns="http://www.w3.org/2000/svg" width="50" height="50" viewBox="0 0 50 50"><g><path d="M32.6482 14.8428C33.0659 14.4355 33.2133 13.8381 33.0331 13.2833C32.8529 12.7286 32.3823 12.3318 31.8051 12.248L27.614 11.639C27.6044 11.6376 27.5953 11.6339 27.5875 11.6282C27.5796 11.6225 27.5733 11.6149 27.569 11.6062L25.6947 7.80859C25.4365 7.28555 24.9138 6.96064 24.3305 6.96064C23.7472 6.96064 23.2245 7.28555 22.9664 7.80859L21.092 11.6062C21.0878 11.615 21.0814 11.6225 21.0735 11.6282C21.0657 11.6339 21.0565 11.6376 21.0469 11.639L16.8559 12.248C16.2787 12.3318 15.8082 12.7285 15.6279 13.2833C15.4475 13.838 15.5951 14.4356 16.0128 14.8428L19.0456 17.7989C19.0525 17.8057 19.0577 17.8141 19.0607 17.8233C19.0637 17.8326 19.0644 17.8424 19.0627 17.852L18.3469 22.0261C18.2483 22.601 18.4802 23.171 18.952 23.514C19.4239 23.8569 20.0376 23.9013 20.5541 23.6298L24.3028 21.659C24.3114 21.6545 24.3209 21.6521 24.3307 21.6521C24.3404 21.6521 24.3499 21.6545 24.3585 21.659L28.1072 23.6298C28.3258 23.7452 28.5693 23.8057 28.8165 23.8061C29.1306 23.8061 29.4427 23.7076 29.7092 23.5139C30.1811 23.171 30.413 22.6009 30.3144 22.026L30.21 21.4174C30.1418 21.0196 29.7638 20.7522 29.3664 20.8208C29.1754 20.8536 29.0052 20.9609 28.8933 21.1191C28.7815 21.2773 28.737 21.4735 28.7698 21.6645L28.8742 22.273C28.8767 22.2877 28.8804 22.3097 28.8503 22.3316C28.8204 22.3535 28.8004 22.3433 28.7873 22.3362L25.0387 20.3654C24.8204 20.2506 24.5775 20.1907 24.3309 20.1907C24.0842 20.1907 23.8413 20.2506 23.623 20.3654L19.8745 22.3362C19.8613 22.3432 19.8414 22.3535 19.8115 22.3316C19.7814 22.3099 19.7852 22.2877 19.7877 22.273L20.5037 18.099C20.5454 17.8559 20.5274 17.6063 20.4511 17.3717C20.3749 17.1371 20.2428 16.9246 20.0662 16.7524L17.0334 13.7963C17.0228 13.7859 17.0068 13.7703 17.0182 13.7349C17.0297 13.6995 17.0518 13.6963 17.0665 13.6941L21.2575 13.0852C21.5016 13.0497 21.7334 12.9554 21.9329 12.8104C22.1325 12.6655 22.2938 12.4741 22.403 12.2529L24.2773 8.45527C24.2838 8.44189 24.2938 8.42187 24.331 8.42187C24.3682 8.42187 24.3781 8.44199 24.3847 8.45527L26.2589 12.2528C26.3681 12.474 26.5294 12.6654 26.7289 12.8104C26.9284 12.9554 27.1602 13.0497 27.4043 13.0852L31.5955 13.6942C31.6101 13.6963 31.6323 13.6996 31.6438 13.735C31.6553 13.7703 31.6392 13.786 31.6287 13.7964L28.5958 16.7525C28.4193 16.9247 28.2872 17.1372 28.211 17.3718C28.1348 17.6064 28.1167 17.8559 28.1584 18.099L28.2746 18.7762C28.2908 18.8707 28.3254 18.9612 28.3766 19.0424C28.4278 19.1236 28.4944 19.1938 28.5728 19.2492C28.6511 19.3046 28.7396 19.3441 28.8332 19.3653C28.9268 19.3865 29.0236 19.389 29.1182 19.3728C29.2128 19.3565 29.3032 19.3219 29.3844 19.2707C29.4656 19.2195 29.5359 19.1528 29.5913 19.0745C29.6467 18.9962 29.6861 18.9077 29.7073 18.8141C29.7285 18.7205 29.731 18.6237 29.7148 18.5291L29.5987 17.8521C29.597 17.8425 29.5977 17.8326 29.6007 17.8234C29.6037 17.8141 29.6089 17.8057 29.6159 17.7989L32.6482 14.8428ZM14.6938 4.97461C14.5363 4.48975 14.125 4.14297 13.6205 4.06973L10.5135 3.61826L9.12416 0.802734C8.89858 0.345508 8.44164 0.0615234 7.93178 0.0615234C7.42192 0.0615234 6.96508 0.345508 6.7394 0.802734L5.35004 3.61816L2.24311 4.06963C1.73852 4.14297 1.32729 4.48975 1.16977 4.97451C1.01225 5.45938 1.14116 5.98164 1.50629 6.3376L3.75444 8.5291L3.22368 11.6235C3.18074 11.8681 3.20759 12.1198 3.30116 12.3499C3.39472 12.5799 3.55121 12.7789 3.75268 12.924C3.97913 13.0896 4.25232 13.179 4.53286 13.1794C4.74898 13.1791 4.96179 13.1262 5.15287 13.0252L7.93178 11.5643L10.7107 13.0252C11.162 13.2625 11.6985 13.2237 12.111 12.924C12.5235 12.6243 12.7262 12.1261 12.64 11.6235L12.1092 8.5292L14.3575 6.33779C14.5359 6.16509 14.6621 5.94563 14.7216 5.70454C14.781 5.46345 14.7714 5.21048 14.6938 4.97461ZM11.0395 7.53105C10.8851 7.68153 10.7697 7.86728 10.7031 8.0723C10.6365 8.27731 10.6207 8.49545 10.6572 8.70791L11.1545 11.6074L8.55043 10.2384C8.35962 10.1381 8.14729 10.0857 7.93173 10.0857C7.71617 10.0857 7.50385 10.1381 7.31303 10.2384L4.70903 11.6073L5.20639 8.70762C5.24284 8.49516 5.22708 8.27703 5.16046 8.07203C5.09383 7.86702 4.97835 7.68129 4.82397 7.53086L2.71733 5.47744L5.62866 5.0543C5.84198 5.02329 6.04457 4.94089 6.21896 4.81418C6.39336 4.68747 6.53433 4.52026 6.62973 4.32695L7.93168 1.68887L9.23383 4.32715C9.32924 4.52042 9.4702 4.68759 9.64458 4.81426C9.81895 4.94094 10.0215 5.02332 10.2348 5.0543L13.1461 5.47744L11.0395 7.53105ZM47.4913 4.97441C47.4155 4.73796 47.2746 4.52765 47.0847 4.36758C46.8949 4.20752 46.6638 4.10419 46.4179 4.06943L43.311 3.61797L41.9216 0.802734C41.696 0.345508 41.2391 0.0615234 40.7292 0.0615234C40.2194 0.0615234 39.7626 0.345508 39.5369 0.802734L38.1474 3.61807L35.0405 4.06953C34.5359 4.14287 34.1247 4.48965 33.967 4.97451C33.8095 5.45938 33.9384 5.98164 34.3036 6.3376L36.5518 8.529L36.021 11.6233C35.9348 12.1259 36.1375 12.6241 36.55 12.9238C36.7765 13.0894 37.0497 13.1788 37.3302 13.1792C37.5463 13.1789 37.7591 13.126 37.9502 13.025L40.7291 11.5641L43.508 13.025C43.9593 13.2623 44.4958 13.2235 44.9083 12.9237C45.3208 12.624 45.5235 12.1258 45.4373 11.6233L44.9066 8.52891L47.1548 6.3375C47.5199 5.98164 47.6488 5.45937 47.4913 4.97441ZM43.837 7.53096C43.6826 7.68141 43.5671 7.86715 43.5005 8.07217C43.4338 8.27719 43.4181 8.49534 43.4545 8.70781L43.9519 11.6074L41.3479 10.2385C41.1571 10.1382 40.9447 10.0858 40.7291 10.0858C40.5136 10.0858 40.3012 10.1382 40.1104 10.2385L37.5064 11.6074L38.0038 8.70771C38.0402 8.49525 38.0245 8.27711 37.9578 8.0721C37.8912 7.86709 37.7757 7.68137 37.6212 7.53096L35.5145 5.47744L38.4261 5.0543C38.6395 5.02331 38.8421 4.94091 39.0165 4.8142C39.1909 4.68749 39.3319 4.52027 39.4273 4.32695L40.7292 1.68887L42.0312 4.32695C42.1266 4.52029 42.2676 4.68753 42.442 4.81424C42.6164 4.94095 42.819 5.02334 43.0324 5.0543L45.9437 5.47744L43.837 7.53096ZM49.6618 19.1679C49.493 18.899 49.2682 18.6697 49.0026 18.4957C48.737 18.3217 48.437 18.2071 48.1231 18.1598C47.6845 18.0922 47.2357 18.1591 46.8359 18.3517C46.436 18.5442 46.1039 18.8534 45.8832 19.2384C45.6468 19.0762 45.3786 18.9663 45.0963 18.9159C44.1094 18.7404 43.1327 19.3272 42.8243 20.281L42.4818 21.3397C42.2963 21.2153 42.0912 21.1228 41.875 21.0663C40.8394 20.7994 39.7804 21.3901 39.4634 22.4111L39.2391 23.1334C38.9925 22.9663 38.7125 22.8548 38.4186 22.8065C37.4086 22.641 36.4457 23.2271 36.129 24.2001L33.8093 31.3237C33.2566 31.5711 32.1067 32.1557 30.9238 33.1835C30.8513 33.2464 30.792 33.323 30.7492 33.4089C30.7064 33.4948 30.6809 33.5883 30.6742 33.684C30.6675 33.7797 30.6797 33.8758 30.7102 33.9668C30.7406 34.0578 30.7887 34.1419 30.8516 34.2144C30.9146 34.2868 30.9912 34.3461 31.077 34.3889C31.1629 34.4317 31.2564 34.4572 31.3521 34.4639C31.4478 34.4706 31.5439 34.4584 31.6349 34.428C31.7259 34.3975 31.81 34.3495 31.8825 34.2865C33.2784 33.0734 34.6404 32.5584 34.6525 32.5539C34.6555 32.5528 34.6582 32.5513 34.6613 32.5501C34.6759 32.5445 34.6902 32.5381 34.7045 32.5315C34.7126 32.5278 34.7209 32.5244 34.7289 32.5203C34.7441 32.5127 34.7587 32.5041 34.7735 32.4954C34.7801 32.4915 34.787 32.4879 34.7934 32.4838C34.8095 32.4734 34.825 32.4622 34.8405 32.4505C34.8451 32.4471 34.8499 32.4439 34.8544 32.4404C34.8741 32.4249 34.893 32.4084 34.9113 32.3905L38.1665 29.2108L39.9136 27.5042C40.0449 27.3758 40.2217 27.3048 40.4053 27.3068H40.4066C40.4978 27.3076 40.5879 27.3265 40.6717 27.3624C40.7555 27.3983 40.8313 27.4504 40.8949 27.5158C40.9606 27.5831 41.0119 27.6631 41.0457 27.7509C41.0795 27.8386 41.0951 27.9324 41.0915 28.0264V28.0269C41.0862 28.1746 41.0337 28.3167 40.9417 28.4324L35.3844 35.4272C35.2658 35.5766 35.2103 35.7664 35.2297 35.9561C35.2491 36.1458 35.3419 36.3204 35.4883 36.4426C35.4946 36.4478 35.5012 36.4523 35.5076 36.4573C35.5199 36.467 35.5322 36.4766 35.545 36.4852C35.5528 36.4905 35.5609 36.4952 35.5688 36.5002C35.5807 36.5076 35.5924 36.515 35.6046 36.5217C35.6133 36.5265 35.6222 36.5308 35.6309 36.5352C35.6428 36.5411 35.6547 36.5469 35.6669 36.5521C35.6761 36.5562 35.6855 36.5598 35.6947 36.5634C35.7162 36.5716 35.738 36.5789 35.7601 36.5852C35.7728 36.5887 35.7854 36.5918 35.7983 36.5946C35.8079 36.5967 35.8173 36.5988 35.8268 36.6005C35.84 36.6028 35.8532 36.6047 35.8665 36.6063C35.8758 36.6075 35.8851 36.6088 35.8945 36.6096C35.9084 36.6107 35.9224 36.6112 35.9364 36.6116C35.9431 36.6118 35.9499 36.6126 35.9566 36.6126C35.9581 36.6126 35.9594 36.6123 35.9609 36.6122C36.001 36.6119 36.041 36.6083 36.0805 36.6014C36.1143 36.5955 36.1476 36.5874 36.1802 36.577C36.1857 36.5752 36.1911 36.5732 36.1964 36.5714C36.2298 36.5599 36.2623 36.546 36.2937 36.5298C36.2975 36.5278 36.3012 36.5255 36.305 36.5234C36.3385 36.5054 36.3706 36.4848 36.4009 36.4619L39.4102 34.1557C41.9911 32.1776 43.9381 29.5747 45.0977 26.5696C45.2641 26.1383 45.4136 25.7007 45.5459 25.2577L47.086 20.1063C47.1411 19.9394 47.2536 19.7974 47.4035 19.7056C47.5534 19.6138 47.731 19.578 47.9047 19.6048C48.1227 19.6377 48.3072 19.7587 48.4245 19.9454C48.5417 20.1321 48.5705 20.3509 48.5056 20.5615L46.1969 28.0534C46.0766 28.4457 45.9577 28.8385 45.8402 29.2316C44.8372 32.5731 43.7001 36.3605 41.1413 38.45L35.4942 43.0613C35.4103 43.1298 35.3426 43.2162 35.2962 43.314C35.2498 43.4119 35.2257 43.5189 35.2257 43.6272V48.4765H28.2694V41.6521C28.3056 41.3363 28.6436 38.7045 30.0342 36.4494C30.0846 36.3677 30.1184 36.277 30.1337 36.1822C30.1489 36.0875 30.1454 35.9907 30.1233 35.8974C30.1011 35.804 30.0608 35.7159 30.0046 35.6381C29.9485 35.5604 29.8775 35.4944 29.7958 35.444C29.7142 35.3937 29.6234 35.3599 29.5287 35.3446C29.4339 35.3293 29.3371 35.3328 29.2438 35.355C29.1504 35.3771 29.0623 35.4174 28.9845 35.4736C28.9068 35.5298 28.8408 35.6007 28.7905 35.6824C27.1328 38.3706 26.8239 41.4144 26.8115 41.5426C26.8092 41.5658 26.8081 41.5892 26.8081 41.6125V49.207C26.8081 49.4008 26.885 49.5867 27.0221 49.7237C27.1591 49.8607 27.3449 49.9377 27.5387 49.9377H35.9564C36.1502 49.9377 36.336 49.8607 36.473 49.7237C36.6101 49.5867 36.6871 49.4008 36.6871 49.207V43.9737L42.0656 39.5815C44.9711 37.2089 46.1764 33.1937 47.2398 29.6514C47.3584 29.2562 47.4755 28.8657 47.5934 28.4833L49.9021 20.9914C49.9957 20.6881 50.0226 20.3681 49.9811 20.0534C49.9397 19.7387 49.8307 19.4366 49.6618 19.1679ZM38.6549 25.014L38.5549 25.336L37.9077 27.4205L36.0148 29.2695L37.5182 24.6525C37.5565 24.5328 37.6319 24.4284 37.7334 24.3543C37.835 24.2803 37.9575 24.2404 38.0832 24.2405C38.1157 24.2405 38.1487 24.2432 38.1819 24.2486C38.415 24.2868 38.5393 24.4373 38.5926 24.5235C38.6459 24.6099 38.7249 24.7883 38.6549 25.014ZM41.8893 23.171L41.6091 24.0375L40.9972 25.9295C40.8768 25.8953 40.7535 25.8716 40.629 25.8589C40.5607 25.8512 40.4921 25.8468 40.4234 25.8457L40.3974 25.8455C40.2313 25.8455 40.068 25.8643 39.9099 25.9007L40.0507 25.4474V25.4472L40.8589 22.8443C40.9 22.7117 40.9906 22.6 41.1118 22.5325C41.2331 22.4649 41.3757 22.4466 41.5101 22.4814C41.6559 22.519 41.7761 22.6124 41.8488 22.7443C41.9214 22.8763 41.9358 23.0277 41.8893 23.171ZM45.2751 21.0606L44.1455 24.8391C44.0454 25.174 43.9346 25.5057 43.8132 25.8336C43.4535 26.8065 43.0002 27.7422 42.4597 28.6275L42.4602 28.6258C42.4727 28.5845 42.4834 28.5429 42.4933 28.5011C42.4965 28.4876 42.4992 28.474 42.5021 28.4605C42.5182 28.3864 42.5304 28.3116 42.5385 28.2363C42.54 28.2226 42.5417 28.209 42.543 28.1951C42.5471 28.152 42.5498 28.1087 42.5511 28.0654C42.5524 28.0222 42.552 27.9789 42.5507 27.9357C42.5503 27.9222 42.5494 27.9088 42.5487 27.8953C42.545 27.8197 42.5373 27.7443 42.5257 27.6694C42.5237 27.656 42.5218 27.6426 42.5195 27.6291C42.5123 27.5878 42.5041 27.5467 42.4947 27.5059L42.4937 27.5014C42.4836 27.4592 42.4722 27.4172 42.4596 27.3757C42.4557 27.3627 42.4513 27.35 42.4471 27.3371C42.433 27.2935 42.4176 27.2502 42.4009 27.2075C42.3897 27.1792 42.3779 27.1511 42.3655 27.1232C42.3598 27.1104 42.3543 27.0978 42.3485 27.0851C42.3308 27.0471 42.312 27.0097 42.2921 26.9729L42.2891 26.967C42.2705 26.9328 42.2508 26.899 42.2302 26.8656L43.2797 23.6205L43.2798 23.6203L44.2146 20.7303C44.2995 20.4679 44.5683 20.3065 44.8402 20.3545C45.0535 20.3925 45.1671 20.531 45.2159 20.6102C45.2646 20.6895 45.3372 20.8531 45.2751 21.0606ZM23.1885 41.5429C23.1749 41.397 22.8228 37.9389 20.8524 35.1397C19.2365 32.8439 17.0293 31.6975 16.1909 31.3232L13.8713 24.2001C13.5545 23.2271 12.5911 22.6409 11.5818 22.8065C11.2878 22.8548 11.0078 22.9663 10.7612 23.1334L10.5369 22.4111C10.2199 21.39 9.16049 20.7992 8.12524 21.0663C7.9091 21.1229 7.70398 21.2153 7.5184 21.3397L7.17592 20.281C6.86752 19.3271 5.89067 18.74 4.90385 18.9159C4.6187 18.9667 4.35112 19.0779 4.11694 19.2384C3.89627 18.8534 3.56415 18.5442 3.16431 18.3517C2.76448 18.1591 2.3157 18.0922 1.87709 18.1598C1.56314 18.2071 1.26311 18.3216 0.99753 18.4956C0.73195 18.6696 0.507087 18.8989 0.338324 19.1679C0.169309 19.4366 0.060342 19.7387 0.0188793 20.0535C-0.0225834 20.3682 0.00443636 20.6882 0.0980901 20.9916L2.40678 28.4835C2.52465 28.8661 2.64184 29.2564 2.76049 29.6517C3.66664 32.67 4.6937 36.0911 6.80502 38.489C6.86843 38.561 6.9454 38.6198 7.03155 38.6621C7.11769 38.7044 7.21132 38.7293 7.30709 38.7353C7.40286 38.7414 7.49889 38.7286 7.58969 38.6975C7.68048 38.6665 7.76428 38.6178 7.83627 38.5544C7.9083 38.491 7.96712 38.414 8.00939 38.3278C8.05166 38.2417 8.07654 38.148 8.08262 38.0523C8.08869 37.9565 8.07584 37.8605 8.0448 37.7697C8.01376 37.6789 7.96514 37.5951 7.9017 37.523C6.00151 35.365 5.02309 32.1064 4.1601 29.2313C4.04038 28.8327 3.92221 28.4389 3.80327 28.053L1.49457 20.561C1.42963 20.3504 1.45844 20.1317 1.57573 19.945C1.69301 19.7583 1.87758 19.6375 2.09545 19.6044C2.26921 19.5776 2.44685 19.6133 2.59677 19.7051C2.74668 19.7969 2.85917 19.939 2.9142 20.106L3.32436 21.4779C3.32447 21.4782 3.32454 21.4785 3.32455 21.4788L4.45414 25.2572C4.49291 25.3869 4.53354 25.5158 4.57504 25.6441C5.59682 28.8003 7.45952 31.5588 9.99868 33.6813C10.0426 33.718 10.0869 33.7543 10.1312 33.7906C10.2821 33.9146 10.4351 34.0362 10.59 34.1552L13.5992 36.4614C13.6299 36.485 13.6622 36.5052 13.6954 36.5232L13.7062 36.5294C13.7379 36.546 13.7706 36.5597 13.804 36.5713C13.8092 36.573 13.8143 36.575 13.8196 36.5767C13.8575 36.589 13.8964 36.598 13.9359 36.6037C13.9702 36.609 14.0049 36.6118 14.0397 36.612L14.0435 36.6123C14.0496 36.6123 14.0555 36.6116 14.0616 36.6114C14.0766 36.611 14.0914 36.6105 14.1065 36.6093C14.1151 36.6085 14.1236 36.6073 14.132 36.6063C14.1551 36.6038 14.178 36.5999 14.2006 36.5946C14.2232 36.5896 14.2455 36.5835 14.2675 36.5766C14.2806 36.5724 14.2935 36.5677 14.3064 36.5627C14.3282 36.5545 14.3495 36.5451 14.3702 36.5345C14.3786 36.5303 14.387 36.5263 14.3951 36.5217C14.4077 36.5147 14.4199 36.5071 14.4322 36.4994C14.4398 36.4946 14.4475 36.4901 14.4548 36.4851C14.4679 36.4761 14.4805 36.4663 14.4931 36.4565C14.4993 36.4518 14.5056 36.4474 14.5117 36.4423C14.6581 36.3201 14.751 36.1455 14.7704 35.9557C14.7899 35.766 14.7343 35.5762 14.6157 35.4269L9.05834 28.432C8.95354 28.2996 8.90051 28.1336 8.90916 27.9649C8.9178 27.7963 8.98752 27.6365 9.10532 27.5155C9.16882 27.4501 9.24467 27.398 9.32847 27.3621C9.41227 27.3262 9.50235 27.3074 9.5935 27.3065H9.59399C9.68506 27.3053 9.77547 27.3221 9.86002 27.356C9.94456 27.3899 10.0216 27.4402 10.0866 27.504L15.089 32.3903C15.1073 32.4082 15.1262 32.4247 15.1459 32.4402L15.1534 32.4456C15.171 32.4593 15.1891 32.4722 15.2078 32.4841C15.2112 32.4862 15.2148 32.4881 15.2182 32.4901C15.236 32.501 15.2539 32.5112 15.2723 32.5205C15.2786 32.5236 15.285 32.5263 15.2914 32.5292C15.3069 32.5364 15.3224 32.5435 15.3383 32.5495C15.3411 32.5506 15.3437 32.552 15.3464 32.553C15.3721 32.5626 17.9386 33.5386 19.6574 35.9804C21.3082 38.3258 21.6925 41.3171 21.7309 41.6517V48.4761H14.7746V43.6269C14.7746 43.5185 14.7505 43.4115 14.704 43.3137C14.6576 43.2158 14.59 43.1295 14.5061 43.0609L10.0927 39.4569C10.0184 39.3962 9.93285 39.3508 9.84096 39.3231C9.74907 39.2955 9.65263 39.2862 9.55715 39.2959C9.46168 39.3055 9.36904 39.3339 9.28452 39.3793C9.20001 39.4248 9.12528 39.4864 9.06459 39.5607C9.0039 39.6351 8.95844 39.7206 8.93081 39.8125C8.90318 39.9044 8.89392 40.0008 8.90356 40.0963C8.9132 40.1918 8.94155 40.2844 8.98699 40.3689C9.03243 40.4534 9.09408 40.5282 9.1684 40.5889L13.3133 43.9736V49.2069C13.3133 49.4007 13.3903 49.5866 13.5273 49.7236C13.6644 49.8606 13.8502 49.9376 14.044 49.9376H22.4617C22.6554 49.9376 22.8413 49.8606 22.9783 49.7236C23.1153 49.5866 23.1923 49.4007 23.1923 49.2069V41.6124C23.192 41.5892 23.1907 41.566 23.1885 41.5429ZM7.71098 26.9672C7.70981 26.9693 7.70883 26.9716 7.70756 26.9738C7.68774 27.0105 7.66918 27.0478 7.65161 27.0853C7.64555 27.0981 7.64008 27.111 7.63432 27.1239C7.61577 27.1657 7.59851 27.208 7.58256 27.2509C7.57202 27.2794 7.56225 27.3083 7.55297 27.3371C7.54877 27.3501 7.54438 27.3629 7.54037 27.376C7.52787 27.4175 7.51635 27.4593 7.50639 27.5014C7.5058 27.5036 7.50551 27.506 7.50493 27.5082C7.49555 27.5481 7.48754 27.5885 7.48061 27.6288C7.47817 27.6428 7.47621 27.6566 7.47407 27.6706C7.46245 27.7448 7.45486 27.8196 7.45131 27.8946C7.45063 27.9086 7.44965 27.9224 7.44926 27.9363C7.44799 27.9794 7.4476 28.0225 7.44887 28.0655L7.44916 28.07C7.45043 28.1118 7.45327 28.1536 7.45698 28.1953C7.45815 28.2091 7.45991 28.2227 7.46147 28.2364C7.46636 28.2816 7.47268 28.3265 7.48041 28.3713C7.48569 28.4014 7.49164 28.4315 7.49819 28.4614C7.50102 28.4746 7.50366 28.4877 7.50678 28.5008C7.51684 28.5433 7.52787 28.5856 7.54047 28.6275C6.82377 27.4543 6.25688 26.1844 5.85473 24.8392L4.72514 21.0607C4.66303 20.8532 4.73549 20.6895 4.78422 20.6104C4.83295 20.5312 4.94663 20.3927 5.15991 20.3548C5.19213 20.349 5.22436 20.3463 5.25629 20.3463C5.49291 20.3463 5.71079 20.4992 5.78559 20.7308L7.10629 24.8141L7.76997 26.866C7.74916 26.8992 7.72954 26.933 7.71098 26.9672ZM10.0156 25.8874C10.0022 25.8848 9.98901 25.8818 9.97563 25.8795C9.9168 25.8692 9.85757 25.8614 9.79809 25.8562C9.78393 25.8549 9.76977 25.8542 9.75561 25.8532C9.7052 25.8496 9.65468 25.8478 9.60415 25.8478C9.59077 25.8478 9.57748 25.8473 9.56401 25.8476C9.50424 25.8486 9.44467 25.8522 9.3852 25.8582C9.37114 25.8596 9.35737 25.8616 9.3434 25.8633C9.29222 25.8694 9.24128 25.8774 9.19067 25.8871C9.17856 25.8895 9.16655 25.8913 9.15454 25.8938C9.10385 25.9046 9.05336 25.9165 9.00346 25.931L8.41274 24.1049L8.11069 23.1711C8.08769 23.101 8.07944 23.0269 8.08645 22.9535C8.09346 22.88 8.11557 22.8088 8.15141 22.7443C8.18666 22.6795 8.23494 22.6227 8.29323 22.5774C8.35151 22.5321 8.41854 22.4994 8.49008 22.4813C8.62447 22.4466 8.76709 22.4649 8.88833 22.5325C9.00957 22.6001 9.10011 22.7118 9.14116 22.8444L9.94936 25.4472L9.94946 25.4475L10.0908 25.9022C10.0659 25.8966 10.0407 25.8923 10.0156 25.8874ZM13.4008 28.6986L12.0924 27.4205L11.4452 25.336L11.3451 25.014C11.2751 24.7883 11.3541 24.61 11.4074 24.5236C11.4606 24.4373 11.585 24.2869 11.8182 24.2487C11.9589 24.2249 12.1035 24.2526 12.2254 24.3268C12.3473 24.401 12.4384 24.5167 12.4818 24.6526L13.9852 29.2695L13.4008 28.6986Z"></path></g></svg>