<svg xmlns="http://www.w3.org/2000/svg" width="57" height="57" viewBox="0 0 57 57"><g><path d="M29.8307 2.8451L29.8917 2.78583C16.3378 2.65508 2.62091 13.6019 2.8545 29.6905C3.08113 45.2544 15.6187 56.2291 30.2499 55.5562C32.1739 55.4708 34.0812 55.1605 35.933 54.6314C38.2367 56.44 42.057 57.6446 44.5569 56.6309C45.5767 56.2082 46.4867 55.5292 47.2476 54.661C50.0647 52.088 50.4927 47.6949 49.8276 43.8702C54.0237 37.9144 55.21 31.0633 54.1309 24.6865C52.1471 12.9586 42.5024 2.83812 29.8307 2.8451ZM42.9688 8.62402C42.919 8.72571 42.8973 8.83887 42.906 8.95175C43.1222 11.0812 40.8228 12.5751 38.9645 11.5292C37.5917 10.7552 36.8377 8.75128 34.9986 8.08012C31.6297 6.84676 29.1377 10.7717 26.4086 10.4884C25.3679 10.3777 24.3429 9.56364 23.7963 8.41396C23.3867 7.55278 23.2045 6.48939 23.2071 5.13313C30.2412 3.04383 37.1567 4.32077 42.9688 8.62402ZM6.42384 22.1178C11.006 20.7397 17.185 23.6257 12.7074 25.9521C11.6658 26.4768 10.5955 26.9606 10.001 27.9516C9.24706 29.212 9.63842 30.9823 10.857 31.8182C11.3242 32.1363 11.9352 32.3638 12.0023 32.6218C12.1592 33.2215 9.13462 35.2228 5.80062 34.2361C5.45109 32.6284 5.25612 30.991 5.21837 29.3462C5.15364 26.9087 5.45839 24.4754 6.12225 22.1291C6.22224 22.1496 6.32567 22.1457 6.42384 22.1178ZM18.8821 45.087C20.4301 42.2368 23.6917 41.4366 24.1154 41.9422C24.3838 42.2638 23.9524 43.1537 23.8234 43.8999C23.466 45.9229 25.435 47.9163 27.4668 47.5869C29.794 47.2068 30.8879 44.4847 32.6704 44.2564C33.5142 44.1518 34.4956 44.6634 35.3028 45.637C36.4777 47.0499 37.2282 49.9847 37.0399 52.1516C34.6959 53.0051 32.2278 53.4682 29.7339 53.5227C25.8578 53.6101 22.0208 52.7321 18.5683 50.9679C18.0749 49.2308 18.0715 46.5801 18.8821 45.087ZM35.5311 33.4926C35.4902 32.4396 35.3629 31.4146 35.2051 30.0453C35.1934 29.9497 35.1606 29.858 35.109 29.7768C35.0575 29.6955 34.9885 29.6267 34.907 29.5754C34.0502 28.7648 32.5554 27.1549 30.039 25.3245C29.9626 25.2688 29.875 25.2303 29.7823 25.2117C29.6896 25.1931 29.5939 25.1948 29.5019 25.2168C29.41 25.2388 29.3238 25.2804 29.2495 25.3389C29.1752 25.3974 29.1145 25.4713 29.0715 25.5555C27.3509 28.9296 26.2692 32.1328 25.5884 35.8486C25.0175 35.5609 24.9826 35.5435 24.8728 35.4825C25.5544 30.7661 25.6765 26.3025 25.741 22.1273C25.7426 22.0258 25.7205 21.9253 25.6764 21.8337C25.6324 21.7422 25.5677 21.6622 25.4873 21.6C23.3187 19.9212 21.3383 18.5144 19.4391 17.3029C19.0834 16.2046 18.835 16.032 18.9875 15.7984C19.1061 15.6154 19.1767 15.727 20.336 15.6023C22.7861 17.2349 25.0968 18.6617 27.2044 19.8454C27.3822 19.9448 27.5967 19.957 27.7849 19.8751C31.5068 18.2669 35.7543 16.9211 40.0924 15.9728C40.1456 16.0556 40.2336 16.1994 40.2841 16.2865C37.2143 17.7857 34.0799 20.0058 31.1773 22.7567C31.1143 22.8162 31.0638 22.8877 31.0288 22.9669C30.9937 23.0462 30.9748 23.1316 30.9731 23.2183C30.9714 23.3049 30.9869 23.3911 31.0188 23.4716C31.0508 23.5522 31.0984 23.6256 31.159 23.6876C32.8892 25.4657 34.4538 26.9318 35.8048 28.0422C36.3906 28.5199 36.9868 27.6936 40.2449 27.0451C40.3818 27.2064 40.5256 27.3964 40.6677 27.5986C37.7651 29.4464 36.7697 30.2222 35.7952 33.6041C35.7073 33.5667 35.6193 33.5295 35.5311 33.4926ZM39.2356 30.1777C44.9866 36.3907 51.9082 48.136 45.9585 54.1154C50.0612 47.7777 44.2536 38.1296 37.8 31.9785C38.1392 31.2793 38.6296 30.6643 39.2356 30.1777ZM45.894 48.3103C46.0526 50.0379 45.8242 51.3087 45.4189 52.3285C43.6975 54.8336 40.5343 55.0794 38.4372 53.7624C40.9405 52.7112 43.2573 51.1736 44.9596 49.1288C45.2795 48.8673 45.5854 48.5892 45.894 48.3103ZM41.1732 28.8285C41.4225 28.6655 41.6587 28.5173 41.8601 28.4014C41.8845 28.3918 41.9106 28.3953 41.9333 28.3822C42.0817 28.2925 42.1884 28.1476 42.2301 27.9793C42.2718 27.8109 42.245 27.633 42.1555 27.4844C41.9734 27.1828 41.4905 26.421 40.944 25.8745C40.87 25.7999 40.7789 25.7444 40.6787 25.7128C40.5785 25.6812 40.4721 25.6745 40.3687 25.6932C38.9026 25.9503 37.6039 26.3731 36.3557 26.8002C35.2304 25.8545 33.9578 24.6638 32.5624 23.2518C35.4274 20.6194 38.4973 18.5205 41.473 17.1634C41.6173 17.0961 41.7317 16.978 41.7944 16.8317C41.8571 16.6854 41.8637 16.5211 41.813 16.3702C41.8008 16.2595 41.7596 16.154 41.6936 16.0643C41.2691 15.5151 40.9326 14.4613 40.2031 14.6121C35.7656 15.5561 31.4031 16.9141 27.5644 18.5467C21.4333 15.0706 21.0481 14.2007 20.4162 14.2757C19.2177 14.4282 18.4628 14.2155 17.8945 15.0802C17.7563 15.2912 17.6701 15.5319 17.643 15.7827C17.6159 16.0335 17.6486 16.2871 17.7385 16.5228C18.9492 19.4488 16.9828 16.7058 24.4283 22.4342C24.3585 26.7531 24.2252 31.0311 23.5174 35.7083C23.3936 36.5302 24.7856 36.7525 25.5631 37.3408C25.6464 37.4045 25.7438 37.447 25.8471 37.4646C25.9504 37.4822 26.0565 37.4745 26.1561 37.4421C26.2557 37.4097 26.346 37.3536 26.4192 37.2785C26.4923 37.2035 26.5461 37.1118 26.576 37.0113C27.1425 36.4552 26.8288 33.1326 29.8899 26.8446C31.22 27.8609 32.4961 29.001 33.9369 30.4549C33.9849 30.9796 34.0563 31.1906 34.2045 33.5231C34.2681 34.515 34.3239 34.3964 35.2226 34.7817C35.8911 35.072 35.9338 35.1016 36.1613 35.0693C36.3276 35.0968 36.4981 35.0585 36.6367 34.9625C36.7753 34.8665 36.8711 34.7204 36.904 34.5551C36.9859 34.1472 37.1201 33.7157 37.2683 33.293C41.1985 37.1107 44.5464 41.2562 45.6647 46.7527C43.5459 48.7987 41.0742 50.4441 38.3692 51.6094C38.3953 49.2098 37.5716 46.3204 36.3095 44.8011C35.1982 43.4623 33.8079 42.7946 32.5031 42.9585C30.1418 43.2627 29.0488 46.0048 27.2559 46.2968C26.1184 46.4851 24.9103 45.2666 25.1099 44.1265C25.2598 43.2897 25.9327 42.0747 25.1169 41.1028C24.6235 40.5101 23.7728 40.3305 22.7207 40.5938C20.628 41.1202 18.7635 42.5654 17.7324 44.4621C16.9253 45.9499 16.7797 48.2406 17.0543 50.1189C11.8593 46.9584 7.89341 41.8472 6.16409 35.6795C8.32574 36.0987 10.4961 35.5984 12.1531 34.4618C13.0578 33.8395 13.464 33.0498 13.2662 32.2906C13.0265 31.3754 12.1086 31.0877 11.5944 30.7391C10.9494 30.2972 10.7236 29.2878 11.1228 28.6236C11.5142 27.9682 12.3605 27.5899 13.3106 27.1113C16.6202 25.3925 16.085 22.5466 13.0587 21.2566C11.0409 20.3937 8.70664 20.2193 6.56679 20.7345C9.06837 13.6725 14.8586 8.08361 21.891 5.5611C21.9956 9.59328 24.1537 11.5632 26.2674 11.7889C29.3591 12.1114 32.083 8.40698 34.5488 9.30738C35.9547 9.82164 36.686 11.7462 38.3221 12.6675C40.6807 13.9976 43.8744 12.5978 44.1943 9.59415C48.6936 13.3997 51.7226 18.762 52.7834 24.5313C53.8572 30.373 52.9141 36.6313 49.4363 42.1121C48.0608 37.0811 44.5098 32.736 41.1732 28.8285Z"></path><path d="M48.2254 21.1974C47.7574 20.8723 47.7399 20.8575 47.7853 20.2281C47.8062 19.9327 47.8306 19.5971 47.7399 19.2458C47.2727 17.4241 44.6326 17.3169 43.8899 19.2336C43.367 20.5855 41.0162 21.2375 42.1127 24.0624C43.0584 26.4995 46.6417 27.4583 48.554 25.6462C49.1433 25.0884 49.4849 24.2481 49.4684 23.4C49.4457 22.3453 48.9672 21.7108 48.2254 21.1974ZM43.3321 23.5891C42.5607 21.6027 44.3824 21.58 45.1094 19.706C45.2401 19.3687 45.5739 19.1403 45.8651 19.1403C46.1326 19.1403 46.4133 19.3365 46.4735 19.5701C46.5798 19.9858 46.2843 20.7293 46.6591 21.4475C47.1551 22.3976 48.1374 22.232 48.1609 23.4262C48.208 25.8571 44.2055 25.8458 43.3321 23.5891ZM42.9904 4.13344L43.4681 0.716642C43.4839 0.548865 43.4344 0.38144 43.33 0.24922C43.2255 0.117 43.074 0.0301714 42.9071 0.0068104C42.7402 -0.0165506 42.5707 0.0253555 42.434 0.123805C42.2972 0.222255 42.2036 0.369662 42.1728 0.535342L41.6952 3.95301C41.5766 4.80983 42.8701 4.99026 42.9904 4.13344ZM47.0374 2.02845L44.9054 5.08701C44.4059 5.80262 45.4946 6.52956 45.9775 5.834L48.1095 2.77631C48.1607 2.70601 48.1974 2.6262 48.2173 2.54155C48.2373 2.4569 48.2402 2.36912 48.2258 2.28335C48.2114 2.19758 48.1801 2.11554 48.1336 2.04203C48.0871 1.96853 48.0264 1.90504 47.9551 1.85528C47.8838 1.80552 47.8032 1.7705 47.7182 1.75226C47.6331 1.73402 47.5453 1.73293 47.4599 1.74906C47.3744 1.76518 47.293 1.7982 47.2205 1.84618C47.1479 1.89415 47.0857 1.95612 47.0374 2.02845ZM48.4494 9.07473L52.2219 6.24541C52.3606 6.14138 52.4523 5.98651 52.4768 5.81488C52.5013 5.64324 52.4566 5.4689 52.3526 5.33019C52.2486 5.19149 52.0937 5.09979 51.9221 5.07527C51.7504 5.05075 51.5761 5.09542 51.4374 5.19945L47.6641 8.02964C46.9677 8.55175 47.767 9.58899 48.4486 9.0756L48.4494 9.07473Z"></path></g></svg>