<svg xmlns="http://www.w3.org/2000/svg" width="57" height="57" viewBox="0 0 57 57"><g><path d="M50.1234 5.2579V3.90819C50.1207 2.87264 49.7081 1.88029 48.9759 1.14805C48.2436 0.415805 47.2513 0.00322379 46.2157 0.000488281C45.1797 0.00161783 44.1864 0.413683 43.4538 1.14627C42.7212 1.87887 42.3092 2.87215 42.308 3.90819V5.1945H38.3089V3.90819C38.3089 2.87286 37.898 1.87984 37.1665 1.14718C36.435 0.41452 35.4426 0.00210346 34.4073 0.000488281C33.3713 0.00177883 32.3781 0.413896 31.6455 1.14645C30.913 1.87901 30.5009 2.8722 30.4996 3.90819V5.1945H26.5004V3.90819C26.5004 3.39542 26.3994 2.88768 26.2032 2.41394C26.007 1.94021 25.7194 1.50976 25.3568 1.14718C24.9942 0.784602 24.5638 0.496988 24.09 0.300761C23.6163 0.104533 23.1085 0.0035359 22.5958 0.0035359C22.083 0.0035359 21.5753 0.104533 21.1015 0.300761C20.6278 0.496988 20.1973 0.784602 19.8348 1.14718C19.4722 1.50976 19.1846 1.94021 18.9883 2.41394C18.7921 2.88768 18.6911 3.39542 18.6911 3.90819V5.1945H14.692V3.90819C14.6892 2.87264 14.2767 1.88029 13.5444 1.14805C12.8122 0.415805 11.8198 0.00322379 10.7843 0.000488281C9.74829 0.00177883 8.7551 0.413896 8.02254 1.14645C7.28999 1.87901 6.87787 2.8722 6.87658 3.90819V5.2579C4.98104 5.49164 3.23613 6.40966 1.96983 7.83941C0.703526 9.26917 0.00302896 11.1122 0 13.0221V49.1729C0.00242014 51.2482 0.827887 53.2377 2.29532 54.7052C3.76276 56.1726 5.75233 56.9981 7.82759 57.0005H49.1724C51.2477 56.9981 53.2372 56.1726 54.7047 54.7052C56.1721 53.2377 56.9976 51.2482 57 49.1729V13.0221C56.997 11.1122 56.2965 9.26917 55.0302 7.83941C53.7639 6.40966 52.019 5.49164 50.1234 5.2579ZM44.4417 3.90819C44.4424 3.43789 44.6295 2.98704 44.962 2.65449C45.2946 2.32194 45.7454 2.13482 46.2157 2.13418C46.6853 2.13706 47.1349 2.32488 47.467 2.65695C47.799 2.98902 47.9869 3.43858 47.9897 3.90819V8.6145C47.9897 9.085 47.8028 9.53622 47.4701 9.86891C47.1374 10.2016 46.6862 10.3885 46.2157 10.3885C45.7452 10.3885 45.294 10.2016 44.9613 9.86891C44.6286 9.53622 44.4417 9.085 44.4417 8.6145V3.90819ZM32.6333 3.90819C32.6337 3.43784 32.8208 2.9869 33.1534 2.65431C33.486 2.32172 33.9369 2.13466 34.4073 2.13418C34.8768 2.13563 35.3265 2.3232 35.6579 2.65575C35.9893 2.9883 36.1754 3.4387 36.1752 3.90819V8.6145C36.1752 9.08419 35.9886 9.53464 35.6565 9.86676C35.3244 10.1989 34.8739 10.3855 34.4042 10.3855C33.9345 10.3855 33.4841 10.1989 33.152 9.86676C32.8198 9.53464 32.6333 9.08419 32.6333 8.6145V3.90819ZM20.8248 3.90819C20.8248 3.4385 21.0114 2.98805 21.3435 2.65593C21.6756 2.32381 22.1261 2.13723 22.5958 2.13723C23.0655 2.13723 23.5159 2.32381 23.848 2.65593C24.1802 2.98805 24.3667 3.4385 24.3667 3.90819V8.6145C24.3667 9.08419 24.1802 9.53464 23.848 9.86676C23.5159 10.1989 23.0655 10.3855 22.5958 10.3855C22.1261 10.3855 21.6756 10.1989 21.3435 9.86676C21.0114 9.53464 20.8248 9.08419 20.8248 8.6145V3.90819ZM9.01027 3.90819C9.01075 3.43784 9.19781 2.9869 9.5304 2.65431C9.86299 2.32172 10.3139 2.13466 10.7843 2.13418C11.2539 2.13706 11.7034 2.32488 12.0355 2.65695C12.3676 2.98902 12.5554 3.43858 12.5583 3.90819V8.6145C12.5583 9.085 12.3714 9.53622 12.0387 9.86891C11.706 10.2016 11.2548 10.3885 10.7843 10.3885C10.3138 10.3885 9.86256 10.2016 9.52986 9.86891C9.19717 9.53622 9.01027 9.085 9.01027 8.6145V3.90819ZM6.87658 7.41415V8.6145C6.87658 9.65089 7.28828 10.6448 8.02112 11.3777C8.75395 12.1105 9.74789 12.5222 10.7843 12.5222C11.8207 12.5222 12.8146 12.1105 13.5474 11.3777C14.2803 10.6448 14.692 9.65089 14.692 8.6145V7.32819H18.6911V8.6145C18.6911 9.65008 19.1025 10.6432 19.8348 11.3755C20.567 12.1078 21.5602 12.5192 22.5958 12.5192C23.6314 12.5192 24.6245 12.1078 25.3568 11.3755C26.089 10.6432 26.5004 9.65008 26.5004 8.6145V7.32819H30.4996V8.6145C30.4996 9.65008 30.911 10.6432 31.6432 11.3755C32.3755 12.1078 33.3686 12.5192 34.4042 12.5192C35.4398 12.5192 36.433 12.1078 37.1652 11.3755C37.8975 10.6432 38.3089 9.65008 38.3089 8.6145V7.32819H42.308V8.6145C42.308 9.65089 42.7197 10.6448 43.4526 11.3777C44.1854 12.1105 45.1793 12.5222 46.2157 12.5222C47.2521 12.5222 48.246 12.1105 48.9789 11.3777C49.7117 10.6448 50.1234 9.65089 50.1234 8.6145V7.41415C51.4484 7.63959 52.6511 8.3261 53.519 9.35238C54.3869 10.3787 54.8641 11.6787 54.8663 13.0227V16.2336H2.13369V13.0221C2.13607 11.6782 2.61335 10.3783 3.48121 9.35214C4.34908 8.32599 5.55168 7.63957 6.87658 7.41415ZM49.1724 54.8668H7.82759C6.31802 54.865 4.87079 54.2646 3.80336 53.1971C2.73593 52.1297 2.13546 50.6825 2.13369 49.1729V18.3685H54.8663V49.1729C54.8645 50.6825 54.2641 52.1297 53.1966 53.1971C52.1292 54.2646 50.682 54.865 49.1724 54.8668Z"></path><path d="M14.896 23.7056H10.5884C9.83852 23.7065 9.1196 24.0049 8.58933 24.5351C8.05906 25.0654 7.76073 25.7843 7.75977 26.5342V30.8418C7.76073 31.5918 8.05906 32.3107 8.58933 32.8409C9.1196 33.3712 9.83852 33.6695 10.5884 33.6705H14.896C15.646 33.6695 16.3649 33.3712 16.8951 32.8409C17.4254 32.3107 17.7237 31.5918 17.7247 30.8418V26.5342C17.7237 25.7843 17.4254 25.0654 16.8951 24.5351C16.3649 24.0049 15.646 23.7065 14.896 23.7056ZM15.591 30.8418C15.5909 31.0261 15.5176 31.2028 15.3873 31.3331C15.257 31.4634 15.0803 31.5367 14.896 31.5368H10.5884C10.4042 31.5367 10.2275 31.4634 10.0972 31.3331C9.96689 31.2028 9.89362 31.0261 9.89346 30.8418V26.5342C9.89362 26.35 9.96689 26.1733 10.0972 26.043C10.2275 25.9127 10.4042 25.8394 10.5884 25.8393H14.896C15.0803 25.8394 15.257 25.9127 15.3873 26.043C15.5176 26.1733 15.5909 26.35 15.591 26.5342V30.8418ZM30.6543 23.7056H26.3466C25.5967 23.7065 24.8778 24.0049 24.3475 24.5351C23.8173 25.0654 23.5189 25.7843 23.518 26.5342V30.8418C23.5189 31.5918 23.8173 32.3107 24.3475 32.8409C24.8778 33.3712 25.5967 33.6695 26.3466 33.6705H30.6543C31.4042 33.6695 32.1231 33.3712 32.6534 32.8409C33.1836 32.3107 33.482 31.5918 33.4829 30.8418V26.5342C33.482 25.7843 33.1836 25.0654 32.6534 24.5351C32.1231 24.0049 31.4042 23.7065 30.6543 23.7056ZM31.3492 30.8418C31.3491 31.0261 31.2758 31.2028 31.1455 31.3331C31.0152 31.4634 30.8385 31.5367 30.6543 31.5368H26.3466C26.1624 31.5367 25.9857 31.4634 25.8554 31.3331C25.7251 31.2028 25.6518 31.0261 25.6517 30.8418V26.5342C25.6518 26.35 25.7251 26.1733 25.8554 26.043C25.9857 25.9127 26.1624 25.8394 26.3466 25.8393H30.6543C30.8385 25.8394 31.0152 25.9127 31.1455 26.043C31.2758 26.1733 31.3491 26.35 31.3492 26.5342V30.8418ZM47.7951 25.165L43.0095 29.9481L40.7198 27.6584C40.5185 27.4641 40.249 27.3566 39.9693 27.3591C39.6896 27.3616 39.422 27.4738 39.2243 27.6717C39.0265 27.8695 38.9144 28.1371 38.912 28.4168C38.9096 28.6966 39.0172 28.966 39.2116 29.1672L42.2554 32.2111C42.3545 32.3102 42.4721 32.3889 42.6015 32.4425C42.731 32.4962 42.8697 32.5238 43.0098 32.5238C43.15 32.5238 43.2887 32.4962 43.4182 32.4425C43.5476 32.3889 43.6652 32.3102 43.7643 32.2111L49.3039 26.6714C49.403 26.5723 49.4816 26.4547 49.5352 26.3253C49.5888 26.1958 49.6164 26.0571 49.6164 25.917C49.6164 25.7769 49.5888 25.6381 49.5352 25.5087C49.4816 25.3793 49.403 25.2616 49.3039 25.1626C49.2049 25.0635 49.0872 24.9849 48.9578 24.9313C48.8284 24.8777 48.6896 24.8501 48.5495 24.8501C48.4094 24.8501 48.2707 24.8777 48.1412 24.9313C48.0118 24.9849 47.8942 25.0635 47.7951 25.1626V25.165ZM14.896 38.4012H10.5884C9.83852 38.4022 9.1196 38.7005 8.58933 39.2308C8.05906 39.761 7.76073 40.48 7.75977 41.2299V45.5375C7.76073 46.2874 8.05906 47.0063 8.58933 47.5366C9.1196 48.0668 9.83852 48.3652 10.5884 48.3661H14.896C15.646 48.3652 16.3649 48.0668 16.8951 47.5366C17.4254 47.0063 17.7237 46.2874 17.7247 45.5375V41.2299C17.7237 40.48 17.4254 39.761 16.8951 39.2308C16.3649 38.7005 15.646 38.4022 14.896 38.4012ZM15.591 45.5375C15.5909 45.7218 15.5176 45.8984 15.3873 46.0287C15.257 46.159 15.0803 46.2323 14.896 46.2325H10.5884C10.4042 46.2323 10.2275 46.159 10.0972 46.0287C9.96689 45.8984 9.89362 45.7218 9.89346 45.5375V41.2299C9.89362 41.0456 9.96689 40.8689 10.0972 40.7386C10.2275 40.6083 10.4042 40.5351 10.5884 40.5349H14.896C15.0803 40.5351 15.257 40.6083 15.3873 40.7386C15.5176 40.8689 15.5909 41.0456 15.591 41.2299V45.5375ZM30.6543 38.4012H26.3466C25.5967 38.4022 24.8778 38.7005 24.3475 39.2308C23.8173 39.761 23.5189 40.48 23.518 41.2299V45.5375C23.5189 46.2874 23.8173 47.0063 24.3475 47.5366C24.8778 48.0668 25.5967 48.3652 26.3466 48.3661H30.6543C31.4042 48.3652 32.1231 48.0668 32.6534 47.5366C33.1836 47.0063 33.482 46.2874 33.4829 45.5375V41.2299C33.482 40.48 33.1836 39.761 32.6534 39.2308C32.1231 38.7005 31.4042 38.4022 30.6543 38.4012ZM31.3492 45.5375C31.3491 45.7218 31.2758 45.8984 31.1455 46.0287C31.0152 46.159 30.8385 46.2323 30.6543 46.2325H26.3466C26.1624 46.2323 25.9857 46.159 25.8554 46.0287C25.7251 45.8984 25.6518 45.7218 25.6517 45.5375V41.2299C25.6518 41.0456 25.7251 40.8689 25.8554 40.7386C25.9857 40.6083 26.1624 40.5351 26.3466 40.5349H30.6543C30.8385 40.5351 31.0152 40.6083 31.1455 40.7386C31.2758 40.8689 31.3491 41.0456 31.3492 41.2299V45.5375ZM46.4125 38.4012H42.1049C41.3549 38.4022 40.636 38.7005 40.1058 39.2308C39.5755 39.761 39.2772 40.48 39.2762 41.2299V45.5375C39.2772 46.2874 39.5755 47.0063 40.1058 47.5366C40.636 48.0668 41.3549 48.3652 42.1049 48.3661H46.4125C47.1624 48.3652 47.8813 48.0668 48.4116 47.5366C48.9418 47.0063 49.2402 46.2874 49.2411 45.5375V41.2299C49.2402 40.48 48.9418 39.761 48.4116 39.2308C47.8813 38.7005 47.1624 38.4022 46.4125 38.4012ZM47.1075 45.5375C47.1073 45.7218 47.034 45.8984 46.9037 46.0287C46.7734 46.159 46.5967 46.2323 46.4125 46.2325H42.1049C41.9206 46.2323 41.7439 46.159 41.6136 46.0287C41.4833 45.8984 41.41 45.7218 41.4099 45.5375V41.2299C41.41 41.0456 41.4833 40.8689 41.6136 40.7386C41.7439 40.6083 41.9206 40.5351 42.1049 40.5349H46.4125C46.5967 40.5351 46.7734 40.6083 46.9037 40.7386C47.034 40.8689 47.1073 41.0456 47.1075 41.2299V45.5375Z"></path></g></svg>