<svg xmlns="http://www.w3.org/2000/svg" width="57" height="57" viewBox="0 0 57 57"><g><path d="M47.1412 36.412C47.1401 35.4299 46.7494 34.4882 46.0549 33.7937C45.3604 33.0992 44.4188 32.7086 43.4366 32.7075H32.2259C33.7741 28.9552 33.7798 24.7436 32.2416 20.9872C32.2281 20.9542 32.2127 20.9221 32.1954 20.891C31.8792 20.3221 31.4105 19.8527 30.8421 19.5357C30.2737 19.2187 29.6281 19.0665 28.978 19.0964C28.3278 19.1263 27.6989 19.337 27.162 19.7048C26.625 20.0727 26.2014 20.5831 25.9387 21.1786C25.8973 21.2726 25.8724 21.3731 25.8652 21.4756L25.6005 25.2326C25.2044 27.3917 24.0394 29.3342 22.3211 30.7003C21.6329 30.9419 20.3729 31.7965 17.0858 34.9242V34.8308C17.0853 34.3384 16.8895 33.8662 16.5412 33.518C16.193 33.1698 15.7209 32.974 15.2284 32.9735H5.87852C5.38609 32.974 4.91398 33.1699 4.56578 33.5181C4.21758 33.8663 4.02174 34.3384 4.02124 34.8308V53.4894C4.02159 53.982 4.21736 54.4542 4.56558 54.8025C4.9138 55.1509 5.386 55.3468 5.87852 55.3473H15.2279C15.7203 55.3468 16.1925 55.151 16.5407 54.8028C16.8889 54.4546 17.0848 53.9824 17.0853 53.49V53.4082C19.6563 53.9753 20.9981 54.6492 22.5633 56.1032C23.1786 56.6886 23.9982 57.0106 24.8475 57.0005H39.3396C40.0429 57.0008 40.7317 56.8007 41.3254 56.4239C41.9191 56.047 42.3932 55.5088 42.6923 54.8723C42.9913 54.2358 43.103 53.5274 43.0141 52.8298C42.9252 52.1321 42.6395 51.4743 42.1904 50.9331C43.347 50.2374 44.1698 48.9919 44.1698 47.6685C44.1707 46.8452 43.8959 46.0453 43.3893 45.3963C44.5674 44.6986 45.4126 43.4107 45.4126 42.0406C45.4135 41.2682 45.1716 40.515 44.7211 39.8876C45.4309 39.6243 46.0431 39.1502 46.4757 38.5289C46.9082 37.9077 47.1405 37.169 47.1412 36.412ZM15.304 53.4898C15.3033 53.5097 15.295 53.5286 15.2809 53.5427C15.2667 53.5568 15.2478 53.5651 15.2279 53.5658H5.87852C5.85859 53.5651 5.83966 53.5568 5.82555 53.5427C5.81145 53.5286 5.8032 53.5097 5.80249 53.4898V34.8312C5.80323 34.8112 5.81148 34.7923 5.82558 34.7782C5.83968 34.7641 5.85859 34.7559 5.87852 34.7551H15.2279C15.2478 34.7559 15.2667 34.7641 15.2808 34.7782C15.295 34.7923 15.3032 34.8112 15.304 34.8312V53.4898ZM43.4366 38.3352H40.3411C40.1049 38.3352 39.8784 38.4291 39.7114 38.5961C39.5444 38.7631 39.4505 38.9896 39.4505 39.2258C39.4505 39.4621 39.5444 39.6886 39.7114 39.8556C39.8784 40.0226 40.1049 40.1165 40.3411 40.1165H41.708C42.2179 40.1172 42.7067 40.32 43.0672 40.6806C43.4278 41.0411 43.6306 41.5299 43.6313 42.0398C43.6313 43.0417 42.6412 44.061 41.625 44.149C41.2508 44.0256 40.8593 43.9628 40.4653 43.9632C40.2291 43.9632 40.0025 44.057 39.8355 44.224C39.6685 44.3911 39.5747 44.6176 39.5747 44.8538C39.5747 45.09 39.6685 45.3166 39.8355 45.4836C40.0025 45.6506 40.2291 45.7444 40.4653 45.7444C40.6905 45.7442 40.914 45.7837 41.1255 45.8611C41.1489 45.8715 41.1728 45.8808 41.1973 45.8891C41.5494 46.0345 41.8506 46.2811 42.0626 46.5977C42.2747 46.9143 42.388 47.2867 42.3885 47.6677C42.3885 48.6497 41.3589 49.6494 40.3106 49.7202C39.9941 49.6343 39.6675 49.5908 39.3395 49.591C39.1033 49.591 38.8768 49.6849 38.7098 49.8519C38.5427 50.0189 38.4489 50.2455 38.4489 50.4817C38.4489 50.7179 38.5427 50.9444 38.7098 51.1114C38.8768 51.2785 39.1033 51.3723 39.3395 51.3723C39.526 51.3722 39.7116 51.3993 39.8903 51.4527C39.9113 51.4602 39.9328 51.4672 39.9546 51.4732C40.3869 51.6189 40.7534 51.9135 40.9885 52.3045C41.2237 52.6954 41.3122 53.1572 41.2383 53.6074C41.1644 54.0576 40.9329 54.4669 40.5851 54.7621C40.2373 55.0574 39.7959 55.2194 39.3396 55.2192H24.8475C24.6498 55.2237 24.4532 55.1887 24.2692 55.1164C24.0852 55.0441 23.9173 54.936 23.7755 54.7982C21.8841 53.0409 20.2307 52.2409 17.0853 51.5864V37.3973L17.2432 37.2435C21.6146 32.9983 22.6855 32.4471 22.9128 32.3802C23.0449 32.353 23.169 32.2963 23.276 32.2143C25.4286 30.5654 26.8864 28.1707 27.3624 25.5012C27.3679 25.47 27.3719 25.4384 27.3742 25.4068L27.6303 21.7725C27.7749 21.506 27.9876 21.2826 28.2467 21.125C28.5058 20.9674 28.802 20.8813 29.1052 20.8754C29.4084 20.8695 29.7077 20.9441 29.9727 21.0915C30.2377 21.2389 30.459 21.4539 30.6139 21.7146C31.3576 23.5533 31.6914 25.5321 31.592 27.513C31.4926 29.4939 30.9624 31.4294 30.0384 33.1844C29.9671 33.3201 29.9321 33.472 29.9367 33.6252C29.9413 33.7785 29.9853 33.928 30.0646 34.0592C30.1439 34.1904 30.2558 34.299 30.3893 34.3743C30.5229 34.4496 30.6736 34.4892 30.8269 34.4892H43.4366C43.9442 34.493 44.4297 34.6974 44.7872 35.0576C45.1448 35.4179 45.3454 35.9049 45.3454 36.4125C45.3454 36.9201 45.1448 37.4071 44.7872 37.7674C44.4297 38.1277 43.9442 38.332 43.4366 38.3359V38.3352ZM12.2849 37.6806V37.788C12.2849 38.0242 12.1911 38.2508 12.024 38.4178C11.857 38.5848 11.6305 38.6787 11.3943 38.6787C11.1581 38.6787 10.9315 38.5848 10.7645 38.4178C10.5975 38.2508 10.5036 38.0242 10.5036 37.788V37.6806C10.5036 37.4444 10.5975 37.2179 10.7645 37.0508C10.9315 36.8838 11.1581 36.79 11.3943 36.79C11.6305 36.79 11.857 36.8838 12.024 37.0508C12.1911 37.2179 12.2849 37.4444 12.2849 37.6806ZM39.0092 7.6356C38.9555 7.47028 38.8546 7.3243 38.7189 7.21563C38.5833 7.10697 38.4188 7.04038 38.2457 7.02407L31.8623 6.4229L29.3173 0.537651C29.2483 0.378113 29.1342 0.242246 28.9889 0.146796C28.8437 0.0513473 28.6737 0.000488281 28.4998 0.000488281C28.326 0.000488281 28.156 0.0513473 28.0108 0.146796C27.8655 0.242246 27.7513 0.378113 27.6824 0.537651L25.1377 6.42279L18.7544 7.02396C18.5814 7.04028 18.4169 7.10686 18.2812 7.21552C18.1456 7.32417 18.0447 7.47015 17.991 7.63545C17.9372 7.80075 17.9331 7.97815 17.979 8.14579C18.0249 8.31343 18.1188 8.46398 18.2492 8.57888L23.06 12.8174L21.6593 19.074C21.6213 19.2436 21.6338 19.4206 21.6952 19.5832C21.7567 19.7458 21.8643 19.8869 22.0049 19.989C22.1455 20.0912 22.313 20.15 22.4866 20.1582C22.6602 20.1663 22.8324 20.1235 22.982 20.035L28.4998 16.7696L34.0175 20.0352C34.1671 20.1237 34.3393 20.1665 34.5129 20.1584C34.6865 20.1502 34.8539 20.0914 34.9945 19.9893C35.1352 19.8871 35.2428 19.746 35.3042 19.5834C35.3656 19.4209 35.3781 19.2438 35.3402 19.0742L33.9396 12.8176L38.7504 8.5791C38.8809 8.46426 38.975 8.31373 39.021 8.14608C39.0669 7.97842 39.0629 7.80097 39.0092 7.6356ZM32.367 11.8294C32.2473 11.9349 32.1581 12.0707 32.1088 12.2225C32.0595 12.3743 32.0519 12.5365 32.0867 12.6922L33.1526 17.4532L28.9541 14.9682C28.8167 14.8869 28.66 14.844 28.5004 14.844C28.3408 14.844 28.1841 14.8869 28.0467 14.9682L23.8482 17.4532L24.9135 12.6919C24.9484 12.5362 24.9408 12.3739 24.8914 12.2221C24.8421 12.0704 24.7529 11.9346 24.6332 11.8291L20.9726 8.60393L25.8299 8.14637C25.9887 8.13139 26.1407 8.07399 26.2698 7.98018C26.3989 7.88637 26.5004 7.75959 26.5637 7.61311L28.4998 3.13538L30.4359 7.61344C30.4993 7.75993 30.6008 7.8867 30.7299 7.98051C30.859 8.07432 31.0109 8.13172 31.1698 8.14671L36.0272 8.60426L32.367 11.8294ZM54.689 12.8544C54.6353 12.6891 54.5344 12.5431 54.3987 12.4345C54.2631 12.3258 54.0986 12.2592 53.9255 12.2429L49.4271 11.8192L47.6335 7.67189C47.5645 7.51235 47.4503 7.37649 47.3051 7.28104C47.1598 7.18559 46.9898 7.13473 46.816 7.13473C46.6422 7.13473 46.4722 7.18559 46.3269 7.28104C46.1816 7.37649 46.0675 7.51235 45.9985 7.67189L44.2055 11.8192L39.7069 12.2429C39.5338 12.2592 39.3693 12.3258 39.2337 12.4345C39.098 12.5431 38.9971 12.6891 38.9433 12.8544C38.8896 13.0197 38.8855 13.1972 38.9314 13.3648C38.9773 13.5325 39.0713 13.683 39.2017 13.7979L42.592 16.7848L41.6049 21.194C41.567 21.3637 41.5795 21.5407 41.6409 21.7033C41.7024 21.8659 41.8101 22.007 41.9507 22.1092C42.0914 22.2113 42.2589 22.2701 42.4325 22.2782C42.6062 22.2863 42.7784 22.2434 42.928 22.1548L46.8163 19.8535L50.7043 22.1548C50.8539 22.2433 51.0261 22.2862 51.1998 22.278C51.3734 22.2699 51.5409 22.2111 51.6815 22.1089C51.8221 22.0068 51.9298 21.8657 51.9912 21.7031C52.0526 21.5405 52.0651 21.3634 52.0271 21.1938L51.04 16.7845L54.4302 13.7977C54.5606 13.6828 54.6545 13.5323 54.7004 13.3647C54.7463 13.1971 54.7421 13.0197 54.6884 12.8544H54.689ZM49.4677 15.7967C49.348 15.9022 49.2588 16.038 49.2095 16.1898C49.1602 16.3415 49.1525 16.5038 49.1874 16.6595L49.8397 19.573L47.2698 18.0523C47.1324 17.971 46.9757 17.9281 46.8161 17.9281C46.6565 17.9281 46.4998 17.971 46.3624 18.0523L43.7933 19.573L44.4455 16.6595C44.4803 16.5038 44.4727 16.3415 44.4234 16.1898C44.3741 16.038 44.2849 15.9022 44.1652 15.7967L41.9249 13.8232L44.8974 13.5431C45.0563 13.5282 45.2082 13.4708 45.3373 13.3769C45.4665 13.2831 45.568 13.1564 45.6313 13.0099L46.8161 10.2695L48.0009 13.0099C48.0642 13.1564 48.1657 13.2831 48.2949 13.3769C48.424 13.4708 48.5759 13.5282 48.7348 13.5431L51.7073 13.8232L49.4677 15.7967ZM17.2939 12.2429L12.7955 11.8192L11.0012 7.67189C10.9322 7.51235 10.818 7.37649 10.6728 7.28104C10.5275 7.18559 10.3575 7.13473 10.1837 7.13473C10.0099 7.13473 9.83987 7.18559 9.69461 7.28104C9.54935 7.37649 9.43519 7.51235 9.36621 7.67189L7.57316 11.8192L3.07472 12.2429C2.90166 12.2592 2.73715 12.3258 2.60147 12.4345C2.46579 12.5431 2.36487 12.6891 2.31116 12.8544C2.25745 13.0197 2.25329 13.1972 2.2992 13.3648C2.34511 13.5325 2.43908 13.683 2.56952 13.7979L5.95968 16.7848L4.97253 21.194C4.93461 21.3636 4.94715 21.5406 5.00859 21.7032C5.07003 21.8658 5.1777 22.0068 5.31832 22.109C5.45894 22.2111 5.62637 22.2699 5.79997 22.278C5.97358 22.2861 6.14577 22.2433 6.29533 22.1548L10.1837 19.8535L14.0717 22.1548C14.2213 22.2433 14.3935 22.2861 14.5671 22.278C14.7407 22.2698 14.9082 22.211 15.0488 22.1088C15.1894 22.0067 15.297 21.8656 15.3584 21.703C15.4199 21.5404 15.4324 21.3634 15.3944 21.1938L14.4073 16.7845L17.7975 13.7977C17.928 13.6828 18.0219 13.5323 18.0679 13.3646C18.1138 13.197 18.1096 13.0195 18.0559 12.8542C18.0022 12.6889 17.9013 12.5429 17.7656 12.4342C17.6299 12.3256 17.4654 12.259 17.2923 12.2427L17.2939 12.2429ZM12.8359 15.7967C12.7161 15.9022 12.6269 16.038 12.5776 16.1898C12.5283 16.3415 12.5207 16.5038 12.5555 16.6595L13.2077 19.5729L10.6374 18.0523C10.5 17.971 10.3433 17.9281 10.1837 17.9281C10.0241 17.9281 9.86739 17.971 9.73003 18.0523L7.1608 19.573L7.81307 16.6595C7.84793 16.5038 7.84031 16.3415 7.791 16.1898C7.74168 16.038 7.65249 15.9022 7.53275 15.7967L5.2926 13.8232L8.26506 13.5431C8.42396 13.5282 8.57592 13.4708 8.70505 13.3769C8.83417 13.2831 8.93571 13.1564 8.99905 13.0099L10.1837 10.2696L11.3684 13.0099C11.4318 13.1563 11.5333 13.2831 11.6624 13.3769C11.7915 13.4707 11.9434 13.5281 12.1023 13.5431L15.0748 13.8232L12.8359 15.7967Z"></path></g></svg>