<svg xmlns="http://www.w3.org/2000/svg" width="57" height="57" viewBox="0 0 57 57"><g><path d="M44.3777 50.0082C44.2951 49.936 44.1992 49.8808 44.0953 49.8457C43.9914 49.8106 43.8816 49.7963 43.7722 49.8036C43.6628 49.811 43.5559 49.8398 43.4577 49.8884C43.3594 49.9371 43.2717 50.0046 43.1995 50.0871L39.7571 54.0241C39.3925 54.4415 38.8864 54.6816 38.3322 54.7003C37.7765 54.7202 37.2568 54.5138 36.8648 54.1222L34.2117 51.4703V49.7165C34.2117 49.2554 33.838 48.8815 33.3768 48.8815C32.9156 48.8815 32.5418 49.2554 32.5418 49.7165V56.1655C32.5418 56.6266 32.9156 57.0005 33.3768 57.0005C33.838 57.0005 34.2117 56.6266 34.2117 56.1655V53.8314L35.6844 55.3034C36.3677 55.9861 37.3028 56.3714 38.2664 56.3714C39.3136 56.3714 40.3257 55.9119 41.0145 55.1232L44.4567 51.1864C44.5289 51.1038 44.5841 51.0079 44.6192 50.904C44.6543 50.8001 44.6685 50.6903 44.6612 50.5809C44.6539 50.4715 44.625 50.3646 44.5764 50.2664C44.5278 50.1681 44.4602 50.0804 44.3777 50.0082ZM9.70141 48.8815C9.47996 48.8815 9.26759 48.9695 9.111 49.1261C8.95442 49.2827 8.86645 49.4951 8.86645 49.7165V56.1655C8.86645 56.6266 9.24017 57.0005 9.70141 57.0005C10.1626 57.0005 10.5364 56.6266 10.5364 56.1655V49.7165C10.5364 49.4951 10.4484 49.2827 10.2918 49.1261C10.1352 48.9695 9.92285 48.8815 9.70141 48.8815ZM55.943 13.2376L50.3464 8.69032C49.9593 8.37593 49.4393 8.31358 48.9889 8.528C48.5386 8.74231 48.2588 9.18528 48.2588 9.68403V20.4162C48.2588 20.4177 48.2591 20.4192 48.2591 20.4207V33.9634L39.8521 43.5516L37.1888 38.5791C35.9176 36.2042 33.5714 34.5257 30.9122 34.0891C29.8156 33.909 27.2561 33.4905 26.3337 33.3388C26.0011 33.2852 25.6986 33.1147 25.4805 32.858C25.2624 32.6013 25.143 32.2752 25.1438 31.9383V30.9516C25.8022 30.5372 26.4122 30.0504 26.9624 29.5004C28.9199 27.5417 29.9979 24.9385 29.9979 22.1704V21.8074H30.3196C31.9716 21.815 33.3767 20.4102 33.3767 18.7504C33.3767 17.8698 32.9899 17.0513 32.3627 16.4826C32.8481 15.7903 32.9857 14.8805 32.7095 14.0817C32.5906 13.7397 32.4029 13.4256 32.158 13.1589C31.913 12.8922 31.616 12.6786 31.2853 12.5311C31.1976 12.4922 31.1091 12.4548 31.021 12.4167V6.40631C31.021 2.8742 28.1473 0.000488281 24.6151 0.000488281H14.6524C11.1203 0.000488281 8.24657 2.8742 8.24657 6.40631V12.4167C8.15862 12.4548 8.07045 12.4922 7.98283 12.531C7.65205 12.6785 7.355 12.8922 7.11002 13.1589C6.86505 13.4256 6.67734 13.7397 6.5585 14.0818C6.27874 14.891 6.41611 15.7867 6.90373 16.4836C6.27707 17.0518 5.89087 17.8698 5.89087 18.7504C5.89087 20.4057 7.2798 21.8169 8.94905 21.8074H9.27079V22.1704C9.27079 25.8628 11.211 29.1099 14.1248 30.9468V32.1086C14.1251 32.4198 14.021 32.7221 13.8291 32.9671C13.6373 33.2121 13.3687 33.3857 13.0665 33.4599L6.13301 35.1699C4.50072 35.5698 3.05005 36.5063 2.0137 37.8293C0.977351 39.1522 0.415394 40.7849 0.417978 42.4655V56.1655C0.417978 56.6266 0.791706 57.0005 1.25294 57.0005C1.71417 57.0005 2.0879 56.6266 2.0879 56.1655V42.4655C2.08589 41.1584 2.52295 39.8886 3.32897 38.8596C4.135 37.8307 5.26327 37.1023 6.53279 36.7913L11.9035 35.4668C13.5639 38.1297 16.4688 39.7584 19.634 39.7584C22.9182 39.7584 25.8828 38.0363 27.5131 35.2243L30.6419 35.7369C32.7918 36.09 34.6888 37.447 35.7166 39.3673L38.4115 44.3987C38.5352 44.63 38.7131 44.8279 38.9301 44.9753C39.147 45.1228 39.3964 45.2154 39.657 45.2454C39.9179 45.2753 40.1822 45.2416 40.4272 45.147C40.6722 45.0525 40.8906 44.9 41.0638 44.7025L46.7821 38.1807L50.4143 41.8142C50.4178 41.8176 50.4215 41.8205 50.4249 41.8238L45.7687 47.149C45.6261 47.3161 45.555 47.5327 45.5711 47.7519C45.5871 47.9711 45.6888 48.1751 45.8542 48.3197C46.0197 48.4643 46.2354 48.538 46.4548 48.5246C46.6741 48.5112 46.8793 48.4119 47.0259 48.2482L54.7001 39.4715C56.2709 37.6898 55.9954 34.8405 54.1563 33.3703C52.9208 32.3826 51.3028 32.1944 49.9289 32.7481V20.8133L55.943 15.9269C56.1433 15.7647 56.3048 15.5598 56.4155 15.3271C56.5263 15.0944 56.5835 14.8398 56.583 14.5821C56.583 14.0581 56.3497 13.568 55.943 13.2376ZM31.7067 18.7504C31.7067 19.5029 31.0727 20.1413 30.3196 20.1375H29.9979V17.6037C30.3122 17.6261 30.6279 17.5925 30.9305 17.5044C31.3969 17.7345 31.7067 18.2179 31.7067 18.7504ZM9.27079 20.1375H8.94905C8.19157 20.1414 7.56079 19.504 7.56079 18.7504C7.56079 18.2183 7.86984 17.7358 8.33508 17.5061C8.63859 17.5944 8.95537 17.6281 9.27068 17.6057L9.27079 20.1375ZM9.47753 15.8592C8.99915 16.0713 8.44507 15.8637 8.19614 15.3998C7.93385 14.9111 8.15383 14.2823 8.66038 14.0574C13.2474 12.0207 18.3109 11.3012 23.2838 11.9793C23.7399 12.0408 24.1615 11.7214 24.2236 11.2646C24.2384 11.1559 24.2316 11.0454 24.2037 10.9394C24.1758 10.8333 24.1273 10.7338 24.0609 10.6465C23.9945 10.5592 23.9116 10.4859 23.8168 10.4307C23.7221 10.3754 23.6174 10.3394 23.5088 10.3246C18.9288 9.70039 14.2658 10.1915 9.91638 11.7561V6.40631C9.91638 3.79488 12.0409 1.67041 14.6523 1.67041H24.6151C27.2266 1.67041 29.351 3.79488 29.351 6.40631V11.7557C28.713 11.5262 28.0671 11.3193 27.4144 11.1355C27.2017 11.077 26.9744 11.105 26.7823 11.2135C26.5902 11.3219 26.4488 11.502 26.3891 11.7144C26.3293 11.9268 26.356 12.1541 26.4634 12.3469C26.5707 12.5396 26.75 12.682 26.9621 12.743C28.207 13.0937 29.4253 13.5329 30.6076 14.0573C31.1099 14.2803 31.3312 14.9097 31.0736 15.3964C30.8291 15.8582 30.2804 16.0762 29.7903 15.8591C23.5595 13.0999 15.7913 13.0599 9.47753 15.8592ZM10.9407 22.1704V17.0565C16.5118 14.8284 22.7573 14.8285 28.3281 17.0568V22.1704C28.3281 24.4927 27.4236 26.6767 25.7814 28.3199C24.1526 29.9499 21.9582 30.8672 19.6344 30.8672C14.8406 30.8673 10.9407 26.9658 10.9407 22.1704ZM19.634 38.0885C17.2335 38.0885 15.0165 36.9406 13.6258 35.0347C14.9872 34.6118 15.9312 33.2502 15.7946 31.7993C17.0157 32.288 18.3191 32.5385 19.6343 32.5372C20.9713 32.5372 22.2685 32.2835 23.4739 31.8028C23.3884 33.2413 24.3796 34.5405 25.7324 34.9131C24.3519 36.8953 22.1037 38.0885 19.634 38.0885ZM53.1133 34.6742C54.2322 35.5686 54.3973 37.2918 53.4429 38.3723L51.5263 40.5642L47.8856 36.9223L49.5817 34.988C50.0163 34.4904 50.6263 34.1799 51.2844 34.1214C51.9425 34.0629 52.5977 34.261 53.1133 34.6742ZM54.8899 14.6308L49.9289 18.6616L49.9286 10.5026L54.8898 14.5337C54.9151 14.5494 54.9158 14.6145 54.8899 14.6308ZM24.2313 21.5379C24.4527 21.5379 24.6651 21.4499 24.8217 21.2934C24.9783 21.1368 25.0662 20.9244 25.0662 20.703V18.8634C25.0662 18.4022 24.6925 18.0284 24.2313 18.0284C23.7701 18.0284 23.3963 18.4022 23.3963 18.8634V20.703C23.3963 20.9244 23.4843 21.1368 23.6409 21.2934C23.7975 21.4499 24.0098 21.5379 24.2313 21.5379ZM15.0367 18.0285C14.8153 18.0285 14.6029 18.1165 14.4463 18.2731C14.2897 18.4297 14.2017 18.642 14.2017 18.8635V20.7031C14.2017 21.1642 14.5755 21.538 15.0367 21.538C15.4979 21.538 15.8717 21.1642 15.8717 20.7031V18.8635C15.8717 18.642 15.7837 18.4297 15.6271 18.2731C15.4705 18.1165 15.2581 18.0285 15.0367 18.0285ZM22.2049 25.6902C22.0984 25.4961 21.9191 25.3522 21.7065 25.2903C21.4939 25.2283 21.2654 25.2533 21.0712 25.3598C20.621 25.6056 20.1156 25.7326 19.6027 25.7286C19.1109 25.7229 18.6281 25.5962 18.1967 25.3598C18.0028 25.2561 17.7758 25.2331 17.565 25.2957C17.3542 25.3584 17.1766 25.5016 17.0708 25.6944C16.965 25.8872 16.9395 26.114 16.9999 26.3254C17.0603 26.5369 17.2016 26.716 17.3933 26.8239C17.8609 27.0805 18.6207 27.3884 19.5852 27.3986C20.5597 27.4087 21.3928 27.0882 21.8745 26.824C22.0686 26.7175 22.2125 26.5382 22.2745 26.3255C22.3364 26.1129 22.3114 25.8844 22.2049 25.6902Z"></path></g></svg>