<svg xmlns="http://www.w3.org/2000/svg" width="57" height="57" viewBox="0 0 57 57"><g><path d="M17.6258 21.5991C17.4615 21.5991 17.3038 21.5338 17.1876 21.4176C17.0713 21.3013 17.006 21.1437 17.006 20.9793V17.4291H16.2128C15.5829 17.4277 14.9792 17.1764 14.5343 16.7304C14.0895 16.2844 13.8397 15.6801 13.8398 15.0501V7.46614C13.8406 6.83709 14.0909 6.23403 14.5358 5.78927C14.9807 5.34452 15.5838 5.09439 16.2128 5.09375H23.8214C23.9857 5.09375 24.1433 5.15902 24.2595 5.2752C24.3756 5.39138 24.4409 5.54895 24.4409 5.71325C24.4409 5.87755 24.3756 6.03512 24.2595 6.1513C24.1433 6.26748 23.9857 6.33275 23.8214 6.33275H16.2134C15.5882 6.33275 15.0794 6.84154 15.0794 7.46674V15.0507C15.0794 15.6789 15.5882 16.1901 16.2134 16.1901H17.6258C17.9678 16.1901 18.2456 16.4673 18.2456 16.8099V19.4853L21.3638 16.3713C21.4796 16.2549 21.638 16.1901 21.8018 16.1901H31.4234C32.048 16.1901 32.5574 15.6789 32.5574 15.0501V11.7171C32.5574 11.5528 32.6227 11.3953 32.7388 11.2791C32.855 11.1629 33.0126 11.0976 33.1769 11.0976C33.3412 11.0976 33.4988 11.1629 33.6149 11.2791C33.7311 11.3953 33.7964 11.5528 33.7964 11.7171V15.0501C33.7965 15.6801 33.5468 16.2844 33.1019 16.7304C32.657 17.1764 32.0534 17.4277 31.4234 17.4291H22.0586L18.0638 21.4179C17.9476 21.5339 17.7901 21.5991 17.6258 21.5991Z"></path><path d="M39.3716 16.507C39.2108 16.507 39.0524 16.444 38.9336 16.3258L34.9436 12.3359H25.5746C24.9443 12.3346 24.3402 12.0833 23.8949 11.6372C23.4496 11.1911 23.1994 10.5866 23.1992 9.95626V2.37588C23.1999 1.74598 23.4504 1.14207 23.8959 0.696715C24.3413 0.251363 24.9453 0.000964798 25.5752 0.000488281H40.7834C41.4132 0.00112364 42.017 0.251592 42.4623 0.696926C42.9077 1.14226 43.1581 1.74608 43.1588 2.37588V9.95626C43.1584 10.5866 42.9081 11.1911 42.4627 11.6371C42.0173 12.083 41.4131 12.3341 40.7828 12.3353H39.9908V15.8872C39.9909 15.9686 39.9749 16.0492 39.9438 16.1244C39.9127 16.1996 39.8671 16.2679 39.8096 16.3255C39.7521 16.383 39.6838 16.4287 39.6087 16.4598C39.5335 16.491 39.4529 16.507 39.3716 16.507ZM25.5746 1.23948C24.9482 1.23948 24.4388 1.74948 24.4388 2.37588V9.95626C24.4388 10.5851 24.9482 11.0963 25.5746 11.0963H35.1998C35.3642 11.0963 35.522 11.1623 35.6378 11.2781L38.7518 14.392V11.7161C38.7518 11.3741 39.029 11.0963 39.3716 11.0963H40.7834C41.085 11.0953 41.374 10.9748 41.5869 10.7611C41.7998 10.5473 41.9193 10.2579 41.9192 9.95626V2.37588C41.9192 1.74948 41.4098 1.23948 40.7834 1.23948H25.5746Z"></path><path d="M34.0131 4.96409H27.2367C27.0724 4.96409 26.9148 4.89883 26.7986 4.78265C26.6825 4.66647 26.6172 4.5089 26.6172 4.3446C26.6172 4.18029 26.6825 4.02272 26.7986 3.90654C26.9148 3.79037 27.0724 3.7251 27.2367 3.7251H34.0131C34.1774 3.7251 34.3349 3.79037 34.4511 3.90654C34.5673 4.02272 34.6326 4.18029 34.6326 4.3446C34.6326 4.5089 34.5673 4.66647 34.4511 4.78265C34.3349 4.89883 34.1774 4.96409 34.0131 4.96409ZM39.1172 4.96409H36.7437C36.5794 4.96409 36.4218 4.89883 36.3056 4.78265C36.1894 4.66647 36.1242 4.5089 36.1242 4.3446C36.1242 4.18029 36.1894 4.02272 36.3056 3.90654C36.4218 3.79037 36.5794 3.7251 36.7437 3.7251H39.1172C39.2815 3.7251 39.4391 3.79037 39.5553 3.90654C39.6715 4.02272 39.7367 4.18029 39.7367 4.3446C39.7367 4.5089 39.6715 4.66647 39.5553 4.78265C39.4391 4.89883 39.2815 4.96409 39.1172 4.96409ZM39.1172 8.61148H32.3415C32.1772 8.61148 32.0196 8.54622 31.9034 8.43004C31.7872 8.31386 31.722 8.15629 31.722 7.99198C31.722 7.82768 31.7872 7.67011 31.9034 7.55393C32.0196 7.43776 32.1772 7.37249 32.3415 7.37249H39.1172C39.2815 7.37249 39.4391 7.43776 39.5553 7.55393C39.6715 7.67011 39.7367 7.82768 39.7367 7.99198C39.7367 8.15629 39.6715 8.31386 39.5553 8.43004C39.4391 8.54622 39.2815 8.61148 39.1172 8.61148ZM29.6109 8.61208H27.2373C27.0729 8.61208 26.9153 8.54678 26.799 8.43055C26.6828 8.31431 26.6175 8.15667 26.6175 7.99229C26.6175 7.8279 26.6828 7.67026 26.799 7.55402C26.9153 7.43779 27.0729 7.37249 27.2373 7.37249H29.6115C29.7759 7.37249 29.9335 7.43779 30.0497 7.55402C30.166 7.67026 30.2313 7.8279 30.2313 7.99229C30.2313 8.15667 30.166 8.31431 30.0497 8.43055C29.9335 8.54678 29.7753 8.61208 29.6109 8.61208ZM48.7988 52.292H45.1868C44.4509 52.2961 43.7406 52.0216 43.1986 51.5237C42.6566 51.0258 42.323 50.3413 42.2648 49.6076L41.699 40.9928H41.1938C40.8348 40.9941 40.4794 40.9215 40.1497 40.7795C39.82 40.6374 39.5231 40.429 39.2775 40.1672C39.0297 39.9074 38.8382 39.5994 38.7147 39.2624C38.5912 38.9254 38.5385 38.5665 38.5599 38.2082L38.9324 31.4702C39.0146 29.9949 39.6586 28.6071 40.732 27.5917C41.8054 26.5763 43.2268 26.0104 44.7044 26.0102H49.2818C50.7592 26.0108 52.1802 26.5769 53.2534 27.5923C54.3265 28.6076 54.9703 29.9952 55.0526 31.4702L55.4252 38.2082C55.4466 38.5666 55.3939 38.9256 55.2704 39.2627C55.147 39.5998 54.9554 39.9079 54.7076 40.1678C54.462 40.4294 54.1651 40.6377 53.8355 40.7796C53.5059 40.9215 53.1507 40.9941 52.7918 40.9928H52.2866L51.722 49.5956C51.5912 51.1376 50.3342 52.292 48.7988 52.292ZM44.7038 27.2492C43.5429 27.2494 42.4261 27.6941 41.5828 28.4919C40.7395 29.2897 40.2336 30.3801 40.169 31.5392L39.7964 38.2766C39.7852 38.4667 39.8132 38.6571 39.8787 38.8359C39.9443 39.0147 40.046 39.178 40.1774 39.3158C40.3077 39.4547 40.4652 39.5653 40.64 39.6406C40.8149 39.716 41.0034 39.7545 41.1938 39.7538H42.2798C42.6062 39.7538 42.8768 40.0064 42.8978 40.3322L43.4996 49.5146C43.5722 50.372 44.3144 51.053 45.1868 51.053H48.7988C49.2239 51.0553 49.6342 50.8968 49.9472 50.6093C50.2603 50.3217 50.453 49.9263 50.4866 49.5026L51.0872 40.3328C51.0976 40.1759 51.1672 40.0288 51.2819 39.9213C51.3967 39.8138 51.548 39.7539 51.7052 39.7538H52.7912C52.9815 39.7545 53.1699 39.7161 53.3446 39.6408C53.5194 39.5655 53.6768 39.4551 53.807 39.3164C54.074 39.0344 54.209 38.6654 54.188 38.2772L53.8154 31.5392C53.7509 30.3802 53.2451 29.2899 52.4019 28.4921C51.5587 27.6943 50.442 27.2496 49.2812 27.2492H44.7038Z"></path><path d="M46.9956 52.2915C46.6536 52.2915 46.3758 52.0143 46.3758 51.6717V40.7103C46.3758 40.5459 46.4411 40.3883 46.5573 40.2721C46.6736 40.1558 46.8312 40.0905 46.9956 40.0905C47.16 40.0905 47.3176 40.1558 47.4338 40.2721C47.5501 40.3883 47.6154 40.5459 47.6154 40.7103V51.6723C47.6154 52.0143 47.3382 52.2915 46.9956 52.2915ZM46.9956 27.1864C44.5458 27.1864 42.3966 24.577 42.3966 21.6022C42.3966 18.8974 44.331 16.9336 46.9956 16.9336C49.6602 16.9336 51.5946 18.8974 51.5946 21.6022C51.5946 24.577 49.4454 27.1864 46.9956 27.1864ZM46.9956 18.1726C45.0174 18.1726 43.6356 19.5826 43.6356 21.6022C43.6356 23.8762 45.2376 25.9474 46.9956 25.9474C48.7536 25.9474 50.3556 23.8762 50.3556 21.6022C50.3556 19.5832 48.9738 18.1726 46.9956 18.1726ZM42.282 40.9923H42.267C42.1856 40.9903 42.1054 40.9723 42.031 40.9392C41.9565 40.9062 41.8894 40.8588 41.8332 40.7998C41.7771 40.7408 41.7332 40.6713 41.704 40.5953C41.6747 40.5193 41.6607 40.4383 41.6628 40.3569L41.856 32.5953C41.8644 32.254 42.171 31.9792 42.4902 31.9918C42.8328 32.0002 43.1034 32.2845 43.095 32.6265L42.9018 40.3881C42.8977 40.5497 42.8307 40.7033 42.7151 40.8161C42.5994 40.929 42.4436 40.9922 42.282 40.9923ZM51.7086 40.9923C51.547 40.9922 51.3918 40.929 51.2761 40.8161C51.1604 40.7033 51.0934 40.5497 51.0894 40.3881L50.8956 32.6265C50.8935 32.5452 50.9075 32.4642 50.9367 32.3882C50.966 32.3123 51.0099 32.2428 51.0661 32.1839C51.1222 32.1249 51.1894 32.0776 51.2638 32.0446C51.3382 32.0117 51.4184 31.9937 51.4998 31.9918H51.5154C51.8502 31.9918 52.1262 32.2588 52.1346 32.5953L52.3284 40.3569C52.3304 40.4382 52.3165 40.5192 52.2873 40.5951C52.258 40.671 52.2142 40.7404 52.1581 40.7994C52.102 40.8583 52.0349 40.9057 51.9606 40.9387C51.8862 40.9717 51.8061 40.9897 51.7248 40.9917L51.7086 40.9923ZM30.306 57.0003H26.694C25.9581 57.0044 25.2478 56.7299 24.7058 56.232C24.1638 55.7341 23.8302 55.0496 23.7721 54.3159L23.2063 45.7005H22.7011C22.3422 45.7019 21.987 45.6295 21.6574 45.4876C21.3278 45.3458 21.0309 45.1376 20.7853 44.8761C20.5375 44.6164 20.3458 44.3084 20.2222 43.9714C20.0987 43.6343 20.0459 43.2755 20.0671 42.9171L20.4403 36.1791C20.522 34.7038 21.1656 33.3157 22.2388 32.3001C23.312 31.2844 24.7334 30.7183 26.211 30.718H30.789C32.2667 30.7183 33.688 31.2844 34.7613 32.3001C35.8345 33.3157 36.4781 34.7038 36.5598 36.1791L36.933 42.9171C36.9542 43.2755 36.9013 43.6343 36.7778 43.9714C36.6542 44.3084 36.4626 44.6164 36.2148 44.8761C35.9692 45.1376 35.6723 45.3458 35.3427 45.4876C35.0131 45.6295 34.6578 45.7019 34.299 45.7005H33.7938L33.2298 54.3039C33.099 55.8459 31.842 57.0003 30.306 57.0003ZM26.211 31.9576C25.0502 31.9579 23.9336 32.4026 23.0904 33.2004C22.2472 33.9982 21.7414 35.0885 21.6769 36.2475L21.3037 42.9855C21.2827 43.3731 21.4177 43.7415 21.6853 44.0241C21.9523 44.3061 22.3129 44.4621 22.7011 44.4621H23.7871C24.1135 44.4621 24.3841 44.7147 24.4051 45.0405L25.0069 54.2229C25.0795 55.0803 25.8216 55.7613 26.694 55.7613H30.306C30.7298 55.759 31.1376 55.5989 31.4497 55.3123C31.7619 55.0256 31.9561 54.633 31.9944 54.2109L32.5944 45.0405C32.6046 44.8835 32.6743 44.7362 32.7892 44.6286C32.9041 44.5211 33.0556 44.4613 33.213 44.4615H34.299C34.6872 44.4615 35.0478 44.3067 35.3148 44.0241C35.5818 43.7421 35.7174 43.3731 35.6964 42.9849L35.3232 36.2469C35.2587 35.0879 34.7529 33.9976 33.9097 33.1998C33.0665 32.402 31.9498 31.9573 30.789 31.957L26.211 31.9576Z"></path><path d="M28.4984 57.0005C28.1564 57.0005 27.8786 56.7233 27.8786 56.3807V45.4187C27.8786 45.2543 27.9439 45.0967 28.0601 44.9804C28.1763 44.8642 28.334 44.7989 28.4984 44.7989C28.6627 44.7989 28.8204 44.8642 28.9366 44.9804C29.0529 45.0967 29.1182 45.2543 29.1182 45.4187V56.3807C29.1182 56.7227 28.841 57.0005 28.4984 57.0005ZM28.4984 31.8953C26.0486 31.8953 23.8994 29.2854 23.8994 26.3112C23.8994 23.6058 25.8338 21.6426 28.4984 21.6426C31.163 21.6426 33.0973 23.6058 33.0973 26.3112C33.0973 29.286 30.9482 31.8953 28.4984 31.8953ZM28.4984 22.8816C26.5202 22.8816 25.1384 24.2916 25.1384 26.3112C25.1384 28.5852 26.7404 30.6558 28.4984 30.6558C30.2564 30.6558 31.8583 28.5858 31.8583 26.3118C31.8583 24.2922 30.4766 22.8816 28.4984 22.8816ZM23.7854 45.7007H23.7698C23.6055 45.6966 23.4495 45.6275 23.3362 45.5084C23.2229 45.3894 23.1615 45.2302 23.1656 45.0659L23.3588 37.3043C23.3678 36.9629 23.6372 36.6761 23.993 36.7007C24.3356 36.7091 24.6062 36.9935 24.5978 37.3355L24.4046 45.0971C24.4004 45.2586 24.3333 45.412 24.2176 45.5247C24.102 45.6375 23.9469 45.7006 23.7854 45.7007ZM33.2113 45.7007C33.0498 45.7006 32.8947 45.6375 32.7791 45.5247C32.6634 45.412 32.5964 45.2586 32.5921 45.0971L32.3983 37.3355C32.3964 37.2541 32.4104 37.1731 32.4397 37.0972C32.4691 37.0212 32.5131 36.9518 32.5692 36.8928C32.6254 36.8339 32.6926 36.7866 32.7671 36.7536C32.8415 36.7206 32.9217 36.7027 33.0031 36.7007C33.3331 36.6803 33.6289 36.9635 33.6373 37.3049L33.8305 45.0659C33.8346 45.2302 33.7732 45.3894 33.6599 45.5084C33.5466 45.6275 33.3906 45.6966 33.2263 45.7007H33.2113ZM11.8088 52.2917H8.19682C7.46084 52.2958 6.75055 52.0214 6.20855 51.5234C5.66656 51.0255 5.33299 50.341 5.27483 49.6073L4.70903 40.9925H4.20443C3.84558 40.9938 3.4903 40.9213 3.16071 40.7793C2.83112 40.6374 2.53427 40.4291 2.28864 40.1675C2.04087 39.9077 1.84928 39.5996 1.72582 39.2624C1.60236 38.9253 1.54967 38.5663 1.57104 38.2079L1.94364 31.47C2.02568 29.9948 2.66938 28.6071 3.74258 27.5917C4.81577 26.5763 6.237 26.0103 7.71442 26.01H12.2924C13.7698 26.0104 15.1911 26.5764 16.2643 27.5918C17.3376 28.6071 17.9815 29.9948 18.0638 31.47L18.4364 38.2079C18.4577 38.5662 18.405 38.9251 18.2815 39.2621C18.1581 39.5992 17.9665 39.9072 17.7188 40.1669C17.4732 40.4288 17.1762 40.6372 16.8465 40.7792C16.5168 40.9213 16.1614 40.9939 15.8024 40.9925H15.2972L14.7332 49.5953C14.6024 51.1373 13.3448 52.2917 11.8088 52.2917ZM7.71442 27.249C6.55362 27.2493 5.43699 27.694 4.59379 28.4918C3.75058 29.2896 3.24478 30.3799 3.18024 31.5389L2.80764 38.2763C2.78664 38.6645 2.92164 39.0335 3.18864 39.3155C3.31881 39.4544 3.47618 39.5649 3.65094 39.6403C3.82571 39.7156 4.01412 39.7542 4.20443 39.7535H5.29043C5.61683 39.7535 5.88683 40.0061 5.90843 40.3319L6.51083 49.5143C6.54648 49.9359 6.73991 50.3286 7.05247 50.6138C7.36504 50.899 7.77371 51.0557 8.19682 51.0527H11.8094C12.2332 51.0504 12.641 50.8903 12.9531 50.6037C13.2653 50.317 13.4595 49.9244 13.4978 49.5023L14.0978 40.3319C14.108 40.1749 14.1777 40.0276 14.2926 39.9201C14.4075 39.8125 14.559 39.7527 14.7164 39.7529H15.8024C16.1906 39.7529 16.5518 39.5975 16.8188 39.3149C16.9502 39.1772 17.0519 39.014 17.1174 38.8353C17.183 38.6566 17.211 38.4663 17.1998 38.2763L16.8272 31.5384C16.7626 30.3792 16.2568 29.2888 15.4134 28.491C14.5701 27.6932 13.4533 27.2486 12.2924 27.2484H7.71442V27.249Z"></path><path d="M10.0049 52.2915C9.66288 52.2915 9.38508 52.0143 9.38508 51.6717V40.7103C9.38508 40.5459 9.45038 40.3883 9.56661 40.2721C9.68285 40.1558 9.84049 40.0905 10.0049 40.0905C10.1693 40.0905 10.3269 40.1558 10.4431 40.2721C10.5594 40.3883 10.6247 40.5459 10.6247 40.7103V51.6723C10.6247 52.0143 10.3475 52.2915 10.0049 52.2915ZM10.0049 27.1864C7.55508 27.1864 5.40589 24.577 5.40589 21.6022C5.40589 18.8974 7.34028 16.9336 10.0049 16.9336C12.6695 16.9336 14.6039 18.8974 14.6039 21.6022C14.6039 24.577 12.4547 27.1864 10.0049 27.1864ZM10.0049 18.1726C8.02668 18.1726 6.64489 19.5826 6.64489 21.6022C6.64489 23.8762 8.24688 25.9474 10.0049 25.9474C11.7629 25.9474 13.3649 23.8762 13.3649 21.6022C13.3649 19.5832 11.9831 18.1726 10.0049 18.1726ZM5.29189 40.9923H5.27569C5.19432 40.9903 5.11414 40.9723 5.03975 40.9392C4.96535 40.9062 4.89821 40.8588 4.84214 40.7998C4.78608 40.7408 4.74221 40.6713 4.71303 40.5953C4.68385 40.5193 4.66994 40.4383 4.67209 40.3569L4.86589 32.5953C4.87011 32.4339 4.93719 32.2805 5.05284 32.1677C5.16849 32.055 5.32358 31.9919 5.48509 31.9917H5.50069C5.84269 32.0001 6.11269 32.2845 6.10489 32.6265L5.91109 40.3881C5.90702 40.5497 5.84001 40.7033 5.72434 40.8161C5.60868 40.929 5.4535 40.9922 5.29189 40.9923ZM14.7185 40.9923C14.5569 40.9922 14.4017 40.929 14.286 40.8161C14.1703 40.7033 14.1033 40.5497 14.0993 40.3881L13.9055 32.6265C13.9034 32.5452 13.9174 32.4642 13.9466 32.3882C13.9759 32.3123 14.0198 32.2428 14.0759 32.1839C14.1321 32.1249 14.1993 32.0776 14.2737 32.0446C14.3481 32.0117 14.4283 31.9937 14.5097 31.9917H14.5253C14.8601 31.9917 15.1361 32.2587 15.1445 32.5953L15.3383 40.3569C15.3403 40.4382 15.3264 40.5192 15.2971 40.5951C15.2679 40.671 15.224 40.7404 15.168 40.7994C15.1119 40.8583 15.0448 40.9057 14.9705 40.9387C14.8961 40.9717 14.816 40.9897 14.7347 40.9917H14.7191L14.7185 40.9923Z"></path></g></svg>