<svg xmlns="http://www.w3.org/2000/svg" width="25" height="25" viewBox="0 0 25 25" fill="none"><g clip-path="url(#clip0_15_136)"><path d="M24.3457 19.2866L19.2853 15.9119C18.6431 15.4871 17.7823 15.6269 17.3075 16.2331L15.8334 18.1284C15.7418 18.2492 15.6096 18.3329 15.4612 18.3642C15.3128 18.3954 15.1582 18.372 15.0256 18.2984L14.7452 18.1438C13.8157 17.6372 12.6591 17.0064 10.3289 14.6753C7.99863 12.3443 7.3666 11.1868 6.85995 10.259L6.7062 9.97863C6.63157 9.8461 6.60733 9.69107 6.63795 9.54209C6.66857 9.3931 6.75199 9.2602 6.87284 9.16785L8.76684 7.69423C9.37284 7.21942 9.51282 6.35884 9.08849 5.71646L5.71375 0.656007C5.27887 0.001858 4.40638 -0.194513 3.73314 0.210192L1.61705 1.48133C0.952153 1.87221 0.464366 2.50527 0.255922 3.24785C-0.50608 6.02429 0.0671663 10.816 7.1258 17.8755C12.7408 23.49 16.9209 24.9999 19.794 24.9999C20.4553 25.0028 21.1139 24.9167 21.7522 24.7441C22.4949 24.536 23.1281 24.0481 23.5187 23.383L24.7911 21.2682C25.1964 20.5948 25.0002 19.7218 24.3457 19.2866ZM24.0732 20.8407L22.8037 22.9568C22.5232 23.4368 22.0679 23.7898 21.533 23.9417C18.9699 24.6454 14.4919 24.0626 7.71531 17.286C0.93873 10.5094 0.355914 6.03181 1.05962 3.46829C1.21178 2.93276 1.56514 2.47683 2.04577 2.19588L4.16187 0.926396C4.45399 0.750629 4.83267 0.835827 5.02137 1.11969L6.85458 3.87197L8.39323 6.1797C8.5775 6.45834 8.51695 6.8318 8.25408 7.03799L6.35965 8.5116C5.78313 8.95244 5.6185 9.75008 5.97345 10.3831L6.12388 10.6565C6.65636 11.633 7.31836 12.8479 9.73527 15.2645C12.1522 17.6809 13.3667 18.343 14.3428 18.8754L14.6165 19.0262C15.2495 19.3811 16.0472 19.2165 16.4881 18.64L17.9617 16.7456C18.1679 16.4829 18.5412 16.4224 18.82 16.6064L23.88 19.9812C24.164 20.1697 24.2492 20.5486 24.0732 20.8407ZM14.1669 4.16824C18.0768 4.17258 21.2453 7.34114 21.2497 11.251C21.2497 11.4811 21.4362 11.6677 21.6663 11.6677C21.8964 11.6677 22.0829 11.4811 22.0829 11.251C22.0781 6.88111 18.5368 3.33978 14.1669 3.335C13.9368 3.335 13.7503 3.52151 13.7503 3.75162C13.7503 3.98173 13.9368 4.16824 14.1669 4.16824Z" fill="#63AB45"></path></g><defs><clipPath id="clip0_15_136"><rect width="25" height="25" fill="white"></rect></clipPath></defs></svg>