<?xml version="1.0" encoding="UTF-8"?>
<svg xmlns="http://www.w3.org/2000/svg" width="18" height="18" viewBox="0 0 18 18" fill="none">
  <g clip-path="url(#clip0_7_113)">
    <path d="M15.885 7.45002L14.9166 7.16352C14.7932 7.12722 14.6758 7.04233 14.5731 6.91509C14.4703 6.7879 14.3848 6.62147 14.323 6.42802L12.9856 2.26801C12.7638 1.57976 12.4439 1.00769 12.058 0.609502C11.6722 0.211251 11.2341 0.0010625 10.7879 0H6.08709C5.64096 0.001 5.20287 0.211126 4.81703 0.609252C4.43116 1.00738 4.1112 1.57938 3.8894 2.26751L2.52535 6.51102C2.46861 6.68652 2.39257 6.8399 2.30179 6.96209C2.21099 7.08421 2.1073 7.17265 1.99687 7.22202L1.06481 7.63602C0.832746 7.73928 0.619403 7.94641 0.445085 8.23765C0.270764 8.52897 0.141264 8.89466 0.0689062 9.30003C0.0658125 9.31303 0.0655312 9.32853 0.063 9.34203C0.0222812 9.5751 0.00105426 9.81753 0 10.0615V13.5C0.000446586 14.1629 0.148748 14.7983 0.412376 15.267C0.676002 15.7356 1.03343 15.9993 1.40625 16.0001H2.44265C2.60172 16.5983 2.85312 17.1039 3.16755 17.4579C3.482 17.812 3.84655 18 4.21875 18C4.59095 18 4.95552 17.812 5.26995 17.4579C5.5844 17.1039 5.83575 16.5983 5.99484 16.0001H12.0052C12.1642 16.5983 12.4156 17.1039 12.73 17.4579C13.0445 17.812 13.4091 18 13.7812 18C14.1534 18 14.518 17.812 14.8324 17.4579C15.1469 17.1039 15.3982 16.5983 15.5574 16.0001H16.5937C16.9665 15.9993 17.324 15.7356 17.5877 15.267C17.8512 14.7983 17.9995 14.1629 18 13.5V11.8885C18.0015 10.8227 17.7895 9.79066 17.4019 8.97735C17.0144 8.16403 16.4767 7.62265 15.885 7.45002ZM17.1265 10C17.2377 10.3083 17.3209 10.6457 17.3731 11H17.1562C16.9331 10.9999 16.719 10.8432 16.5605 10.564C16.4714 10.4044 16.4033 10.2118 16.3608 10H17.1265ZM0.565312 10H1.04597L0.905343 11H0.5625V10.0615C0.5625 10.0405 0.565032 10.0205 0.565312 10ZM4.21875 17.0001C3.94062 17.0001 3.66873 16.8534 3.43747 16.5788C3.20622 16.304 3.02598 15.9135 2.91955 15.4567C2.8131 14.9999 2.78526 14.4973 2.83953 14.0124C2.89378 13.5274 3.02772 13.0819 3.22438 12.7323C3.42104 12.3827 3.67161 12.1445 3.94439 12.0481C4.21721 11.9516 4.49992 12.0011 4.75689 12.1904C5.01384 12.3795 5.2335 12.7 5.388 13.1111C5.54252 13.5222 5.625 14.0057 5.625 14.5C5.62454 15.1628 5.47626 15.7983 5.21262 16.267C4.94901 16.7356 4.59158 16.9992 4.21875 17.0001ZM13.7812 17.0001C13.5031 17.0001 13.2313 16.8534 13 16.5788C12.7687 16.304 12.5885 15.9135 12.482 15.4567C12.3756 14.9999 12.3477 14.4973 12.402 14.0124C12.4563 13.5274 12.5902 13.0819 12.7869 12.7323C12.9835 12.3827 13.2341 12.1445 13.5069 12.0481C13.7796 11.9516 14.0624 12.0011 14.3194 12.1904C14.5764 12.3795 14.796 12.7 14.9505 13.1111C15.105 13.5222 15.1875 14.0057 15.1875 14.5C15.187 15.1628 15.0387 15.7983 14.7752 16.267C14.5115 16.7356 14.154 16.9992 13.7812 17.0001ZM16.5937 15H15.7275C15.7702 14.5016 15.7519 13.9926 15.6738 13.5078C15.5956 13.0231 15.4594 12.5742 15.2747 12.1917C15.0898 11.8092 14.8607 11.5022 14.6029 11.2918C14.3451 11.0814 14.0649 10.9724 13.7812 10.9724C13.4976 10.9724 13.2174 11.0814 12.9596 11.2918C12.7018 11.5022 12.4727 11.8092 12.2879 12.1917C12.1031 12.5742 11.9669 13.0231 11.8887 13.5078C11.8106 13.9926 11.7922 14.5016 11.835 15H6.165C6.20775 14.5016 6.18943 13.9926 6.11124 13.5078C6.03309 13.0231 5.89693 12.5742 5.71212 12.1917C5.5273 11.8092 5.29815 11.5022 5.04042 11.2918C4.78265 11.0814 4.50239 10.9724 4.21875 10.9724C3.93511 10.9724 3.65484 11.0814 3.39709 11.2918C3.13933 11.5022 2.9102 11.8092 2.72538 12.1917C2.54056 12.5742 2.4044 13.0231 2.32624 13.5078C2.24807 13.9926 2.22974 14.5016 2.2725 15H1.40625C1.18247 15 0.967861 14.842 0.809627 14.5607C0.651396 14.2794 0.5625 13.8978 0.5625 13.5V12H1.125C1.1877 12 1.2486 11.9628 1.29803 11.8942C1.34745 11.8257 1.38258 11.7297 1.39782 11.6215L1.67907 9.62153C1.68945 9.54778 1.69025 9.47084 1.68139 9.39646C1.67253 9.32216 1.65426 9.25235 1.62797 9.19241C1.60167 9.13253 1.56803 9.08403 1.52961 9.05072C1.49118 9.01734 1.449 9.00003 1.40625 9.00003H0.81253C0.919754 8.80866 1.05419 8.67266 1.2015 8.60653L2.13385 8.19203C2.31769 8.10953 2.49033 7.96209 2.64146 7.75846C2.79261 7.5549 2.91915 7.29933 3.0136 7.00703L4.37765 2.76351C4.55021 2.22832 4.79911 1.78344 5.09923 1.47388C5.39937 1.16425 5.7401 1.00082 6.08709 1H10.7879C11.1349 1.00082 11.4756 1.16425 11.7758 1.47388C12.0759 1.78344 12.3248 2.22832 12.4973 2.76351L13.8344 6.92352C13.9375 7.24614 14.08 7.52372 14.2511 7.7359C14.4224 7.94816 14.6182 8.08959 14.8242 8.15003L15.7924 8.43702C16.0757 8.52034 16.3452 8.71246 16.5822 9.00003H16.0312C15.9566 9.00003 15.8851 9.05271 15.8324 9.14647C15.7796 9.24022 15.75 9.36741 15.75 9.50003C15.7499 9.82841 15.786 10.1537 15.8567 10.4572C15.9273 10.7606 16.0308 11.0364 16.1614 11.2685C16.2921 11.5007 16.4471 11.6849 16.6179 11.8104C16.7886 11.9359 16.9716 12.0004 17.1562 12H17.4375V13.5C17.4375 13.8978 17.3485 14.2794 17.1904 14.5607C17.0321 14.842 16.8175 15 16.5937 15Z" fill="#63AB45"></path>
    <path d="M12.7851 4.74261C12.7466 4.62893 12.6844 4.54699 12.612 4.51486C12.5396 4.48275 12.463 4.50305 12.399 4.57137C12.3351 4.63968 12.289 4.7503 12.2709 4.87905C12.2529 5.00774 12.2643 5.14392 12.3027 5.25762L12.7221 6.50012H9.28125V2.50011H10.8942C11.0399 2.50079 11.183 2.56823 11.3097 2.6958C11.4365 2.82342 11.5426 3.00693 11.6179 3.22861L11.7962 3.75762C11.8346 3.8713 11.8968 3.95324 11.9693 3.98537C12.0416 4.01748 12.1183 3.99717 12.1822 3.92886C12.2461 3.86055 12.2922 3.74993 12.3103 3.62118C12.3284 3.49249 12.3169 3.35629 12.2785 3.24261L12.0999 2.7136C11.9745 2.34423 11.7977 2.0386 11.5865 1.82605C11.3753 1.61348 11.1369 1.50123 10.8942 1.50011H9C8.92539 1.50011 8.85385 1.5528 8.80111 1.64654C8.74839 1.74029 8.71875 1.86749 8.71875 2.00011V7.00012C8.71875 7.13274 8.74839 7.25994 8.80111 7.35368C8.85385 7.44744 8.92539 7.50012 9 7.50012H13.2187C13.2686 7.50012 13.3174 7.47662 13.3604 7.43201C13.4034 7.38744 13.4389 7.32331 13.4635 7.24631C13.488 7.16925 13.5005 7.08206 13.4999 6.99357C13.4992 6.90506 13.4853 6.8185 13.4598 6.74262L12.7851 4.74261ZM7.875 1.50011H5.98078C5.73809 1.50123 5.49967 1.61348 5.28848 1.82605C5.0773 2.0386 4.9005 2.34423 4.77507 2.7136L3.41522 6.74262C3.38958 6.8185 3.37573 6.90506 3.37508 6.99357C3.37442 7.08206 3.387 7.16925 3.4115 7.24631C3.43602 7.32331 3.47158 7.38744 3.51459 7.43201C3.5576 7.47662 3.60647 7.50012 3.65625 7.50012H7.875C7.9496 7.50012 8.02115 7.44744 8.07387 7.35368C8.12661 7.25994 8.15625 7.13274 8.15625 7.00012V2.00011C8.15625 1.86749 8.12661 1.74029 8.07387 1.64654C8.02115 1.5528 7.9496 1.50011 7.875 1.50011ZM7.59375 6.50012H4.15293L5.25712 3.22861C5.3324 3.00693 5.43853 2.82342 5.56527 2.6958C5.69201 2.56823 5.83512 2.50079 5.98078 2.50011H7.59375V6.50012ZM9.5625 8.00013H9C8.92539 8.00013 8.85385 8.05281 8.80111 8.14657C8.74839 8.24031 8.71875 8.36751 8.71875 8.50013C8.71875 8.63275 8.74839 8.75994 8.80111 8.8537C8.85385 8.94744 8.92539 9.00013 9 9.00013H9.5625C9.6371 9.00013 9.70865 8.94744 9.76137 8.8537C9.81411 8.75994 9.84375 8.63275 9.84375 8.50013C9.84375 8.36751 9.81411 8.24031 9.76137 8.14657C9.70865 8.05281 9.6371 8.00013 9.5625 8.00013ZM4.21875 8.00013H3.65625C3.58165 8.00013 3.51013 8.05281 3.45738 8.14657C3.40464 8.24031 3.375 8.36751 3.375 8.50013C3.375 8.63275 3.40464 8.75994 3.45738 8.8537C3.51013 8.94744 3.58165 9.00013 3.65625 9.00013H4.21875C4.29335 9.00013 4.3649 8.94744 4.41762 8.8537C4.47036 8.75994 4.5 8.63275 4.5 8.50013C4.5 8.36751 4.47036 8.24031 4.41762 8.14657C4.3649 8.05281 4.29335 8.00013 4.21875 8.00013ZM13.7812 13.0001C13.6143 13.0001 13.4513 13.0882 13.3124 13.253C13.1737 13.4177 13.0656 13.652 13.0018 13.9261C12.9379 14.2002 12.9212 14.5018 12.9537 14.7928C12.9862 15.0837 13.0666 15.351 13.1846 15.5609C13.3026 15.7706 13.4529 15.9134 13.6166 15.9714C13.7803 16.0293 13.95 15.9996 14.1042 15.886C14.2583 15.7725 14.3901 15.5802 14.4828 15.3336C14.5755 15.0868 14.625 14.7969 14.625 14.5002C14.625 14.1024 14.536 13.7208 14.3779 13.4394C14.2196 13.1583 14.005 13.0001 13.7812 13.0001ZM13.7812 15.0002C13.7256 15.0002 13.6713 14.9709 13.625 14.916C13.5787 14.8609 13.5427 14.7829 13.5213 14.6915C13.5001 14.6002 13.4946 14.4996 13.5054 14.4026C13.5162 14.3056 13.5431 14.2165 13.5824 14.1466C13.6218 14.0766 13.6718 14.0291 13.7264 14.0098C13.7809 13.9905 13.8375 14.0004 13.8888 14.0382C13.9402 14.076 13.9842 14.1402 14.0151 14.2223C14.046 14.3046 14.0625 14.4013 14.0625 14.5002C14.0625 14.6327 14.0328 14.76 13.9801 14.8537C13.9274 14.9475 13.8559 15.0002 13.7812 15.0002ZM4.21875 13.0001C4.05186 13.0001 3.88873 13.0882 3.74998 13.253C3.61125 13.4177 3.50308 13.652 3.43922 13.9261C3.37536 14.2002 3.35866 14.5018 3.39121 14.7928C3.42377 15.0837 3.50412 15.351 3.62211 15.5609C3.74013 15.7706 3.89046 15.9134 4.05415 15.9714C4.2178 16.0293 4.38746 15.9996 4.54162 15.886C4.69581 15.7725 4.82759 15.5802 4.92029 15.3336C5.013 15.0868 5.0625 14.7969 5.0625 14.5002C5.0625 14.1024 4.97359 13.7208 4.81539 13.4394C4.65715 13.1583 4.44252 13.0001 4.21875 13.0001ZM4.21875 15.0002C4.16313 15.0002 4.10874 14.9709 4.06248 14.916C4.01625 14.8609 3.98019 14.7829 3.95891 14.6915C3.9376 14.6002 3.93205 14.4996 3.94291 14.4026C3.95374 14.3056 3.98053 14.2165 4.01988 14.1466C4.05921 14.0766 4.10931 14.0291 4.16388 14.0098C4.21843 13.9905 4.275 14.0004 4.32636 14.0382C4.37777 14.076 4.42171 14.1402 4.45261 14.2223C4.48352 14.3046 4.5 14.4013 4.5 14.5002C4.5 14.6327 4.47036 14.76 4.41762 14.8537C4.3649 14.9475 4.29335 15.0002 4.21875 15.0002Z" fill="#63AB45"></path>
  </g>
  <defs>
    <clipPath id="clip0_7_113">
      <rect width="18" height="18" fill="white"></rect>
    </clipPath>
  </defs>
</svg>
