<?xml version="1.0" encoding="UTF-8"?>
<svg xmlns="http://www.w3.org/2000/svg" width="30" height="30" viewBox="0 0 30 30" fill="none">
  <path d="M7.79309 3.86133C7.5763 3.91992 7.26575 4.04297 7.08997 4.13672C6.69739 4.34766 6.16419 4.86914 5.95911 5.23828C5.76575 5.58984 5.56653 6.2168 5.56653 6.48047V6.67969H4.67005H3.77942L3.56263 6.50391C3.15833 6.16992 2.73059 6.01758 2.20325 6.01758C1.55872 6.01758 1.13684 6.18164 0.697391 6.60352C-0.708859 7.94531 0.228641 10.3125 2.16223 10.3125C2.74231 10.3125 3.21692 10.1367 3.6095 9.77344L3.79114 9.60352L4.66419 9.62109L5.53723 9.63867L5.55481 16.623L5.56653 23.6074L5.71888 23.7246C5.87122 23.8418 5.94739 23.8477 7.44739 23.8477H9.02356V24.8086C9.02356 25.8457 9.07044 26.0801 9.29309 26.1855C9.39856 26.2324 11.4786 26.25 17.0158 26.25C24.5919 26.25 24.5919 26.25 24.7501 26.127L24.9025 26.0098L24.9142 17.8242L24.9318 9.63867L25.5704 9.62109C26.2033 9.60352 26.215 9.60938 26.3908 9.77344C26.7833 10.1367 27.2579 10.3125 27.838 10.3125C28.84 10.3125 29.6779 9.63867 29.924 8.64844C30.1056 7.88672 29.8595 7.11328 29.256 6.5625C28.8341 6.17578 28.4122 6.01758 27.797 6.01758C27.2697 6.01758 26.8419 6.16992 26.4376 6.50391C26.2267 6.67383 26.2091 6.67969 25.5646 6.67969H24.9025V6.48633C24.9025 6.22266 24.7501 5.72461 24.545 5.32617C24.3341 4.9043 23.7833 4.35352 23.3439 4.11914C22.6056 3.73242 22.963 3.75 15.1993 3.75586C8.672 3.75586 8.14466 3.76172 7.79309 3.86133ZM19.5939 4.9043C19.3302 5.25 19.1954 5.51953 19.0783 5.91797C19.0021 6.1875 18.9845 6.70898 18.9728 9.05859C18.9552 11.7656 18.9611 11.8887 19.0665 12.0059C19.1954 12.1523 19.4943 12.1699 19.6642 12.0469C19.7638 11.9707 19.7755 11.8652 19.8048 10.7988L19.8341 9.63867L21.9318 9.62109L24.0236 9.60938V17.4902V25.3711H16.963H9.90247V24.6094V23.8477H14.7013C19.465 23.8477 19.4943 23.8477 19.6525 23.7246L19.8048 23.6074V18.4512C19.8048 13.377 19.8048 13.3008 19.6876 13.1836C19.5294 13.0254 19.213 13.0312 19.0665 13.1895C18.9611 13.3066 18.9552 13.4531 18.9376 16.0605L18.92 18.8086H12.6857H6.44544V12.5508V6.29883L6.5802 5.9707C6.75598 5.54297 6.99036 5.25586 7.36536 5.00977C7.93958 4.62305 7.69934 4.63477 14.045 4.63477L19.8048 4.62891L19.5939 4.9043ZM22.4591 4.7168C23.2618 4.92773 23.924 5.64844 24.0118 6.42188L24.0411 6.67969H21.9318H19.8224L19.8693 6.39844C19.922 6.04688 20.0392 5.77734 20.2618 5.47266C20.5431 5.08594 20.8243 4.91016 21.381 4.76367C21.9904 4.60547 22.0372 4.60547 22.4591 4.7168ZM2.56067 6.94336C3.26966 7.1543 3.65052 8.02734 3.33411 8.70117C3.09388 9.20508 2.65442 9.45703 2.06848 9.42188C1.58216 9.39258 1.26575 9.17578 1.04309 8.73633C0.761844 8.18555 0.849735 7.6875 1.28919 7.25977C1.68177 6.87891 2.03919 6.79102 2.56067 6.94336ZM28.4064 7.02539C28.8341 7.24219 29.1212 7.72266 29.1212 8.21484C29.1212 8.52539 28.84 9.02344 28.547 9.22852C28.3185 9.38672 28.2482 9.4043 27.838 9.4043C27.4396 9.4043 27.3517 9.38672 27.1408 9.24023C26.4376 8.77734 26.338 7.83398 26.9415 7.24805C27.3458 6.84961 27.8966 6.76758 28.4064 7.02539ZM5.55481 8.15625L5.57239 8.73047H4.93958H4.30677V8.14453V7.55273L4.922 7.57031L5.53723 7.58789L5.55481 8.15625ZM25.6935 8.14453V8.73047H22.7521H19.8048V8.18555C19.8048 7.88086 19.8224 7.61719 19.8458 7.59961C19.8634 7.57617 21.1876 7.55859 22.7872 7.55859H25.6935V8.14453ZM18.9259 20.2734V20.8008H12.6857H6.44544V20.2734V19.7461H12.6857H18.9259V20.2734ZM18.9259 22.3242V22.9688H12.6857H6.44544V22.3242V21.6797H12.6857H18.9259V22.3242Z" fill="#63AB45"></path>
</svg>
