<svg xmlns="http://www.w3.org/2000/svg" width="43" height="43" viewBox="0 0 43 43" fill="none"><g clip-path="url(#clip0_10_116)"><path opacity="0.5" d="M20.5621 1.53451C20.8843 0.663889 22.1157 0.663889 22.4379 1.53451L27.4175 14.9917C27.5188 15.2654 27.7346 15.4812 28.0083 15.5825L41.4655 20.5621C42.3361 20.8843 42.3361 22.1157 41.4655 22.4379L28.0083 27.4175C27.7346 27.5188 27.5188 27.7346 27.4175 28.0083L22.4379 41.4655C22.1157 42.3361 20.8843 42.3361 20.5621 41.4655L15.5825 28.0083C15.4812 27.7346 15.2654 27.5188 14.9917 27.4175L1.53451 22.4379C0.663889 22.1157 0.663889 20.8843 1.53451 20.5621L14.9917 15.5825C15.2654 15.4812 15.4812 15.2654 15.5825 14.9917L20.5621 1.53451Z" fill="#63AB45"></path></g><defs><clipPath id="clip0_10_116"><rect width="43" height="43" fill="white"></rect></clipPath></defs></svg>