<?xml version="1.0" encoding="UTF-8"?>
<svg xmlns="http://www.w3.org/2000/svg" width="30" height="30" viewBox="0 0 30 30" fill="none">
  <path d="M20.4198 3.16992L18.8964 3.81445L17.1386 3.69141C16.1718 3.62695 14.8417 3.5332 14.1796 3.48633C6.36319 2.91211 6.49796 2.92383 5.91788 2.99414C5.14444 3.08203 4.47062 3.28711 3.72062 3.65625C2.08585 4.45898 0.902256 5.8125 0.328037 7.5293C-0.591885 10.2715 0.503818 13.4062 2.9589 15.0352L3.43937 15.3574L4.65812 18.6504C5.33194 20.4609 5.97061 22.125 6.08194 22.3418C6.63858 23.4258 7.93936 24.1582 9.1464 24.0645L9.59171 24.0293L9.8964 24.6855C10.0663 25.0488 10.3124 25.5059 10.4413 25.7109C10.7636 26.2031 11.3319 26.7188 11.8827 27C12.5683 27.3574 12.9316 27.4453 13.7108 27.4512C14.2968 27.4512 14.4491 27.4277 14.9003 27.2812C15.7909 26.9883 16.4706 26.4668 16.998 25.6699C17.4316 25.0137 17.5898 24.4688 17.6249 23.4609L17.6483 22.6348L17.4726 22.4355C17.3261 22.2715 17.2558 22.2363 17.0507 22.2363C16.8456 22.2363 16.7753 22.2715 16.6347 22.4297C16.4706 22.6113 16.4648 22.6406 16.4648 23.2207C16.4648 24.2695 16.2362 24.8906 15.6386 25.4941C14.5722 26.5664 12.8495 26.5547 11.7597 25.4707C11.4901 25.2012 11.3495 24.9844 11.0507 24.3633L10.6757 23.5957L10.9511 23.3789C11.3437 23.0684 11.6366 22.7109 11.8651 22.2539C12.1288 21.7148 12.205 21.3047 12.1698 20.5957C12.1405 20.0215 12.123 19.9512 11.2616 17.4902L10.3769 14.9707L10.5351 14.8535C10.8515 14.625 11.6191 13.8516 11.9003 13.4766C12.2343 13.0371 12.6444 12.2637 12.8378 11.7188C12.9081 11.5078 12.9726 11.332 12.9726 11.3262C12.9784 11.3262 14.2968 11.1562 15.9081 10.957L18.8378 10.5938L20.3964 11.1855C21.2519 11.5078 22.037 11.7773 22.1425 11.7773C22.2773 11.7773 22.3827 11.7246 22.5058 11.6074L22.6757 11.4375V7.16602C22.6757 3.21094 22.664 2.88867 22.5702 2.77734C22.4413 2.61328 22.2538 2.51953 22.078 2.52539C22.0019 2.52539 21.2577 2.81836 20.4198 3.16992ZM21.4804 10.2949C21.4687 10.3125 21.0175 10.1543 20.4843 9.94922L19.5116 9.58008V7.20117V4.82227L20.496 4.41211L21.4745 4.00195L21.4921 7.13672C21.498 8.85938 21.4921 10.2832 21.4804 10.2949ZM12.1874 4.51172C15.3632 4.74023 18.0468 4.93945 18.1523 4.95703L18.3398 4.98633V7.23047V9.47461L15.3105 9.84375C11.7714 10.2773 12.0702 10.1777 11.8066 11.0449C11.4257 12.2988 10.5937 13.4297 9.54483 14.1094C8.21476 14.9707 6.47452 15.1934 4.92179 14.6953C4.12491 14.4434 3.53312 14.0801 2.87687 13.4531C2.13272 12.7324 1.60538 11.8535 1.34171 10.8691C1.15421 10.1953 1.15421 8.90625 1.34171 8.23242C1.60538 7.24219 2.13858 6.35742 2.88272 5.64844C3.76749 4.81055 4.84561 4.30664 6.12296 4.14258C6.22257 4.13086 6.32804 4.11328 6.35733 4.10742C6.39249 4.10156 9.01163 4.2832 12.1874 4.51172ZM10.1659 17.9121C10.9042 20.0332 10.9804 20.2852 11.0038 20.7246C11.0214 21.0879 11.0038 21.2812 10.9276 21.498C10.5116 22.6348 9.19327 23.2031 8.10343 22.7109C7.72843 22.5352 7.29483 22.1426 7.13663 21.8262C6.99015 21.5508 4.91007 15.9844 4.93937 15.9609C4.95108 15.9492 5.15616 15.9785 5.3964 16.0312C6.36319 16.2363 7.82804 16.1191 8.78897 15.7617C9.02921 15.6738 9.25772 15.5977 9.29288 15.5918C9.32804 15.5918 9.72062 16.6348 10.1659 17.9121Z" fill="#63AB45"></path>
  <path d="M5.81259 6.41018C4.69344 6.68557 3.68563 7.71682 3.45712 8.8301C3.35751 9.31057 3.41024 10.2071 3.56259 10.6348C4.04891 11.9707 5.37313 12.8438 6.79696 12.7559C8.25594 12.6621 9.45712 11.6367 9.75594 10.2129C9.87313 9.66799 9.86727 9.29885 9.72665 8.76565C9.56844 8.1387 9.35751 7.77542 8.87704 7.28909C8.22665 6.62698 7.50009 6.32229 6.59188 6.33401C6.33407 6.33401 5.98251 6.36917 5.81259 6.41018ZM7.54696 7.7344C9.19344 8.60745 8.94735 11.0039 7.15438 11.5254C6.43368 11.7305 5.63094 11.4961 5.1036 10.9278C4.68759 10.4707 4.55282 10.0782 4.58212 9.43362C4.61141 8.84768 4.76376 8.49612 5.16219 8.09768C5.61337 7.64651 6.02938 7.49417 6.70907 7.5176C7.10751 7.53518 7.23055 7.56448 7.54696 7.7344Z" fill="#63AB45"></path>
  <path d="M24.5158 3.80273C24.2697 3.95507 24.1701 4.20703 24.258 4.47656C24.3869 4.86914 24.3518 4.86328 26.883 4.86328H29.1623L29.3147 4.72265C29.6135 4.44726 29.5666 4.01953 29.215 3.80273C29.0451 3.69726 28.8811 3.6914 26.8654 3.6914C24.8498 3.6914 24.6857 3.69726 24.5158 3.80273Z" fill="#63AB45"></path>
  <path d="M24.5684 6.64453C24.2989 6.76758 24.17 7.04883 24.252 7.33008C24.3692 7.72852 24.3985 7.73438 26.0333 7.73438H27.4922L27.6622 7.56445C27.8965 7.33008 27.8965 7.04297 27.6622 6.78516L27.4922 6.5918L26.1211 6.58008C25.0489 6.56836 24.7149 6.58008 24.5684 6.64453Z" fill="#63AB45"></path>
  <path d="M24.4219 9.60352C24.2637 9.74414 24.2285 9.81445 24.2285 10.0195C24.2285 10.2246 24.2637 10.2949 24.4219 10.4355L24.6094 10.6055H26.8652H29.1211L29.3086 10.4355C29.4668 10.2949 29.502 10.2246 29.502 10.0195C29.502 9.81445 29.4668 9.74414 29.3086 9.60352L29.1211 9.43359H26.8652H24.6094L24.4219 9.60352Z" fill="#63AB45"></path>
  <path d="M18.9142 13.6817C17.7482 13.9688 16.8283 14.8946 16.5529 16.0664C16.4474 16.5117 16.4357 17.6309 16.5353 17.8418C16.6115 18.0117 16.8576 18.1641 17.0509 18.1641C17.256 18.1641 17.4962 18.0059 17.5666 17.8301C17.6017 17.7422 17.6369 17.3496 17.6544 16.9629C17.672 16.3477 17.6955 16.2188 17.8302 15.9317C18.0177 15.5449 18.463 15.1055 18.8556 14.9239C19.0783 14.8184 19.2365 14.7949 19.6584 14.7949C20.1212 14.8008 20.2267 14.8184 20.5255 14.9707C20.9357 15.1758 21.2873 15.5391 21.4923 15.9844L21.6505 16.3184L21.6798 19.7754C21.7033 22.002 21.7384 23.2969 21.7794 23.4082C22.3478 25.0196 24.047 25.7754 25.5353 25.0781C26.2091 24.7617 26.8244 24.0352 27.0119 23.3321C27.047 23.1914 27.0998 22.6641 27.1232 22.1485C27.1642 21.2637 27.1759 21.1992 27.3576 20.836C27.7091 20.1211 28.3771 19.6699 29.2209 19.5703C29.631 19.5293 29.6955 19.5 29.8419 19.3301C29.9884 19.1719 30.006 19.1074 29.9826 18.9024C29.9298 18.5449 29.7365 18.3985 29.2853 18.3985C28.5177 18.3985 27.6974 18.7383 27.0763 19.3184C26.6076 19.7461 26.3498 20.127 26.1447 20.6719C26.0216 21 25.9923 21.2168 25.9572 22.0078C25.9162 22.7813 25.8869 23.0039 25.7814 23.2383C25.2248 24.5098 23.3966 24.4453 22.9396 23.1446C22.8634 22.9336 22.8517 22.3828 22.8517 19.7168C22.8517 17.9707 22.8283 16.4121 22.799 16.2539C22.4533 14.4317 20.6779 13.2539 18.9142 13.6817Z" fill="#63AB45"></path>
  <path d="M16.7637 19.7109C16.5879 19.8105 16.4707 20.0156 16.4648 20.2324C16.4648 20.4727 16.7988 20.8008 17.0508 20.8008C17.291 20.8008 17.6367 20.4727 17.6367 20.25C17.6367 19.7812 17.168 19.4883 16.7637 19.7109Z" fill="#63AB45"></path>
</svg>
