<?xml version="1.0" encoding="UTF-8"?>
<svg xmlns="http://www.w3.org/2000/svg" width="30" height="30" viewBox="0 0 30 30" fill="none">
  <g clip-path="url(#clip0_4_81)">
    <path d="M10.7812 0.544922C10.4941 0.638672 10.002 1.14258 9.91406 1.44141C9.82031 1.76367 9.82031 3.89062 9.91406 4.16602C9.94922 4.27734 10.0312 4.43555 10.0898 4.52344C10.2012 4.6875 10.2012 4.6875 10.0898 4.8457C9.9082 5.10938 9.82617 5.4375 9.86133 5.77734L9.89648 6.09375H9.53906C9.3457 6.09375 9.07617 6.12305 8.94141 6.16406C8.61914 6.25781 8.13281 6.74414 8.03906 7.06641C7.99219 7.23633 7.96875 7.95117 7.96875 9.50391V11.7012L7.25391 11.7363C5.8418 11.8008 4.76953 12.1465 3.59766 12.9199C2.41406 13.7051 1.38281 15.0059 0.902344 16.3184C0.84375 16.4766 0.732422 16.6992 0.650391 16.8105L0.498047 17.0098V18.75V20.4902L0.650391 20.6895C0.732422 20.8008 0.84375 21.0176 0.902344 21.1816C1.38281 22.4941 2.41406 23.7949 3.59766 24.5801C4.76367 25.3477 5.84766 25.6992 7.25391 25.7637L7.96875 25.7988V27.0586C7.96875 27.873 7.99219 28.4004 8.03906 28.5586C8.13281 28.8809 8.61914 29.3672 8.94141 29.4609C9.29297 29.5605 28.207 29.5605 28.5586 29.4609C28.8809 29.3672 29.3672 28.8809 29.4609 28.5586C29.5605 28.2129 29.5664 7.41797 29.4609 7.07812C29.4258 6.94922 29.2793 6.71484 29.1387 6.5625C28.8398 6.23438 28.5059 6.09375 28.002 6.09375H27.6621L27.6445 3.58008C27.627 1.14258 27.6211 1.06055 27.5039 0.902344C27.4395 0.814453 27.3105 0.685547 27.2227 0.621094C27.0645 0.503906 26.9941 0.498047 24.8438 0.498047C22.6934 0.498047 22.623 0.503906 22.4648 0.621094C22.377 0.685547 22.248 0.814453 22.1836 0.902344C22.0664 1.06055 22.0605 1.14258 22.043 3.58008L22.0254 6.09375H21.5391H21.0469L21.0762 5.72461C21.0996 5.4082 21.082 5.32031 20.9297 5.02148L20.7598 4.6875L20.9297 4.35938C21.0938 4.02539 21.0938 4.02539 21.0938 2.85352C21.0938 2.10938 21.0703 1.59375 21.0234 1.44141C20.9297 1.11914 20.4434 0.632812 20.1211 0.539062C19.793 0.445312 11.0859 0.451172 10.7812 0.544922ZM20.0098 1.55273C20.1562 1.69336 20.1562 1.70508 20.1562 2.8125C20.1562 3.91992 20.1562 3.93164 20.0098 4.07227L19.8691 4.21875H15.4688H11.0684L10.9277 4.07227C10.7812 3.93164 10.7812 3.91992 10.7812 2.8125C10.7812 1.70508 10.7812 1.69336 10.9277 1.55273L11.0684 1.40625H15.4688H19.8691L20.0098 1.55273ZM26.7188 3.75V6.09375H26.3496H25.9863L25.1367 5.24414C24.668 4.77539 24.2637 4.39453 24.2285 4.39453C24.1523 4.39453 23.6133 4.92773 23.6133 5.00391C23.6133 5.03906 23.8418 5.29688 24.123 5.57812L24.6387 6.09375H23.8008H22.9688V3.75V1.40625H24.8438H26.7188V3.75ZM20.0098 5.30273C20.2031 5.49023 20.2031 5.75977 20.0098 5.94727L19.8691 6.09375H15.4688H11.0684L10.9277 5.94727C10.834 5.85938 10.7812 5.73633 10.7812 5.625C10.7812 5.51367 10.834 5.39062 10.9277 5.30273L11.0684 5.15625H15.4688H19.8691L20.0098 5.30273ZM28.4473 7.17773C28.5938 7.31836 28.5938 7.31836 28.5938 8.58398V9.84375H18.75H8.90625V8.58398C8.90625 7.31836 8.90625 7.31836 9.05273 7.17773L9.19336 7.03125H18.75H28.3066L28.4473 7.17773ZM28.5938 19.541V28.3066L28.4473 28.4473L28.3066 28.5938H18.75H9.19336L9.05273 28.4473L8.90625 28.3066V26.9531C8.90625 25.6641 8.91211 25.6055 9.01758 25.6055C9.08203 25.6055 9.375 25.5234 9.66797 25.4297C10.9395 25.0137 12.082 24.2227 12.9668 23.1562L13.125 22.957L13.2832 23.1562C13.6699 23.6426 14.6367 24.4863 15.0996 24.7559C15.1113 24.7617 15.0762 25.2598 15.0293 25.8691C14.9766 26.4727 14.9473 26.9766 14.959 26.9941C14.9766 27.0059 15.3164 26.8535 15.7266 26.6484C16.4238 26.3086 16.5 26.2852 16.9629 26.2617C17.3496 26.2441 17.5371 26.2617 17.8594 26.3613C18.2344 26.4727 18.2695 26.4961 18.3047 26.6719C18.375 27.0293 18.6094 27.3398 18.9375 27.5039C19.4414 27.7559 19.752 27.7031 20.4551 27.2402L20.9121 26.9414L21.1289 27.1582C21.6035 27.6387 22.2422 27.7559 23.0039 27.5156C23.748 27.2754 24.1465 26.918 24.3105 26.332C24.4102 25.9746 24.3926 25.793 24.1406 24.7207C24.0117 24.1641 23.9062 23.6777 23.9062 23.6367C23.9062 23.5898 24.0938 23.3086 24.3164 23.0156C24.9785 22.1426 25.418 21.1992 25.6406 20.1562C25.7754 19.5352 25.793 18.0938 25.6699 17.4902C25.2363 15.293 23.8477 13.4531 21.8672 12.457C20.8711 11.959 19.9395 11.748 18.7207 11.748C16.6934 11.7539 15.0234 12.4746 13.6348 13.9512L13.1074 14.5137L12.7617 14.1094C12.1992 13.459 11.4375 12.8672 10.6172 12.457C10.166 12.2285 9.21094 11.8945 9.01758 11.8945C8.91797 11.8945 8.90625 11.8477 8.90625 11.3379V10.7812H18.75H28.5938V19.541ZM8.35547 12.7207C9.19922 12.8379 10.2539 13.248 10.9512 13.7285C11.332 13.9922 12.0938 14.7305 12.4043 15.1406C13.5469 16.6699 13.8984 18.8496 13.2832 20.6543C12.9727 21.5684 12.5566 22.2422 11.8652 22.957C10.3418 24.5508 8.14453 25.1836 6.02344 24.6445C4.31836 24.2109 2.84766 23.0273 2.0625 21.4688L1.88086 21.1055L2.27344 21.082C2.49023 21.0645 2.71289 21.0352 2.76562 21.0117C2.8418 20.9766 2.89453 21.0293 3.00586 21.252C3.21094 21.6504 3.73828 22.3066 4.10742 22.623C4.75781 23.1738 5.41406 23.5254 6.24023 23.748C6.9082 23.9297 8.0918 23.9297 8.75977 23.748C12.6504 22.6934 13.957 17.9414 11.1328 15.1172C8.95312 12.9375 5.36133 13.1426 3.47461 15.5508C3.29883 15.7793 3.08789 16.0898 3.00586 16.248C2.89453 16.4707 2.8418 16.5234 2.76562 16.4883C2.71289 16.4648 2.49023 16.4355 2.27344 16.418L1.88086 16.3945L2.0625 16.0312C2.49609 15.1758 3.29883 14.25 4.07227 13.7285C5.34961 12.8672 6.86133 12.5098 8.35547 12.7207ZM19.6055 12.7207C20.4492 12.8379 21.5039 13.248 22.2012 13.7285C22.582 13.9922 23.3438 14.7305 23.6543 15.1406C24.7793 16.6406 25.1309 18.7324 24.5684 20.5371C24.3281 21.2988 23.6543 22.5234 23.5898 22.3184C23.5723 22.2715 23.5078 21.9844 23.4375 21.6738L23.3086 21.1113L23.4316 20.8711C23.6543 20.4316 23.8535 19.6289 23.8887 19.0137C24.0938 15.293 20.2852 12.5625 16.834 13.9688C15.7324 14.4199 14.9121 15.1523 14.1973 16.3242C14.1328 16.4297 14.1328 16.4297 14.0918 16.3184C14.0684 16.2539 13.9688 16.0254 13.8691 15.8027C13.6465 15.2988 13.6465 15.293 14.502 14.4434C15.2695 13.6758 15.8262 13.3242 16.7871 12.9961C17.748 12.668 18.6328 12.5859 19.6055 12.7207ZM8.75977 14.7305C9.42188 14.9414 9.91992 15.252 10.459 15.791C10.9922 16.3242 11.3027 16.8164 11.5254 17.4902C11.6602 17.9062 11.6777 18.0527 11.6777 18.75C11.6777 19.4473 11.6602 19.5938 11.5254 20.0098C11.3027 20.6836 10.9922 21.1758 10.459 21.709C9.92578 22.2422 9.43359 22.5527 8.75977 22.7754C8.34375 22.9102 8.19727 22.9277 7.5 22.9277C6.80273 22.9277 6.65625 22.9102 6.24023 22.7754C5.56641 22.5527 5.07422 22.2422 4.54102 21.709C4.00781 21.1758 3.69727 20.6836 3.47461 20.0098C3.33984 19.5938 3.32227 19.4473 3.32227 18.75C3.31641 18.0586 3.33984 17.9004 3.46875 17.5078C3.69727 16.8105 4.00781 16.3125 4.53516 15.7852C5.17969 15.1406 5.91797 14.748 6.76758 14.5898C7.2832 14.4961 8.23242 14.5664 8.75977 14.7305ZM20.0098 14.7305C20.6719 14.9414 21.1699 15.252 21.709 15.791C22.248 16.3301 22.5527 16.8164 22.7754 17.4902C22.9043 17.8887 22.9277 18.0703 22.9336 18.6914C22.9395 19.6582 22.9219 19.7051 22.6113 19.3652C22.1484 18.8672 21.457 18.6621 20.666 18.8027C20.4492 18.8379 19.9395 19.0137 19.5293 19.1836L18.7793 19.5L18.5273 19.2656C17.9648 18.75 17.2441 18.6328 16.6055 18.9551C16.002 19.2656 15.498 20.0859 15.4277 20.8711C15.4102 21.0586 15.375 21.2109 15.3574 21.2109C15.2871 21.2109 14.9297 20.5664 14.7949 20.1973C14.373 19.0371 14.4844 17.7539 15.0879 16.6582C15.3809 16.1426 16.1367 15.3809 16.6465 15.0996C17.4199 14.666 18.0176 14.5254 18.9258 14.5605C19.377 14.5781 19.6699 14.6191 20.0098 14.7305ZM2.34375 18.75V20.1562H1.875H1.40625V18.75V17.3438H1.875H2.34375V18.75ZM17.6484 19.7812C17.8477 19.8867 17.8301 19.916 17.4609 20.0684C17.3145 20.127 17.1914 20.1855 17.1797 20.1914C17.1621 20.2031 17.4668 20.9297 17.5195 20.9941C17.543 21.0176 18.2051 20.7598 18.9961 20.4199C19.7871 20.0859 20.5781 19.7754 20.7422 19.7402C21.375 19.6055 21.9141 19.8105 22.1074 20.25C22.2773 20.6367 23.4492 25.8457 23.4141 26.0391C23.3613 26.3027 23.168 26.4668 22.752 26.6074C22.2012 26.7891 21.8496 26.6895 21.6445 26.2969C21.5859 26.1797 21.4746 25.4238 21.3223 24.0645C21.1992 22.9336 21.0879 22.002 21.0762 21.9961C21.0586 21.9785 20.2031 22.084 20.1797 22.1074C20.168 22.1133 20.25 22.9277 20.3613 23.9062C20.4727 24.8906 20.5664 25.7695 20.5664 25.8691C20.5664 26.0273 20.5078 26.0801 20.0391 26.3906C19.5645 26.7012 19.4941 26.7305 19.3652 26.6719L19.2188 26.6016V23.8477V21.0938H18.75H18.2812V23.2969V25.4941L18.1523 25.4531C17.6367 25.2891 16.8516 25.2656 16.3477 25.3945C16.1719 25.4414 16.0195 25.4707 16.0137 25.4648C15.9785 25.4355 16.3594 20.8711 16.4062 20.6836C16.4883 20.3789 16.7871 19.9395 17.0039 19.8047C17.2383 19.6641 17.4082 19.6582 17.6484 19.7812ZM14.9414 22.2129L15.2812 22.5938L15.2402 23.0977C15.2227 23.3789 15.1816 23.625 15.1641 23.6484C15.1113 23.7012 13.8867 22.4648 13.7754 22.2539C13.6992 22.1074 13.7051 22.0605 13.8691 21.6973C13.9688 21.4746 14.0684 21.2461 14.0859 21.1816C14.1211 21.0879 14.168 21.1348 14.3672 21.4453C14.4961 21.6562 14.7539 21.9961 14.9414 22.2129Z" fill="#63AB45"></path>
    <path d="M13.125 2.8125V3.28125H16.1719H19.2188V2.8125V2.34375H16.1719H13.125V2.8125Z" fill="#63AB45"></path>
    <path d="M23.8887 2.33203C23.7363 2.48438 23.6133 2.63672 23.6133 2.66602C23.6133 2.70117 24.1289 3.24023 24.7559 3.86719L25.8984 5.00977L26.2324 4.66992L26.5723 4.33594L25.4297 3.19336C24.8027 2.56641 24.2578 2.05078 24.2285 2.05078C24.1934 2.05078 24.041 2.17969 23.8887 2.33203Z" fill="#63AB45"></path>
    <path d="M10.7812 8.4375V8.90625H11.25H11.7188V8.4375V7.96875H11.25H10.7812V8.4375Z" fill="#63AB45"></path>
    <path d="M12.6562 8.4375V8.90625H13.125H13.5938V8.4375V7.96875H13.125H12.6562V8.4375Z" fill="#63AB45"></path>
    <path d="M14.5312 8.4375V8.90625H15H15.4688V8.4375V7.96875H15H14.5312V8.4375Z" fill="#63AB45"></path>
    <path d="M18.2812 8.4375V8.90625H19.6875H21.0938V8.4375V7.96875H19.6875H18.2812V8.4375Z" fill="#63AB45"></path>
    <path d="M22.0312 8.4375V8.90625H23.9062H25.7812V8.4375V7.96875H23.9062H22.0312V8.4375Z" fill="#63AB45"></path>
  </g>
  <defs>
    <clipPath id="clip0_4_81">
      <rect width="30" height="30" fill="white"></rect>
    </clipPath>
  </defs>
</svg>
