<?xml version="1.0" encoding="UTF-8"?>
<svg xmlns="http://www.w3.org/2000/svg" width="14" height="14" viewBox="0 0 14 14" fill="none">
  <g clip-path="url(#clip0_7_105)">
    <path fill-rule="evenodd" clip-rule="evenodd" d="M0.290345 0.305287C0.477874 0.117817 0.732181 0.0125018 0.997345 0.0125018C1.26251 0.0125018 1.51682 0.117817 1.70434 0.305287L6.99735 5.59828L12.2903 0.305287C12.3826 0.209778 12.4929 0.133596 12.6149 0.0811869C12.7369 0.0287779 12.8682 0.00119157 13.0009 3.77571e-05C13.1337 -0.00111606 13.2654 0.0241854 13.3883 0.0744663C13.5112 0.124747 13.6229 0.199 13.7167 0.292893C13.8106 0.386786 13.8849 0.498438 13.9352 0.621335C13.9855 0.744231 14.0108 0.875911 14.0096 1.00869C14.0085 1.14147 13.9809 1.27269 13.9284 1.39469C13.876 1.5167 13.7998 1.62704 13.7043 1.71929L8.41135 7.01228L13.7043 12.3053C13.8865 12.4939 13.9873 12.7465 13.985 13.0087C13.9827 13.2709 13.8776 13.5217 13.6922 13.7071C13.5067 13.8925 13.256 13.9977 12.9938 14C12.7316 14.0022 12.479 13.9015 12.2903 13.7193L6.99735 8.42628L1.70434 13.7193C1.51574 13.9015 1.26314 14.0022 1.00094 14C0.738747 13.9977 0.487933 13.8925 0.302526 13.7071C0.117118 13.5217 0.0119492 13.2709 0.00967073 13.0087C0.00739232 12.7465 0.108187 12.4939 0.290345 12.3053L5.58335 7.01228L0.290345 1.71929C0.102874 1.53176 -0.00244141 1.27745 -0.00244141 1.01229C-0.00244141 0.747124 0.102874 0.492816 0.290345 0.305287Z" fill="#63AB45"></path>
  </g>
  <defs>
    <clipPath id="clip0_7_105">
      <rect width="14" height="14" fill="white"></rect>
    </clipPath>
  </defs>
</svg>
