<svg xmlns="http://www.w3.org/2000/svg" width="29" height="28" viewBox="0 0 29 28" fill="none"><path d="M25.2816 4.26374L18.7906 4.60392L18.605 1.06333C18.5968 0.906822 18.5268 0.759987 18.4103 0.655121C18.2938 0.550256 18.1405 0.495951 17.984 0.504153L9.72258 0.937114C9.56608 0.945316 9.41924 1.01535 9.31438 1.13182C9.20951 1.24828 9.15521 1.40164 9.16341 1.55814L9.34896 5.09873L2.85787 5.43892C2.38836 5.46352 1.94785 5.67364 1.63326 6.02303C1.31866 6.37242 1.15575 6.83248 1.18035 7.30199L1.39683 11.4327L4.34733 11.2781L4.28548 10.0979C4.27727 9.94136 4.33158 9.788 4.43645 9.67154C4.54131 9.55507 4.68815 9.48504 4.84465 9.47684L7.20505 9.35313C7.36155 9.34493 7.5149 9.39924 7.63137 9.5041C7.74783 9.60897 7.81787 9.7558 7.82607 9.91231L7.88792 11.0925L20.8701 10.4121L20.8083 9.23194C20.8001 9.07543 20.8544 8.92208 20.9592 8.80562C21.0641 8.68915 21.2109 8.61912 21.3674 8.61091L23.7278 8.48721C23.8843 8.47901 24.0377 8.53331 24.1541 8.63818C24.2706 8.74304 24.3407 8.88988 24.3489 9.04638L24.4107 10.2266L27.3612 10.072L27.1447 5.94126C27.1201 5.47175 26.91 5.03124 26.5606 4.71664C26.2112 4.40205 25.7512 4.23913 25.2816 4.26374ZM10.3745 2.08639L17.4557 1.71528L17.6104 4.66577L10.5292 5.03688L10.3745 2.08639ZM24.5344 12.587C24.5426 12.7435 24.4883 12.8968 24.3834 13.0133C24.2786 13.1298 24.1317 13.1998 23.9752 13.208L21.6148 13.3317C21.4583 13.3399 21.305 13.2856 21.1885 13.1807C21.0721 13.0759 21.002 12.929 20.9938 12.7725L20.932 11.5923L7.94978 12.2727L8.01163 13.4529C8.01983 13.6094 7.96552 13.7628 7.86066 13.8792C7.75579 13.9957 7.60896 14.0657 7.45245 14.0739L5.09206 14.1976C4.93555 14.2058 4.7822 14.1515 4.66574 14.0467C4.54927 13.9418 4.47923 13.795 4.47103 13.6385L4.40918 12.4583L1.45868 12.6129L2.13905 25.5951C2.16366 26.0646 2.37377 26.5051 2.72316 26.8197C3.07256 27.1343 3.53261 27.2972 4.00213 27.2726L26.4259 26.0974C26.8954 26.0728 27.3359 25.8627 27.6505 25.5133C27.9651 25.1639 28.128 24.7038 28.1034 24.2343L27.4231 11.2522L24.4726 11.4068L24.5344 12.587ZM20.1847 19.9156C20.1929 20.0721 20.1386 20.2254 20.0338 20.3419C19.9289 20.4584 19.7821 20.5284 19.6255 20.5366L16.6751 20.6912L16.8297 23.6417C16.8379 23.7982 16.7836 23.9516 16.6787 24.068C16.5738 24.1845 16.427 24.2546 16.2705 24.2628L13.32 24.4174C13.1635 24.4256 13.0102 24.3713 12.8937 24.2664C12.7772 24.1615 12.7072 24.0147 12.699 23.8582L12.5444 20.9077L9.59386 21.0623C9.43736 21.0705 9.284 21.0162 9.16754 20.9114C9.05108 20.8065 8.98104 20.6597 8.97284 20.5032L8.81821 17.5527C8.81001 17.3962 8.86431 17.2428 8.96918 17.1263C9.07404 17.0099 9.22088 16.9398 9.37738 16.9316L12.3279 16.777L12.1732 13.8265C12.165 13.67 12.2194 13.5167 12.3242 13.4002C12.4291 13.2837 12.5759 13.2137 12.7324 13.2055L15.6829 13.0509C15.8394 13.0427 15.9928 13.097 16.1092 13.2018C16.2257 13.3067 16.2957 13.4535 16.3039 13.61L16.4586 16.5605L19.4091 16.4059C19.5656 16.3977 19.7189 16.452 19.8354 16.5569C19.9519 16.6617 20.0219 16.8086 20.0301 16.9651L20.1847 19.9156Z" fill="#63AB45"></path></svg>