<?xml version="1.0" encoding="UTF-8"?>
<svg xmlns="http://www.w3.org/2000/svg" width="20" height="20" viewBox="0 0 20 20" fill="none">
  <g clip-path="url(#clip0_7_109)">
    <path d="M10.0016 20H10.0005C9.78481 20 9.60992 19.8251 9.60992 19.6094C9.60992 19.3936 9.78481 19.2188 10.0005 19.2188C10.2163 19.2188 10.3917 19.3936 10.3917 19.6094C10.3917 19.8251 10.2174 20 10.0016 20Z" fill="#63AB45"></path>
    <path d="M16.1743 14.4236V12.8661L16.1742 12.8597C16.1564 11.7763 15.7488 10.9747 14.928 10.4091C14.2447 9.9382 13.3847 9.70648 12.553 9.48242C12.316 9.41855 12.0883 9.35723 11.8694 9.2918V8.4652C12.7605 7.86301 13.3475 6.84324 13.3475 5.68887V5.27043C13.3935 5.23599 13.4371 5.19837 13.4778 5.15785C13.9158 4.71988 13.9538 4.03129 13.5922 3.54953V1.98285C13.5922 0.889492 12.7027 0 11.6094 0H8.39063C7.2973 0 6.40781 0.889492 6.40781 1.98285V3.54957C6.04629 4.03133 6.0843 4.71992 6.5227 5.15836C6.56331 5.19872 6.60668 5.2362 6.6525 5.27055V5.68887C6.6525 6.84305 7.23953 7.86266 8.13066 8.46488V9.2918C7.91172 9.35723 7.68398 9.41859 7.44703 9.48242C6.61535 9.70648 5.75535 9.9382 5.07203 10.4091C4.25125 10.9747 3.84363 11.7763 3.82582 12.8597L3.82578 12.8661V14.4236C3.64387 14.6073 3.53125 14.8598 3.53125 15.1382V16.2499C3.53125 16.8103 3.98711 17.2662 4.54746 17.2662H5.5207C5.57195 17.2662 5.62262 17.2635 5.67262 17.2587V19.079C5.67262 19.5869 6.08527 20 6.5925 20H8.24559C8.46133 20 8.63621 19.8252 8.63621 19.6094C8.63621 19.3937 8.46133 19.2188 8.24559 19.2188H6.5925C6.51734 19.2188 6.45387 19.1548 6.45387 19.079V16.9583C6.84113 16.6717 7.09273 16.2118 7.09273 15.6941C7.09273 15.1764 6.84109 14.7165 6.45387 14.4299V13.2548C6.45387 13.1796 6.51734 13.1161 6.5925 13.1161H8.41523V15.4937C8.41524 15.5645 8.43452 15.6341 8.47101 15.6948C8.5075 15.7555 8.55982 15.8052 8.62238 15.8385C8.68494 15.8718 8.75537 15.8874 8.82614 15.8837C8.8969 15.8801 8.96533 15.8572 9.0241 15.8176L10.0004 15.1598L10.9757 15.8175C11.0345 15.8572 11.1029 15.8801 11.1737 15.8838C11.2445 15.8875 11.3149 15.8719 11.3775 15.8387C11.4401 15.8054 11.4925 15.7557 11.529 15.6949C11.5655 15.6342 11.5847 15.5646 11.5847 15.4937V13.1162H13.4075C13.4832 13.1162 13.5472 13.1796 13.5472 13.2548V14.4291C13.1593 14.7157 12.9072 15.176 12.9072 15.6941C12.9072 16.2123 13.1593 16.6726 13.5472 16.9591V19.0791C13.5472 19.1548 13.4832 19.2188 13.4075 19.2188H11.7544C11.5386 19.2188 11.3637 19.3937 11.3637 19.6095C11.3637 19.8252 11.5386 20.0001 11.7544 20.0001H13.4075C13.9153 20.0001 14.3284 19.5869 14.3284 19.0791V17.2589C14.3786 17.2637 14.4289 17.2662 14.4793 17.2662H15.4525C16.0129 17.2662 16.4687 16.8104 16.4687 16.25V15.1383C16.4688 14.8599 16.3562 14.6073 16.1743 14.4236ZM7.18906 1.98285C7.18906 1.32027 7.72809 0.78125 8.39063 0.78125H11.6094C12.2719 0.78125 12.8109 1.32027 12.8109 1.98285V2.85785C11.9923 2.28527 11.0199 1.97672 10 1.97672C8.98012 1.97672 8.00773 2.28523 7.18906 2.85785V1.98285ZM7.07465 4.60547C6.89941 4.4302 6.89941 4.14508 7.07461 3.9698L7.07469 3.96977C7.85609 3.18836 8.895 2.75801 10 2.75801C11.105 2.75801 12.1439 3.18836 12.9253 3.96977L12.9254 3.9698C13.1006 4.14508 13.1006 4.43023 12.9259 4.605C12.7507 4.77957 12.4656 4.77961 12.2909 4.60547C11.6789 3.99348 10.8655 3.65645 10.0006 3.65645C9.1357 3.65645 8.32234 3.99348 7.71082 4.605C7.53527 4.77992 7.24973 4.77992 7.07465 4.60547ZM7.43375 5.68887V5.51582C7.73492 5.50578 8.03316 5.38668 8.26273 5.15789C8.72715 4.69348 9.3443 4.4377 10.0005 4.4377C10.6568 4.4377 11.274 4.69344 11.7389 5.15836C11.9679 5.3866 12.2655 5.50547 12.5663 5.51559V5.68891C12.5663 7.1043 11.4153 8.25578 10.0005 8.25578C8.58523 8.25574 7.43375 7.10426 7.43375 5.68887ZM11.0881 8.85457V9.57871C11.0881 10.1784 10.6002 10.6663 10.0005 10.6663C9.40027 10.6663 8.91191 10.1784 8.91191 9.57871V8.8543C9.26211 8.9753 9.63004 9.03704 10.0005 9.03699C10.3707 9.03703 10.7382 8.97538 11.0881 8.85457ZM4.54746 16.4849C4.48516 16.4848 4.42543 16.4601 4.38138 16.416C4.33734 16.372 4.31256 16.3122 4.3125 16.2499V15.1382C4.31256 15.0759 4.33734 15.0162 4.38139 14.9722C4.42544 14.9281 4.48516 14.9033 4.54746 14.9033H5.5207C5.95676 14.9033 6.31152 15.258 6.31152 15.6941C6.31152 16.1302 5.95676 16.4849 5.5207 16.4849H4.54746ZM10.8035 14.7591L10.2189 14.3649C10.1544 14.3214 10.0784 14.2981 10.0006 14.2981C9.92281 14.2981 9.84678 14.3213 9.78227 14.3648L9.19644 14.7595V13.1162H10.8035V14.7591ZM13.4075 12.3349H6.5925C6.08527 12.3349 5.67262 12.7475 5.67262 13.2548V14.1295C5.62213 14.1246 5.57143 14.1221 5.5207 14.122H4.60699V12.8695C4.62121 12.0471 4.90988 11.4696 5.51531 11.0524C6.08816 10.6577 6.88227 10.4437 7.65023 10.2368C7.8323 10.1877 8.0175 10.1375 8.2009 10.0848C8.42234 10.87 9.145 11.4475 10.0005 11.4475C10.8555 11.4475 11.5778 10.87 11.7991 10.0848C11.9824 10.1375 12.1677 10.1877 12.3497 10.2368C13.1177 10.4437 13.9118 10.6576 14.4846 11.0524C15.0901 11.4696 15.3787 12.047 15.3929 12.8695V14.122H14.4793C14.4284 14.122 14.3781 14.1246 14.3285 14.1294V13.2548C14.3285 12.7475 13.9154 12.3349 13.4075 12.3349ZM15.6875 16.25C15.6875 16.3123 15.6627 16.372 15.6187 16.416C15.5746 16.4601 15.5149 16.4849 15.4526 16.485H14.4793C14.3529 16.485 14.2338 16.4544 14.1278 16.4015C14.1184 16.3963 14.1089 16.3916 14.0991 16.3872C13.8546 16.2525 13.6885 15.9924 13.6885 15.6941C13.6885 15.2581 14.0433 14.9033 14.4793 14.9033H15.4525C15.5148 14.9034 15.5746 14.9282 15.6186 14.9722C15.6627 15.0163 15.6874 15.076 15.6875 15.1383V16.25H15.6875Z" fill="#63AB45"></path>
  </g>
  <defs>
    <clipPath id="clip0_7_109">
      <rect width="20" height="20" fill="white"></rect>
    </clipPath>
  </defs>
</svg>
