<svg xmlns="http://www.w3.org/2000/svg" width="28" height="28" viewBox="0 0 28 28" fill="none"><path fill-rule="evenodd" clip-rule="evenodd" d="M9.03742 25.1257L13.1571 25.3416L13.4165 20.391L9.29688 20.175L9.03742 25.1257ZM10.492 21.0851L12.1399 21.1714C12.3018 21.1799 12.4216 21.3204 12.4135 21.4753C12.405 21.6373 12.2645 21.757 12.1096 21.7489L10.4617 21.6625C10.2998 21.654 10.18 21.5136 10.1881 21.3587C10.1892 21.2034 10.33 21.0766 10.492 21.0851ZM10.4219 22.4231L12.0697 22.5094C12.2317 22.5179 12.3515 22.6584 12.3433 22.8133C12.3349 22.9753 12.1944 23.095 12.0395 23.0869L10.3916 23.0005C10.2297 22.992 10.1099 22.8516 10.118 22.6967C10.1191 22.5414 10.2599 22.4146 10.4219 22.4231ZM10.3518 23.7611L11.9996 23.8474C12.1616 23.8559 12.2813 23.9964 12.2732 24.1513C12.2647 24.3133 12.1243 24.433 11.9694 24.4249L10.3215 24.3385C10.1595 24.33 10.0398 24.1896 10.0479 24.0347C10.0493 23.8723 10.1898 23.7526 10.3518 23.7611Z" fill="#63AB45"></path><path fill-rule="evenodd" clip-rule="evenodd" d="M20.8551 18.2953C20.6282 17.9091 19.9594 16.9278 18.712 16.2057C18.1634 15.8945 17.6304 15.69 17.1281 15.5719L14.004 20.21L13.7183 25.6606C13.7098 25.8226 13.5694 25.9423 13.4145 25.9342L8.71737 25.688C8.5554 25.6796 8.43566 25.5391 8.44378 25.3842L8.72943 19.9336L6.13315 15.0381C5.68433 15.1134 5.19698 15.2503 4.69815 15.4713C3.37512 16.0587 2.61441 16.965 2.34837 17.3254C2.02898 17.7606 1.78595 18.2209 1.5637 18.8236C0.725461 21.0747 0.433821 24.6184 0.338204 26.3081L4.04237 26.5023L4.30034 21.5798C4.30883 21.4178 4.44928 21.2981 4.6042 21.3062C4.76617 21.3147 4.88592 21.4551 4.8778 21.6101L4.61982 26.5325L17.9788 27.2326L18.2367 22.3102C18.2452 22.1482 18.3857 22.0285 18.5406 22.0366C18.7026 22.0451 18.8223 22.1855 18.8142 22.3404L18.5562 27.2629L21.8942 27.4378C21.9757 25.7474 22.0631 22.1929 21.4718 19.867C21.3279 19.2451 21.1343 18.7618 20.8551 18.2953Z" fill="#63AB45"></path><path fill-rule="evenodd" clip-rule="evenodd" d="M13.5727 19.8132L16.5131 15.4479C16.2536 15.4132 16.0145 15.3936 15.81 15.3899L11.6526 18.724C11.5347 18.8166 11.3657 18.8078 11.2586 18.6963L7.67629 14.9636C7.40906 14.9426 7.09846 14.9404 6.75118 14.9646L9.20619 19.5914L13.5723 19.8202L13.5727 19.8132Z" fill="#63AB45"></path><path fill-rule="evenodd" clip-rule="evenodd" d="M13.3714 14.0899C13.1335 14.1833 12.8533 14.2745 12.5253 14.335C12.3115 14.3733 11.9705 14.4119 11.5479 14.3897C11.2522 14.3742 10.9227 14.3287 10.5676 14.2324C10.4004 14.1884 10.0879 14.0872 9.70986 13.8909C9.71915 13.9832 9.72065 14.0892 9.70697 14.2156C9.65856 14.8698 9.39554 15.4421 9.22437 15.7438L11.4806 18.1005L13.7951 16.2446C13.5653 15.7806 13.3179 15.111 13.3426 14.3708C13.3481 14.2652 13.3599 14.174 13.3714 14.0899ZM16.4557 6.70983C16.3166 6.3989 16.0644 5.82077 15.5187 5.05071C15.2885 4.72794 15.1954 4.61714 15.1287 4.54303C15.0686 4.47633 14.9011 4.30513 14.6638 4.11616L14.6501 4.10838C14.6434 4.10097 14.6364 4.1006 14.6297 4.09319C14.4637 4.29633 14.2717 4.45575 14.0464 4.57811C13.5154 4.8751 12.995 4.83371 12.5802 4.79785L12.5521 4.79637C12.538 4.79564 11.1944 4.69698 9.75266 4.72028C8.70673 4.73608 8.38282 4.85327 8.14379 4.96785C7.92625 5.07649 7.51341 5.27376 7.30113 5.68633C7.20703 5.865 7.17667 6.03994 7.14853 6.17263C7.13817 6.23565 7.12818 6.29161 7.11151 6.34017C7.07002 6.45804 7.01037 6.51847 6.94514 6.55036C6.27404 7.09423 6.26789 7.75062 6.32764 8.0927C6.4297 8.70534 6.86717 9.25082 7.40797 9.44157C7.5188 9.48269 7.59146 9.5783 7.59964 9.69171C7.6212 9.95411 7.68356 10.3811 7.78556 10.7254C8.1038 11.7942 8.76035 12.4712 9.02985 12.7184C9.72419 13.3479 10.4388 13.5902 10.7102 13.6679C11.4967 13.8857 12.1579 13.8003 12.4073 13.7569C13.0844 13.637 13.5514 13.3508 13.7485 13.2269C13.8945 13.1357 14.2677 12.8869 14.6564 12.4766C15.2248 11.8708 15.6483 11.0668 15.9119 10.0779C15.9464 9.95967 16.0424 9.87996 16.1632 9.86511C16.6887 9.80791 17.2356 9.07393 17.3326 8.30225C17.3714 7.96534 17.3535 7.36417 16.7589 7.12117C16.6963 7.10376 16.6414 7.07264 16.6018 7.02113C16.5628 6.95554 16.525 6.86882 16.4557 6.70983Z" fill="#63AB45"></path><path fill-rule="evenodd" clip-rule="evenodd" d="M6.84719 5.33078C7.15693 4.81034 7.64982 4.56783 7.89589 4.45362C8.26538 4.27527 8.69492 4.16361 9.74789 4.14818C11.2178 4.12635 12.5896 4.22649 12.6036 4.22723L12.6318 4.2287C13.0047 4.25531 13.3913 4.28969 13.7696 4.07649C13.966 3.96674 14.1369 3.80621 14.2817 3.60196C14.3355 3.52004 14.4159 3.46776 14.5156 3.4518C14.5441 3.44624 14.5723 3.44771 14.5934 3.44882C14.7413 3.45657 14.8777 3.54846 15.0134 3.65443L15.0271 3.66221C15.2918 3.86674 15.4794 4.06017 15.5665 4.14947C15.6599 4.25323 15.773 4.38626 16.0028 4.71608C16.45 5.3468 16.7125 5.86192 16.8779 6.20954C17.0057 5.92672 17.1364 5.58756 17.1649 5.44782C17.2331 5.09125 17.2627 4.93039 17.23 4.74508C17.1758 4.43154 17.0179 4.21142 16.9056 4.0643C16.7669 3.8805 16.6386 3.76785 16.3814 3.55665C16.1919 3.39843 16.083 3.3221 15.994 3.26801C15.8846 3.19872 15.7894 3.13018 15.663 2.98232C15.4498 2.73812 15.3419 2.5065 15.1898 2.1737C15.1264 2.03621 15.0893 1.93541 15.0582 1.8561C15.0152 1.7338 14.9963 1.69044 14.9366 1.6167C14.8702 1.53554 14.7631 1.42401 14.501 1.30435C14.0254 1.0817 13.5406 1.03511 13.0822 1.02521C12.4406 1.00571 11.9747 1.00248 11.2772 1.10715C10.4018 1.23781 9.21282 1.42265 8.1771 2.32167C7.57753 2.84811 7.2804 3.39745 7.20149 3.55573C7.05109 3.86561 6.8055 4.50946 6.85571 5.30298C6.84793 5.31669 6.84756 5.32374 6.84719 5.33078ZM21.6377 3.50729L21.7274 1.79605C21.7359 1.63408 21.6087 1.50031 21.4538 1.49219C21.2918 1.4837 21.158 1.61086 21.1499 1.76579L20.4786 14.5754C20.4701 14.7374 20.5973 14.8712 20.7522 14.8793C20.9142 14.8878 21.0479 14.7606 21.0561 14.6057L21.3989 8.06355L27.3143 8.37357L21.6377 3.50729Z" fill="#63AB45"></path></svg>