<svg xmlns="http://www.w3.org/2000/svg" width="28" height="28" viewBox="0 0 28 28" fill="none"><path d="M26.6028 20.3899C27.1037 20.9566 27.4232 21.6908 27.4659 22.5061C27.5664 24.4226 26.0979 26.0535 24.1814 26.1539C22.8804 26.2221 21.7114 25.5673 21.0633 24.5402C21.0486 24.4902 21.0216 24.446 20.9854 24.4104C20.7237 23.9542 20.5631 23.4311 20.5337 22.8694C20.4332 20.9529 21.9143 19.3214 23.8181 19.2216C24.8947 19.1652 25.8817 19.6038 26.5577 20.3396C26.57 20.358 26.5855 20.3749 26.6028 20.3899ZM26.036 21.4838C26.1499 21.3573 26.1396 21.1613 26.0132 21.0474C25.8867 20.9335 25.6906 20.9438 25.5767 21.0703L23.3112 23.5864L22.3396 22.7177C22.2132 22.6038 22.0171 22.6141 21.9032 22.7406C21.7893 22.867 21.7996 23.0631 21.9261 23.177L23.1306 24.2555C23.1905 24.3095 23.2744 24.3368 23.3503 24.3328C23.4325 24.3285 23.5067 24.2929 23.5733 24.2323L26.036 21.4838ZM25.6438 3.83436L25.7854 6.53516L0.662238 7.85181L0.520032 5.13836C0.504784 4.84741 0.726215 4.59479 1.02349 4.57921L3.95199 4.42573L3.99376 5.22269C4.02691 5.8552 4.56609 6.34068 5.1986 6.30753C5.82478 6.27471 6.30992 5.72921 6.28277 5.09005L6.24233 4.31839L9.25306 4.1606L9.29416 4.94491C9.32731 5.57742 9.86649 6.0629 10.499 6.02975C11.1315 5.9966 11.6166 5.45109 11.5832 4.81226L11.5427 4.04061L14.5598 3.88249L14.6009 4.6668C14.634 5.2993 15.1732 5.78478 15.8057 5.75163C16.4319 5.71882 16.917 5.17331 16.8899 4.53415L16.8495 3.76249L19.8602 3.60471L19.9013 4.38901C19.9344 5.02152 20.4736 5.507 21.1061 5.47385C21.7323 5.44104 22.2174 4.89553 22.1903 4.25637L22.1499 3.48471L25.0847 3.3309C25.3756 3.31565 25.6283 3.53709 25.6438 3.83436ZM20.8098 14.8254L22.9033 14.7157L23.0131 16.8093L20.9195 16.919L20.8098 14.8254ZM20.5409 9.69582L22.6345 9.5861L22.7442 11.6797L20.6506 11.7894L20.5409 9.69582Z" fill="#63AB45"></path><path d="M21.5141 3.21345L21.5705 4.28871C21.5857 4.57967 21.3643 4.83228 21.0734 4.84753C20.7824 4.86278 20.5361 4.64102 20.5209 4.35007L20.4068 2.17425C20.3916 1.88329 20.6134 1.637 20.9043 1.62175C21.1889 1.60684 21.4352 1.8286 21.4571 2.12555L21.5141 3.21345ZM15.6005 20.2293L17.6941 20.1196L17.8038 22.2132L15.7102 22.3229L15.6005 20.2293ZM15.3323 15.1124L17.4259 15.0026L17.5356 17.0962L15.442 17.206L15.3323 15.1124ZM15.0635 9.98274L17.1571 9.87302L17.2668 11.9666L15.1732 12.0763L15.0635 9.98274ZM16.2137 3.49124L16.2698 4.56017C16.2853 4.85745 16.0639 5.11007 15.773 5.12532C15.482 5.14056 15.2357 4.9188 15.2205 4.62785L15.1064 2.45203C15.0912 2.16108 15.313 1.91478 15.6039 1.89954C15.8885 1.88462 16.1412 2.10605 16.1567 2.40333L16.2137 3.49124ZM10.1167 20.5167L12.2103 20.407L12.32 22.5006L10.2264 22.6103L10.1167 20.5167ZM9.84849 15.3998L11.9421 15.29L12.0518 17.3836L9.95821 17.4934L9.84849 15.3998ZM9.57966 10.2701L11.6733 10.1604L11.783 12.254L9.68938 12.3637L9.57966 10.2701ZM10.907 3.76935L10.9634 4.84461C10.9786 5.13556 10.7572 5.38818 10.4662 5.40343C10.1753 5.41868 9.929 5.19691 9.91375 4.90596L9.79972 2.73014C9.78447 2.43919 10.0062 2.1929 10.2972 2.17765C10.5881 2.1624 10.8344 2.38416 10.85 2.68144L10.907 3.76935ZM4.64548 20.8035L6.73908 20.6937L6.8488 22.7873L4.7552 22.8971L4.64548 20.8035ZM4.37731 15.6865L6.47091 15.5768L6.58063 17.6704L4.48704 17.7801L4.37731 15.6865ZM4.10848 10.5569L6.20208 10.4472L6.3118 12.5407L4.2182 12.6505L4.10848 10.5569ZM5.60663 4.04713L5.66265 5.11607C5.67823 5.41335 5.4568 5.66596 5.16584 5.68121C4.87489 5.69646 4.6286 5.4747 4.61335 5.18374L4.49932 3.00792C4.48407 2.71697 4.70583 2.47068 4.99679 2.45543C5.28774 2.44018 5.54036 2.66161 5.54928 2.9529L5.60663 4.04713Z" fill="#63AB45"></path><path d="M25.8145 7.14234L26.4581 19.4218C25.7171 18.8613 24.7824 18.5494 23.783 18.6018C21.5313 18.7198 19.7991 20.6435 19.9171 22.8952C19.9443 23.4126 20.0663 23.9022 20.2667 24.3484L2.10677 25.3001C1.81582 25.3153 1.5632 25.0939 1.54762 24.7966L0.691406 8.45898L25.8145 7.14234ZM23.0777 12.2836C23.2548 12.2743 23.3866 12.1279 23.3654 11.9641L23.2232 9.25064C23.2145 9.08619 23.0744 8.954 22.9036 8.96295L20.1902 9.10515C20.0257 9.11377 19.8936 9.25389 19.9025 9.42467L20.0447 12.1381C20.0533 12.3026 20.1934 12.4348 20.3642 12.4258L23.0777 12.2836ZM23.3462 17.4069C23.5233 17.3976 23.6555 17.2575 23.6339 17.0874L23.4917 14.3739C23.483 14.2095 23.3429 14.0773 23.1721 14.0862L20.4587 14.2285C20.2942 14.2371 20.1621 14.3772 20.171 14.548L20.3132 17.2614C20.3218 17.4259 20.4619 17.5581 20.6327 17.5491L23.3462 17.4069ZM18.1435 22.8169C18.3143 22.808 18.4461 22.6615 18.4312 22.4974L18.289 19.784C18.2804 19.6195 18.1402 19.4873 17.9695 19.4963L15.256 19.6385C15.0916 19.6471 14.9594 19.7872 14.9683 19.958L15.1105 22.6714C15.1192 22.8359 15.2593 22.9681 15.43 22.9591L18.1435 22.8169ZM17.875 17.6936C18.0458 17.6847 18.178 17.5446 18.1627 17.3741L18.0205 14.6607C18.0119 14.4962 17.8717 14.364 17.701 14.373L14.9875 14.5152C14.8231 14.5238 14.6909 14.6639 14.6998 14.8347L14.842 17.5481C14.8506 17.7126 14.9908 17.8448 15.1615 17.8358L17.875 17.6936ZM17.6065 12.5703C17.7773 12.5614 17.9091 12.4149 17.8942 12.2508L17.752 9.53737C17.7434 9.37292 17.6032 9.24073 17.4325 9.24968L14.719 9.39189C14.5546 9.40051 14.4224 9.54062 14.4313 9.7114L14.5735 12.4249C14.5821 12.5893 14.7223 12.7215 14.893 12.7125L17.6065 12.5703ZM12.9537 22.7845L12.8115 20.071C12.8029 19.9066 12.6627 19.7744 12.492 19.7833L9.77852 19.9255C9.61406 19.9342 9.48187 20.0743 9.49082 20.2451L9.63303 22.9585C9.64165 23.123 9.78177 23.2552 9.95254 23.2462L12.666 23.104C12.8304 23.0954 12.9623 22.9489 12.9537 22.7845ZM12.6852 17.6612L12.543 14.9477C12.5344 14.7833 12.3942 14.6511 12.2235 14.66L9.51002 14.8022C9.34556 14.8109 9.21337 14.951 9.22232 15.1218L9.36453 17.8352C9.37315 17.9997 9.51327 18.1319 9.68404 18.1229L12.3975 17.9807C12.5619 17.9721 12.6941 17.832 12.6852 17.6612ZM12.4167 12.5379L12.2745 9.82444C12.2659 9.65998 12.1257 9.52779 11.955 9.53674L9.24152 9.67895C9.07706 9.68757 8.94487 9.82769 8.95382 9.99846L9.09603 12.7119C9.10465 12.8764 9.24477 13.0086 9.41554 12.9996L12.129 12.8574C12.2934 12.8488 12.4253 12.7023 12.4167 12.5379ZM7.48251 23.0712L7.3403 20.3578C7.33169 20.1933 7.19157 20.0611 7.02079 20.0701L4.30734 20.2123C4.14289 20.2209 4.0107 20.361 4.01965 20.5318L4.16185 23.2452C4.17047 23.4097 4.31059 23.5419 4.48137 23.5329L7.18849 23.3911C7.35927 23.3821 7.49113 23.2357 7.48251 23.0712ZM7.21401 17.9479L7.0718 15.2345C7.06319 15.07 6.92307 14.9378 6.75229 14.9468L4.03884 15.089C3.87439 15.0976 3.7422 15.2377 3.75115 15.4085L3.89335 18.1219C3.90197 18.2864 4.04209 18.4186 4.21287 18.4096L6.91999 18.2678C7.09077 18.2588 7.22296 18.1187 7.21401 17.9479ZM6.94551 12.8246L6.8033 10.1112C6.79468 9.94672 6.65457 9.81453 6.48379 9.82348L3.77034 9.96568C3.60589 9.9743 3.4737 10.1144 3.48265 10.2852L3.62485 12.9986C3.63347 13.1631 3.77359 13.2953 3.94437 13.2863L6.65149 13.1445C6.82227 13.1355 6.95413 12.9891 6.94551 12.8246Z" fill="#63AB45"></path></svg>