<svg xmlns="http://www.w3.org/2000/svg" width="28" height="28" viewBox="0 0 28 28" fill="none"><path d="M18.2507 8.93373C18.4787 8.73363 18.5716 8.42739 18.4931 8.1344C18.4146 7.84145 18.181 7.6226 17.8836 7.56338L15.7237 7.13303C15.7188 7.13205 15.7142 7.12988 15.7103 7.1267C15.7063 7.12353 15.7032 7.11945 15.7013 7.11482L14.8313 5.09174C14.7115 4.8131 14.4489 4.63015 14.146 4.61428C13.8431 4.59841 13.5628 4.7529 13.4145 5.01748L12.3379 6.93855C12.3354 6.94296 12.3319 6.9467 12.3277 6.94945C12.3234 6.9522 12.3186 6.95387 12.3135 6.95431L10.1206 7.15654C9.81859 7.18434 9.56351 7.37753 9.45475 7.66072C9.34599 7.94385 9.40635 8.25822 9.61221 8.48101L11.1066 10.0986C11.11 10.1023 11.1125 10.1068 11.1138 10.1117C11.1151 10.1166 11.1152 10.1217 11.1141 10.1266L10.6288 12.2747C10.5619 12.5706 10.6668 12.8729 10.9025 13.0638C11.1382 13.2548 11.4557 13.2945 11.7313 13.1676L13.7316 12.2462C13.7362 12.2441 13.7412 12.2431 13.7462 12.2434C13.7513 12.2436 13.7562 12.2451 13.7605 12.2477L15.6535 13.3731C15.7639 13.439 15.8887 13.4771 16.0171 13.484C16.1802 13.4925 16.3449 13.4499 16.4886 13.3565C16.743 13.1913 16.8789 12.9016 16.8433 12.6004L16.8057 12.2815C16.7811 12.0731 16.5921 11.924 16.3838 11.9487C16.2838 11.9606 16.1925 12.0116 16.1301 12.0908C16.0677 12.1699 16.0393 12.2705 16.0511 12.3706L16.0887 12.6895C16.0896 12.6971 16.091 12.7087 16.0748 12.7193C16.0586 12.7298 16.0485 12.7239 16.0419 12.7199L14.1489 11.5945C14.0387 11.5289 13.9142 11.4912 13.7861 11.4845C13.658 11.4778 13.5303 11.5023 13.4138 11.556L11.4136 12.4774C11.4065 12.4806 11.396 12.4854 11.381 12.4733C11.366 12.4611 11.3685 12.4497 11.3703 12.4422L11.8556 10.2942C11.8839 10.169 11.8813 10.0389 11.8481 9.91505C11.815 9.79115 11.7521 9.67719 11.6651 9.58298L10.1707 7.96536C10.1654 7.95969 10.1575 7.95114 10.1644 7.93304C10.1714 7.915 10.1829 7.91393 10.1907 7.91321L12.3835 7.71103C12.5112 7.69926 12.6342 7.65662 12.7418 7.58676C12.8493 7.5169 12.9383 7.42193 13.001 7.31004L14.0777 5.38897C14.0814 5.3822 14.0872 5.37208 14.1065 5.37309C14.1258 5.3741 14.1304 5.38482 14.1335 5.3919L15.0034 7.41493C15.054 7.53277 15.1326 7.63652 15.2322 7.71725C15.3319 7.79797 15.4497 7.85325 15.5755 7.87832L17.7353 8.30866C17.7429 8.31013 17.7543 8.31246 17.7593 8.33113C17.7643 8.3498 17.7555 8.35752 17.7498 8.36261L16.0944 9.81517C15.9981 9.89977 15.9237 10.0065 15.8777 10.1263C15.8318 10.246 15.8156 10.3751 15.8307 10.5025L15.8725 10.8573C15.8784 10.9068 15.8939 10.9547 15.9183 10.9983C15.9426 11.0418 15.9753 11.0801 16.0145 11.111C16.0537 11.1419 16.0986 11.1648 16.1466 11.1784C16.1946 11.1919 16.2448 11.1959 16.2944 11.19C16.3439 11.1842 16.3919 11.1686 16.4354 11.1443C16.4789 11.1199 16.5172 11.0872 16.5481 11.048C16.579 11.0088 16.6019 10.964 16.6155 10.916C16.629 10.8679 16.633 10.8177 16.6271 10.7682L16.5853 10.4134C16.5847 10.4084 16.5853 10.4033 16.5871 10.3986C16.5889 10.3939 16.5919 10.3896 16.5956 10.3863L18.2507 8.93373ZM9.19581 3.3207C9.12721 3.06463 8.9231 2.87336 8.66307 2.82159L7.06196 2.5026L6.41711 1.00272C6.31241 0.759148 6.08286 0.599244 5.81809 0.585368C5.55333 0.571492 5.30837 0.706529 5.17873 0.937819L4.38064 2.36203L2.75496 2.51191C2.49093 2.53626 2.26795 2.70515 2.17296 2.95259C2.07797 3.20009 2.13069 3.47481 2.31062 3.66959L3.41841 4.86879L3.05858 6.46124C3.02962 6.58708 3.03672 6.71853 3.07904 6.84052C3.12137 6.96251 3.19722 7.07011 3.29789 7.15097C3.41098 7.24312 3.5504 7.29699 3.69607 7.30481C3.80831 7.31054 3.92026 7.28885 4.02224 7.24161L5.50505 6.55859L6.90834 7.39287C7.13622 7.52838 7.41589 7.52284 7.63825 7.37844C7.86061 7.23403 7.97945 6.98082 7.94835 6.71751L7.75694 5.09621L8.98406 4.01943C9.08142 3.9346 9.15292 3.82407 9.19037 3.7005C9.22782 3.57692 9.2297 3.4453 9.19581 3.3207ZM7.22861 4.54878C7.14436 4.62272 7.07935 4.71603 7.03918 4.82068C6.99902 4.92533 6.9849 5.03818 6.99804 5.1495L7.17741 6.66871L5.86239 5.88692C5.76603 5.82965 5.6572 5.79667 5.54526 5.7908C5.43332 5.78493 5.32164 5.80636 5.21982 5.85324L3.83034 6.49325L4.16753 5.001C4.19224 4.89167 4.18999 4.77797 4.16098 4.6697C4.13196 4.56143 4.07704 4.46184 4.00097 4.37952L2.9629 3.25588L4.48623 3.11537C4.59785 3.10508 4.7053 3.0678 4.79931 3.00675C4.89332 2.9457 4.97107 2.8627 5.02587 2.76492L5.77375 1.43042L6.37814 2.83589C6.42242 2.93885 6.49108 3.02949 6.57818 3.10002C6.66528 3.17055 6.76823 3.21884 6.87815 3.24073L8.37845 3.53969L7.22861 4.54878ZM26.2271 4.21317C26.1942 4.08832 26.1268 3.97527 26.0325 3.88699C25.9383 3.7987 25.8211 3.73875 25.6944 3.71401L24.0933 3.39502L23.4484 1.89529C23.3437 1.65172 23.1142 1.49182 22.8494 1.47794C22.5846 1.46407 22.3397 1.5991 22.21 1.83039L21.4119 3.25454L19.7862 3.40443C19.5222 3.42878 19.2992 3.59767 19.2042 3.84516C19.1092 4.09266 19.1619 4.36737 19.3418 4.56215L20.4497 5.76131L20.0898 7.35371C20.0314 7.61233 20.1231 7.87658 20.3292 8.04344C20.4422 8.13559 20.5817 8.18946 20.7273 8.19728C20.8396 8.20301 20.9515 8.18132 21.0535 8.13408L22.5363 7.45106L23.9396 8.28533C24.1675 8.42085 24.4471 8.41531 24.6695 8.27086C24.8919 8.12645 25.0107 7.87323 24.9796 7.60997L24.7882 5.98863L26.0153 4.91185C26.2146 4.73699 26.2957 4.46929 26.2271 4.21317ZM24.2599 5.4413C24.1757 5.51522 24.1106 5.60854 24.0704 5.71319C24.0303 5.81784 24.0162 5.93069 24.0293 6.04202L24.2087 7.56128L22.8937 6.77954C22.7973 6.72227 22.6885 6.68928 22.5765 6.68341C22.4646 6.67755 22.3529 6.69898 22.2511 6.74586L20.8616 7.38587L21.1988 5.89363C21.2235 5.78429 21.2213 5.67058 21.1922 5.56231C21.1632 5.45404 21.1083 5.35445 21.0322 5.27214L19.9941 4.14844L21.5175 4.00795C21.6292 3.99766 21.7366 3.96039 21.8306 3.89933C21.9247 3.83828 22.0024 3.75528 22.0572 3.65749L22.8051 2.323L23.4094 3.72836C23.4537 3.83135 23.5223 3.92203 23.6095 3.99258C23.6966 4.06313 23.7996 4.11142 23.9095 4.1333L25.4098 4.43227L24.2599 5.4413ZM26.968 11.6427C26.8877 11.4985 26.7771 11.3733 26.644 11.2757C26.5108 11.1781 26.3581 11.1105 26.1964 11.0774C25.9705 11.0303 25.7356 11.0529 25.5227 11.142C25.3099 11.2311 25.129 11.3826 25.0039 11.5765C24.8856 11.4858 24.7493 11.4215 24.6041 11.3876C24.0963 11.2697 23.5732 11.5478 23.387 12.0347L23.1804 12.5751C23.0874 12.5055 22.9835 12.4519 22.8728 12.4166C22.3422 12.2499 21.7762 12.5278 21.5838 13.0494L21.4477 13.4183C21.3242 13.3249 21.1818 13.2593 21.0305 13.2263C20.5106 13.1128 19.9946 13.3909 19.8036 13.8876L18.4052 17.5237C18.1114 17.6371 17.4984 17.9094 16.8561 18.4109C16.8168 18.4416 16.7839 18.4798 16.7594 18.5232C16.7348 18.5666 16.719 18.6145 16.7129 18.664C16.7068 18.7135 16.7106 18.7638 16.7239 18.8119C16.7372 18.8599 16.7599 18.9049 16.7906 18.9443C16.8213 18.9836 16.8595 19.0165 16.9029 19.041C16.9463 19.0656 16.9942 19.0814 17.0437 19.0875C17.0932 19.0936 17.1435 19.0898 17.1916 19.0765C17.2396 19.0632 17.2846 19.0405 17.324 19.0098C18.0818 18.4178 18.8031 18.1875 18.8095 18.1854C18.8111 18.185 18.8126 18.1842 18.8142 18.1837C18.822 18.1812 18.8296 18.1783 18.8372 18.1753C18.8415 18.1735 18.8459 18.172 18.8501 18.1701C18.8582 18.1665 18.8661 18.1625 18.874 18.1584C18.8775 18.1565 18.8812 18.1548 18.8846 18.1529C18.8933 18.1479 18.9016 18.1425 18.91 18.1369C18.9125 18.1352 18.9151 18.1337 18.9175 18.132C18.9281 18.1245 18.9384 18.1164 18.9484 18.1077L20.7253 16.5451L21.679 15.7064C21.7507 15.6433 21.8444 15.6112 21.9397 15.6173C21.987 15.6202 22.034 15.6325 22.0765 15.6534C22.1191 15.6743 22.157 15.7034 22.1882 15.7391C22.2205 15.7759 22.245 15.8188 22.2602 15.8653C22.2753 15.9118 22.2809 15.9609 22.2765 16.0096C22.2697 16.0862 22.2385 16.1588 22.1876 16.2164L19.1114 19.6975C19.0458 19.7718 19.0118 19.8688 19.0167 19.9679C19.0216 20.0669 19.0651 20.1601 19.1378 20.2275C19.1409 20.2304 19.1442 20.233 19.1473 20.2357C19.1535 20.2411 19.1596 20.2464 19.166 20.2512C19.1699 20.2542 19.174 20.2568 19.178 20.2596C19.184 20.2638 19.1898 20.268 19.196 20.2718C19.2004 20.2745 19.2049 20.277 19.2093 20.2795C19.2153 20.2829 19.2213 20.2862 19.2275 20.2893C19.2322 20.2916 19.237 20.2938 19.2416 20.2959C19.2526 20.3007 19.2637 20.3051 19.275 20.309C19.2815 20.3111 19.288 20.3131 19.2946 20.3149C19.2995 20.3163 19.3044 20.3176 19.3092 20.3187C19.316 20.3203 19.3228 20.3216 19.3297 20.3229C19.3345 20.3237 19.3393 20.3246 19.3441 20.3253C19.3513 20.3263 19.3586 20.3269 19.3658 20.3275C19.3693 20.3278 19.3728 20.3284 19.3763 20.3286C19.3771 20.3286 19.3778 20.3285 19.3785 20.3285C19.3994 20.3294 19.4202 20.3286 19.441 20.3261C19.4586 20.324 19.4762 20.3207 19.4934 20.3161C19.4963 20.3154 19.4991 20.3145 19.502 20.3137C19.5196 20.3086 19.5369 20.3023 19.5536 20.2947C19.5556 20.2938 19.5576 20.2927 19.5597 20.2917C19.5775 20.2833 19.5947 20.2735 19.6111 20.2624L21.2366 19.1467C22.6306 18.1898 23.7125 16.8911 24.3965 15.3622C24.4946 15.1427 24.5842 14.9195 24.6649 14.6931L25.6049 12.06C25.638 11.9748 25.7003 11.9041 25.7806 11.8605C25.861 11.8169 25.9542 11.8032 26.0437 11.8218C26.156 11.8448 26.2485 11.9127 26.3043 12.0128C26.3601 12.113 26.3691 12.2273 26.3297 12.335L24.9269 16.1626C24.8537 16.363 24.7813 16.5637 24.7096 16.7647C24.0978 18.4726 23.4043 20.4084 22.0186 21.4238L18.9607 23.6647C18.9152 23.698 18.8778 23.741 18.851 23.7906C18.8242 23.8401 18.8088 23.895 18.8059 23.9513L18.6739 26.4694L15.0616 26.2801L15.2473 22.7363C15.2747 22.5733 15.5218 21.2158 16.3053 20.0827C16.3337 20.0416 16.3537 19.9954 16.3642 19.9466C16.3747 19.8978 16.3755 19.8475 16.3666 19.7984C16.3576 19.7493 16.3391 19.7025 16.312 19.6606C16.285 19.6186 16.2499 19.5825 16.2089 19.5541C16.1679 19.5257 16.1216 19.5057 16.0729 19.4952C16.0241 19.4847 15.9737 19.4838 15.9246 19.4928C15.8756 19.5018 15.8287 19.5203 15.7868 19.5474C15.7449 19.5744 15.7087 19.6095 15.6803 19.6505C14.7463 21.0013 14.5031 22.5735 14.4932 22.6398C14.4914 22.6518 14.4901 22.6639 14.4895 22.676L14.2828 26.6197C14.2775 26.7204 14.3125 26.819 14.3799 26.8938C14.4473 26.9687 14.5417 27.0138 14.6424 27.019L19.0136 27.2481C19.1142 27.2534 19.2128 27.2185 19.2877 27.151C19.3626 27.0836 19.4076 26.9892 19.4129 26.8886L19.5553 24.171L22.4678 22.0366C24.0412 20.8835 24.7764 18.8313 25.425 17.0208C25.4973 16.8188 25.5688 16.6192 25.6404 16.4238L27.0431 12.5962C27.1 12.4412 27.1227 12.2758 27.1097 12.1112C27.0967 11.9467 27.0484 11.7869 26.968 11.6427ZM21.0932 14.379L21.0325 14.5435L20.6396 15.6083L19.6064 16.517L20.5127 14.1604C20.5359 14.0992 20.5778 14.0471 20.6326 14.0114C20.6873 13.9757 20.752 13.9583 20.8173 13.9618C20.8342 13.9627 20.8512 13.9649 20.8683 13.9687C20.9884 13.9948 21.0488 14.0764 21.0742 14.1226C21.0995 14.1689 21.1357 14.2637 21.0932 14.379ZM22.8229 13.51L22.6538 13.9523L22.2846 14.9181C22.2229 14.8971 22.1596 14.8815 22.0953 14.8715C22.06 14.8656 22.0245 14.8615 21.9889 14.859L21.9754 14.8582C21.8891 14.8537 21.8038 14.859 21.7207 14.8736L21.8062 14.642L22.2967 13.3123C22.3216 13.2446 22.3717 13.189 22.4365 13.1572C22.5013 13.1254 22.5759 13.1198 22.6447 13.1416C22.7194 13.1651 22.7793 13.2168 22.8135 13.2873C22.8476 13.3578 22.8509 13.4368 22.8229 13.51ZM24.6385 12.5062L23.9491 14.4376C23.888 14.6088 23.8214 14.778 23.7495 14.945C23.5362 15.4404 23.2754 15.914 22.9706 16.359C22.9782 16.3379 22.9852 16.3157 22.9915 16.2942C22.9935 16.2873 22.9953 16.2804 22.9972 16.2734C23.0075 16.2354 23.0159 16.1969 23.0222 16.158C23.0233 16.1509 23.0246 16.1439 23.0256 16.1367C23.0289 16.1144 23.0315 16.092 23.0334 16.0696C23.0352 16.0472 23.0362 16.0247 23.0367 16.0022C23.0369 15.9952 23.0367 15.9882 23.0367 15.9812C23.0369 15.9418 23.0349 15.9025 23.031 15.8633C23.0303 15.8562 23.0297 15.8492 23.0288 15.8422C23.0262 15.8205 23.023 15.799 23.0193 15.7775L23.0189 15.7751C23.0148 15.7529 23.01 15.7309 23.0046 15.7089C23.0029 15.7021 23.001 15.6954 22.9992 15.6886C22.993 15.6655 22.9862 15.6426 22.9787 15.62C22.9737 15.605 22.9683 15.5901 22.9626 15.5753C22.96 15.5685 22.9575 15.5617 22.9548 15.555C22.9467 15.5348 22.9379 15.5149 22.9286 15.4952L22.9272 15.4921C22.9184 15.4738 22.9092 15.4557 22.8994 15.4378L23.5327 13.7812L24.0968 12.3058C24.148 12.1719 24.292 12.0954 24.4319 12.1277C24.5416 12.1532 24.5969 12.2282 24.62 12.2707C24.6432 12.3132 24.6764 12.4002 24.6385 12.5062ZM12.6118 22.5413C12.6087 22.4652 12.52 20.6598 11.573 19.1527C10.7963 17.9165 9.68138 17.2611 9.25615 17.044L8.2455 13.2819C8.10748 12.768 7.6231 12.4374 7.09449 12.4959C6.94052 12.513 6.79209 12.5633 6.65947 12.6433L6.56264 12.2621C6.42582 11.7233 5.89178 11.3876 5.34691 11.4982C5.23313 11.5217 5.1241 11.5641 5.02435 11.6236L4.87532 11.0645C4.74113 10.5608 4.24984 10.2293 3.73261 10.2938C3.58315 10.3124 3.44117 10.3629 3.3152 10.4398C3.21109 10.2339 3.04704 10.0643 2.84465 9.95346C2.64226 9.84259 2.41103 9.79564 2.18143 9.81878C2.01711 9.8348 1.85819 9.88613 1.71554 9.96926C1.5729 10.0524 1.44989 10.1653 1.35493 10.3004C1.25985 10.4354 1.19504 10.5893 1.16495 10.7516C1.13485 10.9139 1.14017 11.0808 1.18055 11.2409L2.17553 15.1942C2.22633 15.3961 2.27656 15.602 2.32742 15.8104C2.71583 17.4025 3.15606 19.207 4.18719 20.5096C4.21815 20.5487 4.25652 20.5814 4.30011 20.6057C4.34369 20.63 4.39164 20.6454 4.4412 20.6512C4.49077 20.657 4.54098 20.6529 4.58898 20.6392C4.63698 20.6256 4.68181 20.6026 4.72092 20.5716C4.76005 20.5407 4.79269 20.5023 4.81699 20.4587C4.84128 20.4151 4.85675 20.3672 4.86251 20.3176C4.86827 20.268 4.86422 20.2178 4.85057 20.1698C4.83692 20.1218 4.81395 20.077 4.78297 20.0378C3.85495 18.8655 3.43555 17.1467 3.06566 15.6302C3.01434 15.42 2.96369 15.2122 2.91243 15.0086L1.91744 11.0553C1.88945 10.9442 1.91036 10.8314 1.97635 10.7376C2.04234 10.6439 2.14147 10.5862 2.25551 10.5749C2.34647 10.5657 2.43774 10.5891 2.51309 10.6408C2.58844 10.6926 2.64299 10.7694 2.66702 10.8576L2.84268 11.5812C2.84268 11.5811 2.84273 11.5814 2.84268 11.5812L3.32651 13.5745C3.34311 13.6429 3.3607 13.711 3.37876 13.7787C3.82346 15.4455 4.71566 16.9286 5.97645 18.0999C5.99827 18.1202 6.02026 18.1403 6.04229 18.1603C6.1173 18.2288 6.19342 18.2961 6.27062 18.3621L7.77048 19.6416C7.78581 19.6547 7.802 19.666 7.81875 19.6763L7.82421 19.6798C7.84024 19.6893 7.85686 19.6973 7.87388 19.7042C7.87652 19.7053 7.87911 19.7064 7.8818 19.7075C7.90116 19.7149 7.92112 19.7206 7.94146 19.7247C7.95916 19.7283 7.9771 19.7307 7.99514 19.7318L7.99711 19.7321C8.00026 19.7322 8.00337 19.732 8.00652 19.7321C8.01434 19.7323 8.02206 19.7324 8.0299 19.7322C8.03439 19.732 8.03883 19.7316 8.04322 19.7314C8.05528 19.7307 8.0673 19.7293 8.07919 19.7272C8.09103 19.7251 8.10279 19.7226 8.11442 19.7196C8.12133 19.7178 8.12815 19.7157 8.13498 19.7134C8.14651 19.7098 8.15782 19.7055 8.16886 19.7005C8.17334 19.6986 8.17781 19.6967 8.18214 19.6946C8.18887 19.6913 8.19542 19.6877 8.20202 19.684C8.2061 19.6817 8.21023 19.6796 8.21417 19.6772C8.22121 19.6729 8.22802 19.6681 8.23483 19.6634C8.23815 19.6611 8.24157 19.659 8.24485 19.6565C8.32423 19.597 8.3772 19.5089 8.39246 19.4109C8.40771 19.3129 8.38404 19.2128 8.32649 19.132L5.63101 15.3485C5.58019 15.2769 5.55717 15.1892 5.56625 15.1019C5.57533 15.0145 5.61588 14.9335 5.68034 14.8738C5.7151 14.8416 5.7559 14.8166 5.8004 14.8002C5.84489 14.7839 5.89218 14.7765 5.93954 14.7786C5.98687 14.7804 6.03361 14.7916 6.07659 14.8115C6.11957 14.8314 6.15818 14.8597 6.19021 14.8945L8.65493 17.5681C8.66393 17.5779 8.67332 17.587 8.68314 17.5956L8.68685 17.5985C8.69565 17.6061 8.70468 17.6133 8.71404 17.62C8.71576 17.6212 8.71759 17.6223 8.71931 17.6234C8.72824 17.6295 8.73724 17.6354 8.74657 17.6407C8.74973 17.6425 8.75301 17.644 8.75623 17.6457C8.76409 17.6499 8.77196 17.654 8.78007 17.6575C8.78146 17.6582 8.78279 17.659 8.78418 17.6596C8.79726 17.6653 10.1034 18.2419 10.9295 19.5567C11.723 20.8196 11.8411 22.3834 11.8519 22.5581L11.6662 26.102L8.05387 25.9127L8.18584 23.3945C8.18879 23.3383 8.17919 23.2821 8.15775 23.23C8.1363 23.1779 8.10354 23.1312 8.06184 23.0933L5.86811 21.1017C5.83117 21.0682 5.78798 21.0422 5.74101 21.0254C5.69404 21.0085 5.64422 21.0011 5.59438 21.0035C5.54453 21.0059 5.49566 21.0181 5.45053 21.0394C5.40541 21.0607 5.36492 21.0907 5.33139 21.1276C5.29785 21.1646 5.27191 21.2078 5.25506 21.2547C5.23821 21.3017 5.23078 21.3515 5.23319 21.4014C5.2356 21.4512 5.2478 21.5001 5.26909 21.5452C5.29039 21.5903 5.32037 21.6308 5.35731 21.6644L7.4176 23.5348L7.27518 26.2524C7.26991 26.353 7.30483 26.4516 7.37225 26.5265C7.43968 26.6014 7.53409 26.6465 7.63472 26.6517L12.0059 26.8808C12.1065 26.8861 12.2051 26.8512 12.28 26.7837C12.3549 26.7163 12.4 26.6219 12.4052 26.5213L12.6119 22.5775C12.6124 22.5655 12.6123 22.5534 12.6118 22.5413ZM4.9712 14.5511C4.97054 14.5522 4.96997 14.5534 4.96925 14.5545C4.95795 14.573 4.94731 14.5918 4.93716 14.6108C4.93366 14.6174 4.93047 14.6239 4.92713 14.6304C4.91636 14.6516 4.90624 14.6731 4.8968 14.695C4.89054 14.7095 4.88469 14.7242 4.87909 14.7389C4.87655 14.7456 4.87392 14.7521 4.87149 14.7588C4.86386 14.78 4.85674 14.8014 4.85043 14.823C4.85006 14.8241 4.84984 14.8253 4.84948 14.8265C4.84352 14.847 4.83827 14.8677 4.83357 14.8884C4.83192 14.8956 4.83053 14.9028 4.82903 14.91C4.82098 14.9482 4.815 14.9868 4.81112 15.0257C4.81039 15.0329 4.8095 15.04 4.80892 15.0473C4.80709 15.0696 4.80572 15.092 4.8052 15.1144L4.80523 15.1167C4.80475 15.1384 4.80509 15.1602 4.80588 15.182C4.80611 15.1891 4.80666 15.1962 4.80709 15.2034C4.80841 15.227 4.81046 15.2505 4.81326 15.274C4.81518 15.2898 4.81745 15.3056 4.82004 15.3213C4.82115 15.3282 4.82216 15.3351 4.82343 15.342C4.8275 15.3643 4.83207 15.3866 4.83748 15.4087C4.49723 14.7799 4.23741 14.1051 4.06519 13.3956L3.58144 11.4027C3.55483 11.2933 3.59692 11.2102 3.62438 11.1705C3.65184 11.1307 3.71463 11.0618 3.82642 11.048C3.84331 11.0459 3.86012 11.0453 3.8767 11.0462C3.99958 11.0526 4.10855 11.138 4.1411 11.2602L4.71579 13.4166L5.00459 14.5002C4.99288 14.5169 4.98177 14.5339 4.9712 14.5511ZM6.19733 14.0531C6.19046 14.0514 6.18369 14.0495 6.17681 14.0479C6.14654 14.041 6.11599 14.0354 6.08525 14.031C6.07793 14.0299 6.0706 14.0292 6.06327 14.0283C6.03719 14.0251 6.01101 14.0228 5.98477 14.0213C5.97782 14.021 5.97093 14.0204 5.96393 14.0202C5.93286 14.0191 5.90183 14.0193 5.87078 14.0208C5.86345 14.0211 5.85624 14.0218 5.84894 14.0223C5.8222 14.0241 5.79553 14.0268 5.76898 14.0305C5.76263 14.0314 5.75634 14.0321 5.75003 14.033C5.72342 14.0372 5.69688 14.0421 5.67057 14.0482L5.41351 13.0839L5.28208 12.5907C5.27204 12.5537 5.26977 12.515 5.27541 12.4771C5.28105 12.4391 5.29447 12.4028 5.31484 12.3702C5.3349 12.3375 5.36153 12.3093 5.39302 12.2874C5.42452 12.2655 5.46022 12.2503 5.49786 12.2429C5.5686 12.2285 5.64216 12.2419 5.70328 12.2803C5.7644 12.3187 5.80837 12.3792 5.82608 12.4492L6.17493 13.8227L6.23598 14.0629C6.2232 14.0593 6.21023 14.0563 6.19733 14.0531ZM7.87875 15.6051L7.2341 14.9058L6.95471 13.8057L6.91149 13.6357C6.88133 13.5166 6.9272 13.4262 6.95719 13.3828C6.98718 13.3394 7.05588 13.2647 7.17802 13.2512C7.25173 13.2427 7.32606 13.261 7.38735 13.3029C7.44863 13.3447 7.49276 13.4073 7.51161 13.479L8.16667 15.9175L7.87875 15.6051Z" fill="#63AB45"></path></svg>