<svg xmlns="http://www.w3.org/2000/svg" width="16" height="20" viewBox="0 0 16 20"><path d="M13.1781 11.175C12.4989 12.5025 11.5785 13.825 10.6374 15.0125C9.74465 16.132 8.79005 17.2044 7.77778 18.225C6.76548 17.2044 5.81089 16.132 4.91815 15.0125C3.97704 13.825 3.05667 12.5025 2.37741 11.175C1.69037 9.83375 1.2963 8.5775 1.2963 7.5C1.2963 5.8424 1.97916 4.25269 3.19468 3.08058C4.41019 1.90848 6.05878 1.25 7.77778 1.25C9.49677 1.25 11.1454 1.90848 12.3609 3.08058C13.5764 4.25269 14.2593 5.8424 14.2593 7.5C14.2593 8.5775 13.8639 9.83375 13.1781 11.175ZM7.77778 20C7.77778 20 15.5556 12.8925 15.5556 7.5C15.5556 5.51088 14.7361 3.60322 13.2775 2.1967C11.8189 0.790176 9.84057 0 7.77778 0C5.71498 0 3.73667 0.790176 2.27806 2.1967C0.819442 3.60322 3.0738e-08 5.51088 0 7.5C0 12.8925 7.77778 20 7.77778 20Z"></path><path d="M7.77951 10C7.09192 10 6.43248 9.73661 5.94627 9.26777C5.46007 8.79893 5.18692 8.16304 5.18692 7.5C5.18692 6.83696 5.46007 6.20107 5.94627 5.73223C6.43248 5.26339 7.09192 5 7.77951 5C8.46711 5 9.12655 5.26339 9.61275 5.73223C10.099 6.20107 10.3721 6.83696 10.3721 7.5C10.3721 8.16304 10.099 8.79893 9.61275 9.26777C9.12655 9.73661 8.46711 10 7.77951 10ZM7.77951 11.25C8.81091 11.25 9.80007 10.8549 10.5294 10.1517C11.2587 9.44839 11.6684 8.49456 11.6684 7.5C11.6684 6.50544 11.2587 5.55161 10.5294 4.84835C9.80007 4.14509 8.81091 3.75 7.77951 3.75C6.74812 3.75 5.75896 4.14509 5.02965 4.84835C4.30035 5.55161 3.89062 6.50544 3.89062 7.5C3.89062 8.49456 4.30035 9.44839 5.02965 10.1517C5.75896 10.8549 6.74812 11.25 7.77951 11.25V11.25Z"></path></svg>