<svg xmlns="http://www.w3.org/2000/svg" width="36" height="36" viewBox="0 0 36 36"><g clip-path="url(#clip0_1381_27)"><path d="M34.5478 26.1865L29.6634 21.3021C27.919 19.5577 24.9535 20.2555 24.2557 22.5232C23.7324 24.0932 21.988 24.9655 20.418 24.6165C16.9292 23.7443 12.2193 19.2088 11.3471 15.5456C10.8237 13.9755 11.8704 12.2311 13.4404 11.7078C15.7081 11.0101 16.4059 8.04458 14.6615 6.30017L9.7771 1.41582C8.38157 0.194728 6.28828 0.194728 5.06719 1.41582L1.7528 4.7302C-1.56158 8.21902 2.10169 17.4644 10.3004 25.6631C18.4992 33.8619 27.7445 37.6997 31.2334 34.2108L34.5478 30.8964C35.7689 29.5009 35.7689 27.4076 34.5478 26.1865Z"></path></g></svg>