<svg xmlns="http://www.w3.org/2000/svg" width="35" height="36" viewBox="0 0 35 36"><g clip-path="url(#clip0_1381_80)"><path d="M12.7608 25.8093V32.573C12.762 32.8029 12.8354 33.0266 12.9707 33.2124C13.106 33.3982 13.2964 33.5368 13.5148 33.6084C13.7332 33.68 13.9686 33.6811 14.1877 33.6115C14.4068 33.5419 14.5984 33.4051 14.7354 33.2205L18.6919 27.8364L12.7608 25.8093ZM34.541 0.327817C34.3767 0.210791 34.1832 0.141497 33.982 0.127599C33.7807 0.113701 33.5795 0.15574 33.4006 0.249067L0.588138 17.3845C0.399345 17.4843 0.24379 17.637 0.140562 17.8239C0.0373342 18.0108 -0.00907488 18.2238 0.00703036 18.4368C0.0231356 18.6497 0.101054 18.8533 0.231224 19.0226C0.361394 19.1919 0.538152 19.3194 0.739805 19.3897L9.86168 22.5076L29.2881 5.89719L14.2556 24.0082L29.5433 29.2334C29.695 29.2844 29.856 29.3016 30.0151 29.2838C30.1741 29.266 30.3274 29.2137 30.4641 29.1305C30.6007 29.0473 30.7176 28.9352 30.8064 28.8021C30.8953 28.669 30.9539 28.5181 30.9783 28.3599L34.9888 1.38073C35.0184 1.18101 34.9923 0.976977 34.9133 0.791164C34.8343 0.605351 34.7055 0.444996 34.541 0.327817Z"></path></g><defs><clipPath id="clip0_1381_80"><rect width="35" height="35" fill="white" transform="translate(0 0.125)"></rect></clipPath></defs></svg>