<svg xmlns="http://www.w3.org/2000/svg" width="32" height="32" viewBox="0 0 32 32"><g clip-path="url(#clip0_1483_1168)"><path fill-rule="evenodd" clip-rule="evenodd" d="M9.83068 24.6757C4.88924 24.6757 0.869141 20.656 0.869141 15.7148C0.869141 13.7397 1.49954 11.867 2.69085 10.2984C3.84433 8.78054 5.48099 7.65091 7.30023 7.11653C8.12168 6.87489 8.9736 6.7526 9.82985 6.75342C10.6899 6.75342 11.5405 6.87555 12.3591 7.11591C14.1783 7.6503 15.815 8.77992 16.9682 10.2977C18.1606 11.8665 18.79 13.7397 18.79 15.7148C18.7904 16.1583 18.7577 16.6034 18.6929 17.0393C18.6757 17.1329 18.6229 17.2162 18.5454 17.2715C18.468 17.3268 18.3721 17.3499 18.278 17.3359C18.1839 17.3219 18.0989 17.2718 18.041 17.1963C17.9831 17.1207 17.9568 17.0257 17.9677 16.9311C18.0275 16.531 18.0574 16.1219 18.0574 15.7148C18.0574 12.0872 15.6293 8.83975 12.1522 7.8189C11.398 7.5977 10.6159 7.48567 9.82985 7.48622C9.03867 7.48622 8.25693 7.59807 7.50687 7.81931C4.02999 8.84119 1.60173 12.0872 1.60173 15.7148C1.60173 20.2515 5.29326 23.9429 9.83068 23.9429C12.8108 23.9429 15.5652 22.3251 17.0186 19.7211C17.0659 19.6363 17.1449 19.5738 17.2383 19.5472C17.3316 19.5206 17.4317 19.5321 17.5166 19.5792C17.6934 19.6779 17.7572 19.901 17.6585 20.0778C16.0759 22.9142 13.0758 24.6757 9.83068 24.6757Z"></path><path fill-rule="evenodd" clip-rule="evenodd" d="M9.83174 7.4867C9.13575 7.4867 8.42207 8.31819 7.87309 9.76713C7.27394 11.3503 6.94373 13.4624 6.94373 15.7148C6.94373 17.9667 7.27374 20.0791 7.87309 21.6617C8.42207 23.1113 9.13554 23.9421 9.83174 23.9421C10.5275 23.9421 11.2412 23.1115 11.7896 21.6619C12.3895 20.0791 12.7189 17.9667 12.7189 15.7148C12.7189 13.4624 12.3893 11.3505 11.7896 9.76713C11.2412 8.31799 10.5275 7.4867 9.83174 7.4867ZM9.83174 24.6749C8.79916 24.6749 7.86035 23.6972 7.188 21.9212C6.55821 20.2578 6.21094 18.053 6.21094 15.7148C6.21094 13.3758 6.55821 11.1717 7.188 9.50744C7.86035 7.7322 8.79916 6.75391 9.83153 6.75391C10.8641 6.75391 11.8029 7.7322 12.4753 9.50765C13.1051 11.1717 13.4517 13.3758 13.4517 15.7148C13.4517 18.053 13.1051 20.2578 12.4753 21.9212C11.8029 23.6972 10.8641 24.6749 9.83174 24.6749Z"></path><path fill-rule="evenodd" clip-rule="evenodd" d="M9.83068 19.4987C7.4898 19.4987 5.2836 19.1342 3.61774 18.4721C1.84538 17.7673 0.869141 16.7876 0.869141 15.7151C0.869141 14.642 1.84476 13.6631 3.61774 12.9583C5.28319 12.2954 7.4896 11.931 9.83047 11.931C12.1716 11.931 14.3773 12.2954 16.0434 12.9583C17.8158 13.6631 18.792 14.6422 18.792 15.7151C18.792 15.8123 18.7534 15.9055 18.6847 15.9742C18.616 16.0429 18.5228 16.0815 18.4256 16.0815C18.3284 16.0815 18.2352 16.0429 18.1665 15.9742C18.0978 15.9055 18.0592 15.8123 18.0592 15.7151C18.0592 14.9735 17.2253 14.2172 15.7724 13.6388C14.1913 13.0105 12.0805 12.6638 9.83047 12.6638C7.58006 12.6638 5.47009 13.0105 3.88812 13.639C2.43528 14.2172 1.60173 14.9735 1.60173 15.7151C1.60194 16.4563 2.43507 17.2132 3.88874 17.7907C5.46988 18.4199 7.58006 18.7659 9.83047 18.7659C12.0659 18.7659 14.1662 18.4244 15.7438 17.8029C15.7886 17.7852 15.8364 17.7766 15.8845 17.7774C15.9326 17.7783 15.9801 17.7886 16.0242 17.8078C16.0683 17.827 16.1082 17.8547 16.1416 17.8894C16.175 17.924 16.2012 17.9649 16.2188 18.0097C16.2364 18.0545 16.2451 18.1022 16.2442 18.1503C16.2434 18.1984 16.2331 18.2459 16.2139 18.29C16.1947 18.3341 16.167 18.374 16.1324 18.4074C16.0978 18.4408 16.0569 18.4671 16.0122 18.4847C14.3508 19.1387 12.1555 19.4987 9.83068 19.4987ZM7.40324 7.83445C7.35511 7.8345 7.30744 7.82506 7.26296 7.80667C7.21848 7.78827 7.17807 7.76129 7.14404 7.72725C7.11 7.69322 7.08302 7.6528 7.06462 7.60833C7.04623 7.56385 7.03679 7.51618 7.03684 7.46805V5.87272C7.03728 5.56164 7.16109 5.26344 7.38111 5.04354C7.60113 4.82363 7.89939 4.69998 8.21047 4.69971H11.4503C11.7613 4.70003 12.0594 4.82373 12.2793 5.04365C12.4992 5.26356 12.6228 5.56173 12.6231 5.87272V7.46764C12.6231 7.51577 12.6137 7.56344 12.5953 7.60791C12.5769 7.65239 12.5499 7.69281 12.5159 7.72684C12.4818 7.76087 12.4414 7.78786 12.397 7.80625C12.3525 7.82465 12.3048 7.83409 12.2567 7.83403C12.2085 7.83409 12.1609 7.82465 12.1164 7.80625C12.0719 7.78786 12.0315 7.76087 11.9975 7.72684C11.9634 7.69281 11.9365 7.65239 11.9181 7.60791C11.8997 7.56344 11.8902 7.51577 11.8903 7.46764V5.87292C11.8903 5.62989 11.6929 5.43291 11.4503 5.43291H8.21026C8.09349 5.43291 7.98149 5.47925 7.89884 5.56174C7.81619 5.64423 7.76965 5.75615 7.76943 5.87292V7.46846C7.76946 7.51657 7.76 7.56422 7.74159 7.60867C7.72319 7.65313 7.6962 7.69352 7.66216 7.72753C7.62813 7.76154 7.58773 7.78851 7.54326 7.80689C7.4988 7.82527 7.45115 7.83471 7.40303 7.83465L7.40324 7.83445Z"></path><path fill-rule="evenodd" clip-rule="evenodd" d="M9.83145 5.4324C9.73425 5.4324 9.64104 5.3938 9.57229 5.3251C9.50355 5.25639 9.4649 5.1632 9.46484 5.066L9.46505 2.41609C9.46389 2.36726 9.47251 2.31869 9.4904 2.27324C9.50829 2.22778 9.53508 2.18636 9.56921 2.15142C9.60334 2.11647 9.64411 2.0887 9.68913 2.06974C9.73414 2.05078 9.7825 2.04102 9.83134 2.04102C9.88019 2.04102 9.92854 2.05078 9.97356 2.06974C10.0186 2.0887 10.0593 2.11647 10.0935 2.15142C10.1276 2.18636 10.1544 2.22778 10.1723 2.27324C10.1902 2.31869 10.1988 2.36726 10.1976 2.41609L10.1978 5.066C10.1978 5.26832 10.0336 5.4324 9.83145 5.4324Z"></path><path fill-rule="evenodd" clip-rule="evenodd" d="M6.08631 0.732796V1.66771C6.08631 1.7691 6.12658 1.86634 6.19825 1.93806C6.26993 2.00977 6.36715 2.05009 6.46854 2.05014H13.1928C13.2943 2.05009 13.3916 2.00979 13.4633 1.9381C13.5351 1.8664 13.5755 1.76916 13.5757 1.66771V0.732796H6.08631ZM13.1928 2.78273H6.46854C6.1729 2.78246 5.88945 2.6649 5.6804 2.45585C5.47135 2.2468 5.35379 1.96335 5.35352 1.66771V0.366193C5.35349 0.318079 5.36295 0.270432 5.38135 0.225977C5.39976 0.181523 5.42675 0.141135 5.46078 0.107123C5.49481 0.0731104 5.53522 0.0461421 5.57968 0.0277608C5.62415 0.00937963 5.6718 -5.38372e-05 5.71991 2.31109e-07H13.9423C13.9904 -2.68296e-05 14.038 0.0094333 14.0825 0.0278395C14.1269 0.0462456 14.1673 0.0732366 14.2014 0.107268C14.2354 0.141299 14.2623 0.181703 14.2807 0.226167C14.2991 0.270632 14.3085 0.318284 14.3085 0.366398V1.66791C14.3081 1.96363 14.1904 2.24711 13.9812 2.45615C13.7721 2.6652 13.4885 2.78252 13.1928 2.78273ZM24.8349 4.81519L25.4994 5.25808C25.5434 5.28728 25.5803 5.32552 25.6084 5.36993L25.9113 5.85846L26.2139 5.37014C26.2419 5.32552 26.2787 5.28748 26.3227 5.25829L26.9875 4.8154L26.3227 4.37334C26.2789 4.34415 26.2418 4.30603 26.2137 4.26149L25.9113 3.77295L25.6084 4.26149C25.5804 4.30606 25.5433 4.34419 25.4994 4.37334L24.8349 4.81519ZM25.9113 6.91941C25.849 6.91944 25.7877 6.90357 25.7332 6.87332C25.6787 6.84306 25.6329 6.79941 25.6 6.7465L25.0276 5.82413L23.9703 5.12053C23.92 5.08714 23.8787 5.04182 23.8501 4.9886C23.8215 4.93538 23.8066 4.87591 23.8066 4.8155C23.8066 4.7551 23.8215 4.69563 23.8501 4.64241C23.8787 4.58919 23.92 4.54386 23.9703 4.51048L25.0276 3.80709L25.6 2.88472C25.6327 2.83166 25.6785 2.78786 25.733 2.75748C25.7874 2.7271 25.8487 2.71116 25.9111 2.71116C25.9734 2.71116 26.0347 2.7271 26.0892 2.75748C26.1436 2.78786 26.1894 2.83166 26.2222 2.88472L26.7946 3.80709L27.852 4.51048C27.9024 4.54388 27.9437 4.58922 27.9722 4.64245C28.0008 4.69568 28.0157 4.75515 28.0157 4.81556C28.0156 4.87596 28.0007 4.93543 27.9721 4.98864C27.9435 5.04185 27.9022 5.08716 27.8518 5.12053L26.7948 5.82413L26.2222 6.7465C26.1893 6.79935 26.1435 6.84296 26.0891 6.87322C26.0347 6.90347 25.9735 6.91937 25.9113 6.91941ZM20.7544 4.29808C20.0093 5.04949 19.5915 6.06499 19.592 7.12317C19.592 9.33554 21.3922 11.135 23.6045 11.135C24.6626 11.1358 25.6782 10.7183 26.4296 9.97335C26.0859 10.0507 25.7347 10.0898 25.3825 10.0899C22.7663 10.0899 20.6372 7.96145 20.6372 5.34505C20.6372 4.99202 20.6766 4.64022 20.7544 4.29808ZM23.6047 11.8678C20.9883 11.8678 18.8593 9.73936 18.8593 7.12317C18.8587 6.26641 19.0903 5.42551 19.5295 4.68986C19.9686 3.9542 20.5989 3.35127 21.3533 2.94517C21.4226 2.90761 21.5021 2.89345 21.5801 2.90479C21.658 2.91613 21.7302 2.95236 21.7859 3.00808C21.9004 3.12322 21.9266 3.29882 21.8497 3.4413C21.5349 4.02658 21.3701 4.68073 21.37 5.34526C21.37 7.55763 23.1703 9.35775 25.3825 9.35775C26.0466 9.35775 26.7049 9.19162 27.2858 8.87806C27.3552 8.84057 27.4348 8.82646 27.5128 8.83783C27.5908 8.84919 27.6631 8.88543 27.7189 8.94115C27.7747 8.99688 27.811 9.06911 27.8225 9.14713C27.834 9.22515 27.82 9.30478 27.7825 9.3742C27.3763 10.1284 26.7733 10.7586 26.0377 11.1976C25.3021 11.6367 24.4614 11.8683 23.6047 11.8678ZM19.407 31.2672H26.5882V31.1788C26.5878 31.0279 26.5379 30.8812 26.4462 30.7614C26.3544 30.6415 26.2259 30.5551 26.0803 30.5153L23.907 29.9283C23.8292 29.9072 23.7606 29.8612 23.7116 29.7973C23.6626 29.7334 23.6359 29.6552 23.6358 29.5746V25.497C23.6358 25.4118 23.6656 25.3283 23.7203 25.263L30.299 17.3517H15.6972L22.2747 25.263C22.3293 25.3286 22.3592 25.4118 22.3592 25.4972V29.5744C22.3592 29.7399 22.2477 29.8849 22.0882 29.9281L19.9147 30.5153C19.769 30.555 19.6405 30.6415 19.5488 30.7613C19.457 30.8812 19.4071 31.0279 19.4068 31.1788L19.407 31.2672ZM26.9546 32H19.0406C18.9925 32.0001 18.9448 31.9906 18.9003 31.9722C18.8558 31.9538 18.8154 31.9268 18.7814 31.8928C18.7474 31.8588 18.7204 31.8184 18.702 31.7739C18.6836 31.7294 18.6741 31.6817 18.6742 31.6336V31.1788C18.6747 30.8669 18.7776 30.5638 18.9671 30.3161C19.1566 30.0685 19.4223 29.8899 19.7232 29.808L21.6264 29.294V25.6294L15.0166 17.6792C14.9374 17.5851 14.8869 17.4702 14.8712 17.3481C14.8556 17.2261 14.8753 17.1021 14.9282 16.991C14.98 16.8793 15.0628 16.7849 15.1668 16.7189C15.2707 16.6529 15.3915 16.6182 15.5146 16.6189H30.4822C30.7361 16.6189 30.9607 16.7614 31.0682 16.991C31.121 17.1021 31.1408 17.2261 31.1251 17.3481C31.1095 17.4702 31.059 17.5851 30.9798 17.6792L24.3686 25.6294V29.294L26.2713 29.808C26.5723 29.8898 26.8381 30.0683 27.0277 30.316C27.2174 30.5637 27.3203 30.8668 27.3207 31.1788V31.6336C27.3207 31.8359 27.1567 32 26.9546 32Z"></path><path fill-rule="evenodd" clip-rule="evenodd" d="M24.0019 25.8636H21.9924C21.8974 25.8604 21.8073 25.8204 21.7412 25.752C21.6751 25.6837 21.6381 25.5923 21.6381 25.4972C21.6381 25.4021 21.6751 25.3107 21.7412 25.2423C21.8073 25.174 21.8974 25.134 21.9924 25.1308H24.0019C24.099 25.1308 24.1922 25.1694 24.261 25.2381C24.3297 25.3068 24.3683 25.4 24.3683 25.4972C24.3683 25.5944 24.3297 25.6876 24.261 25.7563C24.1922 25.825 24.099 25.8636 24.0019 25.8636ZM25.4459 20.867C24.388 20.867 23.2405 20.7157 22.217 20.2494C20.0842 19.2769 17.6841 19.4084 16.7514 19.5096C16.656 19.5178 16.5612 19.4884 16.4873 19.4276C16.4133 19.3668 16.3661 19.2795 16.3557 19.1844C16.3453 19.0892 16.3725 18.9937 16.4316 18.9184C16.4907 18.8431 16.5769 18.7939 16.6718 18.7813C17.6649 18.6732 20.2227 18.5346 22.5209 19.5822C24.6004 20.5305 27.3108 20.0304 28.3795 19.7711C28.4263 19.7598 28.4749 19.7578 28.5224 19.7652C28.57 19.7726 28.6156 19.7893 28.6567 19.8143C28.6978 19.8394 28.7336 19.8723 28.762 19.9112C28.7904 19.95 28.8108 19.9941 28.8222 20.0409C28.8336 20.0877 28.8356 20.1362 28.8282 20.1838C28.8208 20.2314 28.8041 20.277 28.779 20.3181C28.754 20.3592 28.7211 20.395 28.6822 20.4234C28.6433 20.4518 28.5992 20.4722 28.5524 20.4836C27.921 20.6368 26.7517 20.867 25.4459 20.867Z"></path></g></svg>