<?xml version="1.0" encoding="UTF-8"?>
<svg xmlns="http://www.w3.org/2000/svg" width="40" height="40" viewBox="0 0 40 40">
  <path fill-rule="evenodd" clip-rule="evenodd" d="M17.041 35.6716C16.7442 35.6716 16.4545 35.5908 16.2114 35.4403C15.9682 35.2898 15.7833 35.0769 15.6819 34.8304L13.3572 29.1822C13.3136 29.0762 13.2369 28.9832 13.1361 28.9139L8.12875 25.4728C7.78461 25.2363 7.50615 24.9335 7.3146 24.5875C7.12305 24.2414 7.02347 23.8613 7.02346 23.4761V17.4967C7.02346 17.1656 6.71964 16.8971 6.34486 16.8971H3.51173C3.13695 16.8971 2.83313 17.1656 2.83313 17.4967V21.8774C2.83313 22.2085 3.13695 22.477 3.51173 22.477C3.88651 22.477 4.19032 22.2085 4.19032 21.8774V18.0963H5.66626V23.4761C5.66628 24.0439 5.81307 24.6042 6.09542 25.1143C6.37777 25.6244 6.78823 26.0707 7.2955 26.4193L12.1486 29.7544L14.4064 35.2402C14.6031 35.718 14.9614 36.1308 15.4327 36.4225C15.904 36.7142 16.4655 36.8707 17.041 36.8707H18.3859C18.5989 36.8707 18.7995 36.7824 18.9277 36.6322C19.0559 36.482 19.0969 36.2873 19.0384 36.1064L16.4573 28.1246C16.2603 27.5153 15.8908 26.9605 15.3836 26.5124L11.0745 22.7051C10.8095 22.4709 10.3798 22.4709 10.1148 22.7051C9.8498 22.9392 9.8498 23.3188 10.1148 23.553L14.424 27.3604C14.768 27.6643 15.0187 28.0407 15.1523 28.454L17.4863 35.6716H17.041C17.041 35.6716 17.0411 35.6716 17.041 35.6716Z"></path>
  <path fill-rule="evenodd" clip-rule="evenodd" d="M3.51182 24.4069C2.32185 24.4069 1.35719 23.5546 1.35719 22.5032V18.1226C1.35719 16.7256 2.63897 15.593 4.2201 15.593H14.8445C15.2193 15.593 15.5231 15.3246 15.5231 14.9935C15.5231 14.6623 15.2193 14.3939 14.8445 14.3939H4.2201C1.88942 14.3939 0 16.0633 0 18.1226V22.5032C0 24.2169 1.5723 25.6061 3.51182 25.6061C3.8866 25.6061 4.19042 25.3376 4.19042 25.0065C4.19042 24.6754 3.8866 24.4069 3.51182 24.4069Z"></path>
  <path fill-rule="evenodd" clip-rule="evenodd" d="M11.0771 21.2112C11.4429 21.283 11.8054 21.0792 11.8867 20.7559L12.5556 18.0964H14.9887C15.9919 18.0964 16.9471 17.7173 17.6135 17.055L17.6135 17.0549L20.4382 14.2472L19.9641 13.8749L20.4382 14.2472C21.6284 13.0641 21.7242 11.3441 20.7599 10.0756C20.5509 9.80075 20.1293 9.72759 19.8182 9.91223C19.5071 10.0969 19.4243 10.4694 19.6333 10.7443C20.2587 11.567 20.1955 12.6835 19.4238 13.4506M19.4238 13.4506L16.5991 16.2582C16.5991 16.2582 16.5991 16.2583 16.5991 16.2583C16.1902 16.6647 15.6042 16.8972 14.9887 16.8972H12.0113C11.6932 16.8972 11.4178 17.0924 11.3488 17.3667L10.5618 20.4958C10.4805 20.8191 10.7112 21.1393 11.0771 21.2112"></path>
  <path fill-rule="evenodd" clip-rule="evenodd" d="M22.7784 39.957C23.1264 40.0799 23.5213 39.9304 23.6605 39.6229L28.8853 28.0821C29.2203 27.3422 29.319 26.5352 29.1707 25.7491L27.5091 16.9406C27.3551 16.124 27.4645 15.2854 27.8249 14.5212C27.8249 14.5211 27.8249 14.5212 27.8249 14.5212L34.2813 0.830347C34.4254 0.524682 34.2618 0.173646 33.9159 0.0462859C33.5699 -0.0810744 33.1726 0.0634674 33.0285 0.369132L26.5721 14.0599C26.1137 15.0322 25.9745 16.0989 26.1704 17.1378L27.832 25.9462C27.832 25.9462 27.832 25.9462 27.832 25.9462C27.9394 26.5158 27.8679 27.1006 27.6251 27.6367L22.4004 39.1776C22.2612 39.485 22.4305 39.834 22.7784 39.957Z"></path>
  <path fill-rule="evenodd" clip-rule="evenodd" d="M6.37463 11.2386C6.37463 12.6066 7.62979 13.7157 9.17817 13.7157C10.7263 13.7157 11.9813 12.6068 11.9816 11.2391C11.9822 10.8467 11.8769 10.4599 11.6746 10.1107C11.5038 9.81594 11.0949 9.69932 10.7613 9.85023C10.4277 10.0011 10.2957 10.3624 10.4665 10.6572C10.5706 10.8368 10.6248 11.0359 10.6244 11.2377L10.6244 11.2386C10.6244 11.9444 9.97685 12.5165 9.17817 12.5165C8.37939 12.5165 7.73183 11.9444 7.73183 11.2386C7.73183 10.9075 7.42801 10.6391 7.05323 10.6391C6.67845 10.6391 6.37463 10.9075 6.37463 11.2386ZM11.9816 11.2391C11.9816 11.2389 11.9816 11.2388 11.9816 11.2386H11.303L11.9816 11.2395C11.9816 11.2394 11.9816 11.2392 11.9816 11.2391Z"></path>
  <path fill-rule="evenodd" clip-rule="evenodd" d="M3.51173 18.0963C3.88651 18.0963 4.19032 17.8279 4.19032 17.4967V15.189C4.19032 14.8579 3.88651 14.5894 3.51173 14.5894C3.13695 14.5894 2.83313 14.8579 2.83313 15.189V17.4967C2.83313 17.8279 3.13695 18.0963 3.51173 18.0963Z"></path>
  <path fill-rule="evenodd" clip-rule="evenodd" d="M14.8445 18.0963C15.2193 18.0963 15.5231 17.8279 15.5231 17.4967V14.9935C15.5231 14.6624 15.2193 14.3939 14.8445 14.3939C14.4697 14.3939 14.1659 14.6624 14.1659 14.9935V17.4967C14.1659 17.8279 14.4697 18.0963 14.8445 18.0963Z"></path>
  <path fill-rule="evenodd" clip-rule="evenodd" d="M5.92736 11.7113C6.09207 11.8249 6.30684 11.8651 6.50956 11.8204L11.8299 10.6452C12.0329 10.6003 12.2011 10.4753 12.2858 10.3062C12.3705 10.1372 12.3622 9.94304 12.2633 9.78012C11.6753 8.8114 10.5254 8.1358 9.17811 8.1358C7.23856 8.1358 5.66638 9.52503 5.66638 11.2387C5.66638 11.4233 5.76265 11.5976 5.92736 11.7113ZM7.22959 10.4253C7.5748 9.78075 8.31752 9.33495 9.17811 9.33495C9.65636 9.33495 10.0973 9.47505 10.4542 9.71298L7.22959 10.4253Z"></path>
  <path fill-rule="evenodd" clip-rule="evenodd" d="M29.2027 36.8435C29.5604 36.9423 29.941 36.7661 30.0528 36.4501L33.1787 27.612C33.1787 27.612 33.1787 27.612 33.1787 27.612C33.4877 26.7384 33.5182 25.8065 33.267 24.9186L30.9718 16.8069L30.9718 16.8069C30.8724 16.4557 30.8885 16.0867 31.0181 15.7433L31.0181 15.7432L32.1737 12.6799C32.2922 12.3657 32.1001 12.0262 31.7445 11.9214C31.389 11.8167 31.0047 11.9865 30.8862 12.3007L29.7305 15.364C29.5193 15.9238 29.4932 16.5253 29.6552 17.0977C29.6552 17.0977 29.6552 17.0978 29.6552 17.0978L31.9503 25.2094L32.5608 25.0745L31.9503 25.2094C32.141 25.8835 32.1178 26.5911 31.8833 27.2543L31.8833 27.2543L28.7574 36.0924C28.6456 36.4085 28.845 36.7448 29.2027 36.8435Z"></path>
  <path fill-rule="evenodd" clip-rule="evenodd" d="M34.1248 20.5614C34.4757 20.6777 34.8669 20.5206 34.9985 20.2105L36.7287 16.134C36.8947 15.7427 36.9061 15.3133 36.7609 14.9157C36.6157 14.518 36.3226 14.1755 35.9291 13.9437L35.1897 13.5082C35.1843 13.505 35.1802 13.5003 35.1781 13.4948C35.1759 13.4893 35.1759 13.4834 35.178 13.4779L39.965 0.789332C40.0835 0.47519 39.8913 0.135637 39.5358 0.0309231C39.1802 -0.0737925 38.7959 0.0959832 38.6774 0.410125L33.8904 13.0988C33.7942 13.3538 33.7956 13.6297 33.8943 13.8839C33.993 14.1382 34.1836 14.3567 34.4367 14.5058L35.1762 14.9414C35.1762 14.9414 35.1762 14.9414 35.1762 14.9414C35.3148 15.0231 35.4181 15.1437 35.4693 15.2838C35.5204 15.4239 35.5164 15.5751 35.458 15.7129C35.458 15.7129 35.458 15.7129 35.458 15.7129L33.7277 19.7895C33.5961 20.0995 33.7739 20.4451 34.1248 20.5614Z"></path>
  <path fill-rule="evenodd" clip-rule="evenodd" d="M3.51173 39.9998C3.88651 39.9998 4.19032 39.7313 4.19032 39.4002V26.5332C4.19033 25.7106 4.55397 24.9205 5.20376 24.3313L5.20377 24.3313L6.75835 22.9216C7.01989 22.6844 7.01431 22.3048 6.74589 22.0737C6.47746 21.8426 6.04783 21.8475 5.78629 22.0847L4.23171 23.4944C4.23171 23.4944 4.23171 23.4944 4.2317 23.4944C3.33498 24.3075 2.83314 25.3979 2.83313 26.5332V39.4002C2.83313 39.7313 3.13695 39.9998 3.51173 39.9998Z"></path>
  <path fill-rule="evenodd" clip-rule="evenodd" d="M14.0803 15.4229C14.3487 15.654 14.7783 15.649 15.0399 15.4119L30.913 1.01812C31.1745 0.780949 31.169 0.401352 30.9005 0.170262C30.6321 -0.0608257 30.2025 -0.0558975 29.9409 0.181273L14.0678 14.575C13.8063 14.8122 13.8118 15.1918 14.0803 15.4229Z"></path>
  <path fill-rule="evenodd" clip-rule="evenodd" d="M21.8994 31.501C22.6081 32.002 23.6615 31.7764 24.0319 31.0443C24.0319 31.0443 24.0319 31.0443 24.0319 31.0443L25.3801 28.3802C25.474 28.1947 25.4551 27.9798 25.33 27.8093C25.2049 27.6388 24.9906 27.5359 24.7606 27.5359H22.9169L18.0717 23.2548C17.5459 22.7904 16.8328 22.5294 16.0893 22.5294H6.34498C5.9702 22.5294 5.66638 22.7978 5.66638 23.129C5.66638 23.4601 5.9702 23.7285 6.34498 23.7285H16.0892C16.0893 23.7285 16.0892 23.7285 16.0892 23.7285C16.4728 23.7286 16.8407 23.8632 17.112 24.1028C17.112 24.1028 17.1119 24.1028 17.112 24.1028L22.1559 28.5594C22.2832 28.6719 22.4558 28.7351 22.6358 28.7351H23.7139L22.7929 30.5549C22.7899 30.5609 22.7871 30.5632 22.7854 30.5645C22.7828 30.5663 22.7786 30.5684 22.7729 30.5697C22.7671 30.5709 22.7623 30.5707 22.759 30.5701C22.7568 30.5697 22.7532 30.5688 22.7473 30.5646L19.0356 27.9411C18.743 27.7342 18.316 27.7761 18.0818 28.0347C17.8477 28.2933 17.8952 28.6706 18.1878 28.8775L21.8994 31.501Z"></path>
</svg>
