<?xml version="1.0" encoding="UTF-8"?>
<svg xmlns="http://www.w3.org/2000/svg" width="40" height="40" viewBox="0 0 40 40">
  <path d="M37.4194 9.62648V8.88566C37.7614 8.88519 38.0894 8.72894 38.3313 8.45118C38.5732 8.17342 38.7093 7.79684 38.7097 7.40402V5.18157C38.7093 4.78876 38.5732 4.41217 38.3313 4.13441C38.0894 3.85665 37.7614 3.7004 37.4194 3.69994H37.3646C37.202 2.6019 36.6864 1.61396 35.9197 0.931659C35.153 0.24936 34.1912 -0.0775689 33.2246 0.0155808C32.2581 0.108731 31.3572 0.61517 30.7003 1.43466C30.0434 2.25415 29.6783 3.32696 29.6774 4.44075V5.92239H29.0323V7.40402H29.5702L28.7903 8.89723C28.4518 8.77067 28.098 8.70614 27.7419 8.70601C27.6265 8.70609 27.5112 8.71279 27.3964 8.7261C27.4631 8.28613 27.4534 7.83533 27.3678 7.39967L28.8436 5.70505C28.9035 5.63626 28.9511 5.55459 28.9835 5.46471C29.0159 5.37483 29.0326 5.27849 29.0326 5.1812C29.0326 5.08391 29.0159 4.98758 28.9835 4.89769C28.9511 4.80781 28.9035 4.72614 28.8436 4.65735L27.5533 3.17571C27.4934 3.10692 27.4223 3.05235 27.344 3.01512C27.2657 2.97788 27.1818 2.95872 27.0971 2.95872C27.0124 2.95872 26.9285 2.97788 26.8502 3.01512C26.7719 3.05235 26.7008 3.10692 26.6409 3.17571L26.1844 3.69994H21.9355C20.6866 3.69991 19.48 4.21994 18.5395 5.16359C17.5991 6.10723 16.9885 7.41048 16.8211 8.83164C16.6537 10.2528 16.9408 11.6954 17.6292 12.8921C18.3176 14.0887 19.3605 14.9581 20.5645 15.339L18.8989 17.2516L18.0645 18.2095L15.7511 15.553L17.096 14.0088L16.1836 12.9611L14.3825 15.0292C14.3226 15.098 14.2751 15.1796 14.2426 15.2695C14.2102 15.3594 14.1935 15.4557 14.1935 15.553C14.1935 15.6503 14.2102 15.7466 14.2426 15.8365C14.2751 15.9264 14.3226 16.0081 14.3825 16.0769L17.6083 19.781C17.6682 19.8498 17.7393 19.9043 17.8176 19.9416C17.8959 19.9788 17.9798 19.998 18.0645 19.998C18.1492 19.998 18.2331 19.9788 18.3114 19.9416C18.3897 19.9043 18.4608 19.8498 18.5207 19.781L19.3548 18.8232L23.0986 23.122L20.3851 29.9762C20.2459 30.3305 19.9903 30.6071 19.674 30.7456L12.5081 33.9099L11.8923 32.8493L17.0872 29.5353C17.2008 29.4628 17.2927 29.3526 17.3509 29.2191L19.2864 24.7742C19.3435 24.6431 19.3654 24.4956 19.3495 24.3502C19.3335 24.2048 19.2804 24.0681 19.1968 23.9574C19.1132 23.8467 19.0028 23.767 18.8798 23.7283C18.7567 23.6896 18.6264 23.6936 18.5053 23.74L13.4113 25.6901C13.1057 25.8071 12.773 25.7886 12.4787 25.6382L10.3226 24.5374V22.7546L12.6993 23.664C12.7958 23.701 12.8986 23.7112 12.9992 23.6938C13.0998 23.6764 13.1954 23.6319 13.2782 23.564L16.6602 20.7901L15.9102 19.5845L12.7956 22.1391L9.88427 21.0251C9.88331 21.0251 9.8825 21.024 9.88153 21.0237L7.30089 20.0359C7.20532 19.9993 7.10363 19.9889 7.00395 20.0056C6.90427 20.0223 6.80937 20.0655 6.72685 20.1318L2.91798 23.1934C2.01722 23.9181 1.28174 24.8812 0.773815 26.0013C0.265889 27.1215 0.000461082 28.3657 0 29.6286C0 29.7436 0.0233193 29.857 0.0681114 29.9599C0.112903 30.0627 0.177938 30.1522 0.258065 30.2212L2.83871 32.4437C2.92237 32.5157 3.02004 32.5633 3.1233 32.5824C3.22656 32.6015 3.33231 32.5915 3.43144 32.5532C3.53057 32.515 3.62012 32.4496 3.69236 32.3627C3.7646 32.2759 3.81737 32.1702 3.84613 32.0547L4.13387 30.8986C4.72161 28.5421 5.78855 26.3797 7.24677 24.5895L9.4154 25.6963L9.41815 25.6975L11.9554 26.9926C12.5437 27.2932 13.2086 27.3301 13.8194 27.096L17.436 25.7116L16.2864 28.3518L10.707 31.911L8.82798 32.6301C8.70349 32.6777 8.59461 32.7679 8.51589 32.8884C8.0077 33.6615 7.32033 34.2548 6.53235 34.6005C5.74437 34.9462 4.88758 35.0304 4.05992 34.8434L0.771452 34.0881C0.677887 34.0666 0.581344 34.0693 0.488779 34.0958C0.396213 34.1224 0.30993 34.1722 0.236144 34.2417C0.162358 34.3111 0.102906 34.3985 0.0620724 34.4975C0.0212384 34.5965 3.85283e-05 34.7047 0 34.8143V39.2592C0 39.4557 0.0679721 39.6441 0.188963 39.783C0.309955 39.9219 0.474054 40 0.645161 40H1.79387C5.74642 39.9987 9.57097 38.3908 12.5899 35.4614L20.1371 32.1288C20.7699 31.8516 21.2814 31.298 21.5598 30.5891L23.8098 24.9061L25.1739 32.7374C25.2032 32.9053 25.2822 33.0563 25.3975 33.1648C25.5129 33.2733 25.6573 33.3326 25.8065 33.3326H28.3871C28.5582 33.3326 28.7223 33.2546 28.8433 33.1157C28.9643 32.9767 29.0323 32.7883 29.0323 32.5918V31.1102H29.6774C29.8485 31.1102 30.0126 31.0321 30.1336 30.8932C30.2546 30.7543 30.3226 30.5658 30.3226 30.3694V28.8877C30.3226 28.7502 30.2892 28.6153 30.2262 28.4983C30.1632 28.3813 30.0731 28.2867 29.966 28.2252L28.978 27.6579L28.0216 19.9701C28.1876 19.8283 28.3596 19.6959 28.5369 19.5734C29.4742 18.9296 30.2791 18.0605 30.8963 17.0259L29.8328 16.1869C29.3201 17.0461 28.6516 17.7679 27.8731 18.3026C27.8548 18.3152 27.8369 18.329 27.8185 18.3417L27.7594 17.8664L28.5658 15.553H37.4194C38.1038 15.553 38.7602 15.2408 39.2441 14.6851C39.7281 14.1294 40 13.3757 40 12.5897C40 11.8038 39.7281 11.0501 39.2441 10.4944C38.7602 9.93868 38.1038 9.62648 37.4194 9.62648ZM6.64056 23.1782C4.87178 25.2117 3.58226 27.7282 2.89315 30.4912L2.86298 30.6125L1.29935 29.2659C1.34743 28.3041 1.58461 27.3673 1.99308 26.5258C2.40155 25.6843 2.9707 24.96 3.65782 24.4072L7.20081 21.5594L9.03226 22.2605V23.8791L7.35879 23.025C7.23962 22.9642 7.1072 22.9463 6.97898 22.9736C6.85076 23.001 6.73277 23.0723 6.64056 23.1782ZM1.79387 38.5184H1.29032V35.718L3.8071 36.2959C4.83902 36.5288 5.9067 36.4349 6.89569 36.0242C7.88468 35.6135 8.75771 34.9016 9.42121 33.9647L10.7043 33.4739L11.3978 34.6693C8.66682 37.1607 5.28185 38.5173 1.79387 38.5184ZM34.1935 9.99689C34.1935 9.77711 34.2503 9.56226 34.3566 9.37952C34.463 9.19678 34.6141 9.05435 34.791 8.97025C34.9678 8.88614 35.1624 8.86413 35.3501 8.90701C35.5378 8.94989 35.7102 9.05572 35.8456 9.21113C35.9809 9.36654 36.0731 9.56454 36.1104 9.7801C36.1478 9.99565 36.1286 10.2191 36.0554 10.4221C35.9821 10.6252 35.8581 10.7987 35.6989 10.9208C35.5398 11.0429 35.3527 11.1081 35.1613 11.1081C34.9047 11.1078 34.6587 10.9906 34.4773 10.7823C34.2959 10.574 34.1938 10.2915 34.1935 9.99689ZM37.4202 7.40402H36.396L35.2947 6.13936C35.2348 6.07056 35.1636 6.01599 35.0854 5.97876C35.0071 5.94152 34.9232 5.92236 34.8385 5.92236C34.7537 5.92236 34.6698 5.94152 34.5916 5.97876C34.5133 6.01599 34.4422 6.07056 34.3823 6.13936L33.2812 7.40402H32.2581V5.18157H37.4194L37.4202 7.40402ZM33.5484 1.47748C34.1204 1.47833 34.6759 1.69695 35.1281 2.09911C35.5803 2.50126 35.9036 3.06425 36.0474 3.69994H31.0494C31.1931 3.06425 31.5164 2.50126 31.9686 2.09911C32.4208 1.69695 32.9764 1.47833 33.5484 1.47748ZM32.2581 8.88566H33.1215C32.9778 9.23286 32.9032 9.61246 32.9032 9.99689C32.9032 10.3813 32.9778 10.7609 33.1215 11.1081H32.9032C32.8031 11.1081 32.7043 11.1349 32.6147 11.1864L31.7403 11.6884L30.1335 9.84344C30.0645 9.7649 29.9926 9.68976 29.9181 9.61823L30.8758 7.78471C30.9359 7.66971 30.9677 7.53814 30.9677 7.40402C30.9681 7.79684 31.1042 8.17342 31.3461 8.45118C31.588 8.72894 31.916 8.88519 32.2581 8.88566ZM28.7477 10.484C28.8011 10.5171 28.8529 10.5543 28.9039 10.5932L27.6923 14.0714H24.9811L25.7252 11.5083L26.2627 10.8911C26.5826 10.5235 26.9979 10.285 27.446 10.2116C27.8941 10.1381 28.3509 10.2336 28.7477 10.4837V10.484ZM22.7276 18.6922L23.143 21.0774L20.2673 17.7755L22.2027 15.553H23.191L22.8305 16.7946C22.6532 17.4062 22.6177 18.0602 22.7276 18.6922ZM23.4931 14.0714L23.685 13.851L23.621 14.0714H23.4931ZM27.0968 4.74754L27.4747 5.18157L26.765 5.99647C26.7085 5.91841 26.6488 5.84229 26.5851 5.76913C26.5214 5.69598 26.4554 5.62754 26.3873 5.56226L27.0968 4.74754ZM21.9355 5.18157H23.1341C22.8813 5.33773 22.6498 5.53563 22.447 5.76895L18.1744 10.6751C18.0357 10.0212 18.0282 9.33965 18.1525 8.68193C18.2768 8.02422 18.5296 7.40754 18.8919 6.87844C19.2541 6.34935 19.7163 5.92167 20.2436 5.62772C20.7708 5.33376 21.3494 5.18121 21.9355 5.18157ZM18.7361 12.1254L23.3594 6.81665C23.6662 6.46439 24.0823 6.26649 24.5161 6.26649C24.95 6.26649 25.366 6.46439 25.6728 6.81665C25.9796 7.16891 26.1519 7.64667 26.1519 8.14484C26.1519 8.64301 25.9796 9.12078 25.6728 9.47304L25.3502 9.84344L21.6774 14.0605C21.0914 14.0152 20.5221 13.8175 20.0125 13.4822C19.503 13.147 19.0665 12.683 18.7361 12.1254ZM29.0323 29.6286H28.3871C28.216 29.6286 28.0519 29.7066 27.9309 29.8455C27.8099 29.9845 27.7419 30.1729 27.7419 30.3694V31.851H26.3354L25.9205 29.4689L28.2966 28.9232L29.0323 29.3456V29.6286ZM26.4977 17.5003C26.4558 17.6207 26.4422 17.7517 26.4581 17.88L27.6621 27.5579L25.6674 28.016L23.9928 18.4019C23.9269 18.0225 23.9482 17.63 24.0546 17.2629L24.551 15.553H27.1761L26.4977 17.5003ZM29.9131 11.6856L30.922 12.844L30.8611 13.2636C30.821 13.5362 30.7671 13.8059 30.6998 14.0714H29.0819L29.9131 11.6856ZM37.4194 14.0714H32.0331C32.0716 13.8842 32.1065 13.6961 32.134 13.5065L32.1953 13.0833L33.0556 12.5897H35.1613C35.5885 12.5893 36.0068 12.4499 36.3678 12.1876C36.7288 11.9254 37.0177 11.5511 37.201 11.1081H37.4194C37.7616 11.1081 38.0898 11.2642 38.3318 11.5421C38.5737 11.8199 38.7097 12.1968 38.7097 12.5897C38.7097 12.9827 38.5737 13.3596 38.3318 13.6374C38.0898 13.9153 37.7616 14.0714 37.4194 14.0714Z"></path>
</svg>
