<?xml version="1.0" encoding="UTF-8"?>
<svg xmlns="http://www.w3.org/2000/svg" width="40" height="40" viewBox="0 0 40 40">
  <path d="M10.7679 2.62749C10.9233 2.62749 11.0723 2.55655 11.1822 2.43028C11.2921 2.30402 11.3538 2.13276 11.3538 1.95419V0.673301C11.3538 0.301459 11.0916 0 10.7679 0C10.4442 0 10.182 0.301459 10.182 0.673301V1.9541C10.182 2.04253 10.1971 2.13009 10.2265 2.21179C10.256 2.29349 10.2991 2.36772 10.3536 2.43025C10.408 2.49278 10.4726 2.54239 10.5437 2.57623C10.6147 2.61007 10.6909 2.62749 10.7679 2.62749ZM10.182 12.451V13.7318C10.182 14.1037 10.4442 14.4051 10.7679 14.4051C11.0916 14.4051 11.3538 14.1037 11.3538 13.7318V12.451C11.3538 12.0792 11.0916 11.7777 10.7679 11.7777C10.4442 11.7777 10.182 12.0792 10.182 12.451ZM7.12391 3.96745C7.17824 4.03042 7.24285 4.08043 7.31404 4.11463C7.38524 4.14883 7.46161 4.16653 7.53877 4.16672C7.61593 4.16691 7.69237 4.14958 7.76368 4.11574C7.835 4.08189 7.8998 4.03219 7.95436 3.96949C8.00892 3.90679 8.05217 3.83233 8.08162 3.75037C8.11106 3.66841 8.12613 3.58058 8.12596 3.49191C8.12579 3.40325 8.11038 3.31549 8.08061 3.23369C8.05084 3.15188 8.00731 3.07764 7.95251 3.01522L7.1643 2.10959C7.10989 2.04706 7.0453 1.99746 6.9742 1.96362C6.90311 1.92978 6.82692 1.91236 6.74997 1.91236C6.67302 1.91236 6.59682 1.92978 6.52573 1.96362C6.45463 1.99746 6.39004 2.04706 6.33563 2.10959C6.28122 2.17211 6.23806 2.24635 6.20862 2.32804C6.17918 2.40974 6.16403 2.4973 6.16404 2.58572C6.16404 2.67414 6.17921 2.7617 6.20866 2.84339C6.23812 2.92508 6.28129 2.9993 6.33571 3.06181L7.12391 3.96745ZM14.412 10.4377C14.3015 10.3154 14.1535 10.2478 14 10.2494C13.8465 10.2511 13.6997 10.3219 13.5912 10.4466C13.4826 10.5714 13.421 10.74 13.4195 10.9164C13.418 11.0928 13.4768 11.2628 13.5833 11.3899L14.3715 12.2956C14.4821 12.418 14.63 12.4856 14.7835 12.4839C14.937 12.4822 15.0838 12.4114 15.1924 12.2867C15.3009 12.162 15.3626 11.9933 15.364 11.8169C15.3655 11.6405 15.3067 11.4705 15.2002 11.3434L14.412 10.4377ZM5.08586 7.87592H6.20055C6.52422 7.87592 6.78649 7.57446 6.78649 7.20261C6.78649 6.83077 6.52422 6.52931 6.20055 6.52931H5.08586C4.76219 6.52931 4.49993 6.83077 4.49993 7.20261C4.49993 7.57446 4.76219 7.87592 5.08586 7.87592ZM14.7494 7.20261C14.7494 7.29103 14.7645 7.37859 14.794 7.46028C14.8234 7.54196 14.8666 7.61619 14.921 7.67871C14.9754 7.74123 15.04 7.79083 15.1111 7.82466C15.1822 7.8585 15.2584 7.87592 15.3353 7.87592H16.45C16.7737 7.87592 17.036 7.57446 17.036 7.20261C17.036 6.83077 16.7737 6.52931 16.45 6.52931H15.3353C15.1799 6.52931 15.0309 6.60025 14.921 6.72652C14.8111 6.85279 14.7494 7.02404 14.7494 7.20261ZM7.12383 10.4377L6.33563 11.3434C5.96524 11.769 6.23282 12.4929 6.75001 12.4929C6.82698 12.493 6.90321 12.4756 6.97432 12.4418C7.04543 12.4079 7.11002 12.3583 7.16438 12.2956L7.95258 11.3899C8.007 11.3274 8.05016 11.2532 8.0796 11.1715C8.10905 11.0898 8.1242 11.0022 8.1242 10.9138C8.12419 10.8253 8.10903 10.7378 8.07958 10.6561C8.05013 10.5744 8.00696 10.5002 7.95255 10.4376C7.89813 10.3751 7.83353 10.3255 7.76243 10.2917C7.69133 10.2579 7.61513 10.2404 7.53818 10.2404C7.46123 10.2405 7.38503 10.2579 7.31394 10.2917C7.24284 10.3256 7.17824 10.3752 7.12383 10.4377ZM14.412 3.96745L15.2002 3.06181C15.2546 2.9993 15.2978 2.92508 15.3272 2.84339C15.3567 2.7617 15.3718 2.67414 15.3718 2.58572C15.3718 2.4973 15.3567 2.40974 15.3273 2.32804C15.2978 2.24635 15.2547 2.17211 15.2002 2.10959C15.1458 2.04706 15.0812 1.99746 15.0101 1.96362C14.9391 1.92978 14.8629 1.91236 14.7859 1.91236C14.709 1.91236 14.6328 1.92978 14.5617 1.96362C14.4906 1.99746 14.426 2.04706 14.3716 2.10959L13.5833 3.01522C13.4734 3.14149 13.4117 3.31276 13.4117 3.49133C13.4117 3.66991 13.4734 3.84118 13.5833 3.96745C13.6932 4.09372 13.8422 4.16466 13.9976 4.16466C14.153 4.16466 14.3021 4.09372 14.412 3.96745ZM39.9985 37.7652C39.9553 36.529 38.9525 35.5222 37.8293 35.7338C37.3781 34.7422 39.35 39.264 31.2496 20.6477L28.473 14.2666C27.922 13.0002 26.3499 13.0044 25.8007 14.2666C25.0642 15.9593 24.3277 17.652 23.5911 19.3446L20.2686 11.7088C19.7686 10.5592 18.3393 10.5592 17.8392 11.7088L15.1155 17.9684C15.0002 18.2332 14.6704 18.2351 14.5544 17.9684C14.0542 16.8189 12.625 16.819 12.1249 17.9684L7.71922 28.0939L7.59985 27.8194C7.23055 26.9708 6.18211 26.9795 5.81665 27.8194L1.10242 38.6534H0.585938C0.262266 38.6534 0 38.9549 0 39.3267C0 39.6985 0.262266 40 0.585938 40H30.0967C30.4204 40 30.6827 39.6985 30.6827 39.3267C30.6827 38.9549 30.4204 38.6534 30.0967 38.6534H23.606C23.5438 38.6534 23.4823 38.6392 23.425 38.6117C23.3676 38.5841 23.3156 38.5437 23.272 38.4929C23.2284 38.442 23.194 38.3817 23.1709 38.3154C23.1477 38.2492 23.1363 38.1783 23.1372 38.1069C23.1409 37.8118 23.3792 37.5425 23.6574 37.5794C24.1038 37.639 24.5044 37.3016 24.5885 36.7946C24.6885 36.1935 25.1479 35.7578 25.6803 35.7578C26.0721 35.7578 26.4456 35.9997 26.6467 36.4054C26.8395 36.7945 27.2321 36.993 27.6023 36.8996C27.6874 36.8781 27.8835 36.7788 28.1531 36.8788C28.8383 37.1327 28.9692 36.4249 29.6299 36.5758C30.0901 36.6813 30.5329 36.3227 30.5946 35.7926C30.7152 34.7555 31.4931 33.9735 32.404 33.9735C33.0617 33.9735 33.6717 34.3843 33.9955 35.0455C34.1835 35.4293 34.5417 35.6494 34.9069 35.6307C34.9925 35.6264 35.0772 35.6089 35.1588 35.5788C35.8541 35.3225 36.5766 35.7472 36.8425 36.4847C36.928 36.7226 37.0873 36.9157 37.2895 37.0264C37.4918 37.1372 37.7226 37.1578 37.9373 37.0842C38.377 36.935 38.8101 37.3208 38.8275 37.819C38.8315 37.927 38.8165 38.0347 38.7833 38.1357C38.7501 38.2368 38.6995 38.3291 38.6344 38.407C38.5694 38.485 38.4913 38.547 38.4048 38.5894C38.3183 38.6317 38.2253 38.6535 38.1313 38.6534H32.8314C32.5077 38.6534 32.2454 38.9549 32.2454 39.3267C32.2454 39.6985 32.5077 40 32.8314 40H38.1313C39.1919 40 40.041 38.9896 39.9985 37.7652ZM26.8489 14.8687C26.9679 14.5955 27.3063 14.5966 27.4248 14.8687L30.0146 20.8206L27.9493 23.2454C27.9252 23.2736 27.8926 23.2903 27.8582 23.292C27.8237 23.2937 27.79 23.2803 27.7639 23.2546L26.5122 22.0169C25.9534 21.4642 25.1084 21.5509 24.6436 22.2095L23.9726 23.1607C23.9609 23.1773 23.9464 23.1909 23.93 23.2008C23.9135 23.2107 23.8955 23.2165 23.8769 23.2181C23.8584 23.2196 23.8398 23.2167 23.8223 23.2096C23.8048 23.2025 23.7888 23.1913 23.7752 23.1768L23.4051 22.7834L26.8489 14.8687ZM6.70813 28.7816L8.30751 32.4572L7.4568 33.4561L6.51891 32.5287C6.10071 32.1152 5.51336 32.121 5.10774 32.4592L6.70813 28.7816ZM2.41274 38.6534L4.12438 34.7196C4.96414 34.9613 5.34047 34.197 5.77977 33.5744L6.7154 34.4995C7.17008 34.9492 7.85446 34.9145 8.27337 34.4228L8.86204 33.7317L11.0037 38.6534H2.41274ZM15.1895 38.6534H12.3139L8.3743 29.5994L13.1732 18.5707C13.2422 18.4123 13.4374 18.4122 13.5063 18.5708C14.054 19.8294 15.6167 19.8281 16.1638 18.5708L18.8875 12.311C18.9565 12.1525 19.1516 12.1525 19.2206 12.311L22.9362 20.8502C22.6042 21.6129 15.83 37.1814 15.1895 38.6534ZM35.5097 34.1584C35.3196 34.1639 35.1306 34.1941 34.9463 34.2483C34.3983 33.241 33.4352 32.6268 32.4041 32.6268C31.0291 32.6268 29.8387 33.712 29.5017 35.2102C29.1075 35.1999 28.7189 35.3192 28.3817 35.5542C28.1088 35.477 27.8246 35.4679 27.5484 35.5278C27.1234 34.8335 26.4258 34.4112 25.6804 34.4112C24.6797 34.4112 23.8054 35.1604 23.506 36.2328C22.6641 36.2915 21.9778 37.0926 21.9655 38.0876V38.0877C21.9632 38.2725 21.9891 38.4803 22.0328 38.6532H16.4999L22.8594 24.0377L22.9795 24.1654H22.9796C23.5335 24.7541 24.4077 24.6825 24.8831 24.0087L25.5542 23.0576C25.5656 23.0413 25.5797 23.0279 25.5957 23.0181C25.6117 23.0082 25.6293 23.0022 25.6474 23.0003C25.6655 22.9985 25.6837 23.0008 25.701 23.0072C25.7183 23.0136 25.7343 23.0239 25.748 23.0376L26.9997 24.2753C27.521 24.7906 28.3061 24.7519 28.7871 24.1873L30.5692 22.0949L35.8239 34.1711C35.7195 34.1595 35.6146 34.1552 35.5097 34.1584ZM10.7679 11.2311C12.068 11.2311 13.2549 10.4105 13.8654 9.08965C13.9356 8.93223 13.949 8.7494 13.9029 8.58068C13.8567 8.41195 13.7546 8.27086 13.6187 8.18788C13.4828 8.10491 13.3239 8.08671 13.1764 8.13722C13.0289 8.18773 12.9046 8.30289 12.8303 8.45783C12.4237 9.33779 11.6334 9.88433 10.7679 9.88433C9.48102 9.88433 8.43407 8.68127 8.43407 7.20252C8.43407 5.72378 9.48102 4.52072 10.7679 4.52072C11.6334 4.52072 12.4236 5.06726 12.8303 5.94722C12.8664 6.02532 12.9156 6.09448 12.9749 6.15076C13.0343 6.20704 13.1027 6.24933 13.1763 6.27521C13.2499 6.3011 13.3272 6.31008 13.4038 6.30164C13.4804 6.2932 13.5548 6.2675 13.6228 6.22601C13.6907 6.18453 13.7509 6.12806 13.7999 6.05985C13.8489 5.99163 13.8857 5.913 13.9082 5.82844C13.9307 5.74389 13.9386 5.65506 13.9312 5.56703C13.9239 5.479 13.9015 5.39349 13.8654 5.3154C13.2549 3.99447 12.068 3.17394 10.7679 3.17394C8.83485 3.17394 7.26212 4.98108 7.26212 7.20244C7.26212 9.42379 8.83485 11.2311 10.7679 11.2311Z"></path>
</svg>
