<?xml version="1.0" encoding="UTF-8"?>
<svg xmlns="http://www.w3.org/2000/svg" width="40" height="40" viewBox="0 0 40 40">
  <path d="M38.6795 21.2711C38.6241 20.7341 38.3473 20.2693 37.932 20.0129L34.0561 17.6808L31.7721 11.55C31.6475 11.2134 31.4329 10.9409 31.1768 10.7806L27.7231 8.54471L23.0097 0.682898C22.719 0.202053 22.2276 -0.0543974 21.7224 0.00971531L17.5834 0.538645C17.3812 0.567754 17.187 0.648215 17.0147 0.774281C16.8424 0.900347 16.6963 1.06891 16.5868 1.26793L13.8875 6.14049L9.86619 7.87153C9.5132 8.03181 9.23635 8.33635 9.08408 8.72904L5.66496 17.801L2.15587 20.3735C1.79596 20.63 1.55372 21.0787 1.51219 21.5676L0.0102713 38.2289C-0.0381777 38.6777 0.0864055 39.1265 0.349414 39.4631C0.612423 39.8077 0.993094 40 1.38761 40H38.6241C39.0048 40 39.3786 39.8157 39.6346 39.4871C39.8977 39.1585 40.0292 38.7097 39.9946 38.2609L38.6726 21.2551L38.6795 21.2711ZM27.0517 9.94718L30.5055 12.1831L32.7826 18.2979C32.9072 18.6505 33.1286 18.931 33.4193 19.1073L35.3573 20.2693C34.7482 20.5578 34.0492 20.662 33.4262 20.5338C33.0733 20.4617 32.4296 20.2453 32.1389 19.6282C31.0592 17.3041 30.4432 17.0156 28.609 16.1501C28.3183 16.0138 27.9861 15.8616 27.6124 15.6773C26.5673 15.1724 26.415 14.403 26.2004 13.3452C25.9789 12.2472 25.6952 10.8768 24.2555 9.97924C23.0928 9.25797 23.245 6.45304 23.5634 4.41746L26.5742 9.44229C26.6918 9.65066 26.8649 9.82697 27.0379 9.93917L27.0517 9.94718ZM13.6867 38.4212L14.1089 28.2113L19.5629 20.9425L23.9026 22.6335L24.83 26.4161C24.9269 26.8248 25.1692 27.1694 25.4806 27.3778L26.8926 28.2994L27.8546 38.4212H13.6867ZM38.6311 38.4212H29.2458L28.2699 28.1311C28.2214 27.6182 27.9584 27.1614 27.5708 26.905L26.1589 25.9834L25.2314 22.2007C25.1069 21.6958 24.7746 21.2871 24.3386 21.1188L19.999 19.4278C19.7391 19.3258 19.4588 19.3155 19.1939 19.3983C18.9289 19.481 18.6912 19.6531 18.5109 19.8927L13.0638 27.1614C12.8631 27.4339 12.7385 27.7785 12.7247 28.1311L12.2956 38.4212H1.39453L2.89645 21.7519L6.40554 19.1714C6.63394 19.0031 6.82082 18.7547 6.93848 18.4581L10.3576 9.37818L14.3858 7.63912C14.6557 7.5109 14.8841 7.30253 15.0502 7.00601L17.7495 2.13345L21.8746 1.5965L22.4975 2.63032C22.1238 4.22512 21.0441 9.80293 23.6049 11.3897C24.4978 11.9507 24.657 12.7281 24.8577 13.7138C25.093 14.8839 25.3906 16.3344 27.0794 17.1518C27.4601 17.3362 27.7923 17.4964 28.0899 17.6327C29.8133 18.4421 30.0763 18.5623 30.9207 20.3815C31.3429 21.2791 32.1458 21.8962 33.184 22.1045C33.4401 22.1606 33.7031 22.1847 33.973 22.1847C34.9905 22.1847 36.0217 21.808 36.8315 21.1509L37.2952 21.4314L38.6172 38.4132L39.3093 38.3411L38.6241 38.4132L38.6311 38.4212Z"></path>
</svg>
