<?xml version="1.0" encoding="UTF-8"?>
<svg xmlns="http://www.w3.org/2000/svg" width="40" height="40" viewBox="0 0 40 40">
  <path d="M4.79062 39.9351C4.17389 39.9314 3.56565 39.8352 3.00788 39.653C2.45011 39.4708 1.95609 39.207 1.55992 38.8797C1.16376 38.5525 0.874884 38.1697 0.713234 37.7577C0.551584 37.3456 0.52101 36.9142 0.623624 36.4932C0.662729 36.3312 0.714428 36.1707 0.778497 36.0125C0.918187 35.6685 1.1482 35.3454 1.45702 35.0591L8.54091 28.5096C8.85519 28.219 9.04984 27.8749 9.10415 27.5139L9.20138 22.0399C9.20485 21.8375 9.32345 21.6441 9.53147 21.5018C9.73948 21.3596 10.0201 21.2798 10.3126 21.2798H10.3265C10.6211 21.2823 10.9021 21.3657 11.1079 21.5117C11.3137 21.6577 11.4273 21.8542 11.4238 22.0582L11.3265 27.5654C11.3265 27.5851 11.3265 27.6053 11.3224 27.6255C11.2362 28.2798 10.8895 28.9047 10.3209 29.4307L3.23633 35.9803C3.08975 36.115 2.98006 36.2672 2.91269 36.4293C2.871 36.5338 2.83693 36.6397 2.8106 36.7466C2.74808 36.994 2.78286 37.2485 2.91128 37.4834C3.0397 37.7183 3.25704 37.925 3.54052 38.0817C3.81498 38.2381 4.14511 38.3406 4.49637 38.3784C4.84763 38.4162 5.20711 38.3879 5.5372 38.2966L5.57471 38.2856L5.60179 38.2783C5.9308 38.1829 6.21672 38.0279 6.42963 37.8298L14.8921 30.0211L15.7887 27.2283C15.8526 27.0292 16.0282 26.8557 16.2768 26.7462C16.5255 26.6367 16.8268 26.6 17.1145 26.6442C17.4022 26.6885 17.6527 26.81 17.811 26.9821C17.9692 27.1542 18.0222 27.3628 17.9583 27.562L17.0096 30.5168C16.9756 30.6236 16.9088 30.7241 16.8138 30.8115L8.20199 38.7538C7.7482 39.1733 7.1399 39.5005 6.44075 39.7014L6.41922 39.7077L6.3456 39.7283C5.8505 39.8639 5.32306 39.9341 4.79062 39.9351Z"></path>
  <path d="M11.0105 22.238C10.8323 22.2377 10.6568 22.2077 10.4988 22.1505C10.3409 22.0934 10.2051 22.0107 10.1029 21.9096C10.0008 21.8085 9.93526 21.6919 9.91191 21.5695C9.88857 21.4472 9.90808 21.3228 9.9688 21.2068L15.4477 10.7347C15.7552 10.1356 16.2701 9.5978 16.9474 9.16842C17.6247 8.73904 18.4437 8.43114 19.3327 8.27167C20.7294 8.026 22.1107 8.16831 23.4351 8.69571C24.3516 9.06592 25.1316 9.57822 25.7138 10.1923L30.3878 15.0707C30.4718 15.1594 30.5864 15.2321 30.7213 15.2825C30.8561 15.3328 31.0068 15.3592 31.16 15.3592H36.5716C37.7835 15.3592 38.9245 15.7895 39.5496 16.4822C40.2302 17.2371 40.1357 18.0919 39.2912 18.8279C38.9608 19.1149 38.5406 19.3462 38.0623 19.5044C37.584 19.6627 37.06 19.7437 36.5299 19.7414H27.6341C25.7742 19.7414 24.0449 19.125 23.0087 18.0928C22.9441 18.0289 22.8795 17.9601 22.8177 17.889C22.5959 17.6345 22.3756 17.3803 22.1566 17.1265C21.9158 16.8476 21.6739 16.5688 21.4308 16.2899C20.996 15.7904 20.6578 15.4097 20.3342 15.0553L19.5987 14.2486C19.5108 14.1634 19.4489 14.0667 19.4168 13.9645C19.3847 13.8622 19.3831 13.7564 19.4121 13.6537C19.4412 13.5509 19.5002 13.4534 19.5855 13.367C19.6709 13.2806 19.7809 13.2071 19.9086 13.1512C20.0364 13.0952 20.1794 13.0579 20.3287 13.0415C20.4781 13.0251 20.6307 13.03 20.7772 13.0559C20.9238 13.0817 21.0611 13.128 21.1809 13.1919C21.3007 13.2558 21.4004 13.336 21.4739 13.4274L22.2135 14.2308C22.5448 14.5943 22.8906 14.9832 23.3337 15.4914C23.5782 15.7712 23.8199 16.0524 24.0636 16.3327C24.2817 16.5856 24.5005 16.8383 24.72 17.0909C24.7568 17.1327 24.795 17.1731 24.8325 17.2106C25.1496 17.5196 25.5701 17.771 26.0579 17.9432C26.5457 18.1154 27.0865 18.2033 27.6341 18.1996H36.5292C36.7246 18.2003 36.9177 18.1707 37.0945 18.1131C37.2713 18.0554 37.4272 17.9711 37.5508 17.8664C37.8772 17.5822 37.7946 17.438 37.6633 17.2923C37.5444 17.1676 37.3819 17.0657 37.191 16.9959C37 16.9262 36.7867 16.8909 36.5709 16.8933H31.16C30.6401 16.8939 30.1281 16.8051 29.6699 16.6349C29.2117 16.4647 28.8217 16.2185 28.5348 15.9183L23.8615 11.0419C23.4694 10.6267 22.9436 10.2801 22.3253 10.0294C21.5072 9.70388 20.7057 9.61686 19.8772 9.76254C19.3399 9.86053 18.8453 10.0481 18.4369 10.3089C18.0284 10.5697 17.7184 10.8958 17.534 11.2587L12.0551 21.7308C11.9773 21.8794 11.8353 22.0078 11.6484 22.0985C11.4616 22.1893 11.2388 22.238 11.0105 22.238Z"></path>
  <path d="M24.9353 39.7678C24.5015 39.7672 24.0709 39.7169 23.6609 39.6188C21.5906 39.1264 20.4217 38.2221 20.4551 37.1385L20.4967 35.8322V32.2745C20.4961 31.7969 20.2499 31.3351 19.8022 30.9716L9.46185 22.5452C9.36732 22.4682 9.29562 22.3791 9.25085 22.2829C9.20607 22.1867 9.1891 22.0854 9.2009 21.9847C9.21271 21.884 9.25305 21.7858 9.31963 21.6959C9.38621 21.606 9.47772 21.526 9.58894 21.4606C9.70016 21.3951 9.82892 21.3455 9.96785 21.3145C10.1068 21.2835 10.2532 21.2718 10.3987 21.2799C10.5441 21.2881 10.6859 21.316 10.8158 21.3621C10.9457 21.4082 11.0612 21.4716 11.1557 21.5486L21.4989 29.975C22.2863 30.617 22.7188 31.4318 22.7191 32.274V35.8577L22.6768 37.1716C22.6601 37.7115 23.979 38.0678 24.3832 38.1639C24.7453 38.2557 25.1437 38.2512 25.5013 38.1514C26.4375 37.8755 26.5687 37.0216 26.5812 36.9173V29.375C26.582 28.8716 26.3093 28.3865 25.8173 28.0159L20.6252 24.0913C19.8606 23.5149 19.3346 22.8065 19.1024 22.0405C18.8702 21.2746 18.9404 20.4796 19.3057 19.7389L21.3378 15.6221C21.4331 15.4291 21.6353 15.2701 21.8999 15.1803C22.1645 15.0905 22.4698 15.077 22.7487 15.143C23.0275 15.209 23.2571 15.349 23.3869 15.5322C23.5167 15.7153 23.536 15.9267 23.4407 16.1197L21.4086 20.2365C21.1718 20.7155 21.1259 21.2297 21.2758 21.7252C21.4256 22.2206 21.7656 22.679 22.2601 23.0519L27.4528 26.9745C28.3227 27.6288 28.8049 28.4858 28.8036 29.375V36.9755C28.7585 37.6851 28.1953 39.0298 26.3729 39.5668C25.9183 39.7005 25.4292 39.7689 24.9353 39.7678Z"></path>
  <path d="M9.40698 23.0923C9.15545 23.0924 8.90569 23.0633 8.66803 23.0063C8.42843 22.9486 8.19021 22.8899 7.95131 22.8313C7.45613 22.7091 6.94428 22.5837 6.44355 22.4707L3.27038 21.7567C3.09187 21.7157 2.91007 21.6818 2.7259 21.6553C1.49455 21.4793 0.66393 21.1327 0.259037 20.6255C0.112647 20.4402 0.0259811 20.2351 0.00500066 20.0244C-0.0159798 19.8136 0.0292228 19.6023 0.1375 19.4048L0.145833 19.3894C0.181253 19.324 0.215284 19.2625 0.241675 19.2048L5.60876 7.92356C5.75808 7.60914 5.87823 7.28606 6.00532 6.94375L6.04004 6.85144C6.18061 6.47921 6.49634 6.15002 6.93734 5.91587C7.28553 5.73099 7.6905 5.60405 8.12091 5.54486C8.55133 5.48566 8.99564 5.49581 9.41948 5.57452L14.7109 6.54231C16.0999 6.74279 17.0992 7.19856 17.6826 7.8976C18.6119 9.01106 18.0514 10.2635 17.984 10.4024L15.8755 9.91587V9.92115C15.9679 9.71875 16.1269 9.09856 15.7554 8.66106C15.4977 8.35817 14.9866 8.15096 14.2365 8.04519C14.2157 8.04231 14.1948 8.03894 14.1747 8.0351L8.85415 7.06202C8.76182 7.0432 8.66446 7.0394 8.56965 7.0509C8.47484 7.06241 8.38516 7.08892 8.30758 7.12837C8.252 7.15329 8.2115 7.19142 8.19369 7.23558L8.15966 7.32741C8.02909 7.67885 7.89436 8.04183 7.72143 8.40433L2.35017 19.6861C2.31406 19.763 2.27586 19.8341 2.23905 19.9034C2.32239 19.9514 2.56755 20.0615 3.17524 20.1486C3.43956 20.1866 3.70063 20.2347 3.95724 20.2928L7.13041 21.0096C7.66031 21.1288 8.18674 21.2582 8.69581 21.3832C8.93009 21.4409 9.16459 21.4982 9.39933 21.5553C9.44656 21.5553 9.70839 21.4688 10.064 21.0678C10.1672 20.9516 10.3131 20.8565 10.4869 20.7922C10.6607 20.7279 10.856 20.6967 11.0529 20.7019C11.1224 20.7019 17.9979 20.8298 20.4189 17.5139C20.4847 17.4238 20.5755 17.3434 20.6861 17.2775C20.7967 17.2116 20.925 17.1614 21.0636 17.1298C21.2022 17.0983 21.3485 17.0859 21.494 17.0934C21.6395 17.101 21.7815 17.1283 21.9118 17.1738C22.0421 17.2193 22.1581 17.2822 22.2533 17.3587C22.3485 17.4353 22.421 17.5241 22.4666 17.6201C22.5123 17.716 22.5301 17.8173 22.5192 17.918C22.5083 18.0188 22.4689 18.117 22.4031 18.2072C21.1204 19.9649 18.7223 21.2202 15.4581 21.8365C14.1973 22.0715 12.9017 22.2054 11.5967 22.2356C10.8168 22.9231 10.0112 23.0923 9.40698 23.0923ZM25.7534 8.01442C24.6086 8.01404 23.4897 7.7787 22.5381 7.33815C21.5866 6.8976 20.8451 6.27163 20.4074 5.53937C19.9697 4.80712 19.8554 4.00146 20.0791 3.22427C20.3028 2.44707 20.8543 1.73323 21.664 1.17301C22.4736 0.612781 23.5051 0.231322 24.6279 0.0768587C25.7507 -0.0776046 26.9145 0.00186361 27.972 0.305216C29.0296 0.608569 29.9335 1.12218 30.5694 1.78113C31.2054 2.44007 31.5448 3.21474 31.5448 4.00721C31.5428 5.0699 30.9319 6.08862 29.8461 6.83987C28.7604 7.59112 27.2885 8.01353 25.7534 8.01442ZM25.7534 1.53846C25.0482 1.53884 24.3589 1.68396 23.7728 1.95546C23.1867 2.22696 22.7301 2.61266 22.4606 3.0638C22.1911 3.51493 22.1209 4.01126 22.2588 4.49002C22.3967 4.96878 22.7366 5.40849 23.2354 5.75356C23.7343 6.09863 24.3697 6.33357 25.0615 6.42867C25.7532 6.52377 26.4701 6.47477 27.1216 6.28786C27.773 6.10095 28.3299 5.78452 28.7216 5.37858C29.1133 4.97264 29.3224 4.4954 29.3224 4.00721C29.3211 3.3524 28.9446 2.72469 28.2755 2.26185C27.6064 1.799 26.6993 1.53884 25.7534 1.53846ZM36.5174 40C36.2227 40 35.9401 39.919 35.7317 39.7747C35.5233 39.6304 35.4062 39.4348 35.4062 39.2308V18.9707C35.4062 18.7667 35.5233 18.571 35.7317 18.4267C35.9401 18.2825 36.2227 18.2014 36.5174 18.2014C36.8121 18.2014 37.0948 18.2825 37.3032 18.4267C37.5116 18.571 37.6286 18.7667 37.6286 18.9707V39.2308C37.6286 39.4348 37.5116 39.6304 37.3032 39.7747C37.0948 39.919 36.8121 40 36.5174 40ZM36.5174 16.8952C36.2227 16.8952 35.9401 16.8142 35.7317 16.6699C35.5233 16.5256 35.4062 16.33 35.4062 16.126V11.9168C35.4062 11.7128 35.5233 11.5172 35.7317 11.3729C35.9401 11.2286 36.2227 11.1476 36.5174 11.1476C36.8121 11.1476 37.0948 11.2286 37.3032 11.3729C37.5116 11.5172 37.6286 11.7128 37.6286 11.9168V16.126C37.6286 16.33 37.5116 16.5256 37.3032 16.6699C37.0948 16.8142 36.8121 16.8952 36.5174 16.8952Z"></path>
  <path d="M15.7901 13.1033C15.6863 13.1033 15.583 13.0932 15.4832 13.0735L5.33097 11.0577C5.18999 11.0302 5.05824 10.9838 4.94327 10.921C4.8283 10.8583 4.73239 10.7804 4.66105 10.6918C4.58971 10.6033 4.54435 10.5059 4.52758 10.4052C4.5108 10.3045 4.52295 10.2025 4.56331 10.1051C4.60367 10.0076 4.67145 9.91666 4.76276 9.83742C4.85407 9.75817 4.9671 9.6922 5.09536 9.64329C5.22363 9.59439 5.36459 9.56352 5.51014 9.55245C5.6557 9.54138 5.80298 9.55034 5.94352 9.57881L16.0957 11.5947C16.3532 11.6458 16.5753 11.7596 16.7212 11.9151C16.8671 12.0705 16.927 12.2573 16.8898 12.4409C16.8526 12.6245 16.7209 12.7927 16.5188 12.9144C16.3167 13.0361 16.058 13.1032 15.7901 13.1033Z"></path>
</svg>
