<svg xmlns="http://www.w3.org/2000/svg" width="26" height="26" viewBox="0 0 26 26"><path d="M25.2488 20.0406C25.7194 20.6328 26 21.3827 26 22.1991C26 24.1183 24.4482 25.67 22.5291 25.67C21.2263 25.67 20.0932 24.955 19.4997 23.8953C19.4876 23.8446 19.4629 23.799 19.4287 23.7617C19.1912 23.2923 19.0582 22.7616 19.0582 22.1991C19.0582 20.28 20.6227 18.7282 22.5291 18.7282C23.6071 18.7282 24.5698 19.2178 25.2064 19.988C25.2178 20.007 25.2324 20.0248 25.2488 20.0406ZM24.6256 21.1034C24.7459 20.9831 24.7459 20.7867 24.6256 20.6664C24.5052 20.546 24.3089 20.546 24.1886 20.6664L21.7944 23.0605L20.8697 22.1421C20.7493 22.0218 20.553 22.0218 20.4326 22.1421C20.3123 22.2625 20.3123 22.4588 20.4326 22.5792L21.5791 23.7192C21.6361 23.7762 21.7184 23.8079 21.7944 23.8079C21.8767 23.8079 21.9527 23.7762 22.0224 23.7192L24.6256 21.1034ZM25.1576 3.4576V6.16211H0V3.44494C0 3.15359 0.234348 2.9129 0.532034 2.9129H3.46456V3.71095C3.46456 4.34433 3.97759 4.85736 4.61096 4.85736C5.238 4.85736 5.75103 4.33799 5.75737 3.69829V2.92557H8.77223V3.71095C8.77223 4.34433 9.28526 4.85736 9.91864 4.85736C10.552 4.85736 11.065 4.33799 11.065 3.69829V2.92557H14.0862V3.71095C14.0862 4.34433 14.5993 4.85736 15.2326 4.85736C15.8597 4.85736 16.3727 4.33799 16.379 3.69829V2.92557H19.3939V3.71095C19.3939 4.34433 19.9069 4.85736 20.5403 4.85736C21.1674 4.85736 21.6804 4.33799 21.6867 3.69829V2.92557H24.6256C24.9169 2.92557 25.1576 3.15992 25.1576 3.4576ZM19.7549 14.1806H21.8514V16.2771H19.7549V14.1806ZM19.7549 9.04396H21.8514V11.1404H19.7549V9.04396Z"></path><path d="M21.0669 2.62144V3.69817C21.0669 3.98952 20.8326 4.23021 20.5412 4.23021C20.2499 4.23021 20.0155 3.99586 20.0155 3.70451V1.5257C20.0155 1.23435 20.2499 1 20.5412 1C20.8262 1 21.0606 1.23435 21.0669 1.53203V2.62144ZM14.2708 19.3045H16.3673V21.401H14.2708V19.3045ZM14.2708 14.1805H16.3673V16.277H14.2708V14.1805ZM14.2708 9.04385H16.3673V11.1403H14.2708V9.04385ZM15.7592 2.62144V3.69184C15.7592 3.98952 15.5249 4.23021 15.2335 4.23021C14.9422 4.23021 14.7078 3.99586 14.7078 3.70451V1.5257C14.7078 1.23435 14.9422 1 15.2335 1C15.5186 1 15.7592 1.23435 15.7592 1.53203V2.62144ZM8.77947 19.3045H10.8759V21.401H8.77947V19.3045ZM8.77947 14.1805H10.8759V16.277H8.77947V14.1805ZM8.77947 9.04385H10.8759V11.1403H8.77947V9.04385ZM10.4452 2.62144V3.69817C10.4452 3.98952 10.2109 4.23021 9.91954 4.23021C9.62819 4.23021 9.39384 3.99586 9.39384 3.70451V1.5257C9.39384 1.23435 9.62819 1 9.91954 1C10.2109 1 10.4452 1.23435 10.4452 1.53203V2.62144ZM3.30078 19.3045H5.39725V21.401H3.30078V19.3045ZM3.30078 14.1805H5.39725V16.277H3.30078V14.1805ZM3.30078 9.04385H5.39725V11.1403H3.30078V9.04385ZM5.13757 2.62144V3.69184C5.13757 3.98952 4.90322 4.23021 4.61187 4.23021C4.32051 4.23021 4.08617 3.99586 4.08617 3.70451V1.5257C4.08617 1.23435 4.32051 1 4.61187 1C4.90322 1 5.1439 1.23435 5.13757 1.5257V2.62144Z"></path><path d="M25.1576 6.77011V19.0664C24.447 18.4679 23.5298 18.1075 22.5291 18.1075C20.2743 18.1075 18.4438 19.938 18.4438 22.1928C18.4438 22.7109 18.5401 23.2062 18.7168 23.6622H0.532034C0.240682 23.6622 0 23.4278 0 23.1302V6.77011H25.1576ZM22.1554 11.7611C22.3328 11.7611 22.4721 11.6218 22.4594 11.4571V8.7399C22.4594 8.57523 22.3264 8.43588 22.1554 8.43588H19.4382C19.2736 8.43588 19.1342 8.56889 19.1342 8.7399V11.4571C19.1342 11.6218 19.2672 11.7611 19.4382 11.7611H22.1554ZM22.1554 16.8914C22.3328 16.8914 22.4721 16.7584 22.4594 16.5874V13.8702C22.4594 13.7056 22.3264 13.5662 22.1554 13.5662H19.4382C19.2736 13.5662 19.1342 13.6992 19.1342 13.8702V16.5874C19.1342 16.7521 19.2672 16.8914 19.4382 16.8914H22.1554ZM16.6767 22.0218C16.8477 22.0218 16.9871 21.8824 16.9808 21.7177V19.0006C16.9808 18.8359 16.8477 18.6965 16.6767 18.6965H13.9596C13.7949 18.6965 13.6555 18.8295 13.6555 19.0006V21.7177C13.6555 21.8824 13.7886 22.0218 13.9596 22.0218H16.6767ZM16.6767 16.8914C16.8477 16.8914 16.9871 16.7584 16.9808 16.5874V13.8702C16.9808 13.7056 16.8477 13.5662 16.6767 13.5662H13.9596C13.7949 13.5662 13.6555 13.6992 13.6555 13.8702V16.5874C13.6555 16.7521 13.7886 16.8914 13.9596 16.8914H16.6767ZM16.6767 11.7611C16.8477 11.7611 16.9871 11.6218 16.9808 11.4571V8.7399C16.9808 8.57523 16.8477 8.43588 16.6767 8.43588H13.9596C13.7949 8.43588 13.6555 8.56889 13.6555 8.7399V11.4571C13.6555 11.6218 13.7886 11.7611 13.9596 11.7611H16.6767ZM11.4957 21.7177V19.0006C11.4957 18.8359 11.3627 18.6965 11.1917 18.6965H8.47454C8.30987 18.6965 8.17052 18.8295 8.17052 19.0006V21.7177C8.17052 21.8824 8.30353 22.0218 8.47454 22.0218H11.1917C11.3564 22.0218 11.4957 21.8824 11.4957 21.7177ZM11.4957 16.5874V13.8702C11.4957 13.7056 11.3627 13.5662 11.1917 13.5662H8.47454C8.30987 13.5662 8.17052 13.6992 8.17052 13.8702V16.5874C8.17052 16.7521 8.30353 16.8914 8.47454 16.8914H11.1917C11.3564 16.8914 11.4957 16.7584 11.4957 16.5874ZM11.4957 11.4571V8.7399C11.4957 8.57523 11.3627 8.43588 11.1917 8.43588H8.47454C8.30987 8.43588 8.17052 8.56889 8.17052 8.7399V11.4571C8.17052 11.6218 8.30353 11.7611 8.47454 11.7611H11.1917C11.3564 11.7611 11.4957 11.6218 11.4957 11.4571ZM6.01705 21.7177V19.0006C6.01705 18.8359 5.88404 18.6965 5.71303 18.6965H2.99586C2.83118 18.6965 2.69184 18.8295 2.69184 19.0006V21.7177C2.69184 21.8824 2.82485 22.0218 2.99586 22.0218H5.7067C5.87771 22.0218 6.01705 21.8824 6.01705 21.7177ZM6.01705 16.5874V13.8702C6.01705 13.7056 5.88404 13.5662 5.71303 13.5662H2.99586C2.83118 13.5662 2.69184 13.6992 2.69184 13.8702V16.5874C2.69184 16.7521 2.82485 16.8914 2.99586 16.8914H5.7067C5.87771 16.8914 6.01705 16.7584 6.01705 16.5874ZM6.01705 11.4571V8.7399C6.01705 8.57523 5.88404 8.43588 5.71303 8.43588H2.99586C2.83118 8.43588 2.69184 8.56889 2.69184 8.7399V11.4571C2.69184 11.6218 2.82485 11.7611 2.99586 11.7611H5.7067C5.87771 11.7611 6.01705 11.6218 6.01705 11.4571Z"></path></svg>