<?xml version="1.0" encoding="UTF-8"?>
<svg xmlns="http://www.w3.org/2000/svg" width="51" height="51" viewBox="0 0 51 51">
  <path d="M6.48213 24.4379C6.42228 24.3482 6.32924 24.2859 6.22347 24.2648C6.11771 24.2436 6.00788 24.2654 5.91815 24.3252L5.90992 24.3308C5.33034 24.7158 4.78596 25.1513 4.28315 25.6322C4.24403 25.6695 4.21267 25.7141 4.1909 25.7635C4.16913 25.8129 4.15738 25.8662 4.15633 25.9202C4.15527 25.9742 4.16494 26.0278 4.18477 26.0781C4.2046 26.1283 4.23419 26.1741 4.27183 26.2128C4.30948 26.2516 4.35443 26.2824 4.40409 26.3037C4.45375 26.3249 4.50712 26.3361 4.56113 26.3365C4.61513 26.337 4.66869 26.3268 4.71871 26.3064C4.76873 26.286 4.81421 26.2559 4.85252 26.2179L4.87286 26.2219C5.33434 25.7714 5.83521 25.3631 6.36948 25.0019C6.4592 24.942 6.52147 24.849 6.5426 24.7432C6.56372 24.6374 6.54197 24.5276 6.48213 24.4379ZM8.42733 23.3954C8.38074 23.2986 8.29768 23.2241 8.19633 23.1882C8.09497 23.1524 7.98355 23.1582 7.88643 23.2043C7.67089 23.306 7.47974 23.4117 7.26013 23.5174C7.16521 23.5687 7.09453 23.6555 7.06364 23.7589C7.03275 23.8622 7.04418 23.9736 7.09542 24.0685C7.14665 24.1634 7.23349 24.2341 7.33684 24.265C7.44018 24.2959 7.55157 24.2845 7.64648 24.2332C7.8417 24.1315 8.05318 24.0299 8.24025 23.9363C8.33643 23.889 8.41005 23.8057 8.44508 23.7044C8.48012 23.6031 8.47374 23.4921 8.42733 23.3954Z"></path>
  <path d="M46.323 10.0112H46.1197C45.8879 8.94973 44.7573 8.14449 43.403 8.14449C42.8504 8.1386 42.306 8.2789 41.825 8.55118C41.5436 8.30718 41.2006 8.14515 40.8334 8.08275C40.4663 8.02036 40.089 8.06 39.7428 8.19736C39.4556 7.87486 39.1017 7.6187 38.7056 7.44665C38.3095 7.27459 37.8808 7.19076 37.449 7.20096C36.7782 7.19067 36.1224 7.40068 35.5823 7.7988C34.769 7.05049 33.313 6.57873 31.6781 6.57873C30.4348 6.53795 29.2062 6.85711 28.1399 7.49785C27.8166 7.30088 27.4448 7.19806 27.0662 7.20096C25.9864 7.20086 25.0848 8.02472 24.988 9.10021C24.787 9.07572 24.5846 9.0635 24.3821 9.06361C22.8204 9.06361 21.5352 9.73871 21.1286 10.6904C19.2537 10.6904 17.7937 11.699 17.7937 12.9638C17.7937 14.2286 19.2781 15.2331 21.1733 15.2331C21.8917 15.2411 22.602 15.0809 23.2474 14.7654C23.754 15.0753 24.3372 15.2373 24.9311 15.2331C25.6047 15.2261 26.2634 15.0333 26.8344 14.6759C32.2637 16.3149 34.9032 20.2151 34.9032 26.6123C34.9012 26.6394 34.9012 26.6666 34.9032 26.6936H33.7644C33.7099 26.6938 33.656 26.7048 33.6058 26.7262C33.3237 25.6861 32.8567 24.7052 32.2271 23.8305C32.0523 23.5703 31.8896 23.3222 31.7391 23.0578L31.6618 22.9196C30.5312 20.939 29.848 19.7474 27.9244 19.6254C26.9646 19.5603 25.834 20.3371 25.411 20.6543C22.5642 20.0524 18.7576 19.971 15.3861 19.971C7.0774 19.971 1.28613 24.282 1.2902 28.1455C1.37153 29.1135 1.33087 31.7732 0.196199 32.4605C0.104135 32.5162 0.0378917 32.6061 0.0119751 32.7105C-0.0139416 32.815 0.00258105 32.9254 0.0579247 33.0177C0.113614 33.1097 0.203517 33.176 0.307946 33.2019C0.412375 33.2278 0.522818 33.2113 0.615091 33.156C2.38419 32.0904 2.13611 28.4831 2.09951 28.1089C2.09951 25.0506 7.15467 20.7885 15.3861 20.7885C18.786 20.7885 22.6374 20.8698 25.4232 21.4961C25.4832 21.5096 25.5455 21.5093 25.6054 21.4952C25.6653 21.4811 25.7212 21.4536 25.7689 21.4148C26.1186 21.1301 27.1801 20.3981 27.8715 20.4387C29.36 20.5323 29.8602 21.4107 30.9542 23.3262L31.0355 23.4645C31.1982 23.7492 31.3772 24.0217 31.548 24.2779C32.3003 25.4166 33.0771 26.592 33.1747 29.6299C33.2231 31.4448 33.1797 33.261 33.0446 35.0715C31.7757 33.8839 30.9135 31.8179 30.8322 29.4307H31.308C31.3632 29.4307 31.4178 29.4196 31.4685 29.3979C31.5192 29.3762 31.565 29.3444 31.603 29.3045C31.6411 29.2645 31.6706 29.2172 31.6898 29.1655C31.709 29.1138 31.7175 29.0587 31.7147 29.0036C31.7094 28.8959 31.6616 28.7947 31.5817 28.7222C31.5018 28.6498 31.3964 28.612 31.2887 28.6173H31.2877C30.7248 28.6485 30.1637 28.5307 29.6609 28.2757C29.5652 28.2283 29.4546 28.2204 29.3531 28.2537C29.2516 28.287 29.1672 28.3589 29.1181 28.4538C29.0691 28.5487 29.0593 28.6591 29.0908 28.7612C29.1223 28.8633 29.1927 28.9489 29.2868 28.9996C29.5322 29.1234 29.7898 29.2215 30.0554 29.2924C30.0618 31.1363 30.5891 32.9408 31.5764 34.498C31.5764 36.3119 31.1494 38.5324 30.9176 38.8171C30.8385 38.89 30.7916 38.9913 30.787 39.0988C30.7824 39.2062 30.8206 39.3111 30.8932 39.3905C30.9316 39.4319 30.9782 39.4649 31.03 39.4873C31.0818 39.5097 31.1377 39.5211 31.1941 39.5207C31.2969 39.5203 31.3957 39.4811 31.4707 39.4109C31.9425 38.9757 32.2434 36.9707 32.3491 35.4619C32.5484 35.6704 32.7632 35.8634 32.9917 36.0394C32.9274 37.0022 32.7373 37.9524 32.4264 38.8659C32.0726 39.6793 31.4666 40.1836 30.9176 40.1307C30.4621 40.0941 30.1042 39.6549 29.9009 38.9106C29.8876 38.8584 29.8642 38.8093 29.8319 38.7662C29.7996 38.723 29.7591 38.6868 29.7127 38.6594C29.6663 38.632 29.6149 38.6141 29.5615 38.6067C29.5081 38.5993 29.4538 38.6025 29.4017 38.6162C29.3496 38.6299 29.3007 38.6538 29.2579 38.6865C29.2151 38.7192 29.1792 38.7601 29.1522 38.8067C29.1253 38.8534 29.1078 38.9049 29.1009 38.9583C29.094 39.0118 29.0977 39.0661 29.1119 39.118C29.4006 40.2039 30.0351 40.8627 30.8525 40.9278H30.9827C31.8449 40.9278 32.6908 40.2527 33.1707 39.175C33.4823 38.3095 33.6805 37.4072 33.7604 36.4908C34.3166 36.7728 34.9303 36.9231 35.5539 36.93C35.6617 36.93 35.7652 36.8872 35.8414 36.8109C35.9177 36.7347 35.9606 36.6312 35.9606 36.5234C35.9606 36.4155 35.9177 36.312 35.8414 36.2358C35.7652 36.1595 35.6617 36.1167 35.5539 36.1167C34.9397 36.1308 34.3333 35.9761 33.801 35.6693C33.9744 33.6571 34.0328 31.6366 33.9759 29.6177C33.9589 28.9142 33.8909 28.2129 33.7726 27.5192H45.8147C45.9225 27.5192 46.026 27.4764 46.1022 27.4001C46.1785 27.3238 46.2214 27.2204 46.2214 27.1125C46.2214 27.0047 46.1785 26.9012 46.1022 26.825C46.026 26.7487 45.9225 26.7058 45.8147 26.7058H38.7789C38.7828 26.6789 38.7828 26.6515 38.7789 26.6245C38.7789 21.6507 41.2638 16.8192 44.8183 14.8833C45.2941 14.9281 45.7903 14.9525 46.3027 14.9525C50.1825 14.9525 51 13.6145 51 12.492C51 11.3695 50.2029 10.0112 46.323 10.0112ZM46.323 14.1147V14.1228C44.1432 14.1228 42.1097 13.6633 41.2557 12.9841C41.1719 12.9171 41.0651 12.886 40.9584 12.8974C40.8518 12.9088 40.754 12.9619 40.6863 13.0451C40.2796 13.5535 39.2832 13.891 38.2218 13.891C36.8959 13.891 35.9606 13.3989 35.6759 12.9353C35.6263 12.8554 35.5507 12.7951 35.4617 12.7647C35.3727 12.7343 35.2759 12.7356 35.1878 12.7686C32.5444 13.7487 29.1363 13.102 29.0875 13.0939C28.9858 13.07 28.8788 13.0861 28.7887 13.1389C28.6985 13.1918 28.6322 13.2773 28.6034 13.3777C28.5747 13.4781 28.5857 13.5858 28.6341 13.6783C28.6826 13.7709 28.7649 13.8412 28.8638 13.8748C32.4834 15.2819 35.5051 18.3484 36.5625 21.7198C36.5856 21.7953 36.6303 21.8624 36.6909 21.913C36.7516 21.9635 36.8256 21.9953 36.9041 22.0045H36.9488C37.0205 22.0048 37.091 21.9862 37.1531 21.9504C37.2152 21.9147 37.2668 21.8632 37.3026 21.8012C38.0577 20.5147 38.903 19.2834 39.8322 18.1165C39.9109 18.0605 39.9672 17.9784 39.9909 17.8847C40.1318 17.3196 40.1344 16.7288 39.9984 16.1624C39.8625 15.5961 39.5921 15.0708 39.21 14.6312C39.8764 14.5347 40.5059 14.2655 41.0361 13.8504C41.822 14.2876 42.6803 14.5796 43.5697 14.7125C40.2308 17.0469 37.9655 21.7768 37.9655 26.6286C37.9618 26.6556 37.9618 26.6829 37.9655 26.7099H35.7003C35.7022 26.6828 35.7022 26.6556 35.7003 26.6286C35.7003 19.9914 33.008 15.8919 27.4933 14.0944C27.603 13.9479 27.6792 13.779 27.7164 13.5998C27.7537 13.4206 27.7511 13.2354 27.7088 13.0573C27.6961 13.0051 27.6732 12.9559 27.6414 12.9126C27.6096 12.8693 27.5695 12.8328 27.5235 12.805C27.4774 12.7773 27.4264 12.7589 27.3732 12.751C27.3201 12.7432 27.2659 12.7459 27.2138 12.759C27.1617 12.7722 27.1127 12.7955 27.0697 12.8277C27.0267 12.8599 26.9905 12.9003 26.9631 12.9465C26.9358 12.9928 26.9179 13.044 26.9105 13.0972C26.903 13.1504 26.9062 13.2046 26.9198 13.2566C26.9345 13.3333 26.9308 13.4124 26.9088 13.4874C26.8869 13.5623 26.8475 13.631 26.7938 13.6877C26.5486 13.9368 26.2561 14.1342 25.9334 14.2683C25.6106 14.4025 25.2643 14.4705 24.9148 14.4685C24.4081 14.4781 23.9127 14.3177 23.5077 14.013C23.4462 13.9647 23.372 13.9352 23.2941 13.928C23.2162 13.9207 23.1378 13.9362 23.0685 13.9724C22.4964 14.3012 21.8452 14.4671 21.1855 14.4523C19.7946 14.4523 18.6193 13.7853 18.6193 12.9963C18.6193 12.2073 19.7946 11.5363 21.1855 11.5363H21.4173C21.5136 11.5379 21.6073 11.5052 21.6818 11.4441C21.7563 11.3831 21.8067 11.2975 21.824 11.2028C21.9379 10.5562 22.9261 9.88512 24.378 9.88512C24.6957 9.885 25.0124 9.92185 25.3215 9.99493C25.3874 10.0104 25.4562 10.0093 25.5215 9.99152C25.5868 9.97377 25.6467 9.93999 25.6957 9.89326C25.7447 9.84631 25.7811 9.78785 25.8017 9.72321C25.8223 9.65857 25.8264 9.5898 25.8136 9.52317C25.7996 9.4467 25.7928 9.36909 25.7933 9.29135C25.7888 8.59063 26.3532 8.01882 27.054 8.01435H27.0662C27.3656 8.01279 27.6551 8.12134 27.8796 8.31936C27.9533 8.38237 28.047 8.417 28.144 8.417C28.2409 8.417 28.3347 8.38237 28.4083 8.31936C29.0875 7.75 30.3401 7.39618 31.6618 7.39618C33.2317 7.39618 34.6876 7.89234 35.2082 8.61625C35.2435 8.66486 35.2892 8.70502 35.342 8.73385C35.3947 8.76268 35.4532 8.77947 35.5132 8.78299C35.573 8.78632 35.6329 8.77637 35.6884 8.75388C35.7439 8.73138 35.7938 8.69688 35.8345 8.65285C36.0457 8.44169 36.2979 8.27608 36.5756 8.16626C36.8533 8.05643 37.1506 8.00473 37.449 8.01435C37.7998 7.99588 38.1494 8.06859 38.4637 8.22539C38.778 8.38219 39.0463 8.61773 39.2425 8.90907C39.2701 8.95658 39.3071 8.99801 39.3511 9.03087C39.3951 9.06372 39.4454 9.08731 39.4988 9.10021C39.5531 9.114 39.6096 9.11643 39.6649 9.10733C39.7202 9.09823 39.773 9.07781 39.82 9.04734C40.0761 8.88093 40.3853 8.8166 40.6865 8.86704C40.9876 8.91749 41.259 9.07906 41.4468 9.31982C41.5127 9.40486 41.6097 9.46031 41.7164 9.47403C41.8231 9.48775 41.9309 9.45862 42.0162 9.39303C42.4181 9.09518 42.9069 8.93797 43.4071 8.94567C44.4807 8.94567 45.3551 9.60044 45.3551 10.3732V10.4138C45.3548 10.4683 45.3654 10.5223 45.3864 10.5726C45.4074 10.6229 45.4382 10.6685 45.4771 10.7066C45.5164 10.7446 45.563 10.7742 45.614 10.7938C45.665 10.8133 45.7194 10.8224 45.774 10.8205H46.3271C47.7749 10.8205 50.211 11.0361 50.211 12.4717C50.211 13.9073 47.7708 14.1147 46.323 14.1147ZM39.2344 17.5797C38.4504 18.5617 37.7239 19.5883 37.0586 20.6543C35.866 17.9094 33.8267 15.6179 31.2389 14.1147C32.5734 14.172 33.9082 14.0057 35.1878 13.6226C35.8932 14.2849 36.8193 14.6617 37.7866 14.68C39.1165 15.0216 39.4296 16.5548 39.2344 17.5797Z"></path>
  <path d="M10.9853 41.4933V37.6298C11.0404 37.331 11.1705 37.0511 11.3635 36.8164C11.4893 36.6355 11.6008 36.4452 11.697 36.247C11.7419 36.149 11.7461 36.0371 11.7086 35.9359C11.6711 35.8348 11.5949 35.7527 11.4969 35.7077C11.3988 35.6628 11.2869 35.6586 11.1858 35.6961C11.0847 35.7336 11.0026 35.8098 10.9576 35.9078L10.9568 35.9095C10.8788 36.0686 10.7876 36.221 10.6843 36.365C10.3958 36.7241 10.2178 37.1592 10.1719 37.6176V41.9C10.1719 42.0079 10.2147 42.1113 10.291 42.1876C10.3673 42.2639 10.4707 42.3067 10.5786 42.3067H10.8673C11.0079 42.309 11.1455 42.3476 11.2666 42.4189C11.3878 42.4902 11.4884 42.5916 11.5587 42.7134H10.5786C10.4707 42.7134 10.3673 42.7562 10.291 42.8325C10.2147 42.9088 10.1719 43.0122 10.1719 43.1201C10.1719 43.2279 10.2147 43.3314 10.291 43.4077C10.3673 43.4839 10.4707 43.5268 10.5786 43.5268H12.0589C12.1668 43.5268 12.2702 43.4839 12.3465 43.4077C12.4228 43.3314 12.4656 43.2279 12.4656 43.1201C12.4691 42.2759 11.8261 41.5693 10.9853 41.4933ZM26.1304 40.7653L25.7237 36.2917C25.7134 36.1852 25.6615 36.087 25.5793 36.0185C25.4971 35.95 25.3911 35.9167 25.2845 35.9257C25.1772 35.935 25.078 35.9865 25.0087 36.0688C24.9393 36.1512 24.9054 36.2577 24.9144 36.365L25.3211 41.1842C25.3303 41.2856 25.3771 41.3799 25.4524 41.4484C25.5277 41.5169 25.626 41.5547 25.7278 41.5543H26.0125C26.1682 41.5537 26.3211 41.5958 26.4545 41.6761C26.5879 41.7565 26.6966 41.8719 26.7689 42.0098H25.7603C25.7052 42.0097 25.6506 42.0209 25.5998 42.0426C25.5491 42.0643 25.5034 42.0961 25.4653 42.136C25.4273 42.176 25.3977 42.2232 25.3785 42.275C25.3593 42.3267 25.3509 42.3817 25.3536 42.4368C25.3536 42.5447 25.3965 42.6481 25.4727 42.7244C25.549 42.8007 25.6525 42.8435 25.7603 42.8435H27.3139C27.4217 42.8435 27.5252 42.8007 27.6014 42.7244C27.6777 42.6481 27.7206 42.5447 27.7206 42.4368C27.7175 41.5462 27.0198 40.8128 26.1304 40.7653ZM30.3478 24.6889C30.3272 24.6396 30.2983 24.5942 30.2624 24.5547C30.2052 24.4982 30.1326 24.46 30.0537 24.4448C29.9748 24.4296 29.8932 24.4381 29.8191 24.4693C29.7688 24.4879 29.723 24.517 29.6849 24.5547C29.649 24.5942 29.6201 24.6396 29.5995 24.6889C29.5767 24.7371 29.5655 24.7901 29.5669 24.8434C29.5666 24.8969 29.5769 24.95 29.5971 24.9995C29.6174 25.0491 29.6472 25.0942 29.6849 25.1322C29.7248 25.1626 29.7705 25.1846 29.8191 25.1972C29.8909 25.2241 29.9689 25.2301 30.0439 25.2146C30.119 25.1991 30.1882 25.1626 30.2435 25.1095C30.2987 25.0563 30.3379 24.9886 30.3563 24.9142C30.3748 24.8398 30.3718 24.7617 30.3478 24.6889ZM29.3443 30.2625L29.3393 30.2605C29.2986 30.2605 28.3388 29.8782 27.2367 29.5488C27.2185 28.954 27.1394 28.3625 27.0008 27.7838C26.9766 27.6759 26.9104 27.5821 26.817 27.523C26.7236 27.4639 26.6105 27.4443 26.5026 27.4686C26.3948 27.4929 26.301 27.559 26.2419 27.6524C26.1828 27.7458 26.1632 27.8589 26.1874 27.9668C26.6348 29.8782 26.3501 31.5131 25.5164 31.8588C25.0202 32.0622 24.3248 31.8181 23.609 31.1878C22.7018 30.3281 21.9962 29.278 21.543 28.1132C20.4938 25.5795 20.7012 23.5054 21.4292 22.8262C21.5474 22.7317 21.697 22.6852 21.8481 22.6961L24.6949 23.1028C24.8016 23.1166 24.9095 23.0876 24.9949 23.022C25.0803 22.9565 25.1362 22.8597 25.1504 22.753C25.1655 22.6462 25.1375 22.5378 25.0727 22.4517C25.0079 22.3655 24.9115 22.3086 24.8047 22.2935L21.9253 21.8868H21.8684C21.5156 21.883 21.1744 22.0122 20.9127 22.2487C19.7821 23.2817 19.7455 25.8235 20.8273 28.4345C21.3272 29.7132 22.1051 30.8648 23.1047 31.806C23.6571 32.3599 24.3905 32.6963 25.1707 32.7535C25.4064 32.7546 25.64 32.709 25.858 32.6193C26.6145 32.3062 27.0781 31.505 27.2082 30.3988C28.2006 30.7038 29.0505 31.0251 29.0587 31.0292C29.105 31.0484 29.1549 31.058 29.2051 31.0576C29.2866 31.0551 29.3654 31.0282 29.4314 30.9804C29.4974 30.9325 29.5475 30.8659 29.5752 30.7892C29.6144 30.6888 29.6121 30.5768 29.5688 30.478C29.5255 30.3793 29.4447 30.3017 29.3443 30.2625Z"></path>
  <path d="M23.0569 27.2793C22.516 26.0999 22.5323 25.0343 22.8535 24.7171C22.892 24.6801 22.9228 24.6358 22.9441 24.5868C22.9654 24.5379 22.9769 24.4852 22.9779 24.4318C22.9789 24.3784 22.9693 24.3253 22.9498 24.2756C22.9302 24.2259 22.9011 24.1805 22.864 24.1421L22.8576 24.1356C22.7814 24.0598 22.6783 24.0173 22.5709 24.0173C22.4635 24.0173 22.3604 24.0598 22.2842 24.1356C21.6497 24.7578 21.6619 26.1894 22.3167 27.6168C22.3488 27.6882 22.4008 27.7488 22.4664 27.7913C22.532 27.8339 22.6086 27.8566 22.6868 27.8568C22.7449 27.8573 22.8022 27.8433 22.8535 27.8161C22.9516 27.7717 23.028 27.6903 23.0661 27.5897C23.1042 27.4891 23.1009 27.3775 23.0569 27.2793ZM9.08301 6.33065C7.00309 6.33065 5.31706 8.01669 5.31706 10.0966C5.31706 12.1765 7.00309 13.8626 9.08301 13.8626C11.162 13.8603 12.8467 12.1755 12.849 10.0966C12.849 8.01679 11.1629 6.33065 9.08301 6.33065ZM9.08301 13.0492C7.45238 13.0492 6.13044 11.7272 6.13044 10.0966C6.13044 8.46598 7.45238 7.14403 9.08301 7.14403C10.7136 7.14403 12.0356 8.46598 12.0356 10.0966C12.0356 11.7273 10.7137 13.0492 9.08301 13.0492ZM5.69762 6.13371L5.69528 6.13137L4.8819 5.31799C4.80535 5.24383 4.70277 5.20266 4.5962 5.20331C4.48962 5.20397 4.38756 5.2464 4.31193 5.3215C4.2363 5.39659 4.19315 5.49836 4.19174 5.60492C4.19033 5.71149 4.23078 5.81436 4.3044 5.89143L5.11778 6.70887C5.15539 6.7468 5.2001 6.77694 5.24936 6.79758C5.29862 6.81822 5.35146 6.82895 5.40487 6.82917C5.45828 6.82939 5.51121 6.81908 5.56064 6.79884C5.61006 6.7786 5.65502 6.74883 5.69294 6.71121L5.69528 6.70887C5.7332 6.67126 5.76334 6.62655 5.78398 6.57729C5.80462 6.52803 5.81536 6.47519 5.81557 6.42178C5.81579 6.36837 5.80548 6.31544 5.78525 6.26601C5.76501 6.21659 5.73523 6.17163 5.69762 6.13371ZM13.8884 14.3041L13.886 14.3018L13.0726 13.4884C13.0347 13.4505 12.9897 13.4204 12.9402 13.3999C12.8906 13.3794 12.8375 13.3688 12.7839 13.3688C12.7303 13.3688 12.6772 13.3794 12.6276 13.3999C12.5781 13.4204 12.5331 13.4505 12.4951 13.4884C12.4572 13.5263 12.4271 13.5713 12.4066 13.6209C12.3861 13.6704 12.3755 13.7235 12.3755 13.7772C12.3755 13.8308 12.3861 13.8839 12.4066 13.9334C12.4271 13.983 12.4572 14.028 12.4951 14.0659L13.3085 14.8793C13.3461 14.9172 13.3908 14.9473 13.4401 14.968C13.4894 14.9886 13.5422 14.9994 13.5956 14.9996C13.649 14.9998 13.702 14.9895 13.7514 14.9693C13.8008 14.949 13.8458 14.9192 13.8837 14.8816L13.886 14.8793C13.9239 14.8417 13.9541 14.797 13.9747 14.7477C13.9954 14.6984 14.0061 14.6456 14.0063 14.5922C14.0065 14.5388 13.9962 14.4859 13.976 14.4364C13.9558 14.387 13.926 14.342 13.8884 14.3041ZM5.69121 13.4884C5.61462 13.4118 5.51076 13.3688 5.40246 13.3688C5.29416 13.3688 5.1903 13.4118 5.11371 13.4884L4.30033 14.3018C4.26241 14.3394 4.23227 14.3841 4.21163 14.4334C4.19099 14.4826 4.18025 14.5355 4.18004 14.5889C4.17982 14.6423 4.19012 14.6952 4.21036 14.7446C4.2306 14.7941 4.26038 14.839 4.29799 14.8769L4.30033 14.8793C4.33833 14.917 4.3834 14.9468 4.43295 14.967C4.4825 14.9873 4.53556 14.9975 4.58908 14.9972C4.6426 14.9975 4.69566 14.9873 4.74521 14.967C4.79476 14.9468 4.83983 14.917 4.87783 14.8793L5.69121 14.0659C5.72915 14.028 5.75924 13.983 5.77977 13.9334C5.80031 13.8839 5.81087 13.8308 5.81087 13.7772C5.81087 13.7235 5.80031 13.6704 5.77977 13.6209C5.75924 13.5713 5.72915 13.5263 5.69121 13.4884ZM13.7686 5.32796C13.7019 5.28003 13.6222 5.25343 13.5401 5.25165C13.458 5.24987 13.3772 5.273 13.3085 5.31799L12.4951 6.13137C12.4572 6.16899 12.4271 6.2137 12.4064 6.26296C12.3858 6.31222 12.3751 6.36506 12.3748 6.41847C12.3746 6.47188 12.3849 6.52481 12.4052 6.57424C12.4254 6.62366 12.4552 6.66862 12.4928 6.70654L12.4951 6.70887C12.5331 6.74657 12.5782 6.77639 12.6278 6.79663C12.6773 6.81687 12.7304 6.82712 12.7839 6.82681C12.8835 6.82122 12.9776 6.77925 13.0482 6.70887L13.8616 5.89549C13.9245 5.80789 13.9501 5.69889 13.9326 5.59246C13.9152 5.48603 13.8562 5.39088 13.7686 5.32796ZM3.89364 9.68992H2.73457C2.62671 9.68992 2.52327 9.73276 2.447 9.80903C2.37073 9.8853 2.32788 9.98875 2.32788 10.0966C2.32788 10.2045 2.37073 10.3079 2.447 10.3842C2.52327 10.4605 2.62671 10.5033 2.73457 10.5033H3.89364C4.0015 10.5033 4.10494 10.4605 4.18121 10.3842C4.25748 10.3079 4.30033 10.2045 4.30033 10.0966C4.30033 9.98875 4.25748 9.8853 4.18121 9.80903C4.10494 9.73276 4.0015 9.68992 3.89364 9.68992ZM15.4396 9.68992H14.2846C14.1767 9.68992 14.0733 9.73276 13.997 9.80903C13.9207 9.8853 13.8779 9.98875 13.8779 10.0966C13.8779 10.2045 13.9207 10.3079 13.997 10.3842C14.0733 10.4605 14.1767 10.5033 14.2846 10.5033H15.4396C15.5474 10.5033 15.6509 10.4605 15.7272 10.3842C15.8034 10.3079 15.8463 10.2045 15.8463 10.0966C15.8463 9.98875 15.8034 9.8853 15.7272 9.80903C15.6509 9.73276 15.5474 9.68992 15.4396 9.68992ZM9.08301 3.33334C8.97515 3.33334 8.87171 3.37619 8.79544 3.45246C8.71917 3.52873 8.67632 3.63217 8.67632 3.74003V4.8991C8.67632 5.00696 8.71917 5.11041 8.79544 5.18668C8.87171 5.26294 8.97515 5.30579 9.08301 5.30579C9.19087 5.30579 9.29431 5.26294 9.37058 5.18668C9.44685 5.11041 9.4897 5.00696 9.4897 4.8991V3.74003C9.4897 3.63217 9.44685 3.52873 9.37058 3.45246C9.29431 3.37619 9.19087 3.33334 9.08301 3.33334ZM9.08301 14.8915C8.97515 14.8915 8.87171 14.9343 8.79544 15.0106C8.71917 15.0869 8.67632 15.1903 8.67632 15.2982V16.4532C8.67632 16.561 8.71917 16.6645 8.79544 16.7408C8.87171 16.817 8.97515 16.8599 9.08301 16.8599C9.19087 16.8599 9.29431 16.817 9.37058 16.7408C9.44685 16.6645 9.4897 16.561 9.4897 16.4532V15.2982C9.4897 15.1903 9.44685 15.0869 9.37058 15.0106C9.29431 14.9343 9.19087 14.8915 9.08301 14.8915ZM39.6702 29.9472H36.3394C36.2315 29.9472 36.1281 29.99 36.0518 30.0663C35.9756 30.1426 35.9327 30.246 35.9327 30.3539C35.9327 30.4617 35.9756 30.5652 36.0518 30.6414C36.1281 30.7177 36.2315 30.7606 36.3394 30.7606H39.6702C39.7781 30.7606 39.8815 30.7177 39.9578 30.6414C40.034 30.5652 40.0769 30.4617 40.0769 30.3539C40.0769 30.246 40.034 30.1426 39.9578 30.0663C39.8815 29.99 39.7781 29.9472 39.6702 29.9472ZM27.3759 44.1732H24.9765C24.8948 43.8496 24.7156 43.559 24.4631 43.3408C24.2107 43.1225 23.8972 42.9872 23.5653 42.9531C23.6019 41.8388 23.7157 38.7683 23.8784 37.6377C23.9475 37.1497 24.094 36.4502 24.2607 35.6408C24.3949 34.9942 24.5413 34.2825 24.6674 33.5504C24.6864 33.443 24.6622 33.3324 24.6 33.2427C24.5378 33.153 24.4427 33.0916 24.3353 33.0717C24.228 33.0519 24.1172 33.0752 24.0271 33.1367C23.9369 33.1982 23.8747 33.2928 23.854 33.4C23.7198 34.1279 23.5734 34.8356 23.4473 35.4782C23.2765 36.2915 23.1301 37.0114 23.0406 37.5116C22.8332 38.9472 22.7153 43.1565 22.7071 43.3354C22.7063 43.3896 22.7163 43.4435 22.7365 43.4937C22.7568 43.544 22.7869 43.5898 22.8251 43.6282C22.8624 43.6674 22.9072 43.6987 22.9568 43.7204C23.0063 43.742 23.0597 43.7536 23.1138 43.7543H23.3904C23.5302 43.7573 23.667 43.7963 23.7874 43.8675C23.9078 43.9387 24.0078 44.0398 24.0777 44.161H20.3158V38.0606C20.2794 37.2294 20.0948 36.4113 19.7708 35.6449C19.5459 35.2036 19.2974 34.7746 19.0266 34.3598C18.506 33.5464 18.0139 32.733 17.9001 31.8301C17.7374 30.5409 18.0587 29.4266 18.4288 28.3041C18.4576 28.203 18.4462 28.0945 18.3968 28.0016C18.3474 27.9087 18.2639 27.8385 18.1638 27.8059C18.0638 27.7733 17.955 27.7807 17.8603 27.8266C17.7656 27.8724 17.6924 27.9532 17.656 28.052C17.1695 29.2839 16.9773 30.6125 17.0948 31.9318C17.1872 32.5731 17.3997 33.1912 17.7211 33.7538C16.6198 34.1661 15.4524 34.3742 14.2764 34.3679C13.0784 34.3736 11.888 34.1784 10.7545 33.7904C10.8737 33.1615 10.935 32.5231 10.9375 31.883C10.9385 31.2432 10.88 30.6046 10.7626 29.9756C10.753 29.9222 10.733 29.8712 10.7037 29.8256C10.6743 29.7799 10.6363 29.7405 10.5918 29.7095C10.5018 29.647 10.3906 29.6227 10.2827 29.6422C10.1749 29.6616 10.0792 29.723 10.0166 29.813C9.95407 29.903 9.92984 30.0142 9.94926 30.122C10.0557 30.6975 10.1088 31.2815 10.1079 31.8667C10.1583 33.5072 9.69164 35.122 8.77392 36.4827C8.19924 37.2219 7.88217 38.1289 7.87107 39.0652V43.3476C7.87107 43.4555 7.91392 43.5589 7.99019 43.6352C8.06646 43.7115 8.1699 43.7543 8.27776 43.7543H8.55431C8.69418 43.7573 8.83092 43.7963 8.95131 43.8675C9.07171 43.9387 9.1717 44.0398 9.24162 44.161H5.4472V38.3453C5.44958 38.1064 5.40238 37.8695 5.30858 37.6497C5.21478 37.4299 5.07642 37.2319 4.90223 37.0683C3.7513 36.0191 3.03552 34.0425 3.03552 31.8586C3.03461 31.4507 3.06043 31.0431 3.11279 30.6385C3.1253 30.5314 3.09512 30.4237 3.02877 30.3386C2.96242 30.2536 2.86524 30.1981 2.75829 30.1842C2.65134 30.1703 2.54321 30.1991 2.45733 30.2644C2.37144 30.3296 2.31471 30.426 2.29941 30.5328C2.24564 30.9741 2.21847 31.4182 2.21807 31.8627C2.21807 34.2459 3.03146 36.4746 4.34913 37.6743C4.44039 37.761 4.51249 37.8659 4.56082 37.9822C4.60914 38.0984 4.63262 38.2235 4.62975 38.3494V44.1488L1.94966 44.1447C1.8418 44.1447 1.73835 44.1876 1.66209 44.2639C1.58582 44.3401 1.54297 44.4436 1.54297 44.5514C1.54297 44.6593 1.58582 44.7627 1.66209 44.839C1.73835 44.9153 1.8418 44.9581 1.94966 44.9581H9.75812C9.86598 44.9581 9.96942 44.9153 10.0457 44.839C10.122 44.7627 10.1648 44.6593 10.1648 44.5514C10.1683 43.7072 9.52529 43.0006 8.68445 42.9247V39.0652C8.69584 38.3049 8.95581 37.5693 9.42463 36.9707C9.95156 36.2439 10.3403 35.4265 10.5715 34.559C11.7659 34.9578 13.0172 35.1597 14.2764 35.1569C15.5961 35.1674 16.9058 34.9273 18.1359 34.4492C18.201 34.559 18.2701 34.6648 18.3393 34.7746C18.5928 35.1692 18.8263 35.5764 19.0388 35.9947C19.3116 36.6556 19.4684 37.3586 19.5024 38.0728V44.5799C19.5024 44.6878 19.5453 44.7912 19.6215 44.8675C19.6978 44.9437 19.8012 44.9866 19.9091 44.9866H27.3759C27.4838 44.9866 27.5872 44.9437 27.6635 44.8675C27.7398 44.7912 27.7826 44.6878 27.7826 44.5799C27.7826 44.472 27.7398 44.3686 27.6635 44.2923C27.5872 44.216 27.4838 44.1732 27.3759 44.1732ZM45.0914 44.1447H39.5157C39.4078 44.1447 39.3043 44.1876 39.2281 44.2639C39.1518 44.3401 39.109 44.4436 39.109 44.5514C39.109 44.6593 39.1518 44.7627 39.2281 44.839C39.3043 44.9153 39.4078 44.9581 39.5157 44.9581H45.0914C45.1992 44.9581 45.3027 44.9153 45.379 44.839C45.4552 44.7627 45.4981 44.6593 45.4981 44.5514C45.4981 44.4436 45.4552 44.3401 45.379 44.2639C45.3027 44.1876 45.1992 44.1447 45.0914 44.1447ZM36.9576 44.1447H36.1442C36.0363 44.1447 35.9329 44.1876 35.8566 44.2639C35.7803 44.3401 35.7375 44.4436 35.7375 44.5514C35.7375 44.6593 35.7803 44.7627 35.8566 44.839C35.9329 44.9153 36.0363 44.9581 36.1442 44.9581H36.9576C37.0654 44.9581 37.1689 44.9153 37.2451 44.839C37.3214 44.7627 37.3643 44.6593 37.3643 44.5514C37.3643 44.4436 37.3214 44.3401 37.2451 44.2639C37.1689 44.1876 37.0654 44.1447 36.9576 44.1447ZM46.405 35.8727C46.0318 35.8719 45.6645 35.9646 45.3363 36.1422C45.0081 36.3198 44.7296 36.5766 44.5261 36.8894C44.3235 36.5736 44.0451 36.3135 43.7161 36.1331C43.3872 35.9526 43.0183 35.8575 42.6431 35.8564C42.5352 35.8564 42.4318 35.8992 42.3555 35.9755C42.2793 36.0518 42.2364 36.1552 42.2364 36.2631C42.2364 36.3709 42.2793 36.4744 42.3555 36.5506C42.4318 36.6269 42.5352 36.6698 42.6431 36.6698C43.4014 36.6733 44.0237 37.2706 44.0584 38.0281H39.7922C39.7374 38.0281 39.6832 38.0391 39.6327 38.0605C39.5823 38.082 39.5367 38.1134 39.4987 38.1529C39.4607 38.1924 39.4311 38.2392 39.4117 38.2904C39.3922 38.3417 39.3833 38.3963 39.3855 38.4511C39.3855 38.5589 39.4284 38.6624 39.5046 38.7386C39.5809 38.8149 39.6843 38.8578 39.7922 38.8578H44.8514C44.9593 38.8578 45.0627 38.8149 45.139 38.7386C45.2153 38.6624 45.2581 38.5589 45.2581 38.4511C45.2573 38.3682 45.2311 38.2875 45.1831 38.2199C45.1351 38.1524 45.0677 38.101 44.9897 38.0728C45.0074 37.3033 45.6352 36.6881 46.405 36.686C46.5128 36.686 46.6163 36.6432 46.6926 36.5669C46.7688 36.4906 46.8117 36.3872 46.8117 36.2793C46.8117 36.1715 46.7688 36.068 46.6926 35.9918C46.6163 35.9155 46.5128 35.8727 46.405 35.8727ZM47.4258 38.0444H46.8117C46.7038 38.0444 46.6004 38.0872 46.5241 38.1635C46.4478 38.2398 46.405 38.3432 46.405 38.4511C46.405 38.5589 46.4478 38.6624 46.5241 38.7386C46.6004 38.8149 46.7038 38.8578 46.8117 38.8578H47.4258C47.5336 38.8578 47.6371 38.8149 47.7134 38.7386C47.7896 38.6624 47.8325 38.5589 47.8325 38.4511C47.8325 38.3432 47.7896 38.2398 47.7134 38.1635C47.6371 38.0872 47.5336 38.0444 47.4258 38.0444ZM15.4233 46.8533H9.32296C9.2151 46.8533 9.11165 46.8961 9.03538 46.9724C8.95911 47.0487 8.91627 47.1521 8.91627 47.26C8.91627 47.3678 8.95911 47.4713 9.03538 47.5476C9.11165 47.6238 9.2151 47.6667 9.32296 47.6667H15.4233C15.5312 47.6667 15.6346 47.6238 15.7109 47.5476C15.7872 47.4713 15.83 47.3678 15.83 47.26C15.83 47.1521 15.7872 47.0487 15.7109 46.9724C15.6346 46.8961 15.5312 46.8533 15.4233 46.8533ZM43.0498 29.9472H42.0819C41.974 29.9472 41.8706 29.99 41.7943 30.0663C41.718 30.1426 41.6752 30.246 41.6752 30.3539C41.6752 30.4617 41.718 30.5652 41.7943 30.6414C41.8706 30.7177 41.974 30.7606 42.0819 30.7606H43.0498C43.1577 30.7606 43.2611 30.7177 43.3374 30.6414C43.4136 30.5652 43.4565 30.4617 43.4565 30.3539C43.4565 30.246 43.4136 30.1426 43.3374 30.0663C43.2611 29.99 43.1577 29.9472 43.0498 29.9472ZM45.4005 24.282H41.5166C41.4087 24.282 41.3053 24.3248 41.229 24.4011C41.1527 24.4774 41.1099 24.5808 41.1099 24.6887C41.1099 24.7965 41.1527 24.9 41.229 24.9762C41.3053 25.0525 41.4087 25.0954 41.5166 25.0954H45.4005C45.5083 25.0954 45.6118 25.0525 45.688 24.9762C45.7643 24.9 45.8072 24.7965 45.8072 24.6887C45.8072 24.5808 45.7643 24.4774 45.688 24.4011C45.6118 24.3248 45.5083 24.282 45.4005 24.282Z"></path>
</svg>
