<?xml version="1.0" encoding="UTF-8"?>
<svg xmlns="http://www.w3.org/2000/svg" width="51" height="51" viewBox="0 0 51 51">
  <path fill-rule="evenodd" clip-rule="evenodd" d="M34.9652 42.4275C34.9653 42.529 34.9453 42.6295 34.9065 42.7233C34.8677 42.8171 34.8108 42.9023 34.739 42.974C34.6672 43.0458 34.582 43.1027 34.4883 43.1415C34.3945 43.1803 34.294 43.2003 34.1925 43.2002H16.249C16.1475 43.2003 16.047 43.1803 15.9532 43.1415C15.8594 43.1027 15.7742 43.0458 15.7025 42.974C15.6307 42.9023 15.5738 42.8171 15.535 42.7233C15.4962 42.6295 15.4762 42.529 15.4763 42.4275C15.4763 42.326 15.4962 42.2256 15.5351 42.1318C15.5739 42.038 15.6308 41.9529 15.7026 41.8811C15.7743 41.8093 15.8595 41.7524 15.9533 41.7136C16.047 41.6748 16.1475 41.6548 16.249 41.6548H34.1926C34.2941 41.6548 34.3946 41.6748 34.4883 41.7136C34.582 41.7525 34.6672 41.8094 34.739 41.8811C34.8107 41.9529 34.8676 42.0381 34.9064 42.1318C34.9452 42.2256 34.9652 42.3261 34.9652 42.4275ZM30.4793 46.7411C30.4794 46.9461 30.398 47.1428 30.2531 47.2878C30.1082 47.4328 29.9116 47.5143 29.7066 47.5144H20.7348C20.5326 47.5102 20.3401 47.4268 20.1986 47.2823C20.0571 47.1378 19.9778 46.9437 19.9778 46.7414C19.9778 46.5392 20.0571 46.345 20.1986 46.2005C20.3401 46.056 20.5326 45.9727 20.7348 45.9684H29.7066C29.9115 45.9685 30.108 46.05 30.2528 46.1949C30.3977 46.3398 30.4792 46.5362 30.4793 46.7411ZM41.172 32.0638C41.8345 30.912 43.5731 31.1331 43.9195 32.4253C44.2647 33.7141 42.8758 34.7798 41.7208 34.1135C41.0037 33.6998 40.7576 32.7803 41.172 32.0638ZM39.8336 31.2911C38.6544 33.3334 40.1555 35.8605 42.4661 35.8605C44.4622 35.8605 45.9342 33.9711 45.4126 32.0258C44.7104 29.4076 41.184 28.95 39.8336 31.2911ZM43.7354 38.1217L47.6998 31.2552L41.206 27.5061L37.2415 34.3726L43.7354 38.1217ZM36.0152 37.8986C35.9996 37.8888 35.9833 37.8796 35.9676 37.8705L37.0281 36.0335L42.4028 39.1379L40.8483 41.8311C39.4426 40.2962 37.8151 38.9668 36.0152 37.8986ZM21.4553 35.2823C22.0126 33.4035 22.5308 31.7949 24.5394 31.2715C24.9997 31.1519 25.483 31.1523 25.9431 31.2727C28.0444 31.8183 28.7897 33.8361 29.2008 35.3215C26.6406 34.835 24.0212 34.8195 21.4553 35.2823ZM8.07266 43.6955L4.16042 36.9197C4.03195 36.6965 4.11057 36.4054 4.33329 36.2756L11.3127 32.2465C11.5339 32.1186 11.8289 32.1976 11.9568 32.4181L14.9189 37.5482L14.8582 37.65C14.7133 37.7312 14.5693 37.8141 14.4263 37.8987C11.9333 39.378 9.76941 41.3593 8.07266 43.6955ZM3.72903 29.9396L5.85128 33.6157L8.25017 32.2295L6.12724 28.5548L4.00499 27.6478L3.72903 29.9396ZM20.4059 30.2783C19.6469 32.2328 18.6739 34.2135 17.374 36.4485C18.142 36.1433 18.9271 35.8829 19.7253 35.6687C20.4447 33.3353 20.9703 30.6045 24.1505 29.7765C24.866 29.5905 25.6173 29.5905 26.3328 29.7765C29.6827 30.648 30.4638 34.0561 30.9048 35.7202C31.6803 35.9357 32.4429 36.1952 33.1889 36.4975C31.237 32.8084 30.2876 31.4074 29.0195 27.2007H21.4625C21.1502 28.2398 20.7978 29.2665 20.4059 30.2783ZM22.4466 23.3589C22.7657 21.8651 23.0189 20.3636 23.2238 18.9545H27.2575C27.5848 21.1977 27.9943 23.4203 28.5849 25.6554H21.8984C22.0982 24.894 22.281 24.1284 22.4466 23.3589ZM23.6898 15.3217C24.0055 12.5733 24.2501 9.91272 24.5616 7.16368H25.9216C26.3091 10.6135 26.5988 13.9559 27.0453 17.4094H23.4365C23.5331 16.6672 23.6167 15.9644 23.6898 15.3217ZM44.9048 24.9897L48.0294 26.7941L48.0665 29.3281L47.9131 29.5931L42.5378 26.49L42.6912 26.2251L44.9048 24.9897ZM49.4514 20.7237L46.9083 22.1881L45.9666 23.8182L48.5137 25.2885L49.4547 23.659L49.4514 20.7237ZM51 23.8647L50.9955 19.3859C50.9951 18.7932 50.3513 18.4211 49.8378 18.7177L45.9569 20.9527C45.8391 21.0205 45.7412 21.1179 45.673 21.2354L44.3495 23.5299L41.7521 24.9793C41.4918 25.125 41.3606 25.4391 41.1942 25.7277C40.8464 25.5966 40.4456 25.7317 40.2538 26.0632L35.5167 34.2689C35.4252 34.4274 35.3931 34.6132 35.426 34.7932C35.4588 34.9732 35.5546 35.1357 35.6961 35.2517L34.9529 36.5374C33.7888 34.2093 32.4793 32.1955 31.517 29.7191C31.1953 28.8897 30.9014 28.0498 30.636 27.2008H31.3512C31.7774 27.2008 32.1239 26.8549 32.1239 26.4281C32.1239 26.0012 31.7774 25.6555 31.3512 25.6555H30.1831C29.5747 23.4283 29.1564 21.2145 28.8198 18.9547H29.3895C29.5944 18.9547 29.791 18.8732 29.9359 18.7283C30.0808 18.5835 30.1622 18.3869 30.1622 18.182C30.1622 17.9771 30.0808 17.7806 29.9359 17.6357C29.791 17.4908 29.5944 17.4094 29.3895 17.4094H28.6031C28.1116 13.6758 27.8136 10.039 27.3782 6.30227C27.3325 5.91337 27.0023 5.61838 26.6108 5.61838H25.9934V4.25762C25.9934 4.0527 25.912 3.85617 25.7671 3.71127C25.6222 3.56637 25.4257 3.48497 25.2207 3.48497C25.0158 3.48497 24.8193 3.56637 24.6744 3.71127C24.5295 3.85617 24.4481 4.0527 24.4481 4.25762V5.61826H23.8718C23.6823 5.61836 23.4994 5.68807 23.3579 5.81415C23.2164 5.94024 23.1262 6.1139 23.1043 6.30216C22.6752 10.0413 22.3669 13.6795 21.8787 17.4092H21.0519C20.847 17.4093 20.6505 17.4908 20.5056 17.6356C20.3607 17.7805 20.2793 17.9769 20.2792 18.1818C20.2794 18.3867 20.3608 18.5831 20.5057 18.728C20.6506 18.8729 20.847 18.9543 21.0519 18.9545H21.662C21.3293 21.2028 20.9037 23.439 20.3 25.6554H19.0901C18.8852 25.6555 18.6888 25.7369 18.5439 25.8817C18.399 26.0266 18.3175 26.2231 18.3174 26.428C18.3175 26.6329 18.399 26.8293 18.5438 26.9742C18.6887 27.1191 18.8852 27.2006 19.0901 27.2007H19.8458C18.8631 30.3316 17.6883 32.88 15.8272 36.0314L13.2951 31.6453C12.7398 30.6834 11.5031 30.3513 10.5399 30.908L9.58771 31.4568L7.33688 27.5595C7.25375 27.4145 7.12572 27.3004 6.97211 27.2345L3.90168 25.9235L1.44207 21.6641C1.22933 21.2941 0.756141 21.1674 0.386157 21.3808C0.298224 21.4316 0.221161 21.4992 0.159382 21.5797C0.0976038 21.6603 0.0523226 21.7522 0.0261314 21.8503C-5.9698e-05 21.9484 -0.00664613 22.0507 0.00674925 22.1513C0.0201446 22.2519 0.0532586 22.3489 0.104195 22.4368L2.56312 26.6962L2.16312 30.0107C2.1441 30.1766 2.17838 30.3444 2.261 30.4896L4.51239 34.3883L3.56092 34.9371C2.59745 35.4936 2.26507 36.7296 2.82152 37.6923L7.11496 45.1298C7.01255 45.3002 6.91003 45.4697 6.81079 45.6427C6.59997 46.0141 6.72855 46.4859 7.09989 46.6966C7.4692 46.9093 7.94113 46.7795 8.15377 46.4094C11.6452 40.2915 18.1841 36.4907 25.2202 36.4907C32.2564 36.4907 38.7954 40.2913 42.2867 46.4094C42.337 46.4976 42.4043 46.5749 42.4845 46.6371C42.5648 46.6992 42.6565 46.7449 42.7545 46.7716C42.8524 46.7983 42.9546 46.8054 43.0553 46.7925C43.156 46.7796 43.2532 46.7471 43.3413 46.6966C43.7119 46.4858 43.8405 46.014 43.6297 45.6427C43.1187 44.748 42.5405 43.8937 41.9081 43.0846L43.7471 39.8999C44.1041 40.0324 44.4965 39.8935 44.6862 39.5645L49.424 31.3582C49.6138 31.0305 49.5379 30.6186 49.2458 30.376C49.412 30.0871 49.6187 29.815 49.6145 29.5191L49.5715 26.5453L50.8962 24.2508C50.9644 24.1335 51.0002 24.0003 51 23.8647Z"></path>
</svg>
