<?xml version="1.0" encoding="UTF-8"?>
<svg xmlns="http://www.w3.org/2000/svg" width="51" height="51" viewBox="0 0 51 51">
  <g>
    <path d="M15.944 6.69113C16.1658 6.69113 16.3786 6.60301 16.5354 6.44615C16.6923 6.28929 16.7804 6.07655 16.7804 5.85473C16.7804 5.6329 16.6923 5.42016 16.5354 5.2633C16.3786 5.10645 16.1658 5.01833 15.944 5.01833C15.7222 5.01833 15.5094 5.10645 15.3526 5.2633C15.1957 5.42016 15.1076 5.6329 15.1076 5.85473C15.1076 6.07655 15.1957 6.28929 15.3526 6.44615C15.5094 6.60301 15.7222 6.69113 15.944 6.69113ZM44.2694 10.4396C44.4912 10.4396 44.704 10.3515 44.8608 10.1946C45.0177 10.0378 45.1058 9.82505 45.1058 9.60323C45.1058 9.14127 44.7314 8.76683 44.2694 8.76683C43.8075 8.76683 43.433 9.14127 43.433 9.60323C43.433 9.82505 43.5211 10.0378 43.678 10.1946C43.8348 10.3515 44.0476 10.4396 44.2694 10.4396ZM3.96921 28.3865C3.50725 28.3865 3.13281 28.761 3.13281 29.2229C3.13281 29.6849 3.50725 30.0593 3.96921 30.0593C4.43117 30.0593 4.80561 29.6849 4.80561 29.2229C4.80561 28.761 4.43117 28.3865 3.96921 28.3865ZM44.2694 15.9578C44.7314 15.9578 45.1058 15.5834 45.1058 15.1214C45.1058 14.6595 44.7314 14.285 44.2694 14.285C43.8075 14.285 43.433 14.6595 43.433 15.1214C43.433 15.5834 43.8075 15.9578 44.2694 15.9578ZM41.5103 13.1987C41.7321 13.1987 41.9449 13.1106 42.1017 12.9538C42.2586 12.7969 42.3467 12.5842 42.3467 12.3623C42.3467 11.9004 41.9723 11.5259 41.5103 11.5259C41.0484 11.5259 40.6739 11.9004 40.6739 12.3623C40.6739 12.5842 40.762 12.7969 40.9189 12.9538C41.0757 13.1106 41.2885 13.1987 41.5103 13.1987ZM6.72831 31.1456C6.26635 31.1456 5.89191 31.5201 5.89191 31.982C5.89191 32.444 6.26635 32.8184 6.72831 32.8184C7.19027 32.8184 7.56471 32.444 7.56471 31.982C7.56471 31.5201 7.19027 31.1456 6.72831 31.1456ZM6.72831 25.6274C6.50649 25.6274 6.29374 25.7155 6.13689 25.8724C5.98003 26.0293 5.89191 26.242 5.89191 26.4638C5.89191 26.9258 6.26635 27.3002 6.72831 27.3002C7.19027 27.3002 7.56471 26.9258 7.56471 26.4638C7.56471 26.354 7.54308 26.2452 7.50105 26.1437C7.45901 26.0423 7.3974 25.9501 7.31974 25.8724C7.24207 25.7947 7.14987 25.7331 7.04839 25.6911C6.94691 25.6491 6.83815 25.6274 6.72831 25.6274ZM44.7896 21.9197L36.5072 21.5423L33.5186 18.5435C33.0698 18.0947 32.5496 17.7173 31.9784 17.4215L28.8062 15.8201L29.0204 15.0959C29.4488 14.9123 29.8772 14.6573 30.2546 14.3105C30.4484 14.1371 30.632 13.9433 30.7952 13.7189V14.9735C30.7952 15.3203 31.0706 15.5957 31.4174 15.5957C31.7642 15.5957 32.0396 15.3203 32.0396 14.9735V10.8833L32.8964 9.65933C32.9678 9.55733 33.0086 9.42473 33.0086 9.30233C33.0086 9.21053 32.9882 8.70053 32.6108 7.91513C32.3762 7.43573 32.0192 6.85433 31.448 6.19133L31.9172 5.11013C31.958 5.01833 31.9784 4.91633 31.9682 4.81433L31.6214 0.550726C31.601 0.285526 31.4174 0.0713257 31.1624 -7.43177e-05C30.9074 -0.0714743 30.6422 0.0305257 30.4892 0.244726L28.0922 3.66173C28.031 3.75353 27.9902 3.86573 27.98 3.97793L27.8984 5.08973C26.9906 5.34473 26.3174 5.67113 25.8278 5.98733C25.0628 6.47693 24.7466 6.91553 24.7058 6.98693C24.6344 7.09913 24.5936 7.22153 24.6038 7.35413L24.6956 9.23093L24.3386 10.5569C24.2672 10.8323 24.2468 11.1077 24.2468 11.4545C24.2468 11.5565 24.2468 11.6585 24.257 11.7503L24.2571 11.7508C24.208 11.7386 24.1577 11.7324 24.1071 11.7322C23.9396 11.7322 23.779 11.7987 23.6605 11.9171C23.5421 12.0356 23.4756 12.1962 23.4756 12.3637C23.4756 12.5311 23.5421 12.6918 23.6605 12.8102C23.779 12.9286 23.9396 12.9951 24.1071 12.9951C24.2431 12.9952 24.3755 12.951 24.4843 12.8693C24.6206 13.2593 24.812 13.6279 25.0527 13.9637C25.0731 13.9943 25.0935 14.0147 25.1139 14.0453L24.9609 14.8103L21.3705 14.9327C20.7177 14.9531 20.0649 15.0755 19.4325 15.2999L15.2301 16.8605L11.3439 15.1367C11.2725 14.8715 11.1603 14.3717 11.1603 13.7291C11.1603 12.9029 11.3337 11.8523 11.9661 10.6793C12.0477 10.5365 12.0681 10.3631 12.0171 10.1999C11.9661 10.0367 11.8641 9.90413 11.7213 9.83273L11.2113 9.55733C11.0481 9.46553 10.8543 9.45533 10.6911 9.52673C10.1709 9.73073 9.70171 10.0265 9.29371 10.3835C8.68171 10.9139 8.22271 11.5769 7.89631 12.2909C7.66171 12.8315 7.49851 13.3925 7.43731 13.9637C7.21291 14.0147 7.00891 14.0963 6.82531 14.1881C6.60091 14.3105 6.40711 14.4635 6.26431 14.6267C6.03991 14.8613 5.88691 15.1061 5.78491 15.2897C5.68291 15.4733 5.64211 15.6059 5.63191 15.6365C5.54011 15.9221 5.66251 16.2281 5.91751 16.3811L9.34471 18.2783L9.11012 19.0433C9.00811 19.3697 9.19171 19.7165 9.51812 19.8185C9.84451 19.9205 10.1913 19.7369 10.2933 19.4105L10.4565 18.8903L14.8629 21.3281C15.0159 21.4097 15.1995 21.4301 15.3627 21.3791L16.3623 21.0425L14.4854 43.2581C14.465 43.5437 14.6384 43.8191 14.924 43.9007C14.9546 43.9109 16.658 44.4413 19.0958 44.7269C19.4528 45.3899 19.8812 46.0223 20.3708 46.6241C20.432 46.6955 20.5034 46.7567 20.585 46.7873C20.6054 46.7975 21.0746 47.0117 21.8294 47.2259C22.064 47.2871 22.319 47.3585 22.5944 47.4197L22.6964 47.6543L21.2276 48.7355C21.0644 48.8579 20.9318 49.0211 20.84 49.1945C20.7584 49.3679 20.7176 49.5617 20.7176 49.7351C20.7176 50.0513 20.84 50.3573 21.0542 50.6021C21.1664 50.7245 21.299 50.8265 21.4622 50.8979C21.6152 50.9693 21.7988 51.0101 21.9824 51.0101H25.2566C25.736 51.0101 26.1848 50.8163 26.501 50.4899C26.8172 50.1737 27.0212 49.7249 27.0212 49.2455V48.9293C27.0212 48.8681 27.011 48.7967 26.9906 48.7355L26.5928 47.5217C27.2864 47.3993 28.0106 47.1851 28.7348 46.8587H28.796L28.7144 48.3581L28.2962 48.7865C28.1738 48.9089 28.082 49.0619 28.0208 49.2149C27.9596 49.3679 27.929 49.5311 27.929 49.6943C27.929 50.0309 28.0616 50.3573 28.286 50.6021C28.3982 50.7245 28.541 50.8265 28.7042 50.8979C28.8674 50.9693 29.051 51.0101 29.2448 51.0101H30.6626C31.4378 51.0101 31.8623 50.5463 32.0192 50.1635L33.335 46.4405C33.4064 46.2467 33.3554 46.0427 33.2738 45.8795C33.1718 45.6755 32.7842 44.9309 32.2538 43.8803L33.8552 24.9695L34.61 25.4999C34.712 25.5713 34.8446 25.6121 34.9772 25.6121L39.1184 25.5917V26.0711C39.1184 26.4179 39.3938 26.6933 39.7406 26.6933C40.0874 26.6933 40.3628 26.4179 40.3628 26.0711V25.5917H40.5872C40.7504 25.7651 41.036 26.0813 41.3114 26.5403C41.5256 26.8973 41.7398 27.3461 41.903 27.8867C42.0662 28.4273 42.1682 29.0495 42.1682 29.7737C42.1682 30.1377 42.3466 30.4469 42.7904 30.4469H43.3616C43.5452 30.4469 43.7186 30.3653 43.841 30.2225C44.249 29.7431 44.5346 29.2025 44.7284 28.6313C44.9222 28.0601 45.0038 27.4787 45.0038 26.8871C45.0038 26.1527 44.861 25.4285 44.606 24.7655C44.6774 24.7043 44.7386 24.6431 44.7998 24.5819C45.0752 24.2759 45.2384 23.9393 45.3302 23.6333C45.422 23.3273 45.4424 23.0417 45.4424 22.8275C45.4424 22.4746 45.3383 21.9473 44.7896 21.9197ZM9.91581 13.7291C9.91581 14.6165 10.079 15.2693 10.181 15.5957L9.73221 17.0543L7.08021 15.5855C7.21281 15.3509 7.55961 15.1265 7.99821 15.1571C8.17161 15.1673 8.33481 15.1061 8.45721 14.9837C8.57961 14.8715 8.65101 14.7083 8.65101 14.5349C8.66121 13.7699 8.89581 12.9437 9.33441 12.2501C9.54861 11.9033 9.81381 11.5871 10.1198 11.3117C10.2116 11.2301 10.3136 11.1485 10.4258 11.0771C10.0382 12.0767 9.91581 12.9845 9.91581 13.7291ZM29.204 4.26353L30.5096 2.39693L30.7034 4.78373L30.4994 5.24273C30.377 5.13053 30.2546 5.01833 30.122 4.89593C29.9588 4.76333 29.816 4.74293 29.6324 4.76333C29.4692 4.78373 29.3162 4.81433 29.1632 4.83473L29.204 4.26353ZM26.5826 6.99713C27.164 6.65033 28.0922 6.24233 29.5304 6.02813C30.6626 7.04813 31.2134 7.89473 31.499 8.46593C31.6418 8.77193 31.7132 8.99633 31.7438 9.14933V9.15953L31.142 10.0265C30.989 9.91433 30.8156 9.77153 30.632 9.59813C30.1934 9.20033 29.7242 8.62913 29.459 7.95593C29.306 7.55813 28.8674 7.44593 28.5206 7.72133C28.235 7.95593 27.9009 8.14554 27.5516 8.28233C27.1052 8.45726 26.4841 8.6178 25.9808 8.66993L25.9196 7.57853C25.9808 7.42553 26.2154 7.22153 26.5826 6.99713ZM25.5524 10.8629L25.8176 9.90413C26.0522 9.88373 26.3582 9.84293 26.705 9.78173C27.0926 9.70013 27.521 9.58793 27.9596 9.41453C28.184 9.32273 28.4084 9.22073 28.6226 9.09833C28.7552 9.31253 28.8878 9.51653 29.0408 9.71033C29.4692 10.2611 29.9384 10.6691 30.2954 10.9547C30.377 11.0159 30.4586 11.0771 30.53 11.1281L30.2444 12.1787C29.9894 12.8621 29.5508 13.3517 29.0612 13.6883C28.8164 13.8515 28.5512 13.9739 28.2962 14.0555C28.0412 14.1371 27.7964 14.1779 27.5822 14.1779C27.2528 14.1779 26.8172 13.9841 26.6234 13.8413C26.3276 13.6271 26.042 13.2905 25.838 12.8927C25.634 12.4847 25.5014 12.0155 25.5014 11.4851C25.4912 11.2709 25.5116 11.0669 25.5524 10.8629ZM27.623 15.4019L27.47 15.9017C27.3578 16.1057 27.2252 16.2383 27.113 16.3097C26.9906 16.3913 26.8682 16.4219 26.756 16.4219C26.5928 16.4219 26.4296 16.3505 26.3072 16.2281C26.246 16.1669 26.1929 16.0861 26.1542 15.9833C26.0995 15.8377 26.0743 15.6319 26.1032 15.5039L26.195 15.0245C26.399 15.1469 26.6234 15.2387 26.8478 15.3101C27.1204 15.3846 27.4833 15.4019 27.623 15.4019ZM24.8792 16.0649C24.8996 16.1975 24.9404 16.3301 24.9914 16.4423C25.1342 16.8197 25.3892 17.1257 25.6952 17.3399C26.0012 17.5541 26.3684 17.6663 26.756 17.6663C27.113 17.6663 27.4802 17.5643 27.7964 17.3501C27.9596 17.2379 28.1126 17.1053 28.2554 16.9421L30.9482 18.2987C30.4586 18.7985 29.9078 19.1759 29.3264 19.4615C28.541 19.8389 27.7046 20.0225 26.8784 20.0225C25.634 20.0225 24.4202 19.6145 23.4308 18.8597C22.931 18.4823 22.5026 18.0029 22.1456 17.4521C21.9008 17.0747 21.6968 16.6463 21.5438 16.1873L24.8792 16.0649ZM25.8176 22.1951L24.8282 22.7459L24.1448 21.8891L25.1342 21.3383L25.8176 22.1951ZM20.2892 16.3301C20.483 16.9727 20.7584 17.5643 21.095 18.0947C21.7478 19.1147 22.625 19.9103 23.6348 20.4407C23.7266 20.4917 23.8184 20.5325 23.9102 20.5733L22.8902 21.1343C22.727 21.2261 22.6148 21.3791 22.5842 21.5525C22.5536 21.7361 22.5944 21.9197 22.7066 22.0625L24.1754 23.9087C24.3692 24.1433 24.6956 24.2147 24.9608 24.0617L27.062 22.8989C27.2252 22.8071 27.3374 22.6541 27.368 22.4705C27.4088 22.2869 27.3578 22.1033 27.2456 21.9605L26.654 21.2261H26.8886C27.8984 21.2261 28.9286 21.0017 29.8772 20.5427C30.6728 20.1653 31.4174 19.6145 32.0702 18.9005C32.2742 19.0433 32.4578 19.2065 32.6312 19.3799L33.7226 20.4713C32.3966 21.5219 31.0298 22.4195 29.969 23.0621C29.3672 23.4293 28.847 23.7251 28.49 23.9189C28.3064 24.0209 28.1738 24.0923 28.0718 24.1433C27.9392 24.2147 27.8066 24.2657 27.7046 24.3983L27.0314 25.3061C26.8172 25.4081 26.246 25.6529 25.3586 25.7957C25.3178 25.7447 25.2668 25.6937 25.226 25.6427C24.8588 25.2653 24.3284 25.0409 23.7674 25.0409C23.4213 25.0406 23.0808 25.1284 22.778 25.2959C22.3292 25.0409 22.013 24.7553 21.7988 24.5207C21.6764 24.3779 21.5846 24.2555 21.5336 24.1739V23.2355C21.5336 23.1029 21.4928 22.9805 21.4214 22.8785L21.4112 22.8683C21.3398 22.7663 20.7176 21.8891 19.9526 20.6753C19.4443 19.8842 18.5372 18.4229 17.9432 17.1563L20.2892 16.3301ZM25.8176 27.0299C26.4194 26.9177 26.8886 26.7545 27.215 26.6321C27.3272 26.8259 27.4292 27.0299 27.521 27.2543C27.5924 27.4175 27.6536 27.6011 27.7046 27.7847C27.317 27.9683 26.8886 28.1315 26.4602 28.2539C26.1236 28.3559 25.7972 28.4273 25.4912 28.4681V28.2743C25.7054 27.9989 25.8584 27.5501 25.8176 27.0299ZM23.7623 27.9989C23.5418 27.9989 23.3304 27.9113 23.1745 27.7554C23.0186 27.5995 22.931 27.3881 22.931 27.1676C22.931 26.9472 23.0186 26.7357 23.1745 26.5798C23.3304 26.4239 23.5418 26.3363 23.7623 26.3363C23.9828 26.3363 24.1942 26.4239 24.3501 26.5798C24.506 26.7357 24.5936 26.9472 24.5936 27.1676C24.5936 27.3881 24.506 27.5995 24.3501 27.7554C24.1942 27.9113 23.9828 27.9989 23.7623 27.9989ZM24.2366 29.1719L24.0836 36.1793H22.4924L23.0738 29.1107C23.288 29.1923 23.5226 29.2331 23.7674 29.2331C23.9204 29.2229 24.0836 29.2025 24.2366 29.1719ZM21.7478 27.6317C21.6254 27.5603 21.503 27.4889 21.3908 27.4073C21.2072 27.2747 21.044 27.1421 20.9114 27.0095C20.8502 26.9381 20.789 26.8769 20.738 26.8055L21.1154 25.6529C21.3296 25.8569 21.5846 26.0609 21.8906 26.2649C21.758 26.5301 21.6866 26.8361 21.6866 27.1523C21.6968 27.3257 21.7172 27.4787 21.7478 27.6317ZM15.2402 20.1143L10.844 17.6765L11.2316 16.4423L14.9648 18.0947C15.1076 18.1559 15.281 18.1661 15.434 18.1049L16.76 17.6153C17.0354 18.1763 17.3414 18.7475 17.6474 19.2983L15.2402 20.1143ZM16.4744 43.0235C16.1888 42.9623 15.9542 42.9011 15.7706 42.8501L17.6576 20.6141L18.29 20.4101C18.5246 20.7977 18.749 21.1547 18.9632 21.5015C19.5548 22.4399 20.0648 23.1641 20.279 23.4803V24.2861C20.1464 24.6635 19.6568 26.0915 19.1162 27.8357C18.8 28.8557 18.4634 29.9777 18.1778 31.0691C17.882 32.1605 17.6372 33.2009 17.4944 34.0781C17.3516 34.9349 17.27 35.9039 17.27 36.9239C17.27 38.4947 17.4638 40.2083 17.9534 41.8811C18.0962 42.3911 18.2798 42.8909 18.4736 43.3907C17.678 43.2785 17.0048 43.1357 16.4744 43.0235ZM25.7666 49.2455C25.7666 49.5069 25.6575 49.7657 25.2566 49.7657H21.9314L23.8286 48.3581C24.053 48.1949 24.1448 47.8889 24.0326 47.6237C24.2978 47.6441 24.5732 47.6543 24.869 47.6543C25.0118 47.6543 25.1648 47.6543 25.3178 47.6441L25.7666 49.0211V49.2455ZM28.3268 45.6653C27.1436 46.2263 25.9502 46.4201 24.8792 46.4201C23.4171 46.4201 21.9574 46.0714 21.2378 45.7163C20.8263 45.2137 19.7351 43.5887 19.1264 41.5343C18.6776 39.9941 18.494 38.3927 18.494 36.9137C18.494 35.9651 18.5756 35.0573 18.698 34.2719C18.8306 33.4661 19.0652 32.4461 19.3508 31.3751C19.6364 30.2939 19.973 29.1617 20.2994 28.1417C20.534 28.3355 20.789 28.5089 21.0542 28.6619C21.299 28.8047 21.554 28.9271 21.809 29.0393L21.1766 36.7301C21.1664 36.9035 21.2174 37.0769 21.3398 37.1993C21.4622 37.3217 21.6254 37.4033 21.7988 37.4033H24.6854C25.022 37.4033 25.2974 37.1279 25.3076 36.7913L25.4606 29.7023C25.8992 29.6513 26.348 29.5493 26.807 29.4167C27.2048 29.3045 27.6026 29.1515 27.9902 28.9883C28.0004 29.0597 28.0106 29.1413 28.0208 29.2127C28.1228 29.9369 28.1636 30.7019 28.1636 31.4567C28.1636 32.8439 28.0208 34.2005 27.878 35.2001C27.8066 35.6999 27.7352 36.1079 27.6842 36.3935C27.6536 36.5363 27.6332 36.6485 27.623 36.7199C27.5822 36.9239 27.5822 37.0871 27.6434 37.2095C29.0918 40.3715 30.8768 43.9211 31.7132 45.5531H28.8062C28.5716 45.5531 28.4798 45.5939 28.3268 45.6653ZM30.8666 49.6637C30.8156 49.7249 30.7442 49.7555 30.6626 49.7555H29.0612L29.765 49.0313C29.867 48.9191 29.9282 48.7865 29.9384 48.6335L30.0404 46.8383H31.8662L30.8666 49.6637ZM28.1942 25.8569L28.6022 25.3061C28.8878 25.1531 29.6222 24.7655 30.5912 24.1739C30.938 23.9597 31.3154 23.7251 31.7132 23.4701L32.6516 24.1331L31.1726 41.7383C30.4382 40.2491 29.612 38.5355 28.8674 36.9239C28.9184 36.6485 29.0204 36.1079 29.1224 35.4041C29.2754 34.3637 29.4182 32.9561 29.4182 31.4873C29.4182 30.4163 29.3407 29.3139 29.1224 28.2743C28.9477 27.4423 28.5019 26.3745 28.1942 25.8569ZM35.1506 24.3677L32.825 22.7255C33.4064 22.3175 34.0082 21.8789 34.5998 21.3995L35.783 22.5929C35.8952 22.7051 36.038 22.7663 36.191 22.7765L39.0878 22.9091V24.3473H39.098L35.1506 24.3677ZM44.0348 23.4701C43.994 23.5721 43.9328 23.6741 43.8512 23.7557C43.7696 23.8475 43.6676 23.9291 43.5248 24.0005C43.3718 24.0719 43.2596 24.2045 43.2086 24.3677C43.1576 24.5309 43.1678 24.7043 43.2494 24.8573C43.5656 25.4489 43.739 26.1833 43.739 26.9075C43.739 27.3665 43.6676 27.8255 43.5248 28.2539C43.4636 28.4171 43.4024 28.5803 43.3208 28.7435C43.2596 28.2947 43.1678 27.8765 43.0556 27.4991C42.7598 26.5097 42.311 25.7753 41.9234 25.2755C41.546 24.7757 41.24 24.5207 41.2094 24.5003C41.0972 24.4085 40.9544 24.3575 40.8116 24.3575H40.3526V22.9805L44.1368 23.1539C44.1164 23.2457 44.0858 23.3579 44.0348 23.4701ZM9.48741 28.3865C9.02545 28.3865 8.65101 28.761 8.65101 29.2229C8.65101 29.6849 9.02545 30.0593 9.48741 30.0593C9.94937 30.0593 10.3238 29.6849 10.3238 29.2229C10.3238 28.761 9.94937 28.3865 9.48741 28.3865ZM47.0285 11.5259C46.9187 11.5259 46.8099 11.5476 46.7084 11.5896C46.607 11.6316 46.5148 11.6932 46.4371 11.7709C46.3594 11.8486 46.2978 11.9408 46.2558 12.0422C46.2137 12.1437 46.1921 12.2525 46.1921 12.3623C46.1921 12.8243 46.5666 13.1987 47.0285 13.1987C47.4905 13.1987 47.8649 12.8243 47.8649 12.3623C47.8649 12.2525 47.8433 12.1437 47.8012 12.0422C47.7592 11.9408 47.6976 11.8486 47.6199 11.7709C47.5423 11.6932 47.4501 11.6316 47.3486 11.5896C47.2471 11.5476 47.1384 11.5259 47.0285 11.5259ZM41.5154 33.0785C41.2936 33.0785 41.0808 33.1666 40.924 33.3235C40.7671 33.4804 40.679 33.6931 40.679 33.9149C40.679 34.3769 41.0535 34.7513 41.5154 34.7513C41.9774 34.7513 42.3518 34.3769 42.3518 33.9149C42.3518 33.6931 42.2637 33.4804 42.1068 33.3235C41.95 33.1666 41.7372 33.0785 41.5154 33.0785Z"></path>
  </g>
</svg>
