<?xml version="1.0" encoding="UTF-8"?>
<svg xmlns="http://www.w3.org/2000/svg" width="51" height="51" viewBox="0 0 51 51">
  <path d="M4.46323 18.5007C4.54289 19.8917 4.88158 21.193 5.41733 22.1647C5.70003 22.6907 6.12301 23.1281 6.63928 23.4282C7.15555 23.7283 7.74491 23.8795 8.34189 23.8649C8.31354 25.3894 8.24997 27.8407 8.1136 30.0205C7.62343 30.2056 7.1986 30.5309 6.89212 30.9558C6.58563 31.3808 6.41108 31.8866 6.39022 32.4101C6.32347 34.0062 6.32952 36.2988 6.72636 38.2229C6.42456 38.6071 6.26282 39.0828 6.26786 39.5713C6.2729 40.0598 6.44442 40.5321 6.75408 40.9099L8.57018 43.1093L7.37298 44.2767C7.31176 44.3365 7.26541 44.4097 7.23769 44.4906C7.20996 44.5715 7.20163 44.6578 7.21336 44.7425C7.2251 44.8272 7.25657 44.908 7.30524 44.9783C7.35391 45.0486 7.41843 45.1065 7.49358 45.1474L13.1546 48.2185C13.1546 48.2185 13.2619 51 15.6696 51H30.7233C31.7077 51 32.5085 50.105 32.5085 49.0048V48.1564C32.5116 47.6693 32.3469 47.1961 32.0421 46.8163C32.2767 46.6351 32.4862 46.4234 32.6649 46.1868C32.9326 45.8188 33.0935 45.384 33.1299 44.9303C33.1662 44.4767 33.0766 44.0218 32.8709 43.6158L32.6452 43.1646C32.4451 42.7639 32.3407 42.3222 32.3403 41.8742V36.8387C32.9417 36.4533 34.1957 35.4092 34.503 33.2621C34.5749 32.7307 34.5806 32.1924 34.5198 31.6596C34.3259 29.801 33.6276 25.4807 31.2231 22.5431L36.6363 21.772L37.9097 28.3151L35.4453 29.4398C35.3796 29.4693 35.3204 29.5114 35.271 29.5639C35.2216 29.6163 35.1831 29.678 35.1577 29.7454C35.1323 29.8128 35.1204 29.8845 35.1229 29.9565C35.1253 30.0285 35.1419 30.0993 35.1718 30.1648C35.2018 30.2303 35.2443 30.2892 35.2971 30.3382C35.3499 30.3872 35.4119 30.4253 35.4794 30.4502C35.547 30.4752 35.6188 30.4865 35.6908 30.4836C35.7628 30.4806 35.8334 30.4635 35.8987 30.4331L38.7543 29.1298C38.8659 29.0789 38.957 28.992 39.0131 28.883C39.0692 28.774 39.087 28.6492 39.0635 28.5289L38.9214 27.7983L46.3012 23.3767C46.4118 23.3105 46.4953 23.2073 46.5371 23.0853C46.5788 22.9634 46.5761 22.8306 46.5293 22.7105C44.6871 17.9777 41.683 13.8792 40.4078 12.2555L41.5647 11.4187C41.6251 11.3749 41.676 11.3192 41.714 11.255C41.7521 11.1907 41.7766 11.1194 41.7861 11.0454C41.7955 10.9713 41.7897 10.8961 41.7689 10.8244C41.7481 10.7527 41.7129 10.686 41.6653 10.6285C40.0315 8.65212 37.9973 7.49491 36.5787 6.87218C35.8062 6.53412 34.9842 6.32334 34.1444 6.24801C34.3125 5.64768 34.4006 5.02775 34.4062 4.40435C34.4076 4.3262 34.3923 4.24865 34.3612 4.17693C34.3301 4.10522 34.284 4.04102 34.226 3.98867C34.1679 3.93632 34.0993 3.89705 34.0248 3.8735C33.9503 3.84995 33.8715 3.84269 33.794 3.85219L33.057 3.94236C33.5171 2.78568 33.5081 1.49516 33.0318 0.345035C32.9957 0.254073 32.9358 0.174472 32.8585 0.114537C32.7811 0.0546025 32.689 0.0165301 32.5919 0.00429229C32.4948 -0.00794556 32.3962 0.00609967 32.3064 0.0449625C32.2166 0.0838253 32.1388 0.146082 32.0812 0.225236C32.0704 0.240052 30.9833 1.70106 28.6012 2.30914C27.8114 2.50165 26.994 2.5538 26.1862 2.46319C24.8564 2.32159 23.5119 2.42921 22.2215 2.78053C19.0489 3.68444 17.0189 6.75859 17.4995 9.9312C17.7004 11.2696 18.3397 12.5035 19.3172 13.4395C19.2857 13.9462 19.3428 14.4546 19.4861 14.9417C19.8315 16.357 20.8966 16.8166 21.7299 16.8905V22.4262L19.795 22.7607C19.5512 22.5149 19.2218 22.3729 18.8758 22.3643C18.6497 22.3591 18.4235 22.3706 18.199 22.3988C18.5977 19.8817 18.3454 17.3045 17.4662 14.9126C17.616 14.9285 17.7649 14.9444 17.9174 14.9604C17.9364 14.9624 17.9556 14.9634 17.9747 14.9634C18.1144 14.963 18.2487 14.9091 18.3498 14.8128C18.451 14.7164 18.5113 14.585 18.5185 14.4455C18.5257 14.3059 18.4791 14.169 18.3883 14.0628C18.2976 13.9566 18.1696 13.8892 18.0307 13.8745C17.676 13.8374 17.3216 13.7988 16.9673 13.7587C16.8188 13.467 16.6035 13.2145 16.3389 13.0219C16.0743 12.8293 15.7678 12.702 15.4446 12.6504L13.9312 12.4102C13.6828 12.3693 13.428 12.3957 13.1934 12.4868C12.9587 12.5779 12.7528 12.7302 12.597 12.9279C12.5383 13.0029 12.4871 13.0836 12.4442 13.1686C12.1817 13.1298 11.9194 13.0898 11.6572 13.0488C11.1528 12.9656 10.6537 12.8525 10.1626 12.7102C8.51124 12.2509 7.28919 12.7219 6.92342 12.894C6.12688 12.9974 5.44489 13.6509 4.99293 14.7517C4.68595 15.5438 4.50844 16.3801 4.46722 17.2286V17.2313C4.42856 17.5485 4.42322 17.8688 4.45129 18.1871C4.45638 18.2913 4.45718 18.3949 4.46323 18.5007ZM13.8743 23.4812C14.0107 23.7162 14.199 23.9168 14.425 24.0677C14.6509 24.2185 14.9083 24.3156 15.1776 24.3515L15.9832 24.4596L15.995 24.6826L13.001 28.053C13.0129 26.5261 12.9302 24.9999 12.7534 23.4832C13.1282 23.4678 13.5019 23.4671 13.8743 23.4812ZM24.618 49.9083H18.066V48.0938C18.0655 47.812 18.0418 47.5308 17.9953 47.2529H24.618V49.9083ZM11.6 31.2741L16.0699 26.2424C16.1836 28.8378 16.3122 32.9651 16.1403 35.691L15.4712 36.2418L11.6 31.2741ZM15.7551 37.4211L16.2432 37.0198C16.3489 37.4805 16.6064 37.8923 16.9743 38.189V44.9196C15.935 43.4499 14.4803 41.5921 12.9801 40.3059L15.7551 37.4211ZM11.6639 23.5685C11.9188 25.5204 11.9317 27.7228 11.893 29.3003L11.4092 29.8449H9.21808C9.34553 27.6956 9.4067 25.3357 9.43394 23.8591C9.8909 23.8304 10.3459 23.7758 10.7967 23.6957C11.0852 23.6444 11.3743 23.602 11.6639 23.5685ZM7.481 32.455C7.4974 32.0461 7.6717 31.6594 7.96726 31.3762C8.26283 31.0931 8.65664 30.9355 9.06594 30.9367H10.4463C10.3783 31.032 10.3428 31.1467 10.3452 31.2638C10.3475 31.3809 10.3876 31.4941 10.4594 31.5866L11.23 32.5758L7.63903 37.0775C7.45615 35.5439 7.40328 33.9976 7.481 32.455ZM7.59586 40.2141C7.44398 40.0285 7.36009 39.7967 7.35809 39.5569C7.35609 39.3171 7.43611 39.0839 7.58486 38.8958L11.9201 33.4615L14.6627 36.9822L9.35397 42.3437L7.59586 40.2141ZM14.2455 48.485V47.8937C14.2455 47.7954 14.219 47.6989 14.1687 47.6145C14.1185 47.53 14.0464 47.4607 13.96 47.4138L8.66513 44.5402L12.2108 41.0833C13.8128 42.4399 15.4061 44.5775 16.2478 45.7848C16.7216 46.4618 16.9753 47.2684 16.9743 48.0947V49.9092H15.668C15.2906 49.9086 14.9289 49.7583 14.6622 49.4913C14.3955 49.2243 14.2457 48.8624 14.2455 48.485ZM25.7097 47.2529H28.5709V49.9083H25.7097V47.2529ZM31.416 49.0053C31.416 49.495 31.0983 49.9087 30.7225 49.9087H29.6626V47.2529H30.7225C31.0983 47.2529 31.416 47.6671 31.416 48.1564V49.0053ZM33.4215 33.108C33.3174 33.9998 32.923 34.8326 32.299 35.4782C31.9092 29.2077 28.9964 23.9617 28.1623 22.5761C28.4102 22.3626 28.7211 22.236 29.0476 22.2155C29.1476 22.207 29.2483 22.2196 29.3432 22.2524C29.4381 22.2852 29.5251 22.3375 29.5986 22.4059C32.5299 25.0926 33.2748 30.255 33.4331 31.7732C33.4844 32.2168 33.4805 32.665 33.4215 33.1076V33.108ZM26.921 25.1634L26.883 25.1911C26.3761 25.5619 26.0247 26.1076 25.8969 26.7225L25.5587 28.2769L25.1335 26.0324C25.1188 25.9546 25.0873 25.8809 25.0412 25.8165C24.9951 25.752 24.9356 25.6984 24.8667 25.6593C23.3071 24.7742 22.8977 23.7879 22.8217 23.5631V18.8817C24.0232 19.5783 25.3247 20.0859 26.6806 20.3869C26.5936 21.3156 26.6933 22.0894 26.9732 22.7019C26.9851 22.7362 27.0004 22.7692 27.0188 22.8005C27.0822 22.9299 27.156 23.0539 27.2394 23.1714C27.2573 23.1958 27.2724 23.2213 27.2882 23.2463L27.3412 23.3371C27.4999 23.6416 27.5448 23.9928 27.4677 24.3275C27.3907 24.6621 27.1968 24.9584 26.921 25.1629V25.1634ZM37.7846 20.506L36.9954 20.6185L33.2568 21.1509C33.7028 17.6085 32.0797 15.444 31.4114 14.7211L31.6118 10.9103C35.5043 13.6246 37.3975 19.4661 37.7846 20.5055V20.506ZM30.8547 17.9539C31.0444 17.4321 31.1836 16.8933 31.2705 16.3449C31.8746 17.3355 32.5012 18.9912 32.1319 21.3113L30.3016 21.5721C30.1174 21.4104 29.9023 21.2877 29.6694 21.2115C29.4364 21.1353 29.1904 21.1071 28.9462 21.1286C28.5291 21.1632 28.1259 21.2954 27.7691 21.5144C27.7339 21.1997 27.7307 20.8821 27.7596 20.5667C27.7979 20.5683 27.8365 20.5718 27.8747 20.5718C28.3396 20.5737 28.7973 20.4577 29.2051 20.2345C29.6129 20.0114 29.9574 19.6885 30.2064 19.2959C30.4693 18.8726 30.6865 18.4226 30.8544 17.9534L30.8547 17.9539ZM45.341 22.6795L38.699 26.6591L37.7182 21.6183L38.6042 21.4921L40.4285 21.2323C40.5001 21.2229 40.5691 21.1994 40.6316 21.1632C40.694 21.1269 40.7487 21.0787 40.7923 21.0212C40.836 20.9636 40.8678 20.898 40.886 20.8281C40.9041 20.7582 40.9082 20.6854 40.898 20.614C40.8879 20.5425 40.8636 20.4737 40.8266 20.4117C40.7897 20.3496 40.7408 20.2955 40.6828 20.2525C40.6248 20.2095 40.5588 20.1784 40.4887 20.161C40.4186 20.1437 40.3458 20.1404 40.2744 20.1514L38.8905 20.3486C38.2218 18.5294 37.4594 16.7459 36.6064 15.0055L39.5217 12.8964C40.7095 14.4042 43.5256 18.2255 45.3407 22.679L45.341 22.6795ZM40.4395 10.8845L36.0185 14.0824C35.0796 12.8713 34.0774 11.7104 33.0162 10.6047C32.6791 10.2643 32.278 9.99378 31.8361 9.80875C31.3941 9.62372 30.92 9.52782 30.4409 9.52656H30.1197C29.7162 9.52614 29.3294 9.36566 29.044 9.08035C28.7587 8.79503 28.5982 8.40819 28.5978 8.00469C28.598 7.81864 28.672 7.64027 28.8036 7.50871C28.9352 7.37716 29.1135 7.30315 29.2996 7.30294H33.3815C34.3302 7.29838 35.2694 7.49193 36.139 7.87119C37.7628 8.57214 39.2262 9.59755 40.4395 10.8845ZM20.5428 14.6671C20.5385 14.6494 20.5335 14.6319 20.5276 14.6147C20.4115 14.2124 20.3737 13.7915 20.4161 13.3749C20.4293 13.1837 20.5101 13.0034 20.644 12.8663C20.7779 12.7291 20.9562 12.644 21.147 12.6262C21.3302 12.5965 21.5179 12.6328 21.6767 12.7288C21.8355 12.8248 21.9549 12.9742 22.0137 13.1502C22.061 13.2809 22.0983 13.4151 22.1252 13.5516C22.1418 13.6346 22.1775 13.7127 22.2294 13.7795C22.2814 13.8463 22.3482 13.9002 22.4246 13.9368C22.5009 13.9733 22.5847 13.9917 22.6694 13.9903C22.754 13.9889 22.8372 13.9678 22.9123 13.9287C23.0549 13.8505 23.1905 13.7602 23.3176 13.6588C23.735 13.3261 24.0718 12.9034 24.3028 12.4222C24.5338 11.941 24.653 11.4138 24.6515 10.88V10.4822C24.6515 10.267 24.6953 10.0539 24.78 9.85604C24.8648 9.65815 24.9889 9.47952 25.1447 9.33097C25.3005 9.18241 25.4848 9.06701 25.6865 8.99176C25.8882 8.9165 26.1031 8.88296 26.3181 8.89315C26.3901 8.89718 26.4622 8.88693 26.5301 8.86297C26.5981 8.83901 26.6607 8.80183 26.7142 8.75357C26.7678 8.70531 26.8112 8.64692 26.8421 8.58178C26.8729 8.51664 26.8906 8.44603 26.894 8.37403C26.8975 8.30203 26.8866 8.23006 26.8621 8.16228C26.8375 8.0945 26.7998 8.03225 26.7511 7.97912C26.7024 7.92599 26.6437 7.88303 26.5783 7.85272C26.5129 7.82241 26.4421 7.80536 26.3701 7.80253C26.0075 7.78535 25.6452 7.84193 25.3051 7.96885C24.9651 8.09577 24.6543 8.29038 24.3916 8.54091C24.129 8.79144 23.9199 9.09267 23.777 9.42636C23.6342 9.76005 23.5605 10.1193 23.5605 10.4822V10.8796C23.5621 11.4891 23.3384 12.0777 22.9324 12.5324C22.7541 12.1885 22.4732 11.9085 22.1287 11.7313C21.7842 11.5542 21.3932 11.4885 21.0097 11.5434C20.7578 11.5729 20.5144 11.6521 20.2934 11.7765C20.0725 11.9009 19.8784 12.068 19.7227 12.2681C19.1145 11.5587 18.7181 10.6925 18.579 9.76855C18.1807 7.13742 19.8753 4.585 22.5214 3.83116C23.6793 3.52128 24.8842 3.42599 26.0765 3.54998C27.0117 3.65384 27.958 3.59209 28.8718 3.36757C30.1233 3.06163 31.2836 2.46135 32.2563 1.61663C32.3339 2.07695 32.3198 2.54806 32.2148 3.00292C32.1098 3.45777 31.916 3.88742 31.6446 4.26718C31.5752 4.35143 31.5326 4.45456 31.5224 4.56325C31.5121 4.67194 31.5347 4.7812 31.5872 4.87691C31.6397 4.97263 31.7197 5.05041 31.8169 5.10021C31.914 5.15001 32.0239 5.16954 32.1322 5.15628L33.2762 5.01625C33.2354 5.42439 33.145 5.82605 33.007 6.21233H29.2996C28.8241 6.21287 28.3682 6.40203 28.0319 6.73829C27.6957 7.07455 27.5066 7.53045 27.5061 8.00597C27.507 8.69881 27.7827 9.363 28.2727 9.85287C28.7626 10.3427 29.4269 10.6183 30.1197 10.6191C30.1197 10.6191 30.502 10.6226 30.5339 10.6237L30.2909 15.2422C30.2541 16.0395 30.0984 16.8268 29.829 17.5781C29.6875 17.9742 29.5046 18.3542 29.2832 18.7117C29.1034 18.9919 28.8442 19.2121 28.5386 19.3441C28.233 19.4761 27.8949 19.5139 27.5677 19.4527C26.0304 19.1906 24.5549 18.6461 23.2159 17.8467C23.096 17.773 22.9969 17.67 22.9279 17.5473C22.8588 17.4247 22.8222 17.2865 22.8213 17.1458V16.3333C22.8209 16.2549 22.8036 16.1774 22.7707 16.1063C22.7378 16.0351 22.69 15.9718 22.6305 15.9206C22.5711 15.8695 22.5013 15.8317 22.426 15.8097C22.3507 15.7878 22.2716 15.7823 22.194 15.7935C21.971 15.8272 20.8404 15.9235 20.5428 14.6671ZM21.7441 23.7635C21.7588 23.8261 22.1137 25.261 24.107 26.4773L24.9851 31.1146C25.0085 31.2383 25.074 31.3501 25.1704 31.4311C25.2668 31.512 25.3882 31.5572 25.5141 31.5589H25.5216C25.6463 31.5589 25.7671 31.5162 25.8642 31.438C25.9612 31.3597 26.0285 31.2506 26.055 31.1288L26.963 26.953C27.0337 26.6022 27.2319 26.2901 27.5193 26.0768L27.5714 26.0386C27.8804 25.8082 28.1325 25.51 28.3084 25.167C29.5224 27.6682 31.1732 31.8973 31.247 36.5269V41.8742C31.2477 42.4916 31.3915 43.1005 31.6672 43.6529L31.8931 44.1039C32.0089 44.3284 32.0605 44.5804 32.0423 44.8323C32.024 45.0842 31.9366 45.3262 31.7897 45.5316C31.5908 45.789 31.3414 46.0031 31.0569 46.1607H18.066V38.1026C18.8079 37.3015 21.1566 33.9095 20.2062 23.7968L21.7299 23.5338C21.7299 23.5338 21.7347 23.7237 21.7441 23.7635ZM19.0996 23.6936C19.9847 32.762 18.1685 36.1693 17.4556 37.1286C17.2367 36.7874 17.2027 36.2191 17.2131 36.0011C17.4648 32.5066 17.1949 26.6497 17.067 24.2947C17.0584 24.1733 17.088 24.0523 17.1517 23.9486C17.2154 23.8449 17.3099 23.7638 17.4221 23.7167C17.8752 23.5334 18.3609 23.4442 18.8496 23.4545C18.9135 23.4569 18.9743 23.4826 19.0205 23.5268C19.0667 23.5711 19.0951 23.6307 19.1002 23.6944L19.0996 23.6936ZM13.4509 13.609C13.4869 13.5628 13.5348 13.5271 13.5894 13.5059C13.6441 13.4847 13.7034 13.4786 13.7612 13.4884L15.2738 13.7286C15.4308 13.7534 15.5795 13.8158 15.7071 13.9105C15.8347 14.0052 15.9375 14.1294 16.0066 14.2725C17.6356 17.6508 17.3724 20.9449 17.0412 22.6951C17.0332 22.6982 17.0253 22.7008 17.0173 22.704C16.6826 22.8385 16.4013 23.0792 16.2166 23.389L15.3229 23.269C15.1425 23.2449 14.9788 23.1505 14.8675 23.0065C14.7561 22.8624 14.706 22.6803 14.728 22.4996C15.1478 18.9677 14.0781 15.6154 13.4031 13.9316C13.3813 13.8785 13.3742 13.8205 13.3826 13.7637C13.391 13.7069 13.4146 13.6534 13.4509 13.609ZM9.87061 13.7619C10.4024 13.916 10.943 14.0384 11.4893 14.1283C11.7394 14.1675 12.0334 14.2124 12.3641 14.2613C12.3727 14.2871 12.3792 14.3134 12.3894 14.3389C13.0257 15.9263 14.0347 19.0805 13.6435 22.372C13.6435 22.3757 13.6435 22.3792 13.6427 22.3828C12.625 22.3633 11.6079 22.4434 10.6058 22.6218C10.1645 22.7008 9.71878 22.7525 9.27113 22.7768C9.9783 21.7714 10.3672 20.1054 10.2564 18.1706C10.1417 16.1649 9.52666 14.5065 8.66162 13.6079C9.07002 13.599 9.47747 13.6509 9.87061 13.7619ZM6.00342 15.1664C6.30148 14.4406 6.7152 13.9939 7.11029 13.9716C7.1216 13.9716 7.13275 13.9706 7.14406 13.9706C7.99078 13.9706 9.02564 15.7674 9.16726 18.2321C9.30984 20.7297 8.46281 22.6505 7.61003 22.6992C7.21415 22.7231 6.75296 22.325 6.37397 21.6379C6.29512 21.4921 6.22329 21.3426 6.15874 21.1899C6.36423 21.2779 6.58537 21.3234 6.80888 21.3237C6.98281 21.3233 7.15567 21.2965 7.32153 21.2441C7.60866 21.1565 7.86706 20.9936 8.06983 20.7723C8.2726 20.5509 8.41232 20.2792 8.47444 19.9856C8.57169 19.5103 8.60385 19.024 8.57002 18.54C8.55151 18.1002 8.4304 17.6708 8.21636 17.2861C7.88866 16.7153 7.42269 16.3828 6.86846 16.3247C6.79666 16.3162 6.72388 16.322 6.65436 16.3419C6.58484 16.3618 6.51995 16.3952 6.46347 16.4404C6.40699 16.4855 6.36004 16.5414 6.32534 16.6049C6.29064 16.6683 6.26889 16.738 6.26135 16.8099C6.25381 16.8818 6.26062 16.9545 6.2814 17.0237C6.30218 17.093 6.33651 17.1574 6.38239 17.2133C6.42827 17.2692 6.4848 17.3154 6.54869 17.3492C6.61258 17.3831 6.68255 17.4039 6.75455 17.4105C6.94811 17.4308 7.12096 17.5719 7.26943 17.8295C7.39868 18.0676 7.47078 18.3325 7.48004 18.6033C7.50811 18.9877 7.48388 19.3741 7.40803 19.752C7.38529 19.8565 7.33525 19.9532 7.26301 20.0321C7.19078 20.111 7.09892 20.1693 6.9968 20.2012C6.89469 20.233 6.78595 20.2373 6.68166 20.2134C6.57738 20.1896 6.48127 20.1386 6.40312 20.0655C5.76892 19.4739 5.58524 18.6531 5.54159 18.0766C5.50009 17.0854 5.65711 16.096 6.00342 15.1664Z"></path>
  <path d="M26.3612 14.0052C26.4789 14.0052 26.5938 13.9704 26.6916 13.905C26.7894 13.8397 26.8657 13.7468 26.9107 13.6381C26.9557 13.5295 26.9675 13.4099 26.9445 13.2945C26.9216 13.1792 26.8649 13.0732 26.7818 12.99C26.6986 12.9069 26.5926 12.8502 26.4773 12.8273C26.3619 12.8043 26.2423 12.8161 26.1337 12.8611C26.025 12.9061 25.9321 12.9824 25.8668 13.0802C25.8014 13.178 25.7665 13.2929 25.7665 13.4106C25.7665 13.4887 25.7819 13.566 25.8118 13.6382C25.8416 13.7103 25.8855 13.7759 25.9407 13.8311C25.9959 13.8863 26.0615 13.9301 26.1336 13.96C26.2058 13.9899 26.2831 14.0053 26.3612 14.0052ZM28.7951 14.0052C28.9128 14.0053 29.0278 13.9704 29.1256 13.9051C29.2234 13.8398 29.2996 13.7469 29.3447 13.6382C29.3897 13.5296 29.4015 13.41 29.3786 13.2946C29.3557 13.1793 29.299 13.0733 29.2159 12.9901C29.1327 12.9069 29.0267 12.8503 28.9114 12.8273C28.796 12.8043 28.6764 12.8161 28.5678 12.8611C28.4591 12.9061 28.3662 12.9823 28.3008 13.0801C28.2355 13.1779 28.2006 13.2929 28.2006 13.4106C28.2006 13.5682 28.2632 13.7195 28.3747 13.831C28.4862 13.9425 28.6374 14.0052 28.7951 14.0052ZM22.5439 28.4165C22.6615 28.4165 22.7765 28.3816 22.8743 28.3163C22.9721 28.2509 23.0483 28.158 23.0934 28.0494C23.1384 27.9407 23.1501 27.8211 23.1272 27.7057C23.1042 27.5904 23.0476 27.4844 22.9644 27.4012C22.8812 27.3181 22.7752 27.2615 22.6598 27.2385C22.5445 27.2156 22.4249 27.2274 22.3162 27.2724C22.2076 27.3175 22.1147 27.3937 22.0494 27.4915C21.984 27.5894 21.9492 27.7043 21.9492 27.822C21.9492 27.9001 21.9646 27.9774 21.9945 28.0495C22.0244 28.1217 22.0682 28.1872 22.1234 28.2424C22.1786 28.2976 22.2442 28.3414 22.3163 28.3713C22.3885 28.4012 22.4658 28.4165 22.5439 28.4165ZM22.3911 29.9366C22.3911 30.0542 22.426 30.1692 22.4914 30.267C22.5567 30.3648 22.6496 30.441 22.7583 30.486C22.8669 30.5311 22.9865 30.5428 23.1019 30.5199C23.2172 30.4969 23.3232 30.4403 23.4063 30.3571C23.4895 30.274 23.5462 30.168 23.5691 30.0526C23.592 29.9373 23.5803 29.8177 23.5353 29.709C23.4902 29.6004 23.414 29.5075 23.3162 29.4422C23.2184 29.3768 23.1035 29.3419 22.9858 29.3419C22.8281 29.3419 22.6768 29.4046 22.5653 29.5161C22.4538 29.6276 22.3911 29.7789 22.3911 29.9366Z"></path>
</svg>
