<?xml version="1.0" encoding="UTF-8"?>
<svg xmlns="http://www.w3.org/2000/svg" width="51" height="51" viewBox="0 0 51 51">
  <g>
    <path d="M41.0158 10.1468C41.4585 10.1469 41.8913 10.0157 42.2594 9.76983C42.6275 9.52394 42.9145 9.1744 43.084 8.7654C43.2534 8.35641 43.2978 7.90635 43.2115 7.47214C43.1251 7.03793 42.9119 6.63908 42.5989 6.32604C42.2859 6.01299 41.887 5.79982 41.4528 5.71348C41.0186 5.62713 40.5685 5.6715 40.1595 5.84097C39.7505 6.01043 39.401 6.29739 39.1551 6.66553C38.9092 7.03368 38.778 7.46647 38.7781 7.90918C38.7788 8.50242 39.0148 9.07116 39.4343 9.49065C39.8538 9.91013 40.4225 10.1461 41.0158 10.1468ZM41.0158 6.73353C41.2483 6.73342 41.4757 6.80228 41.6691 6.9314C41.8625 7.06052 42.0132 7.2441 42.1023 7.45891C42.1914 7.67373 42.2147 7.91013 42.1694 8.13822C42.1241 8.36631 42.0122 8.57584 41.8478 8.74031C41.6834 8.90478 41.4739 9.01681 41.2458 9.06221C41.0178 9.10762 40.7814 9.08437 40.5665 8.9954C40.3517 8.90643 40.168 8.75575 40.0388 8.5624C39.9096 8.36905 39.8406 8.14173 39.8406 7.90918C39.8405 7.59728 39.9642 7.29808 40.1845 7.07734C40.4049 6.85659 40.7038 6.73236 41.0158 6.73193V6.73353ZM4.91785 5.66943C4.47518 5.66943 4.04245 5.8007 3.67439 6.04663C3.30633 6.29256 3.01946 6.64212 2.85006 7.05108C2.68066 7.46005 2.63633 7.91007 2.72269 8.34423C2.80905 8.77839 3.02222 9.17719 3.33523 9.49021C3.64824 9.80322 4.04704 10.0164 4.4812 10.1027C4.91536 10.1891 5.36538 10.1448 5.77435 9.97538C6.18332 9.80598 6.53287 9.51911 6.7788 9.15104C7.02474 8.78298 7.156 8.35026 7.156 7.90759C7.1553 7.31421 6.91927 6.74533 6.49968 6.32575C6.0801 5.90617 5.51123 5.67014 4.91785 5.66943ZM4.91785 9.08272C4.6853 9.08272 4.45798 9.01375 4.26463 8.88454C4.07128 8.75534 3.9206 8.57169 3.83163 8.35684C3.74266 8.14199 3.71941 7.90557 3.76482 7.6775C3.81022 7.44943 3.92225 7.23995 4.08672 7.07556C4.25119 6.91116 4.46072 6.79923 4.68881 6.75393C4.9169 6.70862 5.1533 6.73198 5.36812 6.82105C5.58293 6.91011 5.76651 7.06088 5.89563 7.25429C6.02474 7.44769 6.09361 7.67504 6.0935 7.90759C6.0935 8.21949 5.96967 8.51863 5.74922 8.73928C5.52878 8.95993 5.22975 9.08403 4.91785 9.08431V9.08272ZM16.4587 7.61434H23.9786C24.1195 7.61434 24.2546 7.55837 24.3542 7.45874C24.4538 7.35911 24.5098 7.22399 24.5098 7.08309C24.5098 6.94219 24.4538 6.80707 24.3542 6.70744C24.2546 6.60781 24.1195 6.55184 23.9786 6.55184H16.4587C16.3178 6.55184 16.1827 6.60781 16.0831 6.70744C15.9834 6.80707 15.9275 6.94219 15.9275 7.08309C15.9275 7.22399 15.9834 7.35911 16.0831 7.45874C16.1827 7.55837 16.3178 7.61434 16.4587 7.61434Z"></path>
    <path d="M49.0668 43.5042H47.7971C47.702 43.3406 47.5716 43.2004 47.4153 43.0938C47.2591 42.9871 47.0809 42.9168 46.894 42.8879V24.5067C47.0809 24.4757 47.2587 24.404 47.4148 24.2966C47.5709 24.1891 47.7014 24.0487 47.7971 23.8851H49.0668C49.5796 23.8851 50.0715 23.6814 50.4342 23.3187C50.7968 22.9561 51.0005 22.4642 51.0005 21.9514C51.0005 21.4385 50.7968 20.9466 50.4342 20.584C50.0715 20.2213 49.5796 20.0176 49.0668 20.0176H47.7971C47.6813 19.8251 47.5177 19.6658 47.3223 19.5551C47.1268 19.4443 46.9061 19.3859 46.6815 19.3854H33.8199V7.61292H36.1043C36.0454 8.59582 36.2831 9.57375 36.7866 10.42C37.29 11.2662 38.036 11.9418 38.9279 12.3591C39.8197 12.7764 40.8164 12.9162 41.7886 12.7605C42.7609 12.6047 43.664 12.1606 44.3809 11.4856C45.0978 10.8106 45.5954 9.93585 45.8094 8.97471C46.0233 8.01356 45.9437 7.01032 45.5808 6.09497C45.2178 5.17962 44.5884 4.39436 43.774 3.84093C42.9596 3.2875 41.9977 2.99142 41.013 2.99104H4.9199C3.93546 2.99066 2.97359 3.28596 2.15895 3.83868C1.34432 4.3914 0.714468 5.17606 0.351036 6.09096C-0.0123956 7.00587 -0.0926565 8.00884 0.120655 8.96989C0.333967 9.93095 0.831016 10.8058 1.54739 11.481C2.26376 12.1563 3.16643 12.6008 4.13841 12.7569C5.11038 12.9131 6.10686 12.7737 6.9987 12.3569C7.89054 11.9401 8.63663 11.265 9.14026 10.4191C9.6439 9.57325 9.88187 8.59562 9.82334 7.61292H12.1077V41.427C12.1077 41.5679 12.1637 41.703 12.2633 41.8026C12.3629 41.9023 12.4981 41.9582 12.639 41.9582H25.6121V42.8879C25.4251 42.9168 25.247 42.9871 25.0907 43.0938C24.9345 43.2004 24.804 43.3406 24.709 43.5042H23.4393C22.9264 43.5042 22.4346 43.7079 22.0719 44.0706C21.7093 44.4332 21.5055 44.9251 21.5055 45.4379C21.5055 45.9508 21.7093 46.4426 22.0719 46.8053C22.4346 47.1679 22.9264 47.3717 23.4393 47.3717H24.7037C24.819 47.5662 24.983 47.7273 25.1796 47.8391C25.3762 47.9509 25.5985 48.0095 25.8246 48.0092H46.6815C46.9076 48.0095 47.1299 47.9509 47.3265 47.8391C47.523 47.7273 47.6871 47.5662 47.8024 47.3717H49.0668C49.5796 47.3717 50.0715 47.1679 50.4342 46.8053C50.7968 46.4426 51.0005 45.9508 51.0005 45.4379C51.0005 44.9251 50.7968 44.4332 50.4342 44.0706C50.0715 43.7079 49.5796 43.5042 49.0668 43.5042ZM46.894 46.3092V46.8085C46.8754 46.8494 46.8456 46.8842 46.8079 46.9087C46.7702 46.9331 46.7264 46.9463 46.6815 46.9467H25.8246C25.7797 46.9463 25.7358 46.9331 25.6982 46.9087C25.6605 46.8842 25.6306 46.8494 25.6121 46.8085V46.3092H25.5908V44.5667H25.6121V44.0673C25.6306 44.0264 25.6605 43.9917 25.6982 43.9672C25.7358 43.9427 25.7797 43.9295 25.8246 43.9292H46.6815C46.7264 43.9295 46.7702 43.9427 46.8079 43.9672C46.8456 43.9917 46.8754 44.0264 46.894 44.0673V44.5667H46.9152V46.3092H46.894ZM23.4393 21.0801H24.5283V22.8226H23.4393C23.2082 22.8226 22.9866 22.7308 22.8232 22.5674C22.6598 22.404 22.568 22.1824 22.568 21.9514C22.568 21.7203 22.6598 21.4987 22.8232 21.3353C22.9866 21.1719 23.2082 21.0801 23.4393 21.0801ZM25.6121 21.0801V20.5807C25.6309 20.5405 25.661 20.5065 25.6987 20.4829C25.7364 20.4594 25.7801 20.4472 25.8246 20.4479H46.6815C46.7259 20.4472 46.7696 20.4594 46.8073 20.4829C46.845 20.5065 46.8751 20.5405 46.894 20.5807V21.0801H46.9152V22.8226H46.894V23.322C46.8763 23.3635 46.8467 23.3989 46.8088 23.4235C46.771 23.4481 46.7266 23.4608 46.6815 23.4601H25.8299C25.7839 23.4619 25.7384 23.4497 25.6995 23.425C25.6605 23.4003 25.6301 23.3644 25.6121 23.322V22.8226H25.5908V21.0801H25.6121ZM23.4924 23.8851H24.709C24.8046 24.0487 24.9352 24.1891 25.0912 24.2966C25.2473 24.404 25.4252 24.4757 25.6121 24.5067V35.7745H23.4924V23.8851ZM49.938 21.9514C49.9379 22.1824 49.8461 22.4039 49.6827 22.5673C49.5193 22.7306 49.2978 22.8225 49.0668 22.8226H47.9777V21.0801H49.0668C49.2976 21.0811 49.5186 21.1732 49.6818 21.3364C49.8449 21.4995 49.9371 21.7206 49.938 21.9514ZM9.21771 6.55042C9.13838 6.55024 9.06001 6.56783 8.98835 6.6019C8.91671 6.63597 8.8536 6.68565 8.80366 6.74731C8.75373 6.80896 8.71824 6.88102 8.69979 6.95818C8.68135 7.03535 8.68043 7.11566 8.69709 7.19323C8.84324 7.97182 8.74565 8.77653 8.41764 9.49762C8.08963 10.2187 7.54717 10.8211 6.86424 11.2225C6.18131 11.624 5.39116 11.805 4.60158 11.7408C3.81199 11.6767 3.06141 11.3706 2.4522 10.8642C1.843 10.3578 1.40483 9.67583 1.19747 8.91127C0.990112 8.14671 1.02365 7.33679 1.29351 6.59199C1.56338 5.84719 2.05643 5.20376 2.70541 4.74948C3.3544 4.29519 4.12772 4.05217 4.9199 4.05354H41.013C41.7746 4.05354 42.519 4.2793 43.1523 4.70228C43.7856 5.12526 44.2792 5.72648 44.5709 6.42995C44.8626 7.13342 44.9392 7.90757 44.791 8.65456C44.6428 9.40154 44.2765 10.0878 43.7384 10.6267C43.2002 11.1656 42.5145 11.5328 41.7677 11.682C41.0209 11.8312 40.2467 11.7557 39.5428 11.465C38.8389 11.1743 38.237 10.6815 37.8132 10.0488C37.3893 9.4161 37.1625 8.67196 37.1615 7.91042C37.1615 7.17464 37.3623 7.04767 37.1243 6.74698C37.0737 6.68597 37.0104 6.63675 36.9389 6.6028C36.8673 6.56884 36.7891 6.55096 36.7099 6.55042H28.2567C28.1158 6.55042 27.9806 6.60639 27.881 6.70602C27.7814 6.80565 27.7254 6.94077 27.7254 7.08167C27.7254 7.22256 27.7814 7.35769 27.881 7.45732C27.9806 7.55695 28.1158 7.61292 28.2567 7.61292H32.7574V19.3854H30.2924V12.3782C30.2924 12.2373 30.2364 12.1022 30.1368 12.0026C30.0372 11.903 29.9021 11.847 29.7612 11.847C29.6203 11.847 29.4851 11.903 29.3855 12.0026C29.2859 12.1022 29.2299 12.2373 29.2299 12.3782V19.3854H26.8924V12.3782C26.8924 12.2373 26.8364 12.1022 26.7368 12.0026C26.6372 11.903 26.5021 11.847 26.3612 11.847C26.2203 11.847 26.0851 11.903 25.9855 12.0026C25.8859 12.1022 25.8299 12.2373 25.8299 12.3782V19.3854C25.6043 19.3848 25.3825 19.4427 25.186 19.5536C24.9895 19.6644 24.8251 19.8243 24.709 20.0176H23.4924V12.3782C23.4924 12.2373 23.4364 12.1022 23.3368 12.0026C23.2372 11.903 23.1021 11.847 22.9612 11.847C22.8203 11.847 22.6851 11.903 22.5855 12.0026C22.4859 12.1022 22.4299 12.2373 22.4299 12.3782V20.3045C22.1479 20.477 21.9149 20.719 21.7533 21.0074C21.5916 21.2957 21.5068 21.6208 21.5068 21.9514C21.5068 22.2819 21.5916 22.607 21.7533 22.8953C21.9149 23.1837 22.1479 23.4257 22.4299 23.5982V35.7745H20.0961V12.3782C20.0961 12.2373 20.0402 12.1022 19.9405 12.0026C19.8409 11.903 19.7058 11.847 19.5649 11.847C19.424 11.847 19.2888 11.903 19.1892 12.0026C19.0896 12.1022 19.0336 12.2373 19.0336 12.3782V35.7745H16.6961V12.3782C16.6961 12.2373 16.6402 12.1022 16.5405 12.0026C16.4409 11.903 16.3058 11.847 16.1649 11.847C16.024 11.847 15.8888 11.903 15.7892 12.0026C15.6896 12.1022 15.6336 12.2373 15.6336 12.3782V35.7745H13.1702V7.08167C13.1702 6.94077 13.1142 6.80565 13.0146 6.70602C12.915 6.60639 12.7799 6.55042 12.639 6.55042H9.21771ZM13.1702 40.8957V36.837H25.6121V40.8957H13.1702ZM26.6746 24.5226H45.8315V42.8667H26.6746V24.5226ZM22.568 45.4379C22.569 45.2071 22.6611 44.9861 22.8243 44.8229C22.9875 44.6598 23.2085 44.5676 23.4393 44.5667H24.5283V46.3092H23.4393C23.2083 46.309 22.9867 46.2172 22.8234 46.0538C22.66 45.8905 22.5682 45.6689 22.568 45.4379ZM49.0668 46.3092H47.9777V44.5667H49.0668C49.2979 44.5667 49.5195 44.6585 49.6828 44.8219C49.8462 44.9852 49.938 45.2068 49.938 45.4379C49.938 45.669 49.8462 45.8906 49.6828 46.054C49.5195 46.2174 49.2979 46.3092 49.0668 46.3092Z"></path>
    <path d="M29.2274 28.4645C29.4075 28.5846 28.4379 28.5495 42.9921 28.5495C43.133 28.5495 43.2681 28.4935 43.3677 28.3939C43.4673 28.2943 43.5233 28.1592 43.5233 28.0183C43.5233 27.8774 43.4673 27.7422 43.3677 27.6426C43.2681 27.543 43.133 27.487 42.9921 27.487C28.499 27.487 29.4138 27.4477 29.2274 27.572C29.1528 27.6202 29.0915 27.6862 29.0491 27.7642C29.0066 27.8422 28.9844 27.9295 28.9844 28.0183C28.9844 28.107 29.0066 28.1944 29.0491 28.2723C29.0915 28.3503 29.1528 28.4164 29.2274 28.4645ZM29.2274 32.1992C29.4075 32.3193 28.4379 32.2842 42.9921 32.2842C43.133 32.2842 43.2681 32.2282 43.3677 32.1286C43.4673 32.029 43.5233 31.8938 43.5233 31.7529C43.5233 31.6121 43.4673 31.4769 43.3677 31.3773C43.2681 31.2777 43.133 31.2217 42.9921 31.2217C28.499 31.2217 29.4138 31.1824 29.2274 31.3067C29.1528 31.3549 29.0915 31.4209 29.0491 31.4989C29.0066 31.5768 28.9844 31.6642 28.9844 31.7529C28.9844 31.8417 29.0066 31.9291 29.0491 32.007C29.0915 32.085 29.1528 32.151 29.2274 32.1992ZM29.2274 35.9286C29.4138 36.0529 28.4666 36.0136 42.9921 36.0136C43.133 36.0136 43.2681 35.9576 43.3677 35.858C43.4673 35.7583 43.5233 35.6232 43.5233 35.4823C43.5233 35.3414 43.4673 35.2063 43.3677 35.1067C43.2681 35.007 43.133 34.9511 42.9921 34.9511C28.499 34.9511 29.4138 34.9118 29.2274 35.0361C29.1528 35.0842 29.0915 35.1503 29.0491 35.2283C29.0066 35.3062 28.9844 35.3936 28.9844 35.4823C28.9844 35.5711 29.0066 35.6584 29.0491 35.7364C29.0915 35.8143 29.1528 35.8804 29.2274 35.9286ZM38.8696 38.6804H33.6314C33.4905 38.6804 33.3554 38.7364 33.2558 38.836C33.1562 38.9357 33.1002 39.0708 33.1002 39.2117C33.1002 39.3526 33.1562 39.4877 33.2558 39.5873C33.3554 39.687 33.4905 39.7429 33.6314 39.7429H38.8696C39.0105 39.7429 39.1456 39.687 39.2452 39.5873C39.3448 39.4877 39.4008 39.3526 39.4008 39.2117C39.4008 39.0708 39.3448 38.9357 39.2452 38.836C39.1456 38.7364 39.0105 38.6804 38.8696 38.6804Z"></path>
  </g>
</svg>
