<?xml version="1.0" encoding="UTF-8"?>
<svg xmlns="http://www.w3.org/2000/svg" width="51" height="51" viewBox="0 0 51 51">
  <path fill-rule="evenodd" clip-rule="evenodd" d="M45.8564 34.4958C45.8564 35.7619 46.8834 36.7871 48.1488 36.7871H50.2528C50.5289 36.7871 50.7528 36.5633 50.7528 36.2871V31.249C50.7528 30.9728 50.5289 30.749 50.2528 30.749H48.1488C46.883 30.749 45.8564 31.7757 45.8564 33.0413V34.4958ZM48.1488 35.7871C47.435 35.7871 46.8564 35.2088 46.8564 34.4958V33.0413C46.8564 32.328 47.4354 31.749 48.1488 31.749H49.7528V35.7871H48.1488Z"></path>
  <path fill-rule="evenodd" clip-rule="evenodd" d="M0.578816 36.5923C0.673478 36.7152 0.819779 36.7871 0.974858 36.7871H3.80037C5.06692 36.7871 6.09273 35.7617 6.09273 34.4958V33.0413C6.09273 31.7758 5.0673 30.749 3.80037 30.749H2.30235C2.07527 30.749 1.87671 30.902 1.81885 31.1216L0.49136 36.1597C0.451847 36.3097 0.484154 36.4695 0.578816 36.5923ZM1.62367 35.7871L2.68767 31.749H3.80037C4.51466 31.749 5.09273 32.3277 5.09273 33.0413V34.4958C5.09273 35.209 4.51504 35.7871 3.80037 35.7871H1.62367Z"></path>
  <path fill-rule="evenodd" clip-rule="evenodd" d="M8.26435 27.315C8.26436 27.3149 8.26435 27.315 8.26435 27.315L10.3466 19.4132C10.3639 19.3473 10.4026 19.2887 10.4565 19.247C10.5105 19.2054 10.5767 19.1828 10.6448 19.1827H18.1558C18.6207 19.1827 18.9975 19.5595 18.9975 20.0243V27.5296C18.9975 27.9943 18.6207 28.3711 18.1558 28.3711H9.07815C8.52629 28.3711 8.12377 27.8488 8.26435 27.315ZM7.29734 27.0602C6.98972 28.2281 7.87034 29.3711 9.07815 29.3711H18.1558C19.1729 29.3711 19.9975 28.5466 19.9975 27.5296V20.0243C19.9975 19.0073 19.173 18.1827 18.1558 18.1827H10.6442C10.3553 18.183 10.0741 18.2789 9.84539 18.4555C9.61672 18.6321 9.4529 18.8793 9.37949 19.1587L7.29734 27.0602Z"></path>
  <path fill-rule="evenodd" clip-rule="evenodd" d="M25.2215 28.3711C24.7567 28.3711 24.3799 27.9943 24.3799 27.5295V20.0243C24.3799 19.5596 24.7566 19.1828 25.2215 19.1828H32.4557C32.5237 19.1828 32.5898 19.2054 32.6436 19.2469C32.6974 19.2884 32.736 19.3466 32.7533 19.4123L33.3161 21.5481C33.3864 21.8151 33.6599 21.9746 33.9269 21.9042C34.194 21.8339 34.3534 21.5604 34.2831 21.2933L33.7204 19.1577C33.6469 18.8785 33.483 18.6314 33.2543 18.455C33.0257 18.2787 32.7451 18.1829 32.4563 18.1828H25.2215C24.2044 18.1828 23.3799 19.0073 23.3799 20.0243V27.5295C23.3799 28.5466 24.2044 29.3711 25.2215 29.3711H34.0221C35.2493 29.3711 36.1076 28.2048 35.7966 27.0381L35.792 27.0209L35.7916 27.0191L35.0628 24.2527C34.9924 23.9857 34.719 23.8263 34.4519 23.8966C34.1849 23.967 34.0254 24.2405 34.0958 24.5075L34.825 27.2756L34.8255 27.2774L34.8304 27.2957C34.9772 27.8466 34.5727 28.3711 34.0221 28.3711H25.2215Z"></path>
  <path fill-rule="evenodd" clip-rule="evenodd" d="M11.0698 41.0047C11.0698 42.687 12.4336 44.0508 14.1159 44.0508C15.7983 44.0508 17.162 42.687 17.162 41.0047C17.162 39.3224 15.7983 37.9586 14.1159 37.9586C12.4336 37.9586 11.0698 39.3224 11.0698 41.0047ZM14.1159 43.0508C12.9859 43.0508 12.0698 42.1347 12.0698 41.0047C12.0698 39.8746 12.9859 38.9586 14.1159 38.9586C15.246 38.9586 16.162 39.8746 16.162 41.0047C16.162 42.1347 15.246 43.0508 14.1159 43.0508Z"></path>
  <path fill-rule="evenodd" clip-rule="evenodd" d="M32.3147 41.0047C32.3147 42.687 33.6785 44.0508 35.3608 44.0508C37.0431 44.0508 38.4069 42.687 38.4069 41.0047C38.4069 39.3224 37.0431 37.9586 35.3608 37.9586C33.6785 37.9586 32.3147 39.3224 32.3147 41.0047ZM35.3608 43.0508C34.2308 43.0508 33.3147 42.1347 33.3147 41.0047C33.3147 39.8746 34.2308 38.9586 35.3608 38.9586C36.4908 38.9586 37.4069 39.8746 37.4069 41.0047C37.4069 42.1347 36.4908 43.0508 35.3608 43.0508Z"></path>
  <path fill-rule="evenodd" clip-rule="evenodd" d="M7.52888 13.9199C6.44663 13.9199 5.56934 13.0427 5.56934 11.9605V8.40513C5.56934 7.32301 6.44664 6.44568 7.52888 6.44568H12.0994V13.9199H7.52888ZM4.56934 11.9605C4.56934 13.595 5.8944 14.9199 7.52888 14.9199H12.5994C12.8755 14.9199 13.0994 14.6961 13.0994 14.4199V5.94568C13.0994 5.66954 12.8755 5.44568 12.5994 5.44568H7.52888C5.89439 5.44568 4.56934 6.7707 4.56934 8.40513V11.9605Z"></path>
  <path fill-rule="evenodd" clip-rule="evenodd" d="M12.0996 14.4199C12.0996 14.6961 12.3235 14.9199 12.5996 14.9199H17.2592C17.5354 14.9199 17.7592 14.6961 17.7592 14.4199V5.94568C17.7592 4.38279 16.4923 3.11582 14.9294 3.11582C13.3666 3.11582 12.0996 4.3828 12.0996 5.94568V14.4199ZM13.0996 13.9199V5.94568C13.0996 4.93506 13.9189 4.11582 14.9294 4.11582C15.94 4.11582 16.7592 4.93507 16.7592 5.94568V13.9199H13.0996Z"></path>
  <path fill-rule="evenodd" clip-rule="evenodd" d="M16.759 14.4199C16.759 14.6961 16.9829 14.9199 17.259 14.9199H25.1014C25.3775 14.9199 25.6014 14.6961 25.6014 14.4199V5.94568C25.6014 5.66954 25.3775 5.44568 25.1014 5.44568H17.259C16.9829 5.44568 16.759 5.66954 16.759 5.94568V14.4199ZM17.759 13.9199V6.44568H24.6014V13.9199H17.759Z"></path>
  <path fill-rule="evenodd" clip-rule="evenodd" d="M24.6016 14.4199C24.6016 14.6961 24.8254 14.9199 25.1016 14.9199H29.7612C30.0373 14.9199 30.2612 14.6961 30.2612 14.4199V5.94568C30.2612 4.38279 28.9942 3.11582 27.4313 3.11582C25.8684 3.11582 24.6016 4.38282 24.6016 5.94568V14.4199ZM25.6016 13.9199V5.94568C25.6016 4.93504 26.4207 4.11582 27.4313 4.11582C28.4419 4.11582 29.2612 4.93507 29.2612 5.94568V13.9199H25.6016Z"></path>
  <path fill-rule="evenodd" clip-rule="evenodd" d="M36.791 11.9609C36.791 12.2371 37.0149 12.4609 37.291 12.4609H40.6825C41.9404 12.4609 42.9601 11.4412 42.9601 10.1833C42.9601 8.92542 41.9404 7.90569 40.6825 7.90569H37.291C37.0149 7.90569 36.791 8.12955 36.791 8.40569V11.9609ZM37.791 11.4609V8.90569H40.6825C41.3881 8.90569 41.9601 9.47771 41.9601 10.1833C41.9601 10.8889 41.3881 11.4609 40.6825 11.4609H37.791Z"></path>
  <path fill-rule="evenodd" clip-rule="evenodd" d="M29.261 14.4199C29.261 14.6961 29.4848 14.9199 29.761 14.9199H34.8315C36.466 14.9199 37.791 13.595 37.791 11.9605V8.40513C37.791 6.7707 36.466 5.44568 34.8315 5.44568H29.761C29.4848 5.44568 29.261 5.66954 29.261 5.94568V14.4199ZM30.261 13.9199V6.44568H34.8315C35.9137 6.44568 36.791 7.32301 36.791 8.40513V11.9605C36.791 13.0427 35.9137 13.9199 34.8315 13.9199H30.261Z"></path>
  <path fill-rule="evenodd" clip-rule="evenodd" d="M7.23584 41.0046C7.23584 44.8044 10.3162 47.8848 14.116 47.8848C17.9158 47.8848 20.9962 44.8044 20.9962 41.0046C20.9962 37.2048 17.9158 34.1244 14.116 34.1244C10.3162 34.1244 7.23584 37.2048 7.23584 41.0046ZM14.116 46.8848C10.8685 46.8848 8.23584 44.2521 8.23584 41.0046C8.23584 37.7571 10.8685 35.1244 14.116 35.1244C17.3635 35.1244 19.9962 37.7571 19.9962 41.0046C19.9962 44.2521 17.3635 46.8848 14.116 46.8848Z"></path>
  <path fill-rule="evenodd" clip-rule="evenodd" d="M1.34781 36.8327C1.34784 36.8326 1.34778 36.8328 1.34781 36.8327L1.45832 36.4151L2.78595 31.3765L3.76729 27.6525C3.83766 27.3855 3.67824 27.112 3.41121 27.0416C3.14418 26.9712 2.87067 27.1306 2.80031 27.3977L1.81896 31.1217L0.380936 36.5774C-0.286037 39.1098 1.62328 41.5898 4.24304 41.5898H7.73792C7.87144 41.5898 7.99942 41.5364 8.09334 41.4415C8.18725 41.3466 8.2393 41.2181 8.23789 41.0846C8.23769 41.0652 8.23702 41.0463 8.2366 41.0341L8.23647 41.0303C8.23598 41.0161 8.23583 41.0097 8.23583 41.0051C8.23583 37.7575 10.8685 35.1249 14.116 35.1249C17.3635 35.1249 19.9961 37.7575 19.9961 41.0051C19.9961 41.0248 19.996 41.0263 19.9956 41.0287C19.9953 41.0318 19.9947 41.0365 19.994 41.0828C19.9921 41.2166 20.044 41.3456 20.1379 41.4409C20.2319 41.5362 20.3601 41.5898 20.494 41.5898H28.9827C29.1166 41.5898 29.2448 41.5362 29.3388 41.4409C29.4327 41.3456 29.4846 41.2166 29.4827 41.0828C29.4821 41.0402 29.4815 41.0338 29.4811 41.0294C29.4808 41.0258 29.4806 41.0236 29.4806 41.0051C29.4806 37.7575 32.1132 35.1249 35.3607 35.1249C38.6082 35.1249 41.2409 37.7575 41.2409 41.0051C41.2409 41.0097 41.2407 41.0161 41.2402 41.0303L41.2401 41.0341C41.2397 41.0462 41.239 41.0652 41.2388 41.0846C41.2374 41.2181 41.2894 41.3466 41.3834 41.4415C41.4773 41.5364 41.6053 41.5898 41.7388 41.5898H46.7595C48.9651 41.5898 50.7529 39.8019 50.7529 37.5955V31.2491C50.7529 29.0436 48.9651 27.2556 46.7595 27.2556H41.6271C41.2359 27.2555 40.8556 27.126 40.5458 26.8872C40.2359 26.6483 40.0138 26.3136 39.9141 25.9353L37.8427 18.0728C37.1983 15.6254 34.9851 13.9204 32.4561 13.9204H10.6442C8.11412 13.9204 5.90196 15.6254 5.25754 18.0728L3.58772 24.4094C3.51735 24.6764 3.67677 24.9499 3.9438 25.0203C4.21083 25.0907 4.48434 24.9312 4.5547 24.6642L6.22455 18.3275C6.75333 16.3193 8.56839 14.9204 10.6442 14.9204H32.4561C34.5309 14.9204 36.3469 16.3193 36.8757 18.3274L38.9471 26.1901C39.1031 26.782 39.4505 27.3056 39.9353 27.6792C40.4201 28.0528 41.0149 28.2555 41.627 28.2556H46.7595C48.4127 28.2556 49.7529 29.5959 49.7529 31.2491V37.5955C49.7529 39.2498 48.4127 40.5898 46.7595 40.5898H42.2285C42.0139 36.9834 39.0211 34.1249 35.3607 34.1249C31.7003 34.1249 28.7077 36.9834 28.493 40.5898H20.9838C20.7691 36.9834 17.7764 34.1249 14.116 34.1249C10.4556 34.1249 7.46284 36.9834 7.24815 40.5898H4.24304C2.2795 40.5898 0.848019 38.7312 1.34781 36.8327Z"></path>
  <path fill-rule="evenodd" clip-rule="evenodd" d="M28.4805 41.0046C28.4805 44.8044 31.5608 47.8848 35.3606 47.8848C39.1604 47.8848 42.2408 44.8044 42.2408 41.0046C42.2408 37.2048 39.1604 34.1244 35.3606 34.1244C31.5608 34.1244 28.4805 37.2048 28.4805 41.0046ZM35.3606 46.8848C32.1131 46.8848 29.4805 44.2521 29.4805 41.0046C29.4805 37.7571 32.1131 35.1244 35.3606 35.1244C38.6082 35.1244 41.2408 37.7571 41.2408 41.0046C41.2408 44.2521 38.6082 46.8848 35.3606 46.8848Z"></path>
</svg>
