<?xml version="1.0" encoding="UTF-8"?>
<svg xmlns="http://www.w3.org/2000/svg" width="60" height="50" viewBox="0 0 50 30">
  <path d="M2.5 30H47.5C48.163 30 48.7989 29.7742 49.2678 29.3724C49.7366 28.9705 50 28.4255 50 27.8571V27.1429C50 26.5745 49.7366 26.0295 49.2678 25.6276C48.7989 25.2258 48.163 25 47.5 25H41.4492C42.037 24.3912 42.3961 23.6442 42.4792 22.8571H43.3233C44.53 22.8572 45.714 22.5765 46.7491 22.0451C47.7843 21.5136 48.6317 20.7513 49.2011 19.8395C49.7706 18.9276 50.0406 17.9004 49.9824 16.8674C49.9242 15.8343 49.5401 14.8342 48.8708 13.9736L39.9817 2.545C39.3738 1.76137 38.5491 1.11886 37.5811 0.674797C36.6132 0.230731 35.532 -0.00109223 34.4342 3.8689e-06H2.5C1.83696 3.8689e-06 1.20107 0.225769 0.732233 0.627632C0.263392 1.0295 0 1.57454 0 2.14286L0 22.1429C0 22.3323 0.0877974 22.514 0.244078 22.6479C0.400358 22.7819 0.61232 22.8571 0.833333 22.8571H22.5208C22.6042 23.6443 22.9625 24.3914 23.5508 25H2.5C1.83696 25 1.20107 25.2258 0.732233 25.6276C0.263392 26.0295 0 26.5745 0 27.1429L0 27.8571C0 28.4255 0.263392 28.9705 0.732233 29.3724C1.20107 29.7742 1.83696 30 2.5 30ZM37.9167 25C37.2172 24.9983 36.5418 24.7808 36.014 24.3873C35.4863 23.9939 35.1414 23.4507 35.0425 22.8571H40.7925C40.6936 23.4509 40.3485 23.9943 39.8203 24.3878C39.2922 24.7813 38.6164 24.9986 37.9167 25ZM33.3542 22.8571C33.4375 23.6443 33.7958 24.3914 34.3842 25H30.6158C31.2037 24.3912 31.5628 23.6442 31.6458 22.8571H33.3542ZM44.8883 11.4286H33.3333C33.1123 11.4286 32.9004 11.3533 32.7441 11.2194C32.5878 11.0854 32.5 10.9037 32.5 10.7143V5.71429C32.5 5.52485 32.5878 5.34317 32.7441 5.20921C32.9004 5.07526 33.1123 5 33.3333 5H39.8883L44.8883 11.4286ZM1.66667 16.4286H4.16667V17.1429C4.16667 17.7112 4.43006 18.2562 4.8989 18.6581C5.36774 19.06 6.00363 19.2857 6.66667 19.2857H12.5C13.163 19.2857 13.7989 19.06 14.2678 18.6581C14.7366 18.2562 15 17.7112 15 17.1429V16.4286H34.1667C34.3877 16.4286 34.5996 16.3533 34.7559 16.2194C34.9122 16.0854 35 15.9037 35 15.7143C35 15.5248 34.9122 15.3432 34.7559 15.2092C34.5996 15.0753 34.3877 15 34.1667 15H15V5.71429C15 5.14597 14.7366 4.60092 14.2678 4.19906C13.7989 3.7972 13.163 3.57143 12.5 3.57143H6.66667C6.00363 3.57143 5.36774 3.7972 4.8989 4.19906C4.43006 4.60092 4.16667 5.14597 4.16667 5.71429V15H1.66667V2.14286C1.66667 1.95342 1.75446 1.77174 1.91074 1.63778C2.06702 1.50383 2.27899 1.42858 2.5 1.42858H34.4342C35.2575 1.42781 36.0682 1.60168 36.794 1.9347C37.5199 2.26771 38.1383 2.74952 38.5942 3.33715L38.7767 3.57143H33.3333C32.6703 3.57143 32.0344 3.7972 31.5656 4.19906C31.0967 4.60092 30.8333 5.14597 30.8333 5.71429V10.7143C30.8333 11.2826 31.0967 11.8277 31.5656 12.2295C32.0344 12.6314 32.6703 12.8571 33.3333 12.8571H46L47.4842 14.7657C47.5442 14.8414 47.5883 14.9221 47.6417 15H38.3333C38.1123 15 37.9004 15.0753 37.7441 15.2092C37.5878 15.3432 37.5 15.5248 37.5 15.7143C37.5 15.9037 37.5878 16.0854 37.7441 16.2194C37.9004 16.3533 38.1123 16.4286 38.3333 16.4286H48.26C48.3792 17.0433 48.3409 17.673 48.1478 18.2738C47.9547 18.8746 47.6114 19.4322 47.1417 19.9079C46.6721 20.3836 46.0872 20.766 45.4279 21.0286C44.7685 21.2912 44.0504 21.4277 43.3233 21.4286H1.66667V16.4286ZM13.3333 17.1429C13.3333 17.3323 13.2455 17.514 13.0893 17.6479C12.933 17.7819 12.721 17.8571 12.5 17.8571H6.66667C6.44565 17.8571 6.23369 17.7819 6.07741 17.6479C5.92113 17.514 5.83333 17.3323 5.83333 17.1429V5.71429C5.83333 5.52485 5.92113 5.34317 6.07741 5.20921C6.23369 5.07526 6.44565 5 6.66667 5H12.5C12.721 5 12.933 5.07526 13.0893 5.20921C13.2455 5.34317 13.3333 5.52485 13.3333 5.71429V17.1429ZM24.2092 22.8571H29.9592C29.8629 23.4521 29.5188 23.9971 28.9904 24.3916C28.462 24.786 27.7849 25.0033 27.0842 25.0033C26.3834 25.0033 25.7063 24.786 25.1779 24.3916C24.6495 23.9971 24.3054 23.4521 24.2092 22.8571ZM1.66667 27.1429C1.66667 26.9534 1.75446 26.7717 1.91074 26.6378C2.06702 26.5038 2.27899 26.4286 2.5 26.4286H47.5C47.721 26.4286 47.933 26.5038 48.0893 26.6378C48.2455 26.7717 48.3333 26.9534 48.3333 27.1429V27.8571C48.3333 28.0466 48.2455 28.2283 48.0893 28.3622C47.933 28.4962 47.721 28.5714 47.5 28.5714H2.5C2.27899 28.5714 2.06702 28.4962 1.91074 28.3622C1.75446 28.2283 1.66667 28.0466 1.66667 27.8571V27.1429Z"></path>
  <path d="M25.8333 3.57141H20C19.337 3.57141 18.7011 3.79718 18.2322 4.19904C17.7634 4.6009 17.5 5.14595 17.5 5.71427V10.7143C17.5 11.2826 17.7634 11.8276 18.2322 12.2295C18.7011 12.6314 19.337 12.8571 20 12.8571H25.8333C26.4964 12.8571 27.1323 12.6314 27.6011 12.2295C28.0699 11.8276 28.3333 11.2826 28.3333 10.7143V5.71427C28.3333 5.14595 28.0699 4.6009 27.6011 4.19904C27.1323 3.79718 26.4964 3.57141 25.8333 3.57141ZM26.6667 10.7143C26.6667 10.9037 26.5789 11.0854 26.4226 11.2193C26.2663 11.3533 26.0543 11.4286 25.8333 11.4286H20C19.779 11.4286 19.567 11.3533 19.4107 11.2193C19.2545 11.0854 19.1667 10.9037 19.1667 10.7143V5.71427C19.1667 5.52483 19.2545 5.34315 19.4107 5.20919C19.567 5.07524 19.779 4.99998 20 4.99998H25.8333C26.0543 4.99998 26.2663 5.07524 26.4226 5.20919C26.5789 5.34315 26.6667 5.52483 26.6667 5.71427V10.7143ZM10.8333 6.42855H8.33333C8.11232 6.42855 7.90036 6.50381 7.74408 6.63776C7.5878 6.77172 7.5 6.9534 7.5 7.14284C7.5 7.33228 7.5878 7.51396 7.74408 7.64792C7.90036 7.78187 8.11232 7.85713 8.33333 7.85713H10.8333C11.0543 7.85713 11.2663 7.78187 11.4226 7.64792C11.5789 7.51396 11.6667 7.33228 11.6667 7.14284C11.6667 6.9534 11.5789 6.77172 11.4226 6.63776C11.2663 6.50381 11.0543 6.42855 10.8333 6.42855ZM10.8333 9.2857H8.33333C8.11232 9.2857 7.90036 9.36095 7.74408 9.49491C7.5878 9.62886 7.5 9.81054 7.5 9.99998C7.5 10.1894 7.5878 10.3711 7.74408 10.5051C7.90036 10.639 8.11232 10.7143 8.33333 10.7143H10.8333C11.0543 10.7143 11.2663 10.639 11.4226 10.5051C11.5789 10.3711 11.6667 10.1894 11.6667 9.99998C11.6667 9.81054 11.5789 9.62886 11.4226 9.49491C11.2663 9.36095 11.0543 9.2857 10.8333 9.2857Z"></path>
</svg>
