<svg xmlns="http://www.w3.org/2000/svg" width="26" height="26" viewBox="0 0 26 26"><g clip-path="url(#clip0_1527_1239)"><path fill-rule="evenodd" clip-rule="evenodd" d="M8.62305 24.3704H12.7484V19.413H8.62305V24.3704ZM9.86416 20.2592H11.5143C11.6765 20.2592 11.8034 20.3932 11.8034 20.5483C11.8034 20.7105 11.6694 20.8375 11.5143 20.8375H9.86416C9.70197 20.8375 9.57504 20.7035 9.57504 20.5483C9.56799 20.3932 9.70197 20.2592 9.86416 20.2592ZM9.86416 21.5991H11.5143C11.6765 21.5991 11.8034 21.733 11.8034 21.8882C11.8034 22.0504 11.6694 22.1773 11.5143 22.1773H9.86416C9.70197 22.1773 9.57504 22.0433 9.57504 21.8882C9.56799 21.733 9.70197 21.5991 9.86416 21.5991ZM9.86416 22.9389H11.5143C11.6765 22.9389 11.8034 23.0729 11.8034 23.228C11.8034 23.3902 11.6694 23.5171 11.5143 23.5171H9.86416C9.70197 23.5171 9.57504 23.3832 9.57504 23.228C9.56799 23.0658 9.70197 22.9389 9.86416 22.9389Z"></path><path fill-rule="evenodd" clip-rule="evenodd" d="M20.0694 16.9308C19.8226 16.557 19.1033 15.6121 17.8199 14.9562C17.2558 14.6742 16.7128 14.4979 16.205 14.4062L13.3279 19.2014V24.6595C13.3279 24.8217 13.1939 24.9487 13.0388 24.9487H8.33523C8.17304 24.9487 8.04611 24.8147 8.04611 24.6595V19.2014L5.19718 14.4485C4.75291 14.5472 4.27339 14.7094 3.78682 14.9562C2.49634 15.6121 1.78411 16.557 1.53729 16.9308C1.24112 17.3821 1.02251 17.8545 0.832113 18.468C0.112829 20.7599 0.0070518 24.314 0 26.0064H3.70925V21.0772C3.70925 20.915 3.84323 20.7881 3.99837 20.7881C4.16056 20.7881 4.2875 20.9221 4.2875 21.0772V26.0064H17.6648V21.0772C17.6648 20.915 17.7988 20.7881 17.9539 20.7881C18.1161 20.7881 18.243 20.9221 18.243 21.0772V26.0064H21.5856C21.5785 24.314 21.4798 20.7599 20.7676 18.468C20.5913 17.8545 20.3727 17.3821 20.0694 16.9308Z"></path><path fill-rule="evenodd" clip-rule="evenodd" d="M12.8765 18.8278L15.5843 14.3146C15.3234 14.2934 15.0837 14.2864 14.8792 14.2934L10.9019 17.8405C10.7891 17.9392 10.6199 17.9392 10.507 17.8335L6.73433 14.2934C6.46636 14.2864 6.15609 14.3005 5.81055 14.3428L8.50434 18.8348H12.8765V18.8278Z"></path><path fill-rule="evenodd" clip-rule="evenodd" d="M12.3742 13.1228C12.1415 13.2286 11.8665 13.3344 11.5421 13.4119C11.3306 13.4613 10.9921 13.5177 10.569 13.5177C10.2728 13.5177 9.94137 13.4895 9.58173 13.4119C9.41248 13.3767 9.09515 13.2921 8.7073 13.1158C8.7214 13.2074 8.72846 13.3132 8.72141 13.4402C8.7073 14.096 8.47459 14.6813 8.31945 14.9916L10.6959 17.227L12.9102 15.2525C12.6563 14.8012 12.3742 14.1453 12.3601 13.4049C12.3601 13.2991 12.3672 13.2074 12.3742 13.1228ZM15.068 5.5915C14.9129 5.28827 14.6308 4.72413 14.0455 3.98369C13.7987 3.67341 13.7 3.56763 13.6295 3.49711C13.566 3.43365 13.3897 3.27146 13.1429 3.09516L13.1288 3.08811C13.1217 3.08106 13.1147 3.08106 13.1076 3.07401C12.9525 3.28556 12.7691 3.4548 12.5505 3.58879C12.0358 3.91317 11.5139 3.89907 11.0979 3.88496H11.0697C11.0556 3.88496 9.70866 3.85676 8.27009 3.95548C7.22642 4.026 6.90909 4.15998 6.67638 4.28692C6.46483 4.4068 6.06287 4.6254 5.87248 5.04851C5.78785 5.23186 5.7667 5.40815 5.74554 5.54214C5.73849 5.6056 5.73144 5.66202 5.71734 5.71138C5.68208 5.83126 5.62566 5.89473 5.5622 5.92999C4.92048 6.50823 4.94869 7.16405 5.02626 7.50254C5.16024 8.10899 5.62566 8.63083 6.1757 8.79302C6.28853 8.82828 6.3661 8.91995 6.38021 9.03278C6.41547 9.2937 6.50009 9.7168 6.61997 10.0553C6.99371 11.106 7.68479 11.7477 7.96686 11.9804C8.6932 12.5728 9.41953 12.7773 9.69455 12.8408C10.4914 13.017 11.1472 12.8972 11.394 12.8408C12.064 12.6856 12.5153 12.3753 12.7057 12.2413C12.8467 12.1426 13.2064 11.8747 13.573 11.4445C14.109 10.8098 14.4898 9.98477 14.7013 8.98342C14.7295 8.86354 14.8212 8.77891 14.9411 8.75776C15.4629 8.67314 15.9707 7.91154 16.0271 7.13584C16.0482 6.79736 15.9989 6.19795 15.3924 5.9864C15.3289 5.9723 15.2725 5.94409 15.2302 5.89473C15.1879 5.83126 15.1456 5.74664 15.068 5.5915Z"></path><path fill-rule="evenodd" clip-rule="evenodd" d="M5.402 4.71715C5.68407 4.18121 6.1636 3.91325 6.40336 3.78631C6.763 3.58886 7.18611 3.45488 8.23683 3.38436C9.7036 3.28564 11.0787 3.31384 11.0928 3.31384H11.121C11.4948 3.3209 11.8826 3.335 12.2493 3.10229C12.4397 2.98241 12.6019 2.81317 12.7359 2.60161C12.7852 2.51699 12.8628 2.46058 12.9615 2.43942C12.9897 2.43237 13.0179 2.43237 13.0391 2.43237C13.1872 2.43237 13.3282 2.51699 13.4693 2.61571L13.4834 2.62277C13.7584 2.81317 13.9558 2.99651 14.0475 3.08113C14.1462 3.17986 14.2661 3.30679 14.5129 3.62412C14.9925 4.23058 15.2816 4.73126 15.4649 5.06974C15.5778 4.78062 15.6906 4.43508 15.7117 4.29404C15.7611 3.9344 15.7823 3.77221 15.7399 3.58886C15.6694 3.27858 15.5002 3.06703 15.3803 2.92599C15.2322 2.7497 15.0982 2.64392 14.8303 2.44647C14.6328 2.29838 14.52 2.22787 14.4283 2.1785C14.3155 2.11504 14.2168 2.05157 14.0828 1.91053C13.8571 1.67782 13.7372 1.45217 13.568 1.12778C13.4975 0.9938 13.4552 0.895075 13.4199 0.817505C13.3705 0.697624 13.3494 0.655314 13.2859 0.584796C13.2154 0.507226 13.1026 0.401449 12.8346 0.295672C12.348 0.0982211 11.8615 0.0770657 11.4031 0.0911693C10.7614 0.105273 10.296 0.126428 9.60488 0.267464C8.73751 0.443759 7.55985 0.690573 6.5726 1.64257C6.00141 2.19966 5.73344 2.7638 5.66292 2.92599C5.52893 3.24333 5.31738 3.89914 5.40905 4.68894C5.402 4.70305 5.402 4.7101 5.402 4.71715ZM20.0768 2.12209V0.4085C20.0768 0.246309 19.9428 0.119376 19.7877 0.119376C19.6255 0.119376 19.4986 0.253361 19.4986 0.4085V13.2357C19.4986 13.3979 19.6325 13.5249 19.7877 13.5249C19.9499 13.5249 20.0768 13.3909 20.0768 13.2357V6.68461H26.0003L20.0768 2.12209Z"></path></g></svg>